<svg version="1.1" id="Слой_1" xmlns="http://www.w3.org/2000/svg" x="0" y="0" viewBox="0 0 1066.64 1054.65" style="enable-background:new 0 0 1066.64 1054.65" xml:space="preserve"><style>.st0{fill:#ffe6ca}.st1{fill:#edb883}.st2{fill:#bf7328}.st3{fill:#fff1e0}.st5{fill:#ff8400}.st6{fill:#e8bbff}.st7{fill:#5b2489}</style><path class="st0" d="M486.34 956.77c-21.26-41.17-95.37-103.44-192.33-157.87-82.66-46.4-161.52-75.65-211.62-81.24-29.13-8.81-59.73 2.9-71.01 28.45-5.12 11.59-4.47 30.93-1.96 40.08 11 40 75.31 101.73 201.67 172.67 112.72 63.28 217.48 96.09 247.59 86.74 17.1-3.51 31.74-14.08 38.8-30.07 8.69-19.68 3.59-42.29-11.14-58.76z"/><path class="st1" d="M129.7 890.45c123.82 75.27 209.17 101.01 249.42 90.96 9.2-2.3 26.37-11.22 33.96-21.37 16.72-22.37 11.9-54.78-10.07-75.83-8.39-11.65-19.6-24.39-33.21-37.79 51.86 37.13 92.13 74.34 113.73 104.33 21.97 21.05 26.79 53.46 10.07 75.83-7.59 10.15-24.75 19.08-33.96 21.38-40.25 10.05-125.6-15.69-249.42-90.96-64.13-39-117.99-80.69-153.19-114.83 22.14 16.08 46.55 32.4 72.67 48.28z"/><path class="st1" d="M344.43 917.18c95 116-3 98-9 99s103.85 43.44 121 32c33-22 19-78-32-105-7.13-3.77-80-26-80-26z"/><path class="st2" d="M445.75 1054.65c-46.7 0-144.71-36.71-238.33-89.27C89.81 899.36 15.01 834.77 2.19 788.17c-2.72-9.9-3.86-31.07 2.33-45.09 9.76-22.1 32.14-35.83 58.42-35.83 7.04 0 14.08 1.02 20.95 3.03 53.23 6.12 133.08 36.76 213.79 82.08 95.37 53.54 171.67 116.26 194.88 160.13 16.78 19.27 21.3 44.49 11.78 66.06-7.77 17.59-23.72 30.08-43.8 34.31-4.06 1.2-8.9 1.79-14.79 1.79zM62.94 722.25c-20.25 0-37.37 10.3-44.7 26.88-4.22 9.56-3.76 27.15-1.58 35.06 11.59 42.13 85.65 104.98 198.11 168.12 102.15 57.35 193.52 87.35 230.99 87.35 4.47 0 8.07-.42 10.71-1.24l.72-.18c15.43-3.17 27.62-12.56 33.45-25.75 7.23-16.38 3.45-35.81-9.88-50.72l-.63-.71-.44-.85c-21.09-40.84-97.18-103.04-189.33-154.77-79.4-44.57-157.45-74.6-208.79-80.33l-.68-.08-.66-.2c-5.68-1.71-11.5-2.58-17.29-2.58z"/><path class="st3" d="M42.57 753.88c-1.52.28-2.93 1.07-4.2 2.47-6.19 6.79-8.67 20.1-8.23 28.93 1.22 24.22 21.81 43.5 39.6 57.42 41.13 32.19 152.91 80.48 162.75 80.48 9.84 0-132.34-96.58-152.02-129.66-4.65-7.82-25.01-42.04-37.9-39.64z"/><radialGradient id="SVGID_1_" cx="395.235" cy="623.932" r="326.402" gradientUnits="userSpaceOnUse"><stop offset="0" style="stop-color:#f7f"/><stop offset=".113" style="stop-color:#ff71f6"/><stop offset=".297" style="stop-color:#ff61de"/><stop offset=".53" style="stop-color:#ff46b6"/><stop offset=".799" style="stop-color:#ff2280"/><stop offset=".988" style="stop-color:#ff0655"/></radialGradient><path d="M713.16 503.92 322.99 289.27S80.65 724.78 79.29 727.21c-15.34 27.32 60.26 98.89 168.85 159.85 108.59 60.97 209.06 88.24 224.4 60.92 1.67-2.98 240.62-444.06 240.62-444.06z" style="fill:url(#SVGID_1_)"/><path class="st5" d="M499.53 888.98c12.44-22.16 43.25-50.23 15.94-68.27-22.15-14.63-53.62-11.69-78.21-19.41-41.9-13.16-81.88-31.77-120.13-53.24-99.2-55.69-170.85-120.22-170.81-151.79-23.67 42.54-39.69 71.32-40.04 71.94-15.34 27.32 60.26 98.89 168.85 159.85 108.6 60.98 209.07 88.24 224.4 60.92z"/><path class="st5" d="M531.53 816.98c12.44-22.16 43.25-50.23 15.94-68.27-22.15-14.63-53.62-11.69-78.21-19.41-41.9-13.16-81.88-31.77-120.13-53.24-99.2-55.69-170.85-120.22-170.81-151.79-23.67 42.54-39.69 71.32-40.04 71.94-15.34 27.32 60.26 98.89 168.85 159.85 108.6 60.98 209.07 88.24 224.4 60.92z"/><path class="st6" d="M567.53 768.98c12.44-22.16 43.25-50.23 15.94-68.27-22.15-14.63-53.62-11.69-78.21-19.41-41.9-13.16-81.88-31.77-120.13-53.24-99.2-55.69-170.85-120.22-170.81-151.79-23.67 42.54-39.69 71.32-40.04 71.94-15.34 27.32 60.26 98.89 168.85 159.85 108.6 60.98 209.07 88.24 224.4 60.92z"/><path class="st6" d="M601.53 702.98c12.44-22.16 43.25-50.23 15.94-68.27-22.15-14.63-53.62-11.69-78.21-19.41-41.9-13.16-81.88-31.77-120.13-53.24-99.2-55.69-170.85-120.22-170.81-151.79-23.67 42.54-39.69 71.32-40.04 71.94-15.34 27.32 60.26 98.89 168.85 159.85 108.6 60.98 209.07 88.24 224.4 60.92z"/><path class="st7" d="M641.53 638.98c12.44-22.16 43.25-50.23 15.94-68.27-22.15-14.63-53.62-11.69-78.21-19.41-41.9-13.16-81.88-31.77-120.13-53.24-99.2-55.69-170.85-120.22-170.81-151.79-23.67 42.54-39.69 71.32-40.04 71.94-15.34 27.32 60.26 98.89 168.85 159.85 108.6 60.98 209.07 88.24 224.4 60.92z"/><path class="st7" d="M679.53 570.98c12.44-22.16 43.25-50.23 15.94-68.27-22.15-14.63-53.62-11.69-78.21-19.41-41.9-13.16-81.88-31.77-120.13-53.24-99.2-55.69-170.85-120.22-170.81-151.79-23.67 42.54-39.69 71.32-40.04 71.94-15.34 27.32 60.26 98.89 168.85 159.85 108.6 60.98 209.07 88.24 224.4 60.92z"/><path d="M465.53 954.98c12.44-22.16 43.25-50.23 15.94-68.27-22.15-14.63-53.62-11.69-78.21-19.41-41.9-13.16-81.88-31.77-120.13-53.24-99.2-55.69-170.85-120.22-170.81-151.79-23.67 42.54-39.69 71.32-40.04 71.94-15.34 27.32 60.26 98.89 168.85 159.85 108.6 60.98 209.07 88.24 224.4 60.92z" style="fill:red"/><linearGradient id="SVGID_00000125601301358365941580000013786319759538333624_" gradientUnits="userSpaceOnUse" x1="268.012" y1="590.42" x2="473.325" y2="768.897"><stop offset="0" style="stop-color:#fff200"/><stop offset=".393" style="stop-color:#fcd00b"/><stop offset="1" style="stop-color:#f7941e"/></linearGradient><path style="fill:url(#SVGID_00000125601301358365941580000013786319759538333624_)" d="M405.56 479.61c-81.03 71.86-181.93 149.83-178.88 162.06 3.06 12.23 114.67 77.97 114.67 77.97l-126.9 100.9s-3.06 15.29 9.17 15.29 281.31-107.02 281.31-107.02 19.87-10.7 10.7-19.88c-9.17-9.17-103.74-61.79-111.61-64.21-19.87-6.11-1.53-13.76 10.7-18.35 12.23-4.59 151.36-64.21 151.36-64.21l-160.52-82.55z"/><path d="M223.63 839.85c-5.44 0-8.55-2.41-10.21-4.42-4.71-5.75-3.1-14.66-2.9-15.66.19-.93.69-1.76 1.44-2.35l122.34-97.29c-9.33-5.56-30.3-18.17-51.29-31.5-57.92-36.79-59.47-43-60.22-45.99-1.25-4.97 3.06-12.45 28.74-35.92 17.88-16.34 43.22-37.72 70.05-60.36 25.74-21.72 54.91-46.33 81.32-69.75a4.009 4.009 0 0 1 4.5-.57l160.53 82.56a4.01 4.01 0 0 1-.26 7.25c-5.68 2.44-139.35 59.71-151.53 64.28-12.05 4.52-15.59 7.07-16.61 8.26.64.5 2.19 1.43 5.68 2.5 7.75 2.38 103.03 54.98 113.26 65.21 3.53 3.53 3.84 7.2 3.48 9.65-1.31 8.92-13.7 15.83-15.11 16.59-.14.07-.28.14-.42.2C461.37 750.46 236 839.85 223.63 839.85zm-5.42-17.16c-.2 2.18-.14 5.76 1.42 7.66.52.63 1.49 1.47 3.94 1.48 10.84-.95 173.03-64.24 279.66-106.65 4.24-2.34 10.28-7.09 10.79-10.59.09-.65.04-1.56-1.21-2.81-8.83-8.84-103.15-61.12-109.95-63.21-4.91-1.51-11.45-4.17-11.62-9.8-.2-6.49 7.95-10.83 22.09-16.13 10.33-3.87 113.8-48.13 143.35-60.79l-150.51-77.41c-25.93 22.94-54.3 46.88-79.41 68.06-25.81 21.78-50.19 42.35-67.8 58.32-23.79 21.57-27.78 28.16-28.29 30.1 3.99 7.88 60.14 44.31 112.71 75.28 1.14.67 1.87 1.86 1.97 3.18a4.02 4.02 0 0 1-1.5 3.42l-125.64 99.89z" style="fill:#b24012"/><path class="st3" d="M308.43 319.18c-27 54-226.42 402.31-228.21 405.65-1.79 3.35 15.21 42.35 25.21 51.35s235-438 235-438l-32-19z"/><path class="st0" d="M660.43 501.18c-27 54-239.9 456.65-241.69 460-1.79 3.35 28.69-12 38.69-3s235-438 235-438l-32-19z"/><path d="M540.07 456.75c-27 54-267.21 449.65-269 453-1.79 3.35 81 44 138 48 13.42.94 255-451 255-451l-124-50z" style="opacity:.41;fill:#88388c"/><path d="M329.43 324.18c-51 91-236 439-236 439s48.69 63.99 110 97c13 7 258-452 258-452l-132-84z" style="opacity:.55;fill:#fff"/><path class="st2" d="M444.54 972.09c-.01 0-.01 0 0 0-43.93 0-124.26-29.04-204.66-73.98-54.38-30.39-102.58-64.33-135.73-95.57-36.53-34.43-50.1-60.68-40.33-78.01 1.45-2.57 247.36-442.52 249.84-446.96l3.72-6.66 413.43 226.42-3.64 6.69c-10 18.38-245.04 450.28-246.76 453.34-5.51 9.77-17.59 14.73-35.87 14.73zM325.91 299.44C294.54 355.82 87.11 728.6 85.82 730.89c-3.99 7.1 3.2 26.6 36.57 58.19 31.46 29.78 77.42 62.26 129.42 91.45 76.35 42.87 151.82 70.56 192.27 70.56 11.67 0 19.46-2.41 21.91-6.78 2.23-4.02 207.34-382.62 237.02-437.41l-377.1-207.46z"/><path d="M685.93 541.33c-23.56 35.99-114.82 9.37-225.36-63.01-110.54-72.38-181.05-160.23-157.48-196.21 23.56-35.99 132.28-6.48 242.81 65.9 110.54 72.38 163.59 157.33 140.03 193.32z" style="opacity:.41;fill:#022544"/><path class="st0" d="M744.43 433.18c-26.18-11.56-52.98-50.6-69-32-34.95-26.4-92.46-2.75-142.96-31.1-50.43-28.31-61.34-69.82-102.04-85.9 1.03-1.72-8.39-46-26-22-18.04 24.6-24.68-38.17-56-52-31.32-13.83-53.68 7.09-66 35-5.12 11.59-4.52 32.85-2 42 11 40 75.31 101.73 201.67 172.67 112.72 63.28 217.48 96.09 247.59 86.74 17.1-3.51 36.08-17.86 41.74-34.4 13-38.01 4.32-65.18-27-79.01z"/><path class="st1" d="M391.21 377.14C515.7 451.3 614.55 491.33 654.7 480.92c9.18-2.38 66.61-15.24 24.33-55.32-5.8-5.5 8.69-13.26 11.48-20.16 2.13 2.53 2.43 6.7-.47 13.24-12.33 27.91 45.39 2.36 73 22.62s20.62 50.07 2.57 74.66c-7.5 10.22-26.23 20.29-35.41 22.67-40.16 10.41-125.74-14.57-250.22-88.73-104.89-62.49-182.66-132.36-196.79-165.86 30.88 24.5 66.2 68.18 108.02 93.1z"/><path class="st1" d="M634.43 419.18c95 116-85 71-91 72s135.52 50.32 156 48c53-6 89-57-3-104-7.18-3.67-62-16-62-16z"/><path class="st2" d="M716.75 549.65c-46.7 0-144.71-36.71-238.33-89.27-117.61-66.03-192.41-130.62-205.23-177.22-2.95-10.72-3.47-33.79 2.37-47.02 12.48-28.28 31.54-43.85 53.67-43.85 7.21 0 14.68 1.69 22.22 5.02 16.94 7.48 26.9 25.9 34.91 40.7 3.01 5.57 7.44 13.74 10.05 15.98.43-.38 1.09-1.07 1.96-2.25 4.95-6.75 10.38-10.18 16.13-10.18 4.32 0 10.6 1.99 15.98 11.46 3.15 5.55 5.07 11.99 5.94 15.34.46 1.8.81 3.34 1.05 4.67 19.77 9.02 32.72 23.64 46.38 39.05 13.98 15.77 28.43 32.07 52.27 45.46 24 13.47 49.88 14.43 74.91 15.36 23.4.87 45.61 1.69 63.87 12.87 3.18-2 6.75-3.04 10.56-3.04 11.64 0 23.48 9.56 36.01 19.69 8.63 6.97 17.56 14.19 25.96 17.89 17.51 7.73 29.02 19.47 34.2 34.91 4.97 14.8 3.92 32.76-3.13 53.38-6.17 18.04-26.32 34.86-46.97 39.25-4.05 1.21-8.89 1.8-14.78 1.8zM329.23 207.3c-21.35 0-34.19 21.87-39.95 34.91-4.15 9.4-3.85 28.91-1.63 36.98 11.59 42.13 85.65 104.98 198.11 168.12 102.15 57.35 193.52 87.35 230.99 87.35 4.47 0 8.07-.42 10.71-1.24l.72-.18c15.46-3.18 31.68-16.4 36.15-29.48 11.92-34.83 4.42-57.64-22.93-69.71-10.22-4.51-19.93-12.36-29.33-19.95-9.49-7.67-20.25-16.36-26.59-16.36-1.23 0-2.6.28-4.37 2.34l-4.59 5.33-5.62-4.24c-15.36-11.6-36.23-12.38-60.41-13.27-25.56-.95-54.53-2.02-81.7-17.27-26.04-14.62-42.04-32.67-56.15-48.59-13.99-15.78-26.07-29.41-44.97-36.88l-8.2-3.24 3.38-5.68c-.87-5.8-5.15-17.92-8.38-19.61-.46.22-1.86 1.07-4 3.99-1.58 2.16-6.39 8.72-14.02 8.72h-.01c-10.18 0-15.96-10.67-23.27-24.18-6.92-12.79-15.54-28.71-27.78-34.11-5.61-2.49-11.05-3.75-16.16-3.75z"/><path class="st0" d="M774.12 463.85c-13.63 24.27-127.55-13.8-254.46-85.04-126.9-71.24-218.73-148.68-205.11-172.95 13.63-24.28 127.55 13.8 254.46 85.04 126.91 71.24 218.74 148.67 205.11 172.95z"/><path class="st2" d="M753.93 478.67c-42.89 0-138.51-37.5-237.94-93.32-61.78-34.68-117.33-71.93-156.42-104.9-43.61-36.78-60.48-62.38-51.56-78.27 4.15-7.4 13.15-11.15 26.73-11.15 42.89 0 138.51 37.5 237.94 93.32 61.78 34.68 117.33 71.93 156.42 104.9 43.61 36.78 60.48 62.38 51.56 78.27-4.15 7.4-13.15 11.15-26.73 11.15zM334.75 206.03c-8.62 0-12.7 1.8-13.65 3.49-2 3.56 2.75 21.18 48.15 59.46 38.39 32.37 93.11 69.05 154.09 103.28 97.38 54.67 190.05 91.4 230.6 91.4 8.62 0 12.7-1.8 13.65-3.49 2-3.56-2.76-21.18-48.15-59.46-38.39-32.37-93.11-69.05-154.09-103.28-97.39-54.67-190.06-91.4-230.6-91.4z"/><path class="st1" d="M753.43 457.18c-9.15 16.3-112.26-15.9-227.76-80.74-115.5-64.84-201.39-134.95-192.24-151.26 9.15-16.3 110.49 20.16 226 85 115.5 64.84 203.15 130.69 194 147z"/><path d="M721.13 449.93c-6.89 12.28-95.91-24.6-198.83-82.38-102.92-57.78-180.76-114.57-173.87-126.85 6.89-12.28 95.91 24.61 198.83 82.38 102.92 57.78 180.76 114.57 173.87 126.85z" style="fill:#fff17f"/><path class="st2" d="M710.45 464.79c-25.42 0-105.94-35.24-195.82-85.7-50.03-28.08-95.79-56.84-128.86-80.96-16.28-11.88-28.68-22.06-36.86-30.25-8.08-8.09-15.7-17.5-11.02-25.84 2.3-4.1 6.75-6.19 13.22-6.19 25.41 0 105.94 35.24 195.82 85.7 50.03 28.08 95.79 56.84 128.86 80.97 16.28 11.88 28.68 22.06 36.86 30.25 8.08 8.1 15.7 17.5 11.02 25.84-2.31 4.1-6.76 6.18-13.22 6.18zM353.88 251.01c4.23 5.47 15.78 17.29 47.2 39.66C433.07 313.45 476 340.2 521.97 366c92.73 52.06 163.12 81.19 185.71 83.62-4.23-5.47-15.78-17.29-47.2-39.66-31.99-22.78-74.92-49.53-120.88-75.34-92.75-52.06-163.14-81.18-185.72-83.61z"/><path d="M663.17 421.76c-4.05 7.21-34.39-2.15-67.77-20.89-33.38-18.74-57.17-39.78-53.12-46.98 4.04-7.21 34.39 2.15 67.77 20.89 33.38 18.73 57.17 39.77 53.12 46.98z" style="fill:#7c1a00"/><path class="st2" d="M656.54 431.69c-13.3 0-38.13-9.3-64.81-24.28-16.6-9.32-31.48-19.52-41.9-28.74-8.62-7.63-19.47-18.88-14.1-28.46 1.6-2.86 5.19-6.26 13.17-6.26 13.3 0 38.13 9.3 64.81 24.28 16.6 9.32 31.48 19.52 41.9 28.74 8.63 7.63 19.47 18.88 14.1 28.46-1.6 2.85-5.19 6.26-13.17 6.26zm-104.96-72.56c5.55 6.91 21.12 20.39 47.49 35.2 24.85 13.95 44.95 21 54.8 22.18-5.55-6.91-21.12-20.39-47.49-35.2-24.85-13.95-44.95-21-54.8-22.18z"/><path class="st3" d="M307.7 240.96c-2.13-1.38-4.37-2.02-6.63-1.33-7.7 2.31-7.25 20.71-6.93 27.08.96 19.45 15.83 35.38 30.65 46.18 51.85 37.79 106.96 71.71 165.82 98.74 15.09 6.93 30.59 13.12 46.58 17.66 9.06 2.57 26.52 10.64 34.69 3.84-10.79-12.31-36.34-19.79-50.73-28.56-19.88-12.12-39.12-25.24-58.61-37.97-24.56-16.04-49.32-31.79-73.11-48.96-22.69-16.36-41.43-35.56-62.01-54.35-7.13-6.5-11.59-17.05-19.72-22.33z"/><path d="M313.43 251.18c-13 9-16 39 8 47s31 3 25-9-33-38-33-38zm72.71 70.52c-5.91-7.2-21.72-10.64-27.75-2.01-6.35 9.1 6.89 21.65 16.04 20.46.02 0 .03 0 .05-.01.5.17 1 .32 1.49.46 4.44 1.18 9.51-.25 12.01-4.28 3.13-5.06 1.7-10.31-1.84-14.62zM44.71 755.18c-4.6-2.91-8.92-3-12.54-1.3-8.28-4.9-12.24 6.21-12.73 13.49-.31 4.59.86 9.45 2.99 13.96 1.26 5.76 4.18 11.09 8.83 14.83 3 2.42 6.13 3.14 9.2 2.23 6.99 1.47 13.64-2.46 16.21-10.06 3.54-10.49-2.71-27.3-11.96-33.15zm42.3 57.37c-.61-2.3-2.06-4.55-3.8-6.15-2.22-2.04-4.79-3.05-7.78-3.26-3.19-.22-5.6 1.65-7.41 4.01-1.4 1.81-1.3 4.72-.78 6.8.53 2.11 1.77 3.68 3.07 5.35 2.69 3.46 7.42 5.62 11.75 4.7 2.37-.5 4.32-2.67 4.94-4.94.18-.66.25-1.38.22-2.11.23-1.43.2-2.87-.21-4.4zm228.31-406.77c-9.05 11.64-12.39 29.3-15.55 42.28-1.52 6.24-4.91 19.47-.49 25.13 6.54 8.38 19.85-2.12 27.7-5.5 17.85-7.68 38.43-27.2 35.25-48.75-2.37-16.07-15.65-29.02-32.06-23.84-6.23 1.96-11.04 5.78-14.85 10.68zm-38.33 89.18c-4.13 3.46-7.63 7.71-9.89 11.81-4.31 7.83-8.61 15.71-13.57 23.08-2.3 3.42-9.72 13.12-5.76 17.37 7.25 7.78 23.79-6.31 29.26-10.62 11.6-9.13 23.01-19.07 28.87-32.94 4.65-11.01-3.26-17.87-15.09-15.75-4.81.86-9.64 3.55-13.82 7.05z" style="fill:#fff"/><path d="M758.88 139.77c-8.36.16-16.83 1.15-25.07 2.85 11.64-7.33 22.62-16.8 31.63-27.49 27.76-32.94 5.95-83.93-29.02-101.06-34.97-17.12-78.67.36-97.62 39.05-7.88 16.09-7.37 34.71-2.76 51.63-9.22-8.62-19.95-16.22-31.3-22.01-38.38-19.55-83.09 13.27-91.83 51.21-8.73 37.94 18.22 76.54 60.2 86.2 19.65 4.52 40.77-1.89 57.75-12.86-34.93 73.88-74.15 159.93-74.15 159.93s21.09 37.69 54.74 34.15c13.34-1.4 35.22-103.61 60.61-180.62 4.97 25.37 31.28 50.92 55.19 56.43 41.98 9.66 83.09-13.27 91.82-51.21 8.74-37.95-17.12-87.01-60.19-86.2z" style="fill:#53e200"/><path d="M586.3 214.12c23.89-18.18 74.89-37.68 74.89-33.18s-72 209.99-72 209.99-28.5-10.5-28.5-18 64.5-139.49 64.5-139.49l-3-21-35.89 1.68z" style="fill:#3d9b00"/><path d="M724.42 38.08c24.92 12.2 43.15 41.6 41.53 69.41 22.22-32.9.84-80.08-32.53-96.41-34.97-17.12-78.67.36-97.62 39.05-3.27 6.67-5.07 13.79-5.76 21.03 20.35-34.47 61.27-49.3 94.38-33.08zM613.7 234.41c-30.57 65.28-59.99 129.81-59.99 129.81s.66 1.18 1.94 3.11c14.11-30.75 39.64-86.16 63.22-136.04a95.763 95.763 0 0 1-5.17 3.12zm46.36 10.34c-14.53 44.07-27.91 96.38-39.19 133.33 10.8-28.47 24.33-82.39 39.41-132.38-.07-.31-.15-.63-.22-.95zm-67.32-138c11.35 5.78 22.09 13.39 31.3 22.01-3.21-11.78-4.42-24.4-2.2-36.4-6.33-4.77-13.09-9.04-20.1-12.61-38.38-19.55-83.09 13.27-91.83 51.21-.59 2.57-1 5.14-1.28 7.71 16.56-28.58 52.48-48.04 84.11-31.92zm163.14 30.01c-.19 0-.39.01-.58.02-.6.79-1.21 1.58-1.86 2.35-9.01 10.69-19.99 20.16-31.63 27.49 8.24-1.71 16.7-2.7 25.07-2.85 40.05-.75 65.22 41.63 61.53 78.08a64.205 64.205 0 0 0 7.68-18.89c8.72-37.94-17.14-87-60.21-86.2z" style="fill:#64ff00"/><path d="M610.6 399.04c-35.04 0-59.56-26.59-60.43-28.16a7.484 7.484 0 0 1-.28-6.77c.36-.78 33.01-72.39 64.96-140.42-9.58 3.55-19.3 5.42-28.55 5.42-5.09 0-10.09-.56-14.86-1.66-22.12-5.09-41.15-17.7-53.59-35.51-12.6-18.04-16.95-39.24-12.24-59.68 7.98-34.66 41.62-62.86 75-62.86 9.61 0 18.88 2.24 27.53 6.65 5.89 3 11.68 6.5 17.23 10.4-.72-11.49.67-24.33 6.7-36.64C646.89 19.56 676.66 0 707.91 0c11.17 0 21.88 2.47 31.82 7.34 21.73 10.64 39.1 33.32 44.25 57.79 4.31 20.46-.24 39.94-12.8 54.84-3.61 4.28-7.54 8.4-11.71 12.3h.47c19.26 0 36.98 8.94 49.91 25.18 15.41 19.36 21.91 46.92 16.55 70.2-8.03 34.88-40.85 59.24-79.83 59.24-7 0-14.06-.81-20.98-2.4-20.57-4.73-41.28-21.76-52.73-41.46-6.44 20.91-12.6 42.75-18.6 64.05-22.54 80-25.91 93.32-38.31 94.63-1.76.18-3.61-2.67-5.35-2.67zm-45.37-32.39c5.25 7.76 25.58 19.06 46.71 19.06.79 0-3.35 8.37-2.56 8.31 1.46-1.7 5.15-7.69 12.01-28.49 5.56-16.85 11.81-39.04 18.43-62.52 7.61-27.02 16.24-57.64 25.13-84.61a7.498 7.498 0 0 1 14.48.9c4.2 21.46 27.8 45.56 49.51 50.56a78.671 78.671 0 0 0 17.62 2.02c31.95 0 58.76-19.57 65.21-47.6 4.37-19.01-.99-41.58-13.67-57.5-7.21-9.05-19.89-19.88-39.09-19.52-7.77.15-15.74 1.05-23.69 2.7-3.55.74-7.12-1.18-8.48-4.54a7.495 7.495 0 0 1 2.96-9.15c11.15-7.02 21.49-16.01 29.89-25.98 12.2-14.48 11.95-30.88 9.59-42.08-4.24-20.11-18.43-38.72-36.17-47.41-7.87-3.86-16.36-5.81-25.22-5.81-25.56 0-50.04 16.26-62.36 41.42-7.9 16.14-5.59 34.12-2.26 46.36.88 3.24-.49 6.66-3.37 8.39a7.483 7.483 0 0 1-8.99-.95c-8.81-8.23-19.04-15.43-29.59-20.8-6.53-3.33-13.5-5.01-20.72-5.01-26.34 0-54 23.46-60.39 51.22-3.74 16.26-.22 33.21 9.92 47.73 10.3 14.75 26.16 25.22 44.65 29.48 3.67.84 7.54 1.27 11.5 1.27 13.01 0 27.4-4.66 40.5-13.13a7.49 7.49 0 0 1 9.01.66 7.508 7.508 0 0 1 1.84 8.85c-30.42 64.41-64.53 138.92-72.4 156.17z" style="fill:#316009"/><path class="st0" d="M610.53 381.55c24.66-18.65 216.84-172.23 231.02-173.38 14.18-1.15 216.7 60.95 217.11 71.87.19 5.18 3.25 37.01-9.23 56.43-13.79 21.45-43.47 30.29-48.63 28.21-27.01-10.88-149.42-64.5-149.42-64.5L656.88 419.2s-12.66-1.2-26.9-12.42c-14.23-11.22-19.45-25.23-19.45-25.23z"/><path class="st1" d="M1060.5 282.89c-1.36 4.16-3.12 8.15-5.41 11.72-13.79 21.45-34.31 43.35-39.48 41.27-27.01-10.88-166.18-71.71-166.18-71.71L651.68 390.12s-35.67-5.67-16.04-25.2c1.5-1.49-3.19-2.65-4.61-4.01-8.97 7.03-15.63 12.23-19.06 14.82 0 0 5.22 14 19.46 25.22 14.23 11.22 26.9 12.42 26.9 12.42l194.5-119.03s122.4 53.62 149.42 64.5c5.16 2.08 34.85-6.76 48.63-28.21 9.24-14.4 9.95-35.62 9.62-47.74z"/><path class="st2" d="M651.34 425.77c-5.09-1.25-15.23-4.61-26-13.1-15.7-12.38-31.83-20.31-32.07-20.96-1.16-3.11 10.09-14.13 12.73-16.13 5.14-3.89 18.12-14.08 34.56-26.99 31.01-24.35 77.87-61.15 117.72-91.46 73.19-55.66 78.88-56.12 82.66-56.43 2.22-.18 6.17.12 19.87 3.48 26.84 6.59 77.26 21.64 119.89 35.79 23.33 7.74 42.96 14.75 56.76 20.28 24.09 9.64 28.46 13.5 28.69 19.51.01.39.05.93.09 1.62.56 9.71 2.28 39.26-10.5 59.14-8.33 12.95-20.84 20.9-29.87 25.28-8.07 3.92-19.83 7.91-26.44 6.29-.51-.08-.98-.27-1.43-.46-24.54-9.88-125.29-53.94-146.04-63.02L660.8 425.59a7.514 7.514 0 0 1-4.62 1.07c-.33-.03-2.08-.21-4.84-.89zm-36.07-38.73c2.54 4.46 9.22 10.8 16.67 16.67 8.91 7.02 19.69 6.74 23.46 7.61l192.07-117.54a7.475 7.475 0 0 1 6.92-.47c1.21.53 120.87 52.94 148.62 64.18 5.12.06 28.73-7.36 40.11-25.07 6.65-10.34 9.4-26.93 8.19-49.32-4.08-2.57-20.24-10.81-81.39-30.88-41.2-13.52-87.54-27.28-112.69-33.46-9.92-2.44-13.6-2.95-14.79-3.06-3.54 1.42-18.1 9.97-77.69 55.36-39.16 29.83-84.76 65.64-114.94 89.34-13.06 10.25-28.06 21.61-34.54 26.64z"/><path class="st3" d="M1006.61 271.88c-75.41-26.25-184.3-54.54-165.31-37.52s175.84 83.61 186.22 78.18c30.12-15.77-20.91-40.66-20.91-40.66z"/><path d="M1027.52 278.76c-12.22-9.44-40.89-12.89-52.66-13.47-11.83-.59-30.76 2.25-14.21 12.97 13.5 8.74 64.57 37.33 72 13.54 1.65-5.27-.62-9.56-5.13-13.04z" style="fill:#fcffff"/><path class="st2" d="M635.68 410.16c-11.96-4.5-23.48-10.25-34.61-16.5-17.78-9.98-30.64-19.36-38.84-26.53-12.91-8.56-15.38-14.01-18.77-22.53-3.02 1.25-4.74 3.2-5.72 4.95-5.38 9.58 5.47 20.83 14.1 28.46 10.42 9.22 25.3 19.42 41.9 28.74 26.68 14.98 51.51 24.28 64.81 24.28 5.85 0 23.24-10.49 12.09-16.67-3.55-1.97-12.07 1.87-16.6 1.39-5.46-.58-10.73-2.82-15.85-4.66-.85-.31-1.68-.62-2.51-.93z"/></svg>