<svg width="32" height="32" fill="none" xmlns="http://www.w3.org/2000/svg"><rect width="32" height="32" rx="8" fill="#17A852"/><path fill-rule="evenodd" clip-rule="evenodd" d="M18.035 16.903c-.114.009-.701.044-2.01.044-1.042 0-1.782-.032-2.042-.044-4.025-.177-7.03-.878-7.03-1.717 0-.84 3.005-1.539 7.03-1.719v2.738c.264.019 1.018.063 2.06.063 1.25 0 1.875-.052 1.988-.062v-2.737c4.017.18 7.015.88 7.015 1.717 0 .837-2.997 1.538-7.015 1.716h.004Zm0-3.717v-2.45h5.606V7H8.377v3.736h5.605v2.449C9.426 13.395 6 14.297 6 15.378c0 1.082 3.426 1.983 7.982 2.194v7.85h4.052V17.57C22.579 17.36 26 16.459 26 15.378c0-1.08-3.418-1.982-7.966-2.192Z" fill="#fff"/></svg>