<svg height="512" viewBox="0 0 48 48" width="512" xmlns="http://www.w3.org/2000/svg"><path d="M38.984 13.167c-1.678-.055-3.375-.123-5.077-.188 3.854-3.237 4.558-10.448-2.056-9.875-3.431.681-6.608 3.32-7.841 6.586-.424-1.079-1.061-2.087-1.788-2.969-7.532-8.324-15.603-1.255-8.232 6.172-2.845.035-5.202.065-5.206.071a.869.869 0 0 0-.857.881c.126 9.115.31 18.23.621 27.345.039 1.218.168 2.259.336 2.74-.816.374.872.614 2.818.683 7.954.291 19.273.282 27.347.287a.882.882 0 0 0 .882-.882l.037-29.852a1 1 0 0 0-.984-.999zm-.938 17.151c-3.668-.55-7.346-.529-11.013.014.005-.872.006-1.746.002-2.624 2.53.553 8.893.177 10.993-.138.005.917.011 1.832.018 2.748zm-3.657-24.73c1.696 2.193-.297 5.38-2.028 7.333-2.601-.094-5.214-.16-7.821-.15.422-3.831 6.325-9.466 9.849-7.183zm-20.454 4.999c-1.354-2.215-1.834-6.157 1.861-5.57 3.52.638 7.167 4.059 7.62 7.758-1.147.017-4.614.058-7.887.098-.572-.73-1.169-1.466-1.594-2.286zM9.619 27.452c3.789.601 7.59.711 11.382.15-.006.958-.006 1.916 0 2.873-3.796-.564-7.604-.513-11.398.092zM9.31 43.813c.432-1.48.204-10.391.287-12.166 3.801.608 7.613.592 11.413.023.068 3.93.144 7.877.443 11.808-1.731.082-10.666-.009-12.143.335zm12.161-29.06c-.269 3.89-.414 7.773-.46 11.653-3.791-.569-7.593-.647-11.386-.041l.061-11.644c3.576-.022 7.643-.033 11.793-.005-.002.013-.007.022-.008.037zm3.905 28.671-3.006.041c.894-9.397.811-19.361.096-28.743.998.008 1.998.018 2.995.031-.591 9.576-.581 19.113.169 28.665zm12.597-28.309c.011 3.726.029 7.453.05 11.181-2.473-.567-8.835-.196-10.999.119-.041-3.954-.192-7.918-.563-11.646 4.062.059 8.027.167 11.512.346zM26.572 43.399c.009-.044.025-.082.031-.13.462-3.927.328-7.781.421-11.732 3.675.544 7.36.516 11.033-.037.028 3.884.06 7.769.104 11.655z"/></svg>