<svg height="512" width="512" xmlns="http://www.w3.org/2000/svg"><g data-name="Layer 64"><path d="M496 187.52c0-78.047-60.642-144.566-138.637-147.42A143.282 143.282 0 0 0 256 76.884 143.278 143.278 0 0 0 154.637 40.1C76.642 42.954 16 109.473 16 187.52a149.849 149.849 0 0 0 41.981 104.016l157.36 163.188A56.482 56.482 0 0 0 256 472a56.482 56.482 0 0 0 40.659-17.276l157.36-163.188A149.849 149.849 0 0 0 496 187.521z" fill="#f3a845"/><path d="M357.363 40.1A143.282 143.282 0 0 0 256 76.884 143.278 143.278 0 0 0 154.637 40.1c-1.68.062-3.3.318-4.967.438C105.883 82 80 132.917 80 188c0 109.59 102.187 202.8 244.848 237.491l129.171-133.955A149.849 149.849 0 0 0 496 187.521c0-78.048-60.642-144.567-138.637-147.421z" fill="#eecc61"/><path d="M154.637 40.1C86.011 42.611 30.866 94.426 18.6 160h474.8C481.134 94.426 425.99 42.611 357.363 40.1A143.277 143.277 0 0 0 256 76.884 143.274 143.274 0 0 0 154.637 40.1zM93.143 328l122.2 126.724a56.483 56.483 0 0 0 81.318 0L418.857 328z" fill="#aa2b24"/><path d="M324.848 425.491 418.857 328H142.039c43.669 44.64 107.603 79.2 182.809 97.491zM493.4 160C481.134 94.426 425.99 42.611 357.363 40.1A143.277 143.277 0 0 0 256 76.884 143.274 143.274 0 0 0 154.637 40.1c-1.667.061-3.287.286-4.938.4-.005 0-.025.033-.029.034C113.41 74.874 89.482 115.7 82.308 160z" fill="#d24034"/><path d="M144 224h48v40a24 24 0 0 1-24 24 24 24 0 0 1-24-24v-40z" fill="#f3a845"/><path d="M120 288a8 8 0 0 1-8-8v-56a8 8 0 0 1 16 0v56a8 8 0 0 1-8 8zm96 0a8 8 0 0 1-8-8v-56a8 8 0 0 1 16 0v56a8 8 0 0 1-8 8zm-48-88a16 16 0 0 0-16 16v8h32v-8a16 16 0 0 0-16-16z" fill="#e3e8f6"/><path d="M168 224h24v32h-24zm-24 32v8a24 24 0 0 0 24 24v-32z" fill="#d24034"/></g></svg>