<svg height="512" viewBox="0 0 64 64" width="512" xmlns="http://www.w3.org/2000/svg"><rect fill="#f36b8b" height="32" rx="3" width="52" x="10" y="26"/><rect fill="#f0466e" height="30" rx="3" width="50" x="12" y="28"/><path d="M13 26a3 3 0 0 0-3 3v11h41a5.006 5.006 0 0 0 5-5v-9z" fill="#f0466e"/><path d="M15 28a3 3 0 0 0-3 3v9h39a5.006 5.006 0 0 0 5-5v-7z" fill="#e52c5c"/><path d="M62 38H10v-5h52z" fill="#ffcd46"/><path d="M10 33v5h44.974A4.948 4.948 0 0 0 56 35v-2z" fill="#f4b73d"/><rect fill="#ffcd46" height="6" rx="3" width="12" x="45" y="47"/><path d="M25 50H15a1 1 0 0 1 0-2h10a1 1 0 0 1 0 2zm0 4H15a1 1 0 0 1 0-2h10a1 1 0 0 1 0 2z" fill="#f5fbff"/><rect fill="#5f5f6e" height="32" rx="3" width="52" x="2" y="6"/><rect fill="#4b4b5a" height="30" rx="3" width="50" x="4" y="8"/><path d="M49 12h-8a1 1 0 0 1 0-2h8a1 1 0 0 1 0 2zm0 4h-8a1 1 0 0 1 0-2h8a1 1 0 0 1 0 2z" fill="#f5fbff"/><path d="M12 31H6a1 1 0 0 1 0-2h6a1 1 0 0 1 0 2zm10 0h-6a1 1 0 0 1 0-2h6a1 1 0 0 1 0 2zm10 0h-6a1 1 0 0 1 0-2h6a1 1 0 0 1 0 2zm10 0h-6a1 1 0 0 1 0-2h6a1 1 0 0 1 0 2z" fill="#ffcd46"/><path d="M14 35H6a1 1 0 0 1 0-2h8a1 1 0 0 1 0 2z" fill="#f0466e"/><rect fill="#ffcd46" height="12" rx="2" width="16" x="6" y="10"/><path d="M12 10v3H6v2h7a1 1 0 0 0 1-1v-4zm-2 7H6v2h3v3h2v-4a1 1 0 0 0-1-1zm9-4v-3h-2v4a1 1 0 0 0 1 1h4v-2zm-4 4a1 1 0 0 0-1 1v4h2v-3h6v-2z" fill="#f4b73d"/></svg>