<svg xmlns="http://www.w3.org/2000/svg" viewBox="0 0 512 512" style="enable-background:new 0 0 512 512" xml:space="preserve"><path style="fill:#4fba6f" d="M414.897 422.695h61.793c19.501 0 35.31-15.809 35.31-35.31V69.591c0-19.501-15.809-35.31-35.31-35.31H35.31C15.809 34.281 0 50.09 0 69.591v317.793c0 19.501 15.809 35.31 35.31 35.31h291.31"/><path style="fill:#c03a2b" d="M414.897 343.247v125.652a8.827 8.827 0 0 1-13.365 7.565l-26.236-15.731a8.827 8.827 0 0 0-9.075 0l-26.236 15.731a8.826 8.826 0 0 1-13.365-7.565V343.247h88.277z"/><path style="fill:#ecf0f1" d="M74.284 83.592a17.567 17.567 0 0 1 5.164 12.482 8.828 8.828 0 0 0 17.656 0c0-19.501-15.809-35.31-35.31-35.31s-35.31 15.809-35.31 35.31 15.809 35.31 35.31 35.31c9.751 0 17.655 7.904 17.655 17.655 0 9.751-7.904 17.655-17.655 17.655s-17.655-7.904-17.655-17.655a8.828 8.828 0 0 0-17.656 0c0 19.501 15.809 35.31 35.31 35.31s35.31-15.809 35.31-35.31-15.809-35.31-35.31-35.31a17.655 17.655 0 0 1-12.482-30.146c6.993-6.662 17.985-6.658 24.973.009zm88.276 0a17.567 17.567 0 0 1 5.164 12.482 8.828 8.828 0 0 0 17.656 0c0-19.501-15.809-35.31-35.31-35.31s-35.31 15.809-35.31 35.31 15.809 35.31 35.31 35.31c9.751 0 17.655 7.904 17.655 17.655 0 9.751-7.904 17.655-17.655 17.655s-17.655-7.904-17.655-17.655a8.828 8.828 0 0 0-17.656 0c0 19.501 15.809 35.31 35.31 35.31s35.31-15.809 35.31-35.31-15.809-35.31-35.31-35.31a17.655 17.655 0 0 1-12.482-30.146c6.993-6.662 17.985-6.658 24.973.009zm102.268 83.103H220.69V69.591a8.828 8.828 0 0 0-17.656 0v97.103c0 9.751 7.904 17.655 17.655 17.655h44.138a8.828 8.828 0 0 0 .001-17.654z"/><path style="fill:#4c8056" d="M35.31 219.66h26.483a8.828 8.828 0 0 0 0-17.656H35.31a8.828 8.828 0 0 0 0 17.656zm61.793 0h132.414a8.828 8.828 0 0 0 0-17.656H97.103a8.828 8.828 0 0 0 0 17.656zm132.414 26.483h-26.483a8.828 8.828 0 0 0 0 17.656h26.483a8.828 8.828 0 0 0 0-17.656zM35.31 263.798h132.414a8.828 8.828 0 0 0 0-17.656H35.31a8.828 8.828 0 0 0 0 17.656zm194.207 26.483H35.31a8.828 8.828 0 0 0 0 17.656h194.207a8.828 8.828 0 0 0 0-17.656zM57.379 343.247h150.069c12.188 0 22.069 9.881 22.069 22.069 0 12.188-9.881 22.069-22.069 22.069H57.379c-12.188 0-22.069-9.881-22.069-22.069 0-12.189 9.881-22.069 22.069-22.069z"/><path style="fill:#e64c3c" d="m376.196 179.142 24.126-7.812a17.655 17.655 0 0 1 21.186 8.766l11.538 22.581a17.582 17.582 0 0 0 7.689 7.689l22.581 11.538a17.655 17.655 0 0 1 8.766 21.186l-7.812 24.126a17.736 17.736 0 0 0 0 10.876l7.812 24.126a17.655 17.655 0 0 1-8.766 21.186l-22.581 11.538a17.582 17.582 0 0 0-7.689 7.689l-11.538 22.581a17.655 17.655 0 0 1-21.186 8.766l-24.126-7.812a17.736 17.736 0 0 0-10.876 0l-24.126 7.812a17.655 17.655 0 0 1-21.186-8.766l-11.538-22.581a17.582 17.582 0 0 0-7.689-7.689L278.2 323.404a17.655 17.655 0 0 1-8.766-21.186l7.812-24.126a17.736 17.736 0 0 0 0-10.876l-7.812-24.126a17.655 17.655 0 0 1 8.766-21.186l22.581-11.538a17.582 17.582 0 0 0 7.689-7.689l11.538-22.581a17.655 17.655 0 0 1 21.186-8.766l24.126 7.812a17.736 17.736 0 0 0 10.876 0z"/><circle style="fill:#f0c419" cx="370.759" cy="272.626" r="61.793"/></svg>