<svg xmlns="http://www.w3.org/2000/svg" viewBox="0 0 1008.26 914.32"><defs><linearGradient id="b" x1="403.4" y1="337.99" x2="403.4" y2="687.48" gradientUnits="userSpaceOnUse"><stop offset="0" stop-color="#f9ed32"/><stop offset=".41" stop-color="#f8ca2a"/><stop offset="1" stop-color="#f7941e"/></linearGradient><style>.c{fill:#fff}.h{opacity:.54}.h,.i{fill:#9b2902}.m{fill:#ffb400}.o{fill:#ff7900}.p{fill:#ffeb0a}.q{fill:#420a03;mix-blend-mode:multiply;opacity:.41}</style></defs><g style="isolation:isolate"><g id="a"><path class="m" d="M486.34 816.44C465.08 775.27 390.97 713 294.01 658.57c-82.66-46.4-161.52-75.65-211.62-81.24-29.13-8.81-59.73 2.9-71.01 28.45-5.12 11.59-4.47 30.93-1.96 40.08 11 40 75.31 101.73 201.67 172.67 112.72 63.28 217.48 96.09 247.59 86.74 17.1-3.51 31.74-14.08 38.8-30.07 8.68-19.67 3.58-42.27-11.15-58.75z"/><path class="o" d="M129.7 750.12c123.82 75.27 209.17 101.01 249.42 90.96 9.2-2.3 26.37-11.22 33.96-21.37 16.72-22.37 11.9-54.78-10.07-75.83-8.39-11.65-19.6-24.39-33.21-37.79 51.86 37.13 92.13 74.34 113.73 104.33 21.97 21.05 26.79 53.46 10.07 75.83-7.59 10.15-24.75 19.08-33.96 21.38-40.25 10.05-125.6-15.69-249.42-90.96C146.09 777.68 92.23 736 57.02 701.85c22.14 16.08 46.55 32.4 72.67 48.28z"/><path class="h" d="M344.43 776.85c95 116-3 98-9 99s103.85 43.44 121 32c33-22 19-78-32-105-7.12-3.77-80-26-80-26z"/><path class="i" d="M445.75 914.32c-46.7 0-144.71-36.71-238.33-89.27C89.81 759.03 15.01 694.44 2.19 647.84c-2.72-9.9-3.86-31.07 2.33-45.09 9.76-22.1 32.14-35.83 58.42-35.83 7.04 0 14.08 1.02 20.95 3.03 53.23 6.12 133.08 36.76 213.79 82.08 95.37 53.54 171.67 116.26 194.88 160.13 16.78 19.27 21.3 44.49 11.78 66.06-7.77 17.59-23.72 30.08-43.8 34.31-4.07 1.21-8.91 1.8-14.79 1.8zM62.94 581.92c-20.25 0-37.37 10.3-44.7 26.88-4.22 9.56-3.76 27.15-1.59 35.06 11.59 42.13 85.65 104.98 198.11 168.12 102.15 57.35 193.52 87.35 230.99 87.35 4.47 0 8.07-.42 10.71-1.24l.72-.18c15.43-3.17 27.62-12.56 33.45-25.75 7.23-16.38 3.45-35.81-9.88-50.72l-.63-.71-.44-.85c-21.09-40.84-97.18-103.04-189.33-154.77-79.4-44.57-157.45-74.6-208.79-80.33l-.68-.08-.66-.2c-5.67-1.71-11.48-2.58-17.28-2.58z"/><path class="p" d="M42.04 599.52c-1.7.32-3.28 1.2-4.7 2.76-6.92 7.6-9.7 22.48-9.2 32.35 1.37 27.09 24.39 48.65 44.29 64.22 46 36 237.09 142.96 266.09 121.96 8.91-6.45-193-92-254.09-176.96-5.94-8.26-27.96-47-42.38-44.33z"/><path d="M713.16 363.59 322.99 148.94S80.65 584.45 79.28 586.88c-15.34 27.32 60.26 98.89 168.85 159.85 108.59 60.97 209.06 88.24 224.4 60.92 1.67-2.98 240.63-444.07 240.63-444.07z" style="fill:red"/><path d="M418.57 337.99c-79.5 70.5-178.49 146.99-175.49 158.99s112.49 76.5 112.49 76.5l-124.49 99s-3 15 9 15 275.99-104.99 275.99-104.99 19.5-10.5 10.5-19.5-101.77-60.62-109.49-63c-19.5-6-1.5-13.5 10.5-18s148.49-63 148.49-63l-157.49-81z" style="fill:url(#b)"/><path d="M240.08 694.98c-6.73 0-10.66-3.07-12.77-5.65-5.54-6.76-3.96-16.45-3.58-18.32.35-1.74 1.3-3.3 2.69-4.4l116-92.24c-10.44-6.26-28.21-17.02-45.98-28.31-58.03-36.85-59.59-43.12-60.63-47.26-1.66-6.62 2.3-14.11 29.25-38.73 17.6-16.08 42.48-37.08 68.82-59.31 26.47-22.34 53.84-45.43 79.72-68.38a7.52 7.52 0 0 1 8.41-1.06l157.49 81a7.514 7.514 0 0 1 4.07 6.93c-.1 2.9-1.87 5.49-4.54 6.63-5.58 2.39-136.79 58.62-148.81 63.12-4.55 1.71-7.75 3.07-9.98 4.15 7.89 3.1 38.86 20.28 54.81 29.32 22.77 12.9 51.11 29.48 56.83 35.2 3.52 3.52 5.08 7.96 4.42 12.51-1.5 10.26-14.15 17.54-16.66 18.9-.25.14-.52.26-.78.37-.66.26-66.8 26.56-133.55 52.52-136.3 53.01-142.1 53.01-145.21 53.01zm-1.17-15.15s.26.12.88.14c13.9-2.37 170.41-63.46 273.06-104.28 3.78-2.13 7.7-5.54 8.48-7.33-.02-.02-.04-.05-.07-.07-7.22-7.22-96.8-57.8-106.46-61.15-3.32-1.02-13.59-4.18-13.86-12.9-.28-9.39 11.18-14.47 23.99-19.27 9.38-3.52 97.97-41.38 133.52-56.59l-138.76-71.36c-24.98 22.04-52.09 44.92-76.15 65.22-24.51 20.68-47.66 40.22-64.72 55.6-19.44 17.53-25.64 24.99-27.6 27.99 9.48 10.29 60.88 43.35 108.15 71.2a7.487 7.487 0 0 1 3.67 5.94c.17 2.46-.88 4.86-2.81 6.39l-122 97.01c.01 1.61.29 3.07.67 3.46z" style="fill:#ba0000"/><path d="M308.43 178.85c-27 54-226.42 402.31-228.21 405.65-1.79 3.35 15.21 42.35 25.21 51.35s235-438 235-438l-32-19z" style="fill:#f62"/><path class="q" d="M558.43 310.85c-27 54-267.21 449.65-269 453s81 44 138 48c13.42.94 255-451 255-451l-124-50z"/><path d="M329.43 183.85c-51 91-236 439-236 439s48.69 63.99 110 97c13 7 258-452 258-452l-132-84z" style="mix-blend-mode:lighten;opacity:.29;fill:#fff"/><path d="M444.08 825.76c-42.84 0-121.19-28.45-199.62-72.49-53.04-29.78-100.06-63.03-132.39-93.63-35.63-33.73-48.87-59.45-39.34-76.43 1.41-2.52 241.27-433.56 243.69-437.92l3.63-6.52L723.3 360.61l-3.55 6.55c-9.76 18.01-239 441.17-240.68 444.16-5.38 9.58-17.15 14.44-34.99 14.44zM325.91 159.11c-31.37 56.38-238.8 429.16-240.09 431.45-3.99 7.1 3.2 26.6 36.57 58.19 31.46 29.78 77.42 62.26 129.42 91.45 76.35 42.87 151.82 70.56 192.27 70.56 11.67 0 19.46-2.41 21.91-6.78 2.23-4.02 207.34-382.62 237.02-437.41l-377.1-207.46z" style="fill:#680000"/><path class="q" d="M685.93 401c-23.56 35.99-114.82 9.37-225.36-63.01-110.54-72.38-181.05-160.23-157.48-196.21 23.56-35.99 132.28-6.48 242.81 65.9C656.44 280.06 709.49 365.02 685.93 401z"/><path class="m" d="M744.43 292.85c-26.18-11.56-52.98-50.6-69-32-34.95-26.4-92.46-2.75-142.96-31.1-50.43-28.31-61.34-69.82-102.04-85.9 1.03-1.72-8.39-46-26-22-18.04 24.6-24.68-38.17-56-52-31.32-13.83-53.68 7.09-66 35-5.12 11.59-4.52 32.85-2 42 11 40 75.31 101.73 201.67 172.67 112.72 63.28 217.48 96.09 247.59 86.74 17.1-3.51 36.08-17.86 41.74-34.4 13-38 4.32-65.17-27-79z"/><path class="o" d="M391.21 236.81C515.69 310.97 614.54 351 654.7 340.59c9.18-2.38 66.61-15.24 24.33-55.32-5.8-5.5 8.69-13.26 11.48-20.16 2.13 2.53 2.43 6.7-.47 13.24-12.33 27.91 45.39 2.36 73 22.62s20.62 50.07 2.57 74.66c-7.5 10.22-26.23 20.29-35.41 22.67-40.16 10.41-125.74-14.57-250.22-88.73-104.89-62.49-182.66-132.36-196.79-165.86 30.89 24.49 66.21 68.17 108.03 93.09z"/><path class="h" d="M634.43 278.85c95 116-85 71-91 72s135.52 50.32 156 48c53-6 89-57-3-104-7.18-3.67-62-16-62-16z"/><path class="i" d="M716.75 409.32c-46.7 0-144.71-36.71-238.33-89.27-117.61-66.03-192.41-130.62-205.23-177.22-2.95-10.72-3.47-33.79 2.37-47.02 12.48-28.28 31.54-43.85 53.67-43.85 7.21 0 14.68 1.69 22.22 5.02 16.94 7.48 26.9 25.9 34.91 40.7 3.01 5.57 7.44 13.74 10.05 15.98.43-.38 1.09-1.07 1.96-2.25 4.95-6.75 10.38-10.18 16.13-10.18 4.32 0 10.6 1.99 15.98 11.46 3.15 5.55 5.07 11.99 5.94 15.34.46 1.8.81 3.34 1.05 4.67 19.77 9.02 32.72 23.64 46.38 39.05 13.98 15.77 28.43 32.07 52.27 45.46 24 13.47 49.88 14.43 74.91 15.36 23.4.87 45.61 1.69 63.87 12.87 3.18-2 6.75-3.04 10.56-3.04 11.64 0 23.48 9.56 36.01 19.69 8.63 6.97 17.56 14.19 25.96 17.89 17.51 7.73 29.02 19.47 34.2 34.91 4.97 14.8 3.92 32.76-3.13 53.38-6.17 18.05-26.32 34.86-46.97 39.25-4.07 1.21-8.91 1.8-14.8 1.8zM329.23 66.97c-21.35 0-34.19 21.87-39.95 34.91-4.15 9.4-3.85 28.91-1.63 36.98 11.59 42.13 85.65 104.98 198.11 168.12 102.15 57.35 193.52 87.35 230.99 87.35 4.47 0 8.07-.42 10.71-1.24l.72-.18c15.46-3.18 31.68-16.4 36.15-29.48 11.92-34.83 4.42-57.64-22.93-69.71-10.22-4.51-19.93-12.36-29.33-19.95-9.49-7.67-20.25-16.36-26.59-16.36-1.23 0-2.6.28-4.37 2.34l-4.59 5.33-5.62-4.24c-15.36-11.6-36.23-12.38-60.41-13.27-25.56-.95-54.53-2.02-81.7-17.27-26.04-14.62-42.04-32.67-56.15-48.59-13.99-15.78-26.07-29.41-44.97-36.88l-8.2-3.24 3.38-5.68c-.87-5.8-5.15-17.92-8.38-19.61-.46.22-1.86 1.07-4 3.99-1.58 2.16-6.39 8.72-14.02 8.72-10.18 0-15.96-10.67-23.27-24.18-6.92-12.79-15.54-28.71-27.78-34.11-5.62-2.48-11.06-3.74-16.16-3.74z"/><path class="m" d="M774.12 323.52c-13.63 24.27-127.55-13.8-254.46-85.04C392.76 167.24 300.93 89.8 314.55 65.53c13.63-24.28 127.55 13.8 254.46 85.04 126.91 71.24 218.73 148.68 205.11 172.95z"/><path class="i" d="M753.93 338.34c-42.89 0-138.51-37.5-237.94-93.32-61.78-34.68-117.33-71.93-156.42-104.9-43.61-36.78-60.48-62.38-51.56-78.27 4.15-7.4 13.15-11.15 26.73-11.15 42.89 0 138.51 37.5 237.94 93.32 61.78 34.68 117.33 71.93 156.42 104.9 43.61 36.78 60.48 62.38 51.56 78.27-4.15 7.4-13.15 11.15-26.73 11.15zM334.75 65.7c-8.62 0-12.7 1.8-13.65 3.49-2 3.56 2.75 21.18 48.15 59.46 38.39 32.37 93.11 69.05 154.09 103.28 97.38 54.67 190.05 91.4 230.6 91.4 8.62 0 12.7-1.8 13.65-3.49 2-3.56-2.76-21.18-48.15-59.46-38.39-32.37-93.11-69.05-154.09-103.28-97.38-54.67-190.05-91.4-230.6-91.4z"/><path class="h" d="M753.43 316.85c-9.15 16.3-112.26-15.9-227.76-80.74-115.5-64.84-201.39-134.95-192.24-151.26 9.15-16.3 110.49 20.16 226 85 115.5 64.84 203.15 130.7 194 147z"/><path class="o" d="M721.13 309.6c-6.89 12.28-95.91-24.6-198.83-82.38-102.92-57.78-180.76-114.57-173.87-126.85 6.89-12.28 95.91 24.61 198.83 82.38 102.92 57.78 180.76 114.57 173.87 126.85z"/><path class="i" d="M710.45 324.46c-25.42 0-105.94-35.24-195.82-85.7-50.03-28.08-95.79-56.84-128.86-80.96-16.28-11.88-28.68-22.06-36.86-30.25-8.08-8.09-15.7-17.5-11.02-25.84 2.3-4.1 6.75-6.19 13.22-6.19 25.41 0 105.94 35.24 195.82 85.7 50.03 28.08 95.79 56.84 128.86 80.97 16.28 11.88 28.68 22.06 36.86 30.25 8.08 8.1 15.7 17.5 11.02 25.84-2.3 4.11-6.75 6.19-13.22 6.19zM353.88 110.68c4.23 5.47 15.78 17.29 47.2 39.66 31.99 22.78 74.92 49.53 120.89 75.33 92.73 52.06 163.12 81.19 185.71 83.62-4.23-5.47-15.78-17.29-47.2-39.66-31.99-22.78-74.92-49.53-120.88-75.34-92.73-52.06-163.12-81.19-185.71-83.62z"/><path d="M663.17 281.43c-4.05 7.21-34.39-2.15-67.77-20.89-33.38-18.74-57.17-39.78-53.12-46.98 4.04-7.21 34.39 2.15 67.77 20.89 33.39 18.74 57.17 39.78 53.12 46.98z" style="fill:#7c1a00"/><path class="i" d="M656.54 291.36c-13.3 0-38.13-9.3-64.81-24.28-16.6-9.32-31.48-19.52-41.9-28.74-8.62-7.63-19.47-18.88-14.1-28.45 1.6-2.86 5.19-6.26 13.17-6.26 13.3 0 38.13 9.3 64.81 24.28 16.6 9.32 31.48 19.52 41.9 28.74 8.63 7.63 19.47 18.88 14.1 28.46-1.6 2.86-5.19 6.26-13.17 6.26zM551.58 218.8c5.55 6.91 21.12 20.39 47.49 35.2 24.85 13.95 44.95 21 54.8 22.18-5.55-6.91-21.12-20.39-47.49-35.2-24.85-13.95-44.95-21-54.8-22.18z"/><path class="p" d="M307.7 100.63c-2.13-1.38-4.37-2.02-6.63-1.33-7.7 2.31-7.25 20.71-6.93 27.08.96 19.45 15.83 35.38 30.65 46.18 51.85 37.79 106.96 71.71 165.82 98.74 15.09 6.93 30.59 13.12 46.58 17.66 9.06 2.57 26.52 10.64 34.69 3.84-10.79-12.31-36.34-19.79-50.73-28.56-19.88-12.12-39.12-25.24-58.61-37.97-24.56-16.04-49.32-31.79-73.11-48.96-22.69-16.36-41.43-35.56-62.01-54.35-7.12-6.5-11.58-17.05-19.71-22.33z"/><path class="c" d="M313.43 110.85c-13 9-16 39 8 47s31 3 25-9-33-38-33-38zm72.71 70.52c-5.91-7.2-21.72-10.64-27.75-2.01-6.35 9.1 6.89 21.65 16.04 20.46h.05c.5.17 1 .32 1.49.46 4.44 1.18 9.51-.25 12.01-4.28 3.13-5.05 1.7-10.3-1.84-14.61zm-70.82 84.08c-9.05 11.64-12.39 29.3-15.55 42.28-1.52 6.24-4.91 19.47-.49 25.13 6.54 8.38 19.85-2.12 27.7-5.5 17.85-7.68 38.43-27.2 35.25-48.75-2.37-16.07-15.65-29.02-32.06-23.84-6.24 1.97-11.05 5.8-14.86 10.69zm-38.34 89.18c-4.13 3.46-7.63 7.71-9.89 11.81-7.79 14.15-15.91 28.11-23.57 42.33-6.75 12.52-13.73 25.01-19.82 37.87-1.28 2.7-6.71 10.27-3.95 13.37 7.27 8.07 81.46-85.58 86.14-96.68 4.65-11.01-3.26-17.87-15.09-15.75-4.81.86-9.64 3.55-13.83 7.05z"/><path class="m" d="M582.61 231.96c19.5-24 169.49-218.99 182.99-223.49s224.99 7.5 227.99 18c1.43 4.99 11.99 35.17 4.5 57-8.27 24.12-34.99 39.79-40.5 39-28.83-4.12-160.49-27-160.49-27L636.61 257.46s-12.58 1.85-29.08-5.65-24.91-19.85-24.91-19.85z"/><path class="o" d="M996.05 28.8c-.33 4.37-1.09 8.66-2.46 12.67-8.27 24.12-22.98 50.28-28.49 49.5-28.83-4.12-178.49-30-178.49-30L624.62 230.46s-36 3-21.59-20.64c1.1-1.81-3.73-1.82-5.44-2.8-7.03 8.97-12.26 15.61-14.97 18.94 0 0 8.41 12.35 24.91 19.85 16.5 7.5 29.08 5.65 29.08 5.65L797.1 89.47s131.66 22.88 160.49 27c5.51.79 32.23-14.88 40.5-39 5.55-16.2 1.18-36.98-2.04-48.67z"/><path class="i" d="M632.79 265.16c-5.24 0-15.89-.85-28.37-6.52-18.2-8.27-27.62-21.88-28.01-22.46a7.492 7.492 0 0 1 .38-8.95c4.07-5 14.24-18 27.12-34.45 24.31-31.05 61.04-77.96 92.51-116.9 57.79-71.52 63.21-73.33 66.8-74.52C765.33.66 769.24 0 783.35 0c27.64 0 80.19 2.59 124.97 6.16 24.5 1.95 45.23 4.08 59.96 6.15 25.7 3.62 30.86 6.32 32.51 12.1.11.37.27.89.47 1.55 2.86 9.29 11.58 37.58 3.91 59.94-5 14.57-15.25 25.27-22.98 31.68-6.9 5.73-17.38 12.41-24.18 12.42-.51.04-1.01-.03-1.5-.1-26.19-3.74-134.54-22.49-156.86-26.36L641.91 262.75a7.534 7.534 0 0 1-4.24 2.14c-.32.05-2.06.28-4.91.28zm-40.49-33.3c3.53 3.72 9.7 9.21 18.33 13.13 10.33 4.7 18.79 5.23 22.66 5.17L791.78 90.19a7.511 7.511 0 0 1 6.61-2.11c1.31.23 130 22.58 159.64 26.87 4.99-1.16 26.14-14 32.97-33.92 3.99-11.63 2.71-28.4-3.81-49.85-4.57-1.52-22.23-5.67-86.4-10.58-43.24-3.3-91.52-5.61-117.42-5.61-10.21 0-13.91.38-15.09.55-3.1 2.22-15.2 14-62.24 72.29-30.91 38.31-66.66 83.97-90.31 114.18-10.25 13.09-18.33 23.41-23.42 29.83z"/><path class="p" d="M941.09 30.97c-79.5-7.5-191.99-9-169.49 3s190.71 39.25 199.49 31.5c25.5-22.5-30-34.5-30-34.5z"/><path class="c" d="M55.73 624.59c-4.6-2.91-8.92-3-12.54-1.3-8.28-4.9-12.24 6.21-12.73 13.49-.31 4.59.87 9.45 2.99 13.96 1.26 5.75 4.18 11.09 8.83 14.83 3 2.41 6.13 3.14 9.2 2.23 6.99 1.47 13.64-2.46 16.21-10.06 3.54-10.49-2.71-27.3-11.96-33.15zm28.3 61.37c-.61-2.3-2.06-4.55-3.8-6.15-2.22-2.04-4.79-3.05-7.78-3.26-3.19-.22-5.6 1.65-7.41 4.01-1.4 1.81-1.3 4.72-.78 6.8.53 2.11 1.77 3.68 3.07 5.35 2.69 3.46 7.42 5.62 11.75 4.7 2.37-.5 4.32-2.67 4.94-4.94.18-.66.25-1.38.22-2.11.24-1.41.2-2.86-.2-4.39z"/><path d="M960.01 40.4c-14.12-6.25-42.79-2.76-54.35-.52-11.63 2.25-29.34 9.52-10.71 15.99 15.2 5.27 71.62 20.85 73.15-4.02.34-5.51-2.89-9.14-8.09-11.44z" style="fill:#fcffff"/></g></g></svg>