<svg xmlns="http://www.w3.org/2000/svg" xmlns:xlink="http://www.w3.org/1999/xlink" data-name="Layer 1" viewBox="0 0 194.9 150"><defs><linearGradient id="a" x1="99.48" x2="99.48" y1="0" y2="150" data-name="Gradient 272" gradientUnits="userSpaceOnUse"><stop offset="0" stop-color="#903"/><stop offset="1" stop-color="#ff668c"/></linearGradient><linearGradient xlink:href="#a" id="b" x1="93.65" x2="93.65" y1="41.1" y2="73.72" data-name="Gradient 272"/><linearGradient xlink:href="#a" id="c" x1="78.08" x2="78.08" y1="18.7" y2="139.88" data-name="Gradient 272"/><linearGradient xlink:href="#a" id="d" x1="85.59" x2="85.59" y1="10.1" y2="51.71" data-name="Gradient 272"/><linearGradient xlink:href="#a" id="e" x1="125.79" x2="125.79" y1="6.17" y2="47.47" data-name="Gradient 272"/><linearGradient xlink:href="#a" id="f" x1="140" x2="140" y1="16.14" y2="136.62" data-name="Gradient 272"/></defs><path d="M32.15 11.41c47.04-12.7 92.11-13.45 136.27-8.77 8.14 11.67 17.03 22.95 26.48 33.93-9.54-7.87-19.35-15.98-27.82-25.26-40.43-3.67-79.92-1.9-121.54 7.88-5.39 14.19-9.92 24.68-18.33 36.54 35.01 22.9 60.58 50.95 84.38 78.4 16.18-27.62 37.22-46.86 58.57-59.24-23.18 24.22-44.52 49.05-62.16 75.1C78.61 116.67 44.66 85.18 4.05 56.4a273.568 273.568 0 0 0 28.1-44.99Z" style="fill:url(#a);fill-rule:evenodd"/><path d="M0 73.72c58.8-15.67 119.2-29.15 187.3-32.01C146.11 40.44 22.22 37.89 0 73.72Z" style="fill:url(#b);fill-rule:evenodd"/><path d="M42.64 18.7c19.64 32.77 51.25 88.41 70.89 121.18-5.75-19.44-33.2-112.09-70.89-121.18Z" style="fill:url(#c);fill-rule:evenodd"/><path d="M63.55 51.71c16.03-12.36 17.44-13.74 44.09-41.61-17.25 8.68-41.71 20.79-44.09 41.61Z" style="fill:url(#d);fill-rule:evenodd"/><path d="M150.35 47.47c-13.71-9.96-22.51-18.09-49.1-41.3 20.08 9.36 45.02 19 49.1 41.3Z" style="fill-rule:evenodd;fill:url(#e)"/><path d="M170.05 16.14c-21.63 38.78-44.04 80.07-60.09 120.48 5.38-19.63 23.39-99.13 60.09-120.48Z" style="fill:url(#f);fill-rule:evenodd"/></svg>