<svg xmlns="http://www.w3.org/2000/svg" viewBox="0 0 981.35 1086.08"><defs><radialGradient id="b" cx="395.23" cy="655.36" fx="395.23" fy="655.36" r="326.4" gradientUnits="userSpaceOnUse"><stop offset="0" stop-color="#0dfffb"/><stop offset=".12" stop-color="#0df6fb"/><stop offset=".31" stop-color="#0dddfb"/><stop offset=".55" stop-color="#0db6fb"/><stop offset=".83" stop-color="#0d7ffb"/><stop offset="1" stop-color="#0d5cfb"/></radialGradient><linearGradient id="c" x1="270.16" y1="610.09" x2="449.34" y2="765.85" gradientUnits="userSpaceOnUse"><stop offset="0" stop-color="#fff200"/><stop offset=".39" stop-color="#fccf0a"/><stop offset="1" stop-color="#f7941e"/></linearGradient><style>.d,.f{fill:#fff}.g{fill:#424141}.h{fill:#022544}.h,.i,.j{mix-blend-mode:multiply}.h,.j{opacity:.41}.i,.l{fill:#9d9b9b}.m{fill:#4dffee}.n{fill:#bdbdbd}.f{opacity:.31}.j{fill:#005ca0}</style></defs><g style="isolation:isolate"><g id="a"><path class="n" d="M486.34 988.2c-21.26-41.17-95.37-103.44-192.33-157.87-82.66-46.4-161.52-75.65-211.62-81.24-29.13-8.81-59.73 2.9-71.01 28.45-5.12 11.59-4.47 30.93-1.96 40.08 11 40 75.31 101.73 201.67 172.67 112.72 63.28 217.48 96.1 247.59 86.74 17.1-3.51 31.74-14.08 38.8-30.07 8.68-19.67 3.58-42.27-11.15-58.75z"/><path class="l" d="M129.7 921.88c123.82 75.27 209.17 101.01 249.42 90.96 9.2-2.3 26.37-11.22 33.96-21.38 16.72-22.37 11.9-54.78-10.07-75.83-8.39-11.65-19.6-24.39-33.21-37.79 51.86 37.13 92.13 74.34 113.73 104.33 21.97 21.05 26.79 53.46 10.07 75.83-7.59 10.15-24.75 19.08-33.96 21.38-40.25 10.05-125.6-15.69-249.42-90.96-64.13-38.99-117.99-80.67-153.2-114.82 22.14 16.08 46.55 32.4 72.67 48.28z"/><path class="i" d="M344.43 948.61c95 116-3 98-9 99s103.85 43.44 121 32c33-22 19-78-32-105-7.12-3.77-80-26-80-26z"/><path class="g" d="M445.75 1086.08c-46.7 0-144.71-36.71-238.33-89.27C89.81 930.79 15.01 866.2 2.19 819.6c-2.72-9.9-3.86-31.07 2.33-45.09 9.76-22.1 32.14-35.83 58.42-35.83 7.04 0 14.08 1.02 20.95 3.03 53.23 6.12 133.08 36.77 213.79 82.08 95.37 53.54 171.67 116.26 194.88 160.13 16.78 19.27 21.3 44.49 11.78 66.06-7.77 17.59-23.72 30.08-43.8 34.31-4.07 1.21-8.91 1.8-14.79 1.8zM62.94 753.68c-20.25 0-37.37 10.3-44.7 26.88-4.22 9.56-3.76 27.15-1.58 35.06 11.59 42.13 85.65 104.98 198.11 168.12 102.15 57.34 193.52 87.35 230.99 87.35 4.47 0 8.07-.42 10.71-1.24l.72-.19c15.43-3.17 27.62-12.55 33.45-25.75 7.23-16.38 3.45-35.81-9.88-50.72l-.63-.71-.44-.85c-21.09-40.84-97.18-103.04-189.33-154.77-79.4-44.57-157.45-74.6-208.79-80.33l-.68-.08-.66-.2c-5.67-1.71-11.48-2.58-17.28-2.58z"/><path class="m" d="M42.04 771.28c-1.7.31-3.28 1.2-4.7 2.76-6.92 7.6-9.7 22.48-9.2 32.35 1.37 27.09 24.39 48.65 44.29 64.22 46 36 171 90 182 90s-148-108-170-145c-5.2-8.74-27.96-47-42.38-44.33z"/><path d="M713.16 535.35 322.98 320.7S80.65 756.21 79.28 758.65c-15.34 27.32 60.26 98.89 168.85 159.85 108.59 60.97 209.06 88.24 224.4 60.92 1.67-2.98 240.63-444.06 240.63-444.06z" style="fill:url(#b)"/><path class="d" d="M387.54 516.06c-70.71 62.71-158.77 130.75-156.1 141.43 2.67 10.67 100.07 68.04 100.07 68.04l-110.74 88.06s-2.67 13.34 8.01 13.34 245.5-93.4 245.5-93.4 17.34-9.34 9.34-17.35c-8-8.01-90.53-53.92-97.4-56.04-17.34-5.34-1.33-12.01 9.34-16.01 10.67-4 132.09-56.04 132.09-56.04l-140.09-72.05z"/><path class="d" d="m387.54 516.06 140.09 72.05s-121.41 52.03-132.09 56.04c-10.67 4-26.68 10.67-9.34 16.01 6.87 2.11 89.39 48.03 97.4 56.04 8.01 8.01-9.34 17.35-9.34 17.35s-234.82 93.4-245.5 93.4-8.01-13.34-8.01-13.34l110.74-88.06s-97.4-57.37-100.07-68.04c-2.67-10.67 85.39-78.72 156.1-141.43zm0-19.57c-4.69 0-9.33 1.68-12.99 4.93-22.9 20.31-47.18 40.8-70.67 60.62-23.54 19.86-45.76 38.62-61.61 53.1-8.81 8.05-15.25 14.42-19.69 19.46-4.31 4.9-13.28 15.1-10.15 27.64 2 8.02 7.9 14.4 24.27 26.24 8.73 6.32 20.59 14.24 35.25 23.56 8.79 5.59 17.59 11.03 25.28 15.73l-88.68 70.51c-3.62 2.88-6.1 6.94-7.01 11.48-.75 3.75-2.54 16.76 5.86 27.01 5.15 6.28 12.73 9.74 21.34 9.74 4.18 0 7.19 0 49.69-15.82 20.89-7.78 49.21-18.62 84.15-32.21 59.42-23.11 118.3-46.52 118.88-46.75.7-.28 1.38-.6 2.05-.95 5.75-3.1 19.35-11.86 21.47-26.29 1.18-8.06-1.58-16.13-7.57-22.12-2.16-2.16-5.76-5.26-21.29-14.71-10.82-6.59-23.39-13.81-32.03-18.71-8.41-4.77-16.85-9.46-24.43-13.59 34.2-14.36 105.72-45 115.64-49.26a19.559 19.559 0 0 0 11.85-17.3c.27-7.57-3.87-14.62-10.61-18.09l-140.09-72.05c-2.83-1.46-5.9-2.17-8.95-2.17z"/><path d="M390.2 513.39c-70.71 62.71-158.77 130.75-156.1 141.43 2.67 10.67 100.07 68.05 100.07 68.05l-110.74 88.06s-2.67 13.34 8.01 13.34 245.5-93.39 245.5-93.39 17.34-9.34 9.34-17.35c-8-8.01-90.53-53.92-97.4-56.04-17.34-5.34-1.33-12.01 9.34-16.01 10.67-4 132.09-56.04 132.09-56.04l-140.09-72.05z" style="fill:url(#c)"/><path d="M231.43 827.77c-4.75 0-7.46-2.1-8.91-3.86-4.11-5.01-2.7-12.8-2.53-13.67.16-.81.61-1.54 1.25-2.05l106.77-84.9c-8.14-4.85-26.45-15.85-44.76-27.49-50.55-32.1-51.9-37.53-52.55-40.13-1.09-4.34 2.67-10.86 25.08-31.35 15.61-14.26 37.72-32.92 61.13-52.68 22.46-18.95 47.91-40.43 70.96-60.87a3.476 3.476 0 0 1 3.92-.49l140.09 72.05a3.51 3.51 0 0 1 1.9 3.24 3.493 3.493 0 0 1-2.12 3.09c-4.96 2.12-121.61 52.11-132.24 56.1-10.52 3.94-13.6 6.17-14.49 7.21.56.43 1.91 1.25 4.95 2.18 6.76 2.08 89.91 47.98 98.84 56.91 3.08 3.08 3.35 6.28 3.04 8.43-1.14 7.78-11.96 13.81-13.19 14.48-.12.06-.24.12-.37.17-39.32 15.64-235.99 93.64-246.79 93.64zm-4.73-14.97c-.17 1.9-.13 5.03 1.24 6.69.45.55 1.3 1.28 3.44 1.29 9.46-.83 151-56.06 244.05-93.07 3.7-2.04 8.97-6.18 9.41-9.24.08-.57.04-1.36-1.06-2.46-7.71-7.71-90.02-53.34-95.95-55.17-4.28-1.32-9.99-3.64-10.14-8.55-.17-5.67 6.94-9.45 19.28-14.08 9.01-3.38 99.31-42 125.1-53.05l-131.35-67.55c-22.63 20.02-47.39 40.91-69.3 59.4-22.52 19.01-43.8 36.96-59.16 50.89-20.76 18.83-24.25 24.57-24.69 26.27 3.48 6.88 52.49 38.67 98.36 65.69.99.59 1.63 1.62 1.71 2.77a3.49 3.49 0 0 1-1.31 2.98L226.69 812.8z" style="fill:#9b2902"/><path class="m" d="M308.43 350.61c-27 54-226.42 402.31-228.21 405.65-1.79 3.35 15.21 42.35 25.21 51.35s235-438 235-438l-32-19z"/><circle class="f" cx="185.24" cy="740.11" r="40.5"/><path class="d" d="M185.24 787.11c-25.92 0-47-21.08-47-47s21.08-47 47-47 47 21.08 47 47-21.08 47-47 47zm0-81c-18.75 0-34 15.25-34 34s15.25 34 34 34 34-15.25 34-34-15.25-34-34-34z"/><path class="f" d="M293.85 875.36c0 14.14-9.5 25.61-21.23 25.61s-21.23-11.46-21.23-25.61 9.5-25.61 21.23-25.61 21.23 11.46 21.23 25.61z"/><path class="d" d="M272.63 907.47c-15.29 0-27.73-14.4-27.73-32.11s12.44-32.11 27.73-32.11 27.73 14.4 27.73 32.11-12.44 32.11-27.73 32.11zm0-51.22c-8.12 0-14.73 8.57-14.73 19.11s6.61 19.11 14.73 19.11 14.73-8.57 14.73-19.11-6.61-19.11-14.73-19.11z"/><path class="f" d="M407.07 902.84c-14.21 10.99-32.7 10.89-41.3-.23-8.6-11.12-4.05-29.04 10.16-40.03 14.21-10.99 32.7-10.89 41.3.23 8.6 11.12 4.05 29.04-10.16 40.03z"/><path class="d" d="M385.09 917.18c-10.33 0-19.59-4.3-25.38-11.79-11.29-14.59-6.62-37.18 10.4-50.35 7.67-5.94 16.89-9.2 25.96-9.2 10.33 0 19.59 4.3 25.38 11.79 5.61 7.26 7.5 16.6 5.33 26.31-2.07 9.26-7.66 17.8-15.73 24.04-7.67 5.93-16.89 9.2-25.96 9.2zm10.98-58.34c-6.21 0-12.6 2.3-18.01 6.49-11.35 8.78-14.97 23.19-8.07 32.11 3.36 4.35 8.73 6.75 15.1 6.75s12.6-2.3 18.01-6.49c5.68-4.39 9.58-10.29 11-16.6 1.31-5.87.27-11.37-2.93-15.51-3.36-4.35-8.73-6.75-15.1-6.75z"/><ellipse class="f" cx="270.4" cy="604.11" rx="37" ry="40.5"/><path class="d" d="M270.4 651.11c-23.99 0-43.5-21.08-43.5-47s19.51-47 43.5-47 43.5 21.08 43.5 47-19.51 47-43.5 47zm0-81c-16.82 0-30.5 15.25-30.5 34s13.68 34 30.5 34 30.5-15.25 30.5-34-13.68-34-30.5-34z"/><circle class="f" cx="389.24" cy="780.77" r="44.5"/><path class="d" d="M389.24 831.77c-28.12 0-51-22.88-51-51s22.88-51 51-51 51 22.88 51 51-22.88 51-51 51zm0-89c-20.95 0-38 17.05-38 38s17.05 38 38 38 38-17.05 38-38-17.05-38-38-38z"/><path class="f" d="M576.4 565.11c0 29.18-23.66 52.83-52.83 52.83s-52.83-23.65-52.83-52.83 23.65-52.83 52.83-52.83 52.83 23.65 52.83 52.83z"/><path class="d" d="M523.57 624.44c-32.72 0-59.33-26.62-59.33-59.33s26.62-59.33 59.33-59.33 59.33 26.62 59.33 59.33-26.62 59.33-59.33 59.33zm0-105.67c-25.55 0-46.33 20.79-46.33 46.33s20.79 46.33 46.33 46.33 46.33-20.79 46.33-46.33-20.79-46.33-46.33-46.33z"/><ellipse class="d" cx="533.24" cy="544.61" rx="22.5" ry="17"/><ellipse class="d" cx="276.24" cy="588.61" rx="15.5" ry="9"/><ellipse class="d" cx="392.74" cy="762.61" rx="20" ry="14"/><ellipse class="d" cx="396.24" cy="871.11" rx="10.5" ry="5.5"/><ellipse class="d" cx="273.24" cy="878.61" rx="7.5" ry="5"/><ellipse class="d" cx="192.74" cy="724.11" rx="18" ry="13.5"/><path class="m" d="M660.43 532.61c-27 54-239.9 456.65-241.69 460-1.79 3.35 28.69-12 38.69-3s235-438 235-438l-32-19z"/><path class="h" d="M558.43 482.61c-27 54-267.21 449.65-269 453-1.79 3.35 81 44 138 48 13.42.94 255-451 255-451l-124-50z"/><path d="M329.43 355.61c-51 91-236 439-236 439s48.69 63.99 110 97c13 7 258-452 258-452l-132-84z" style="mix-blend-mode:color-dodge;opacity:.55;fill:#fff"/><path class="d" d="M444.54 1003.52c-43.92 0-124.25-29.04-204.66-73.98-54.38-30.39-102.59-64.33-135.73-95.57-36.53-34.43-50.1-60.68-40.33-78.01 1.45-2.57 247.36-442.52 249.84-446.96l3.72-6.66 413.43 226.42-3.64 6.69c-10 18.38-245.04 450.28-246.76 453.34-5.51 9.78-17.59 14.74-35.87 14.74zM325.91 330.87c-31.37 56.38-238.8 429.16-240.09 431.45-3.99 7.1 3.2 26.6 36.57 58.19 31.46 29.78 77.42 62.26 129.42 91.45 76.35 42.87 151.82 70.56 192.27 70.57 11.67 0 19.46-2.41 21.91-6.78 2.23-4.02 207.34-382.62 237.02-437.41L325.9 330.88z"/><path class="h" d="M685.93 572.76c-23.56 35.99-114.82 9.37-225.36-63.01-110.54-72.38-181.05-160.23-157.48-196.21 23.56-35.99 132.28-6.48 242.81 65.9 110.54 72.38 163.59 157.34 140.03 193.32z"/><path class="n" d="M744.43 464.61c-26.18-11.56-52.98-50.61-69-32-34.95-26.4-92.46-2.75-142.96-31.1-50.43-28.31-61.34-69.82-102.04-85.9 1.03-1.72-8.39-46-26-22-18.04 24.6-24.68-38.17-56-52-31.32-13.83-53.68 7.09-66 35-5.12 11.59-4.52 32.85-2 42 11 40 75.31 101.73 201.67 172.67 112.72 63.28 217.48 96.1 247.59 86.74 17.1-3.51 36.08-17.86 41.74-34.4 13-38 4.32-65.17-27-79z"/><path class="l" d="M391.21 408.57c124.48 74.16 223.33 114.19 263.49 103.78 9.18-2.38 66.61-15.24 24.33-55.32-5.8-5.5 8.69-13.26 11.48-20.16 2.13 2.53 2.43 6.69-.47 13.24-12.33 27.9 45.39 2.36 73 22.62s20.62 50.07 2.57 74.66c-7.5 10.22-26.23 20.29-35.41 22.67-40.16 10.41-125.74-14.57-250.22-88.73-104.89-62.49-182.66-132.36-196.79-165.86 30.89 24.49 66.21 68.17 108.03 93.09z"/><path class="i" d="M634.43 450.61c95 116-85 71-91 72s135.52 50.32 156 48c53-6 89-57-3-104-7.18-3.67-62-16-62-16z"/><path class="g" d="M716.75 581.08c-46.7 0-144.71-36.71-238.33-89.27-117.61-66.03-192.41-130.62-205.23-177.22-2.95-10.72-3.47-33.79 2.37-47.02 12.48-28.28 31.54-43.85 53.67-43.85 7.21 0 14.68 1.69 22.22 5.02 16.94 7.48 26.9 25.9 34.91 40.7 3.01 5.57 7.44 13.74 10.05 15.97.43-.38 1.09-1.07 1.96-2.25 4.95-6.75 10.38-10.18 16.13-10.18 4.32 0 10.6 1.99 15.98 11.46 3.15 5.54 5.07 11.99 5.94 15.34.46 1.8.81 3.34 1.05 4.67 19.77 9.02 32.72 23.64 46.38 39.05 13.98 15.77 28.43 32.07 52.27 45.46 24 13.47 49.88 14.43 74.91 15.36 23.4.87 45.61 1.69 63.87 12.87 3.18-2 6.75-3.04 10.56-3.04 11.64 0 23.48 9.56 36.01 19.69 8.63 6.97 17.56 14.19 25.96 17.89 17.51 7.73 29.02 19.47 34.2 34.91 4.97 14.8 3.92 32.76-3.13 53.38-6.17 18.04-26.32 34.86-46.97 39.25-4.07 1.21-8.91 1.8-14.8 1.8zM329.23 238.73c-21.35 0-34.19 21.87-39.95 34.91-4.15 9.4-3.85 28.91-1.63 36.98 11.59 42.13 85.65 104.98 198.11 168.12 102.15 57.34 193.52 87.35 230.99 87.35 4.47 0 8.07-.42 10.71-1.24l.72-.19c15.46-3.18 31.68-16.4 36.15-29.48 11.92-34.84 4.42-57.64-22.93-69.71-10.22-4.51-19.93-12.36-29.33-19.95-9.49-7.67-20.25-16.36-26.59-16.36-1.23 0-2.6.28-4.37 2.34l-4.59 5.33-5.62-4.24c-15.36-11.6-36.23-12.38-60.41-13.27-25.56-.95-54.53-2.02-81.7-17.27-26.05-14.62-42.04-32.67-56.15-48.59-13.99-15.78-26.07-29.41-44.97-36.88l-8.2-3.24 3.38-5.68c-.87-5.8-5.15-17.92-8.38-19.62-.46.22-1.86 1.07-4 3.99-1.58 2.16-6.39 8.72-14.02 8.72-10.18 0-15.95-10.67-23.27-24.18-6.92-12.79-15.54-28.71-27.78-34.11-5.62-2.48-11.06-3.74-16.16-3.74z"/><path class="n" d="M774.12 495.28c-13.63 24.28-127.55-13.8-254.46-85.04C392.76 339 300.93 261.56 314.55 237.29c13.63-24.28 127.55 13.8 254.46 85.04 126.91 71.24 218.73 148.68 205.11 172.95z"/><path class="g" d="M753.93 510.1c-42.89 0-138.51-37.5-237.94-93.32-61.78-34.68-117.33-71.93-156.42-104.9-43.61-36.78-60.48-62.38-51.56-78.27 4.15-7.4 13.15-11.15 26.73-11.15 42.89 0 138.51 37.5 237.94 93.32 61.78 34.68 117.33 71.93 156.42 104.9 43.61 36.78 60.48 62.38 51.56 78.27-4.15 7.4-13.15 11.15-26.73 11.15zM334.75 237.46c-8.62 0-12.7 1.8-13.65 3.49-2 3.56 2.75 21.18 48.15 59.46 38.39 32.37 93.11 69.05 154.09 103.28 97.38 54.67 190.05 91.4 230.6 91.4 8.62 0 12.7-1.8 13.65-3.49 2-3.56-2.76-21.18-48.15-59.46-38.39-32.37-93.11-69.05-154.09-103.28-97.38-54.67-190.05-91.4-230.6-91.4z"/><path class="i" d="M753.43 488.61c-9.15 16.3-112.26-15.9-227.76-80.74-115.5-64.84-201.39-134.95-192.24-151.26 9.15-16.3 110.49 20.16 226 85 115.5 64.84 203.15 130.7 194 147z"/><path class="l" d="M721.13 481.36c-6.89 12.28-95.91-24.6-198.83-82.38-102.92-57.78-180.76-114.57-173.87-126.84 6.89-12.28 95.91 24.61 198.83 82.38 102.92 57.78 180.76 114.57 173.87 126.85z"/><path class="g" d="M710.45 496.22c-25.42 0-105.94-35.24-195.82-85.7-50.03-28.08-95.79-56.84-128.86-80.96-16.28-11.88-28.68-22.06-36.86-30.25-8.08-8.1-15.7-17.5-11.02-25.84 2.3-4.11 6.75-6.19 13.22-6.19 25.41 0 105.94 35.24 195.82 85.7 50.03 28.08 95.79 56.84 128.86 80.97 16.28 11.88 28.68 22.06 36.86 30.25 8.08 8.09 15.7 17.5 11.02 25.84-2.3 4.11-6.75 6.19-13.22 6.19zM353.88 282.44c4.23 5.47 15.78 17.29 47.2 39.66 31.99 22.78 74.92 49.53 120.89 75.34 92.73 52.06 163.12 81.19 185.71 83.62-4.23-5.47-15.78-17.29-47.2-39.66-31.99-22.78-74.92-49.53-120.88-75.34-92.73-52.06-163.12-81.19-185.71-83.62z"/><path d="M663.17 453.19c-4.05 7.21-34.39-2.15-67.77-20.89-33.38-18.74-57.17-39.78-53.12-46.98 4.05-7.21 34.39 2.14 67.77 20.89 33.39 18.74 57.17 39.78 53.12 46.98z" style="fill:#282828"/><path class="g" d="M656.54 463.12c-13.3 0-38.13-9.3-64.81-24.28-16.6-9.32-31.48-19.52-41.9-28.74-8.62-7.63-19.47-18.88-14.1-28.46 1.6-2.86 5.19-6.26 13.17-6.26 13.3 0 38.13 9.3 64.81 24.28 16.6 9.32 31.48 19.52 41.9 28.74 8.63 7.63 19.47 18.88 14.1 28.46-1.6 2.86-5.19 6.26-13.17 6.26zm-104.96-72.56c5.55 6.91 21.12 20.39 47.49 35.2 24.85 13.95 44.95 21 54.8 22.18-5.55-6.91-21.12-20.39-47.49-35.2-24.85-13.95-44.95-21-54.8-22.18z"/><path class="m" d="M307.7 272.39c-2.13-1.38-4.37-2.02-6.63-1.34-7.7 2.31-7.25 20.71-6.93 27.08.96 19.46 15.83 35.38 30.65 46.18 51.85 37.79 106.96 71.7 165.82 98.74 15.09 6.93 30.59 13.12 46.58 17.66 9.06 2.57 26.52 10.64 34.69 3.84-10.79-12.31-36.34-19.79-50.73-28.56-19.88-12.12-39.12-25.24-58.61-37.96-24.56-16.04-49.32-31.79-73.11-48.96-22.69-16.37-41.43-35.56-62.01-54.35-7.12-6.5-11.58-17.05-19.71-22.33z"/><path class="d" d="M313.43 282.61c-13 9-16 39 8 47s31 3 25-9-33-38-33-38zm72.71 70.52c-5.91-7.2-21.72-10.64-27.75-2.01-6.35 9.1 6.89 21.66 16.04 20.46h.05c.5.17 1 .32 1.49.45 4.44 1.18 9.51-.25 12.01-4.28 3.13-5.05 1.7-10.3-1.84-14.61zM58.71 782.61c-4.6-2.91-8.92-3-12.54-1.3-8.28-4.9-12.24 6.21-12.73 13.49-.31 4.59.86 9.45 2.99 13.96 1.26 5.76 4.18 11.09 8.83 14.83 3 2.42 6.13 3.14 9.2 2.23 6.99 1.47 13.64-2.45 16.21-10.06 3.54-10.49-2.71-27.3-11.96-33.15zm28.3 61.37c-.61-2.3-2.06-4.55-3.8-6.15-2.22-2.04-4.79-3.05-7.78-3.26-3.19-.22-5.6 1.65-7.41 4.01-1.4 1.81-1.3 4.72-.78 6.8.53 2.11 1.77 3.68 3.07 5.35 2.69 3.46 7.42 5.62 11.75 4.7 2.37-.5 4.32-2.67 4.94-4.94.18-.66.25-1.38.22-2.11.24-1.41.2-2.86-.2-4.39zm228.31-406.77c-9.05 11.64-12.39 29.3-15.55 42.28-1.52 6.24-4.91 19.47-.49 25.13 6.54 8.38 19.85-2.12 27.7-5.5 17.85-7.68 38.43-27.2 35.25-48.75-2.37-16.07-15.65-29.02-32.06-23.84-6.24 1.97-11.05 5.8-14.86 10.69zm-38.33 89.18c-4.13 3.46-7.63 7.71-9.89 11.81-4.31 7.83-8.61 15.71-13.57 23.08-2.3 3.42-9.72 13.12-5.76 17.37 7.25 7.78 23.79-6.31 29.26-10.62 11.6-9.13 23.01-19.07 28.87-32.94 4.65-11.01-3.26-17.87-15.09-15.75-4.81.86-9.64 3.55-13.83 7.05z"/><path class="m" d="M783.72 90.81c-24 42-81 108-87 133s-5.97 36.8-5.97 36.8-56.03 59.2-70.03 75.2-47 59-40 70 47 31 60 25 48-84 57-92 98-70 115-74 46-2 52-2-29-64-35-64-33.32 7.93-45.66 7.96c-12.34.04 40.66-54.96 41.66-58.96s14-53 11-54-53-3-53-3z"/><path class="m" d="M700.57 324.83c26.15 41.98 44.15 67.98 89.15 80.98s124-4 140-21 57-51 45-94-24-85-59-91-94 0-99 1 7 26 18 37 49 18 61 40 23 43-13 62-61 29-87 3-44-73-47-71-48.15 53.02-48.15 53.02zM921.72 82.81c-41 28-76 28-76 28s-1-49-8-65-52-44-78-43-75.24 25.6-84 59c-15.28 58.24 37 103 47 104s41-39 41-39-24-22-21-37 32-23 38-12-2 29-2 29-8 49 10 58 82 12 112 3 37-10 37-10l-16-75z"/><path class="j" d="M840.35 76.81c-.32-12.21-2.38-23.6-7.26-34.84-.72-1.66-2.14-2.27-3.58-2.16a48.21 48.21 0 0 0-4.01-6.43c-2.9-3.94-6.18-7.39-9.84-10.62-1.84-1.63-3.67-2.92-5.87-4.02-.94-.46-1.81-1.05-2.58-1.76a16.5 16.5 0 0 0-.45-.39v-.03c-.06-.14-.13-.27-.19-.41-1.53-3.24-5.59-1.14-5.95 1.61-.22 1.64.89 3.75 1.48 4.93 1.96 3.9 5.37 6.92 8.02 10.35 6.06 7.86 9.97 15.07 11.61 24.94 3.31 19.91-1.17 41.14-7.08 60.11-2.92 9.35-7.56 17.53-12.46 25.97-5.04 8.69-9.88 17.54-16.44 25.2-6.34 7.41-11.97 15.41-18.78 22.41-3.25 3.34-6.87 6.11-9.8 9.77-1.91 2.38-3.18 5.7-5.04 8.14-.72.76-1.38 1.54-1.96 2.43-3.63 5.58 2.32 10.85 7.71 10.04 4.1-.62 7.05-3.81 8.87-7.35 2.01-3.93 5.5-6.95 8.81-9.75 7.77-6.57 13.6-15.5 20.03-23.3 3.28-3.98 6.31-8.02 9.18-12.17 4.46-1.26 8.29-5.34 11.42-8.37 4.06-3.92 7.55-8.64 10.54-13.42 6.14-9.82 10.42-22.12 12.47-33.47 2.24-12.35 1.5-24.96 1.17-37.43zm-120.3 241.33c16 28.67 58.67 60 98 64s101.58-16.45 121.33-40c17.33-20.67 32.67-55.33 32.67-55.33s3.33 53.33-33.33 82.67c-36.67 29.33-95.33 52-141.33 44s-90.11-83.71-90.11-83.71l12.78-11.62z"/><path class="j" d="M609.72 420.81c27-72 87.94-151.99 177-186 55-21 115 6 123 32s-2 36-3 33-15-39-42-41-98 11-152 59-81 120-81 120l-22-17zM786.78 60.77c-6.43-7.82-15.3-8.29-24.72-8.38-19.11-.2-33.49 12.71-38.82 30.31-6.6 21.81 6.81 47.74 29.49 52.49.94.2 1.96.19 3.06-.11 5.72-1.57 6.05-8.78 1.55-11.87-2.3-1.58-4.25-3.71-6.12-5.92-1.2-2.62-3.16-4.95-4.98-7.66-3.75-5.6-2.14-13.67-.08-19.53 2.08-5.94 4.65-11.26 9.19-15.72 4.98-4.89 12.21-6.67 18.95-7.61.41-.06.74-.18 1.04-.32.39.17.76.35 1.12.55 5.96 3.35 8.71 12.23 9.38 18.5.49 4.51 6.79 4.64 7.11 0 .57-8.31-.7-18.05-6.17-24.7z"/><path class="d" d="M830.42 420.81c-13.13 0-25.98-1.71-38.49-5.14-30.95-8.48-52.18-25.34-64.55-37.99a195.917 195.917 0 0 1-19.95-24.01c-3.19-4.52-7.32-9.74-9.14-15.02-1.64-4.79 4.59-9.41 8.98-8.89 5.02.59 7.26 7.57 9.65 11.23 6.11 9.38 13.36 18.2 21.19 26.2 17.8 18.21 67.78 57.42 147.39 28.2 73.02-26.8 84.54-87.95 79.83-119.86-3.4-23.05-10.86-39.1-23.48-50.5-16.76-15.14-43.72-22.24-80.2-21.1-86.59 2.7-138.85 38.23-174.69 68.87-36.52 31.22-94.78 112.7-98.14 132.87a7.483 7.483 0 0 1-8.63 6.16c-4.08-.68-6.85-4.55-6.16-8.63 4.6-27.58 67.94-111.67 103.19-141.8 37.71-32.24 92.71-69.61 183.97-72.46 41.04-1.28 70.71 6.88 90.72 24.96 15.35 13.86 24.33 32.75 28.27 59.44 7.2 48.77-17.69 109.78-89.5 136.14-20.57 7.55-40.72 11.33-60.24 11.33z"/><path class="d" d="M630.32 437.08c-18.18 0-45.44-10.17-57.45-25.32a7.504 7.504 0 0 1 1.22-10.54c3.24-2.57 7.96-2.03 10.54 1.22 5.43 6.84 16.23 13.15 28.91 16.87 12.27 3.6 20.6 3.06 22.77 1.93 5.28-10.31 39.59-71.91 67.88-99.51 29.11-28.4 110.36-78.61 155.42-69.31 22.57 4.66 38.59 16.48 45.1 33.29 5.93 15.29 3.06 32.7-7.88 47.79-7.15 9.86-21.16 17.97-38.44 22.27-17.26 4.29-34.62 3.93-47.62-.99-17.16-6.49-31.07-21.09-39.71-32.19-3.71-4.77-10.74-14.81-14.02-21.81-17.56 10.87-32.89 22.44-42.38 31.69-25.19 24.57-58.5 82.6-65.2 95.98-1.65 3.31-5.57 7.45-14.83 8.41-1.36.14-2.8.21-4.3.21zM770.03 293.3c1.97 4.65 20.71 37.87 46.04 47.45 22.6 8.55 58.39-1.96 68.61-16.05 7.89-10.88 10.09-23.12 6.04-33.56-4.61-11.9-16.74-20.43-34.15-24.02-21.62-4.46-55.99 8.82-86.58 26.02.02.06.03.11.04.17zm-79.28-32.69c-.32 0-.65-.02-.98-.06-4.11-.54-7-4.3-6.47-8.41 2.43-18.63 8.84-37.28 33.27-72.63 4.4-6.37 9.08-13.01 14.04-20.05 8.22-11.67 16.64-23.64 24.03-34.69-7.91-5.41-15.52-14.84-17.19-25.4-1.38-8.71 1.6-16.74 8.39-22.61 10.17-8.79 21.93-12.15 31.46-8.99 6.92 2.29 11.82 7.78 13.43 15.04 2.64 11.86-13.34 36.26-47.86 85.28-4.94 7.01-9.6 13.63-13.96 19.94-25.16 36.42-28.98 52.59-30.73 66.04-.49 3.78-3.72 6.53-7.43 6.53zm79.14-178.99c-3.55 0-8.65 1.66-14.25 6.5-2.88 2.48-3.95 5.32-3.38 8.91.9 5.7 5.71 11.75 10.55 15.17 12.28-19.57 13.21-25.18 13.23-26.32-.49-1.99-1.63-3.26-3.46-3.86-.74-.25-1.65-.39-2.69-.39z"/><path class="j" d="M822.72 154.81c24 8 90.67.67 103.33-10 12.67-10.67 28.67 6 18 10s-65.33 25.33-98 19.33-23.33-19.33-23.33-19.33z"/><path class="d" d="M788.06 207.94c-1.37 0-2.76-.38-4.01-1.16a7.497 7.497 0 0 1-2.32-10.35c4.91-7.75 12.71-18.18 20.96-29.23 12.18-16.29 27.33-36.57 30.28-45.18 8.61-25.2 10.18-61.65-6.69-82.14-7.94-9.64-23.15-17.89-40.7-22.05-18.38-4.37-36.9-3.78-50.8 1.61-31.5 12.22-58.69 45.65-55.93 68.79 5.48 46.05 37.45 62.16 47.95 67.46 1.41.71 2.42 1.22 3.25 1.73a7.514 7.514 0 0 1 2.39 10.34c-2.2 3.51-6.82 4.58-10.33 2.38-.28-.17-1.26-.66-2.05-1.06-5.87-2.96-18.1-9.12-29.89-21.43-14.65-15.29-23.47-34.69-26.2-57.65-1.82-15.25 4.74-32.9 18.47-49.71 12.63-15.47 29.74-28.17 46.93-34.83 34.29-13.29 87.02-1.2 108.5 24.89 20.64 25.06 19.55 66.54 9.31 96.53-3.71 10.85-17.67 29.54-32.46 49.31-8.08 10.81-15.71 21.01-20.31 28.28a7.51 7.51 0 0 1-6.34 3.49z"/><path class="d" d="M852.95 184.71c-2.54 0-5.12-.03-7.75-.1-20.51-.54-36.05-6.97-36.7-7.25-3.82-1.6-5.62-6-4.01-9.82 1.6-3.82 6-5.62 9.82-4.01.12.05 13.73 5.62 31.3 6.09 59.19 1.58 94.65-16.57 105.26-22.98-1.79-18.2-5.96-45.56-11.08-53.44-4.99-7.68-10.33-11.65-13-12.99-5.42 4.76-17.88 13.98-30.31 21.55-22.59 13.76-39.9 19.36-51.45 16.65a7.502 7.502 0 0 1-5.58-9.02 7.502 7.502 0 0 1 9.02-5.58c3.36.79 13.91.99 39.19-14.23 15.29-9.21 28.07-19.36 30.08-21.36 2.03-2.39 5.13-3.67 8.56-3.5 7.96.39 18.44 8.55 26.08 20.3 9.42 14.5 13.43 59.69 13.85 64.8.21 2.56-.9 5.06-2.96 6.61-1.58 1.19-38.35 28.28-110.3 28.28z"/><path class="m" d="M968.98 110.06c4.52 25.19-3.57 47.71-18.06 50.32-14.5 2.6-29.91-15.71-34.43-40.9-4.52-25.19 3.57-47.71 18.06-50.31 14.5-2.6 29.91 15.71 34.43 40.89z"/><path class="d" d="M948.15 168.12c-17.7 0-34.12-19.9-39.04-47.32-2.41-13.45-1.62-26.77 2.22-37.49 4.36-12.14 12.13-19.78 21.9-21.54 1.35-.24 2.72-.36 4.1-.36 17.7 0 34.12 19.9 39.04 47.32 2.41 13.45 1.62 26.77-2.22 37.49-4.36 12.13-12.13 19.78-21.9 21.54-1.35.24-2.72.36-4.1.36zm-10.82-91.7c-.49 0-.97.04-1.45.13-4.2.75-8 5.07-10.43 11.84-2.93 8.17-3.51 19.02-1.58 29.77 3.75 20.92 15.58 34.97 24.28 34.97.49 0 .97-.04 1.45-.13 4.2-.75 8-5.07 10.43-11.84 2.93-8.17 3.51-19.02 1.58-29.77-3.75-20.92-15.58-34.97-24.28-34.97zM383.67 872.87c-45.33-11.33-46.67 1.33-32 8.67 14.67 7.33 38 25.33 44.67 18 6.67-7.33-12.67-26.67-12.67-26.67zm22.66 36c-10 10.67-12 49.33-2.67 42.67 9.33-6.67 24.67-20.67 20.67-28.67s-18-14-18-14zm-188-236c-28 3.33-58 48-38 39.33 20-8.67 49.33-16.67 52.67-27.33s-14.67-12-14.67-12zm45.34 6.67c-14.67 0-11.33 20.67-4 18 7.33-2.67 16-.67 15.33-6.67s-11.33-11.33-11.33-11.33z"/></g></g></svg>