<svg version="1.1" id="Layer_1" xmlns="http://www.w3.org/2000/svg" x="0" y="0" viewBox="0 0 52 52" style="enable-background:new 0 0 52 52" xml:space="preserve"><style>.st1{fill:none;stroke:#a18f96;stroke-width:2;stroke-linecap:round;stroke-linejoin:round}</style><path d="M40.1 15.1 35 8.2c-1.4-1.8-4-2.3-5.9-1l-11.9 7.9" style="fill:none;stroke:#fe932a;stroke-width:2;stroke-linecap:round;stroke-linejoin:round"/><path class="st1" d="M40.1 24.9h5.4c1.2 0 2.2 1 2.2 2.2v6.5c0 1.2-1 2.2-2.2 2.2h-5.4c-3 0-5.4-2.4-5.4-5.4h0c0-3.1 2.4-5.5 5.4-5.5h0z"/><path class="st1" d="M45.5 24.9v-4.3c0-3-2.4-5.4-5.4-5.4H11.9c-3 0-5.4 2.4-5.4 5.4v19.5c0 3 2.4 5.4 5.4 5.4h28.2c3 0 5.4-2.4 5.4-5.4v-4.3"/></svg>