<svg width="52" height="52" fill="none" xmlns="http://www.w3.org/2000/svg"><path d="M6.5 29.742v0a6.66 6.66 0 0 0 4.708-1.95l3.582-3.582a6.66 6.66 0 0 1 4.708-1.95v0a6.66 6.66 0 0 1 4.708 1.95l3.582 3.582a6.66 6.66 0 0 0 4.708 1.95v0a6.66 6.66 0 0 0 4.708-1.95l3.581-3.582a6.66 6.66 0 0 1 4.709-1.95v0" stroke="#AC64FF" stroke-width="2" stroke-linecap="round" stroke-linejoin="round"/><path clip-rule="evenodd" d="M38.567 45.5H13.433A6.934 6.934 0 0 1 6.5 38.567V13.433A6.934 6.934 0 0 1 13.433 6.5h25.134a6.934 6.934 0 0 1 6.933 6.933v25.134a6.934 6.934 0 0 1-6.933 6.933Z" stroke="#a18f96" stroke-width="2" stroke-linecap="round" stroke-linejoin="round"/></svg>