<svg width="269" height="241" fill="none" xmlns="http://www.w3.org/2000/svg"><g filter="url(#a)"><path d="M44.125 137.842v0a30.867 30.867 0 0 0 21.82-9.038l16.6-16.599a30.866 30.866 0 0 1 21.82-9.037v0a30.867 30.867 0 0 1 21.821 9.037l16.598 16.599a30.868 30.868 0 0 0 21.821 9.038v0a30.866 30.866 0 0 0 21.82-9.038l16.599-16.599a30.867 30.867 0 0 1 21.821-9.037v0" stroke="#AC64FF" stroke-width="2" stroke-linecap="round" stroke-linejoin="round"/></g><path d="M44.125 137.842v0a30.867 30.867 0 0 0 21.82-9.038l16.6-16.598a30.867 30.867 0 0 1 21.82-9.038v0a30.868 30.868 0 0 1 21.821 9.038l16.598 16.598a30.868 30.868 0 0 0 21.821 9.038v0a30.866 30.866 0 0 0 21.82-9.038l16.599-16.598a30.868 30.868 0 0 1 21.821-9.038v0" stroke="#AC64FF" stroke-width="2" stroke-linecap="round" stroke-linejoin="round"/><path opacity=".2" clip-rule="evenodd" d="M192.742 210.875H76.258c-17.743 0-32.133-14.39-32.133-32.133V62.258c0-17.743 14.39-32.133 32.133-32.133h116.484c17.743 0 32.133 14.39 32.133 32.133v116.484c0 17.743-14.39 32.133-32.133 32.133Z" stroke="#686A72" stroke-width="2" stroke-linecap="round" stroke-linejoin="round"/><defs><filter id="a" x=".125" y="58.168" width="268.72" height="124.674" filterUnits="userSpaceOnUse" color-interpolation-filters="sRGB"><feFlood flood-opacity="0" result="BackgroundImageFix"/><feBlend in="SourceGraphic" in2="BackgroundImageFix" result="shape"/><feGaussianBlur stdDeviation="22" result="effect1_foregroundBlur_2363_4741"/></filter></defs></svg>