<svg xmlns="http://www.w3.org/2000/svg" viewBox="0 0 52 52" style="enable-background:new 0 0 52 52" xml:space="preserve"><path d="M45.1 20.6c1.7 1.7 1.7 4.5 0 6.2-1.7 1.7-4.5 1.7-6.2 0-1.7-1.7-1.7-4.5 0-6.2 1.7-1.7 4.4-1.7 6.2 0m-14.3-7.8c2.6 2.6 2.6 6.9 0 9.5-2.6 2.6-6.9 2.6-9.5 0s-2.6-6.9 0-9.5c2.6-2.6 6.8-2.6 9.5 0m-17.7 7.8c1.7 1.7 1.7 4.5 0 6.2-1.7 1.7-4.5 1.7-6.2 0-1.7-1.7-1.7-4.5 0-6.2 1.8-1.7 4.5-1.7 6.2 0" style="fill:none;stroke:#e94560;stroke-width:2;stroke-linecap:round;stroke-linejoin:round"/><path d="M49.8 41.2v-2.4c0-3-2.4-5.4-5.4-5.4h-1.7M2.2 41.2v-2.4c0-3 2.4-5.4 5.4-5.4h1.7m28.3 7.8v-3.5c0-4.2-3.4-7.6-7.6-7.6h-8c-4.2 0-7.6 3.4-7.6 7.6v3.5" style="stroke:#a18f96;fill:none;stroke-width:2;stroke-linecap:round;stroke-linejoin:round"/></svg>