<svg version="1.1" id="Layer_1" xmlns="http://www.w3.org/2000/svg" x="0" y="0" viewBox="0 0 270 252" style="enable-background:new 0 0 270 252" xml:space="preserve"><style>.st0{fill:none;stroke:#e94560;stroke-width:2;stroke-linecap:round;stroke-linejoin:round}</style><path class="st0" d="M167.1 62.1c12.8 12.8 12.8 33.5 0 46.3-12.8 12.8-33.5 12.8-46.3 0-12.8-12.8-12.8-33.5 0-46.3s33.6-12.8 46.3 0M81.7 100c8.3 8.3 8.3 21.7 0 30s-21.7 8.3-30 0-8.3-21.7 0-30 21.7-8.3 30 0"/><path class="st0" d="M167.1 62.1c12.8 12.8 12.8 33.5 0 46.3-12.8 12.8-33.5 12.8-46.3 0-12.8-12.8-12.8-33.5 0-46.3s33.6-12.8 46.3 0M81.7 100c8.3 8.3 8.3 21.7 0 30s-21.7 8.3-30 0-8.3-21.7 0-30 21.7-8.3 30 0"/><path d="M28.5 199.5V188c0-14.5 11.7-26.2 26.2-26.2h8.4m137 37.7v-16.8c0-20.3-16.5-36.8-36.8-36.8h-38.6c-20.3 0-36.8 16.5-36.8 36.8v16.8" style="opacity:.2;stroke:#686a72;enable-background:new;fill:none;stroke-width:2;stroke-linecap:round;stroke-linejoin:round"/></svg>