<svg xmlns="http://www.w3.org/2000/svg" width="98" height="107" fill="none"><path stroke="#000" d="M43.76 16c-.33 0-.664.066-.984.2-1.283.56-1.89 2.053-1.33 3.335.536 1.26.72 2.518.86 3.778.04.55.065 1.085.058 1.617-.003.197.012.395-.003.591-.04.532-.335 1.064-.729 1.596-.721.928-1.445 1.96-2.604 2.16-5.583.962-10.598 3.593-14.534 7.348a.064.064 0 0 1-.075.01c-.537-.35-1.047-.701-1.863-.725-.64-.039-1.234-.141-1.67-.443-.175-.122-.33-.272-.496-.405a13.834 13.834 0 0 1-1.168-1.038c-.91-.886-1.776-1.844-2.405-3.057a2.613 2.613 0 0 0-1.54-1.262 2.56 2.56 0 0 0-3.148 1.75c-.396 1.329.397 2.752 1.75 3.125 1.306.396 2.402 1.05 3.475 1.75.513.35 1.004.723 1.494 1.143.537.35.815 1.003 1.025 1.75.224 1.086.528 2.257-.047 3.206a27.772 27.772 0 0 0-4.01 15.592c.045 1.033-.687 1.876-1.354 2.665-.41.467-.851.856-1.333 1.018-.24.08-.493.11-.739.169-.49.115-.992.202-1.495.258-1.26.163-2.542.257-3.872-.023a2.594 2.594 0 0 0-1.958.442c-1.143.793-1.4 2.379-.606 3.522.816 1.143 2.4 1.427 3.544.61 1.119-.793 2.308-1.239 3.52-1.635a17.207 17.207 0 0 1 1.55-.407c.196-.04.39-.1.587-.13.529-.077 1.104.094 1.713.35.879.454 1.86.916 2.209 1.842 2.014 5.337 5.625 9.885 10.237 13.099.918.64 1.142 1.84 1.405 2.928.14.77.163 1.495-.164 2.032-.256.583-.534 1.14-.838 1.7-.653 1.072-1.351 2.146-2.377 3.08a2.522 2.522 0 0 0-.843 1.794 2.533 2.533 0 0 0 2.45 2.616c1.4.046 2.591-1.052 2.638-2.452.023-1.376.395-2.586.815-3.8.21-.583.467-1.166.747-1.726.21-.607.768-1.053 1.444-1.426.977-.505 2.028-1.08 3.084-.776a27.485 27.485 0 0 0 7.598 1.081c2.67 0 5.245-.397 7.69-1.108 1.09-.316 2.177.269 3.178.803.676.396 1.234.82 1.444 1.426.28.583.514 1.166.724 1.75.42 1.212.769 2.423.816 3.8 0 .676.278 1.332.815 1.822a2.567 2.567 0 0 0 3.594-.165 2.568 2.568 0 0 0-.164-3.594c-1.026-.91-1.725-2.007-2.355-3.103a22.491 22.491 0 0 1-.838-1.677c-.327-.56-.305-1.262-.142-2.032.187-.793-.022-1.375-.209-1.981a.08.08 0 0 1 .035-.092c5.767-3.544 10.165-9.096 12.177-15.699a.099.099 0 0 1 .1-.07c.653.047 1.282.115 1.982-.282.592-.276 1.186-.454 1.723-.388.193.023.382.074.574.108.515.09 1.041.211 1.552.349 1.212.35 2.428.77 3.57 1.54.56.35 1.26.514 1.96.35 1.375-.303 2.239-1.654 1.935-3.007a2.54 2.54 0 0 0-3.033-1.936c-1.353.303-2.612.253-3.895.137a17.987 17.987 0 0 1-1.584-.241c-.189-.038-.382-.06-.57-.107-.514-.132-.981-.505-1.435-.978-.537-.63-1.143-.793-1.75-.98a.055.055 0 0 1-.036-.056c.078-.852.128-1.71.128-2.582 0-5.058-1.35-9.809-3.708-13.91-.591-1.028-.262-2.26-.023-3.421.176-.625.4-1.185.783-1.556.149-.144.318-.264.476-.398.402-.339.832-.65 1.26-.962 1.05-.7 2.147-1.377 3.453-1.75a2.46 2.46 0 0 0 1.535-1.285 2.5 2.5 0 0 0-1.093-3.403 2.503 2.503 0 0 0-3.407 1.093c-.63 1.214-1.492 2.171-2.378 3.058-.467.443-.932.865-1.421 1.262-.444.466-1.144.605-1.913.651-1.192.034-2.465.139-3.37-.637a27.89 27.89 0 0 0-13.43-6.324c-1.16-.199-1.883-1.232-2.605-2.16-.393-.532-.688-1.064-.729-1.596-.015-.196 0-.394-.003-.59-.007-.533.019-1.067.058-1.618.14-1.26.325-2.518.86-3.777a2.597 2.597 0 0 0 0-2.005A2.556 2.556 0 0 0 43.76 16Zm-4.237 17.947a.67.67 0 0 1 .78.751c-.327 2.52-.56 5.062-.793 7.582-.078.739-.149 1.486-.213 2.232a1.005 1.005 0 0 1-1.586.735 42.507 42.507 0 0 0-2.05-1.405c-2.1-1.423-4.2-2.847-6.368-4.2a.617.617 0 0 1-.07-1.007 23.169 23.169 0 0 1 10.3-4.688Zm7.73.751a.67.67 0 0 1 .78-.751 23.163 23.163 0 0 1 10.659 4.995.678.678 0 0 1-.083 1.096c-2.146 1.376-4.219 2.8-6.318 4.224a65.37 65.37 0 0 0-2.45 1.726c-.63.444-1.494.046-1.54-.724-.07-1.003-.162-1.981-.255-2.984-.233-2.52-.466-5.062-.793-7.582ZM23.587 45.196c.274-.473.923-.536 1.301-.142 1.772 1.843 3.57 3.617 5.389 5.413.77.77 1.539 1.496 2.332 2.219a.955.955 0 0 1-.374 1.63c-1.142.35-2.287.676-3.43 1.049-2.402.793-4.826 1.542-7.229 2.405-.528.185-1.106-.188-1.118-.748a23.207 23.207 0 0 1 3.13-11.826Zm39.477.21a.674.674 0 0 1 1.083.122 23.19 23.19 0 0 1 2.952 11.331c0 .096-.002.19-.006.284a.676.676 0 0 1-.882.605c-2.425-.793-4.848-1.474-7.297-2.174-1.002-.294-2.006-.57-3.008-.832-.761-.2-1.012-1.152-.44-1.691a78.668 78.668 0 0 0 2.26-2.188c1.795-1.796 3.589-3.592 5.338-5.458Zm-20.73 6.788h2.842c.443 0 .865.21 1.098.537l1.817 2.288c.257.303.353.742.283 1.139l-.656 2.824c-.07.444-.374.793-.747 1.003l-2.61 1.212c-.373.21-.839.21-1.212 0l-2.614-1.212c-.374-.21-.7-.56-.747-1.003l-.652-2.824c-.07-.397.026-.836.282-1.14l1.818-2.287c.233-.326.655-.537 1.098-.537ZM33.91 63.32c.724-.117 1.31.608 1.03 1.285-.443 1.166-.865 2.31-1.262 3.476a262.914 262.914 0 0 0-2.496 7.208.766.766 0 0 1-1.181.4 23.295 23.295 0 0 1-7.728-9.842c-.241-.58.166-1.212.792-1.265 2.542-.233 5.038-.54 7.58-.843 1.096-.117 2.17-.28 3.265-.42Zm20.152.328c1.096.116 2.17.235 3.266.328 2.542.233 5.06.465 7.602.629a.594.594 0 0 1 .527.806 23.302 23.302 0 0 1-7.842 10.235.64.64 0 0 1-.989-.335c-.77-2.426-1.607-4.828-2.423-7.207a127.017 127.017 0 0 0-1.143-3.171c-.257-.677.302-1.379 1.002-1.285ZM43.95 68.249c.332 0 .665.168.852.506.513.98 1.052 1.937 1.612 2.893 1.26 2.193 2.515 4.41 3.867 6.557a.79.79 0 0 1-.456 1.186 23.393 23.393 0 0 1-11.844.067c-.538-.137-.77-.76-.477-1.23 1.353-2.147 2.635-4.341 3.918-6.534a60.045 60.045 0 0 0 1.68-2.939.956.956 0 0 1 .848-.505Z"/><path stroke="#000" d="M17.67 105.134.5 83.864V21.323c.072-.041.146-.08.221-.115L41.57 1.775a3.5 3.5 0 0 1 3.008 0l40.85 19.433a3.5 3.5 0 0 1 1.907 2.372l10.07 43.586a3.5 3.5 0 0 1-.686 2.987l-28.241 34.981a3.498 3.498 0 0 1-2.724 1.302h-45.36a3.498 3.498 0 0 1-2.723-1.302Z"/></svg>