<svg xmlns="http://www.w3.org/2000/svg" viewBox="0 0 70 61" style="enable-background:new 0 0 70 61" xml:space="preserve"><path d="M10.4 61H6.8L0 7.2.8 0l2.9 7.2.6 4.5c4.6-3.3 9.5-4.9 14.8-4.9 3.6 0 6.6.9 9 2.6 2.4 1.7 3.6 3.9 3.6 6.4 0 .9-.1 2.1-.4 3.5l-.9 4.7c6.4 5 14.4 7.5 23.9 7.5 6 0 11.2-1.5 15.7-4.5-5.1 7-11 12.2-17.7 15.8-6.7 3.6-14 5.4-21.8 5.4-3.5 0-6.3-.5-8.5-1.5s-3.2-2.2-3-3.7l1.8-13.2c-4.8 0-9.3 1.9-13.6 5.8L10.4 61zM6.8 31.7c4.6-3.6 9.3-5.4 14.1-5.4 2.9 0 5.2.7 6.9 2.1l1.4-6.7c.3-1.6.5-2.9.5-3.8 0-2.1-1-3.9-3.1-5.2-2.1-1.4-4.7-2-7.9-2-3.8 0-8.4 1.6-13.9 4.8l2 16.2zm22.9-3.8-1.5 7.2c-.2 1.1-1.7 2.4-4.5 3.7-.3.2-.9.4-1.5.8-.4.4-.5.8-.5 1.2 0 1.2.7 2.1 2.1 2.7 1.4.6 3.4.9 6.2.9 10.8 0 20-3.1 27.7-9.4-1.8.1-3.1.2-3.9.2-9.8.1-17.8-2.4-24.1-7.3zm-8 9.8c.5-.3.9-.5 1.1-.6 2.7-1.4 4.1-2.7 4.1-4 0-1.5-1.4-2.6-4.2-3.1l-1 7.7z"/></svg>