<svg xmlns="http://www.w3.org/2000/svg" viewBox="0 0 511.999 511.999" style="enable-background:new 0 0 511.999 511.999" xml:space="preserve"><path style="fill:#fed474" d="M170.131 61.621c28.563-3.917 57.457-4.607 86.279-5.292 33.019-.785 66.07-1.569 99.061-.005a352.761 352.761 0 0 1 1.186 82.237c-.125 1.216-.301 2.528-1.152 3.405-1.098 1.131-2.885 1.122-4.458 1.031-43.288-2.497-86.699-7.8-129.873-3.794-5.938.551-12.013 1.323-17.294 4.092-5.62 2.946-9.921 7.962-13.144 13.427-11.871 20.13-9.953 45.106-9.445 68.47.065 3.032-.079 6.485-2.383 8.456-1.618 1.384-3.885 1.641-6.005 1.837a6253.79 6253.79 0 0 1-64.852 5.669c-13.058 1.074-26.297 2.099-39.183-.267-2.041-.375-4.157-.877-5.735-2.225-1.747-1.492-2.561-3.782-3.216-5.985-4.212-14.16-4.834-29.113-5.077-43.884-.294-17.836-.057-35.869 4.157-53.203 5.275-21.705 16.988-41.047 36.878-51.811 22.894-12.39 48.62-18.643 74.256-22.158z"/><path style="fill:#f98c55" d="M470.13 101.887c8.215 8.031 16.529 16.349 21.461 26.724.568 1.194 1.099 2.526.764 3.805-.32 1.22-1.351 2.099-2.327 2.896-39.348 32.133-79.355 64.673-125.977 84.855-1.244.539-2.635 1.076-3.919.639-1.017-.346-1.74-1.238-2.343-2.127-5.098-7.525-5.359-17.211-5.375-26.3-.079-45.328 1.563-90.64 3.205-135.938.409-11.287.826-22.644 3.213-33.683.878-4.062 2.131-8.262 5.082-11.188 8.485-8.418 16.604 5.962 22.346 11.26a8036.624 8036.624 0 0 1 28.586 26.476c18.61 17.334 37.097 34.802 55.284 52.581z"/><path style="fill:#fed474" d="M329.87 317.759c.493 16.093.053 34.459-12.061 45.064-7.974 6.981-19.14 8.732-29.676 9.876a528.914 528.914 0 0 1-125.82-1.407c-1.887 26.227-3.71 52.458-5.471 78.694-.083 1.243-.095 2.674.833 3.506.618.554 1.496.683 2.319.785 50.787 6.304 102.222 1.54 153.176-3.228 28.942-2.708 58.126-5.463 85.905-14.027 19.26-5.938 39.308-16.301 46.735-35.037 3.112-7.851 3.674-16.443 4.2-24.872 1.976-31.613 3.952-63.275 3.143-94.94-.116-4.551-.696-9.845-4.557-12.258-2.501-1.563-5.67-1.403-8.613-1.189-35.696 2.592-72.063 2.587-106.972 10.749-1.52.355-3.178.812-4.058 2.102-2.428 3.561.732 12.327.764 16.618.048 6.509-.048 13.021.153 19.564z"/><path style="fill:#f98c55" d="M34.396 366.228c-3.879 3.312-7.924 7.021-9.044 11.997-1.068 4.747.771 9.641 2.918 14.008 9.053 18.417 23.931 33.343 39.857 46.285 15.927 12.941 33.147 24.255 48.729 37.611 9.536 8.174 18.418 17.079 27.76 25.473 1.444 1.298 3.103 2.662 5.043 2.609 3.873-.106 5.178-5.168 5.353-9.038 2.843-62.807 5.484-125.786 1.014-188.499-.256-3.591-.604-7.38-2.698-10.312-8.652-12.109-50.577 19.968-59.701 25.841a548.412 548.412 0 0 0-59.231 44.025z"/><path style="fill:#231f20" d="M496.546 126.082c-1.992-8.423-10.207-15.336-15.853-21.473-6.641-7.219-13.442-14.297-20.253-21.355-15.079-15.625-30.371-31.081-46.113-46.04-7.683-7.3-15.339-14.659-23.232-21.733-7.601-6.812-15.365-12.497-25.338-15.22-3.326-.908-6.696.632-8.504 3.46-5.159 8.071-4.55 18.145-5.109 27.35-.449 7.4-.898 14.799-1.391 22.195a5.406 5.406 0 0 0-2.119-.628c-57.508-5.266-115.551-4.423-172.797 3.3-43.781 5.907-103.81 12.286-119.125 61.966-10.82 35.098-9.262 77.031-4.217 112.985.699 4.979 1.74 10.372 5.543 13.66 3.563 3.079 8.637 3.51 13.34 3.735a546.1 546.1 0 0 0 58.354-.324c15.708-.927 39.895.553 53.938-6.94 20.199-10.777 6.236-43.628 5.792-60.756-.36-13.86 5.707-24.266 18.046-30.713 13.283-6.94 29.483-6.694 44.083-7.072 31.937-.827 63.965 1.942 95.767 4.65-.475 16.103-.787 32.249-.368 48.332.222 8.508.902 18.47 5.668 25.828 4.584 7.077 12.337 6.49 18.806 2.567 32.014-19.414 63.62-39.381 93.542-61.933 7.139-5.381 14.25-10.808 21.292-16.317 6.243-4.884 12.315-10.783 10.248-19.524zm-146.73-59.636c-1.581 20.456-1.571 41.044-1.818 61.57l-.172 4.61c-27.029-.835-54.098-1.878-81.139-1.752-23.387.109-50.902-2.492-71.661 10.497-9.224 5.771-16.295 14.324-19.325 24.859-3.307 11.497-1.426 23.432.19 35.026.784 5.621 1.6 11.297 1.789 16.976.078 2.356.211 4.854-.173 7.188-.545 3.304-2.271 2.527-5.893 3.188-13.408 2.448-26.936 4.254-40.504 5.529a516.533 516.533 0 0 1-40.661 2.216c-6.433.096-12.85.06-19.273-.325-3.777-.227-5.279.111-6.144-3.755-.76-3.397-1.125-6.93-1.561-10.379-3.464-27.424-2.558-55.334 2.466-82.51 2.064-11.16 4.864-22.669 11.713-31.961 5.778-7.839 13.977-13.307 22.668-17.445 20.333-9.683 44.266-12.604 66.226-16.427 60.045-10.454 121.231-14.159 182.088-10.816a5.32 5.32 0 0 0 1.463-.129c-.092 1.28-.18 2.561-.279 3.84zm130.792 65.013c-.436.568-.987 1.082-1.519 1.546a659.309 659.309 0 0 1-115.384 80.874 969.28 969.28 0 0 1-1.07-153.346c.246-3.398 4.945-42.25 3.684-43.031 11.448 7.084 21.009 17.568 30.604 26.712 12.428 11.844 24.853 23.696 37.095 35.732 15.435 15.174 30.469 30.758 45.625 46.21.823.84 1.695 1.781 1.791 2.953.074.869-.288 1.65-.826 2.35zm-20.052 158.65a316.05 316.05 0 0 0-1.542-11.222c-.55-3.527-1.235-7.22-3.498-9.981-3.656-4.462-10.132-5.103-15.897-5.321-34.835-1.322-69.854.067-104.342 5.278-28.639 4.329-13.223 44.25-12.739 62.874.36 13.86-5.707 24.266-18.046 30.713-13.282 6.94-29.482 6.694-44.083 7.072-31.937.827-63.965-1.942-95.767-4.65.474-16.104.787-32.249.367-48.332-.221-8.508-.901-18.47-5.668-25.829-4.584-7.077-12.336-6.49-18.805-2.566-32.014 19.414-63.62 39.381-93.542 61.933a1487.95 1487.95 0 0 0-21.292 16.317c-6.242 4.884-12.315 10.782-10.248 19.523 1.992 8.423 10.207 15.336 15.853 21.473 6.641 7.219 13.442 14.297 20.253 21.355 15.079 15.625 30.371 31.081 46.112 46.04 7.683 7.301 15.339 14.659 23.232 21.733 7.601 6.813 15.365 12.497 25.338 15.22 3.326.908 6.696-.632 8.504-3.46 5.159-8.071 4.55-18.145 5.109-27.35.449-7.4.898-14.799 1.391-22.195a5.406 5.406 0 0 0 2.119.628c57.508 5.266 115.551 4.423 172.797-3.3 39.115-5.277 94.42-9.945 114.115-50.277 5.751-11.776 8.28-24.852 9.944-37.851 3.306-25.796 3.413-52 .335-77.825zM151.008 418.135a1140.59 1140.59 0 0 1-5.038 76.398c-10.019-6.478-18.735-14.745-27.345-23.004a3524.352 3524.352 0 0 1-86.439-85.835c-.79-.812-1.624-1.719-1.721-2.847-.133-1.545 1.142-2.812 2.313-3.828 34.195-29.653 71.906-58.399 112.302-79.126 1.021-.523 2.915-.801 2.715-1.455 1.344 2.073 1.341 9.094 1.55 10.983.523 4.746.824 9.489 1.038 14.258 1.411 31.507 1.651 62.997.625 94.456zm295.056-45.52c-2.064 11.16-4.864 22.669-11.714 31.961-5.777 7.839-13.977 13.307-22.668 17.445-20.333 9.683-44.266 12.604-66.226 16.427-60.045 10.454-121.231 14.159-182.088 10.816a5.323 5.323 0 0 0-1.463.129c.094-1.28.182-2.561.28-3.84 1.581-20.456 1.571-41.044 1.818-61.57l.172-4.61c27.029.835 54.098 1.878 81.139 1.752 23.387-.109 50.901 2.492 71.661-10.497 9.224-5.771 16.294-14.324 19.325-24.859 5.246-18.239-1.522-38.51-2.131-57.018-.043-1.285-.026-2.708.833-3.666.743-.827 1.918-1.078 3.012-1.279a490.522 490.522 0 0 1 103.688-7.917c1.414.042 2.941.132 4.034 1.031 1.289 1.061 1.562 2.895 1.746 4.555 1.652 14.972 3.275 29.705 3.106 44.794-.173 15.486-4.524 31.105-4.524 46.346z"/></svg>