<svg height="512" width="512" xmlns="http://www.w3.org/2000/svg"><path d="M438.71 3.379H73.289c-38.205 0-69.884 31.101-69.884 69.885v365.473c0 38.574 31.364 69.885 69.884 69.885H438.71c38.521 0 69.885-31.311 69.885-69.885V73.263c0-38.521-31.364-69.884-69.885-69.884zm-75.199 10.524L250.843 97.05l-27.891-83.146h140.559zM168.328 161.356l7.262 20.681c.947 2.737-.526 5.736-3.263 6.683-2.737.948-5.736-.525-6.683-3.209l-7.262-20.681a5.227 5.227 0 0 1 3.263-6.683c2.737-.949 5.736.472 6.683 3.209zm-14.471-41.257 7.209 20.629c1 2.737-.473 5.736-3.21 6.683-2.789 1-5.736-.474-6.683-3.211l-7.262-20.628a5.321 5.321 0 0 1 3.21-6.736c2.789-.947 5.736.526 6.736 3.263zm-14.525-41.31 7.262 20.628a5.32 5.32 0 0 1-3.21 6.736c-2.789.947-5.736-.526-6.736-3.263l-7.209-20.629c-.947-2.737.474-5.736 3.21-6.683 2.737-.946 5.736.475 6.683 3.211zM118.178 34.27c2.736-.948 5.736.473 6.683 3.209l7.262 20.629c.947 2.789-.473 5.789-3.21 6.736-2.789.948-5.788-.526-6.736-3.21l-7.209-20.681c-1-2.737.473-5.737 3.21-6.683zM73.289 498.097c-32.732 0-59.36-26.628-59.36-59.36V73.263c0-10.788 2.947-20.839 7.999-29.575l152.189 454.408H73.289zm106.827-271.33-7.262-20.628c-.947-2.737.526-5.736 3.263-6.683 2.737-1 5.736.474 6.683 3.211l7.262 20.628a5.321 5.321 0 0 1-3.21 6.736c-2.789.946-5.789-.527-6.736-3.264zm14.472 41.31-7.209-20.628c-1-2.737.474-5.736 3.21-6.736a5.226 5.226 0 0 1 6.683 3.262l7.262 20.629c.947 2.737-.474 5.736-3.21 6.683a5.235 5.235 0 0 1-6.736-3.21zm14.524 41.31-7.262-20.682c-.947-2.737.474-5.735 3.21-6.683a5.32 5.32 0 0 1 6.736 3.211l7.209 20.681c1 2.737-.474 5.736-3.21 6.683-2.789.948-5.736-.526-6.683-3.21zm14.471 41.257-7.262-20.628c-.947-2.737.474-5.736 3.21-6.683 2.789-.947 5.789.473 6.736 3.21l7.209 20.629c1 2.737-.474 5.736-3.21 6.736a5.25 5.25 0 0 1-6.683-3.264zm14.472 41.31-7.262-20.629c-.947-2.737.474-5.736 3.263-6.736a5.226 5.226 0 0 1 6.683 3.263l7.262 20.629a5.228 5.228 0 0 1-3.263 6.683c-2.736 1-5.736-.473-6.683-3.21zm14.472 41.31-7.209-20.681c-1-2.737.474-5.736 3.21-6.683 2.737-.947 5.736.474 6.683 3.211l7.262 20.681c.947 2.737-.474 5.736-3.21 6.683-2.79.946-5.789-.528-6.736-3.211zm21.207 44.52c-2.789.948-5.736-.526-6.736-3.263l-7.209-20.628c-.947-2.737.474-5.736 3.21-6.683 2.737-1 5.736.473 6.736 3.209l7.209 20.629a5.322 5.322 0 0 1-3.21 6.736zm224.336-97.039-177.185-74.726-18.734-55.939L498.07 105.522z"/></svg>