<svg data-name="Layer 1" xmlns="http://www.w3.org/2000/svg" xmlns:xlink="http://www.w3.org/1999/xlink" viewBox="0 0 564.51 150.05"><defs><linearGradient id="f" data-name="Gradient 272" x1="140" y1="16.14" x2="140" y2="136.62" xlink:href="#a"/><linearGradient id="a" data-name="Gradient 272" x1="99.48" y1="0" x2="99.48" y2="150" gradientUnits="userSpaceOnUse"><stop offset="0" stop-color="#903"/><stop offset="1" stop-color="#ff668c"/></linearGradient><linearGradient id="c" data-name="Gradient 272" x1="78.08" y1="18.7" x2="78.08" y2="139.88" xlink:href="#a"/><linearGradient id="d" data-name="Gradient 272" x1="85.59" y1="10.1" x2="85.59" y2="51.71" xlink:href="#a"/><linearGradient id="e" data-name="Gradient 272" x1="125.79" y1="6.17" x2="125.79" y2="47.47" xlink:href="#a"/><linearGradient id="b" data-name="Gradient 272" x1="93.65" y1="41.1" x2="93.65" y2="73.72" xlink:href="#a"/><linearGradient id="g" data-name="Gradient 272" x1="515.57" y1="32.46" x2="515.57" y2="150.05" xlink:href="#a"/><linearGradient id="h" data-name="Gradient 272" x1="463.29" y1=".05" x2="463.29" y2="117.95" xlink:href="#a"/><linearGradient id="i" data-name="Gradient 272" x1="394.72" y1="31.83" x2="394.72" y2="117.93" xlink:href="#a"/><linearGradient id="j" data-name="Gradient 272" x1="306" y1="31.83" x2="306" y2="119.18" xlink:href="#a"/><linearGradient id="k" data-name="Gradient 272" x1="220.14" y1="3.05" x2="220.14" y2="119.18" xlink:href="#a"/></defs><path d="M32.15 11.41c47.04-12.7 92.11-13.45 136.27-8.77 8.14 11.67 17.03 22.95 26.48 33.93-9.54-7.87-19.35-15.98-27.82-25.26-40.43-3.67-79.92-1.9-121.54 7.88-5.39 14.19-9.92 24.68-18.33 36.54 35.01 22.9 60.58 50.95 84.38 78.4 16.18-27.62 37.22-46.86 58.57-59.24-23.18 24.22-44.52 49.05-62.16 75.1C78.61 116.67 44.66 85.18 4.05 56.4a273.568 273.568 0 0 0 28.1-44.99z" style="fill:url(#a);fill-rule:evenodd"/><path d="M0 73.72c58.8-15.67 119.2-29.15 187.3-32.01C146.11 40.44 22.22 37.89 0 73.72z" style="fill:url(#b);fill-rule:evenodd"/><path d="M42.64 18.7c19.64 32.77 51.25 88.41 70.89 121.18-5.75-19.44-33.2-112.09-70.89-121.18z" style="fill:url(#c);fill-rule:evenodd"/><path d="M63.55 51.71c16.03-12.36 17.44-13.74 44.09-41.61-17.25 8.68-41.71 20.79-44.09 41.61z" style="fill:url(#d);fill-rule:evenodd"/><path d="M150.35 47.47c-13.71-9.96-22.51-18.09-49.1-41.3 20.08 9.36 45.02 19 49.1 41.3z" style="fill-rule:evenodd;fill:url(#e)"/><path d="M170.05 16.14c-21.63 38.78-44.04 80.07-60.09 120.48 5.38-19.63 23.39-99.13 60.09-120.48z" style="fill:url(#f);fill-rule:evenodd"/><path d="m564.51 32.46-38.61 90.73c-8.26 20.66-20.02 26.85-35.43 26.85-8.74 0-18.27-2.86-23.83-7.79l9.06-17.64c3.81 3.34 9.06 5.4 13.98 5.4 6.83 0 10.65-3.02 13.98-10.65l.32-.79-37.02-86.12h25.58l23.99 58 24.15-58h23.83z" style="fill:url(#g)"/><path d="M450.89.05h24.79v117.9h-24.79V.05z" style="fill:url(#h)"/><path d="M416.61 31.83a34.19 34.19 0 0 0-21.89 7.84c-5.95-4.91-13.57-7.86-21.89-7.84-18.99.03-34.26 15.7-34.26 34.69v51.41h24.96V66.34c0-5.09 3.99-9.4 9.08-9.55s9.64 4.1 9.64 9.35v51.79h24.96V66.34c0-5.09 3.99-9.4 9.08-9.55 5.29-.16 9.64 4.1 9.64 9.35v51.79h24.96V66.52c0-18.99-15.27-34.66-34.26-34.69z" style="fill:url(#i)"/><path d="M322.39 65.5h-32.67c.25-.7.57-1.47.94-2.29.65-1.43 1.65-2.82 2.97-4.14 1.32-1.32 3.02-2.43 5.06-3.32 2.02-.88 4.5-1.33 7.37-1.33s5.35.45 7.38 1.33c2.04.89 3.74 2 5.05 3.31 1.32 1.32 2.32 2.72 2.97 4.15.38.83.69 1.59.94 2.29m26.59 11.12v-1.7c0-3.45-.59-7.12-.61-7.28v-.05c-.55-2.93-1.37-5.79-2.45-8.53-2.15-5.42-5.17-10.21-9-14.24-3.83-4.02-8.45-7.22-13.74-9.53-5.3-2.3-11.11-3.47-17.27-3.47s-11.97 1.25-17.23 3.7c-5.23 2.44-9.81 5.72-13.63 9.73-3.82 4.02-6.82 8.73-8.93 14.01a40.99 40.99 0 0 0-2.07 6.65c-.02.05-.03.12-.05.2v.03c-.29.99-1.84 7.09-.44 16.92l-.06.03.38 1.83c.58 2.76 1.43 5.42 2.53 7.92 2.3 5.24 5.47 9.87 9.44 13.79 3.97 3.92 8.61 7.02 13.79 9.22 5.19 2.2 10.81 3.32 16.69 3.32 8.1 0 15.53-2.19 22.08-6.51.43-.29.86-.58 1.28-.88 1.86-1.28 3.67-2.75 5.38-4.38 1.43-1.36 2.79-2.84 4.06-4.38 2.53-3.09 4.74-6.68 6.56-10.67l1.47-3.21h-22.14c-4.07 0-5.65 1.17-7.14 2.57l-.25.24c-.05.06-.12.12-.19.19l-.14.14c-1.07 1.08-1.58 1.5-2.92 2.36-1.98 1.29-4.68 1.94-8.04 1.94-4.38 0-8.25-1.24-11.49-3.68-2.84-2.14-4.72-5.1-5.6-8.83h59.5l.14-2.13c.12-1.8.1-3.59.09-5.33" style="fill:url(#j)"/><path d="m276.97 49.31.02-.02h-33.84c-3.17 0-6.15 1.54-7.99 4.13l-13.81 19.52h29.7c-4.77 12.43-16.83 21.28-30.92 21.28-18.26 0-33.11-14.85-33.11-33.11S201.87 28 220.13 28c7.2 0 13.87 2.32 19.31 6.24h32.16c-9.7-18.54-29.1-31.2-51.47-31.2-32.07 0-58.06 26-58.06 58.06s26 58.06 58.06 58.06 58.06-26 58.06-58.06c0-4.05-.44-7.99-1.23-11.8z" style="fill:url(#k)"/></svg>