<svg height="512" viewBox="0 0 66 66" width="512" xmlns="http://www.w3.org/2000/svg"><path d="M61.375 15.792C54.982 4.507 33.505-4.263 15.032 7.214c-6.087 3.792-9.771 8.58-12.318 16.01C.069 30.906.476 39.409 3.83 46.552c3.718 7.896 10.968 13.941 19.295 16.423.08.174.208.191.347.095 13.091 3.734 30.013-2.511 36.605-11.496 7.451-10.199 5.264-28.776 1.298-35.782zm1.529 7.212a.928.928 0 0 1 .011.051c-.004-.016-.011-.029-.018-.044zM26.075 60.491l1.728 1.728-.481.481a.247.247 0 0 0-.072.179 28.59 28.59 0 0 1-2.361-.457c.016-.01.037-.007.052-.021a.25.25 0 0 0 0-.354l-.211-.211zm-1.572 1.825c-.067-.017-.132-.037-.199-.054l.072-.072zm3.277.634.377-.377.393.393a.249.249 0 0 0 .354 0 .25.25 0 0 0 0-.354l-.393-.393 2.167-2.167 1.784 1.784-1.373 1.373a31.18 31.18 0 0 1-2.339-.13c-.326-.032-.647-.086-.97-.129zm5.78-.721-.393-.393 2.715-2.715 1.673 1.674-2.23 2.23a33.776 33.776 0 0 1-3.53.183l1.018-1.018.393.393a.249.249 0 0 0 .353 0 .249.249 0 0 0 .001-.354zm2.576.693 1.774-1.774 1.032 1.032a.25.25 0 1 0 .354-.354l-1.032-1.032 2.276-2.276 1.29 1.29-1.686 1.686a.25.25 0 1 0 .354.354l1.686-1.686.625.625a.25.25 0 1 0 .354-.354l-.625-.625 2.66-2.66 1.181 1.181-.974.974a.25.25 0 1 0 .353.354l.974-.974.956.956c-3.996 1.751-7.871 2.807-11.552 3.283zm4.756-4.757 2.66-2.66 1.29 1.29-2.66 2.66zm8.389-2.739-2.55 2.55-1.181-1.181 2.55-2.55zm-.827-1.534 2.057-2.057 1.181 1.181-2.057 2.057zm-.272 5.535-1.097-1.097 2.55-2.55 1.201 1.201a.25.25 0 1 0 .354-.353l-1.201-1.201 2.057-2.057 1.674 1.674a.25.25 0 1 0 .354-.353L52.4 53.017l2.277-2.277 1.4 1.4-1.577 1.576a.25.25 0 1 0 .354.354l1.577-1.576.7.7a.249.249 0 0 0 .177.073c-2.352 2.399-5.395 4.466-9.126 6.16zm6.847-9.042 2.222-2.222 1.4 1.4-2.222 2.221zm8.406-9.784-1.886-1.886 1.606-1.606c.233-.233-.119-.588-.354-.354l-1.606 1.606-.864-.864a.25.25 0 1 0-.354.354l.864.864-2.07 2.069a.25.25 0 1 0 .354.354l2.07-2.069 2.132 2.132c-.018.093-.039.184-.058.276-.021.011-.047.009-.065.027l-2.941 2.94-2.672-2.673a.25.25 0 1 0-.354.354l2.672 2.673-1.138 1.138a.25.25 0 1 0 .354.354l1.138-1.138.542.542a.25.25 0 1 0 .354-.354l-.542-.542 2.474-2.474c-.774 3.339-2.047 6.233-3.821 8.661-.515.702-1.1 1.37-1.719 2.023a.246.246 0 0 0-.07-.169l-.7-.7 2.222-2.221.265.265a.25.25 0 1 0 .354-.354l-.265-.265.456-.456a.25.25 0 1 0-.354-.354l-.456.456-1.4-1.4.735-.735a.25.25 0 1 0-.354-.354l-.735.735-1.631-1.631a.25.25 0 1 0-.354.354l1.631 1.631-2.222 2.222-1.796-1.795a.25.25 0 1 0-.354.354l1.796 1.795-2.277 2.277-1.181-1.181 1.82-1.82a.25.25 0 1 0-.354-.354l-1.82 1.82-.7-.7a.25.25 0 1 0-.353.354l.7.7-2.054 2.056-1.686-1.686a.25.25 0 1 0-.354.354l1.686 1.686-2.55 2.55-1.29-1.29.372-.372a.25.25 0 1 0-.354-.354l-.372.372-.535-.535a.25.25 0 1 0-.354.354l.535.535-2.66 2.66-1.686-1.686a.25.25 0 1 0-.354.354l1.686 1.686-2.276 2.276-1.674-1.674 1.46-1.459a.25.25 0 1 0-.354-.354l-1.459 1.459-.974-.974a.25.25 0 1 0-.354.354l.974.974-2.715 2.715-1.784-1.784 1.546-1.546a.25.25 0 1 0-.354-.354l-1.546 1.546-.481-.481a.25.25 0 1 0-.354.354l.481.481-2.167 2.167-1.728-1.728 1.697-1.697a.25.25 0 1 0-.354-.354l-3.396 3.396-.864-.864a.25.25 0 1 0-.354.354l.864.864-.274.274c-8.2-2.335-15.365-8.236-19.013-15.984C1.49 39.218 1.099 30.988 3.66 23.549c2.499-7.291 5.947-11.777 11.9-15.485C34.228-3.538 58.967 5.427 62.815 22.599c-.086-.03-.178-.028-.249.039l-1.25-1.25a.25.25 0 1 0-.354.354l1.248 1.248-1.357 1.358a.249.249 0 0 0 0 .353.249.249 0 0 0 .353 0l1.379-1.379c.199.097.333-.025.346-.189.204.985.363 1.948.488 2.866-.032.012-.068.013-.094.039l-.652.652-1.467-1.467a.25.25 0 1 0-.353.354l1.467 1.467-.59.59a.25.25 0 1 0 .354.354l.59-.59.164.165a.25.25 0 1 0 .354-.354l-.165-.165.468-.468c.132 1.052.159 1.328.251 2.33l-1.236 1.237-.864-.865a.25.25 0 1 0-.354.354l.864.865-1.084 1.084a.25.25 0 1 0 .353.354l1.083-1.084.89.89a.25.25 0 1 0 .354-.354l-.89-.89.942-.942c.329 4.066.202 7.752-.369 11.046z"/><path d="M45.284 14.31c-3.695-2.616-11.278-4.16-18.123-1.929-.69.225-1.371.484-2.041.776-12.449 5.429-18.347 20.096-10.045 31.207a.499.499 0 0 0 .753.056c9.069-9.019 20.445-20.331 29.519-29.348a.5.5 0 0 0-.063-.762zm-4.263-.265-.885-.884c.627.183.699.224 1.335.459-.113.075-.354.328-.45.425zm-7.507-1.733c.086-.002.173-.009.259-.01l-.175.175-.161-.161c.025 0 .051-.003.077-.004zm-3.224.339-.321.321-.225-.225c.419-.086.273-.047.546-.096zm-3.394 1.173a.245.245 0 0 0-.15.062l-1.367 1.367c-.028.028-.029.065-.041.1l-.795-.796c.706-.35 1.424-.661 2.156-.931zm-6.052 4.728c-.028.028-.029.065-.041.099l-.991-.991c.086-.073.162-.15.249-.222.426-.349.866-.664 1.307-.979l.785.784zm-5.007 3.463c-.003-.003-.008-.002-.011-.005a22.307 22.307 0 0 1 1.859-2.308l.468.468-2.08 2.08zm-3.14 14.91c-.018-.078-.03-.157-.047-.236l.142.142zm-.451-4.021.834.834-.765.764a17.414 17.414 0 0 1-.069-1.598zm.488-4.13.964.964-1.359 1.36c.081-.78.212-1.555.395-2.324zm1.054-3.152.364.364-.829.828c.143-.4.294-.798.465-1.192zm1.75 17.676a17.636 17.636 0 0 1-1.8-3.243l.066-.066.286.286a.25.25 0 1 0 .353-.354l-.286-.286 1.34-1.34a.25.25 0 1 0-.353-.354l-1.34 1.34-.612-.612a18.066 18.066 0 0 1-.354-1.179l.306-.306.869.869a.25.25 0 1 0 .354-.354l-.869-.869 1.26-1.261a.25.25 0 1 0-.354-.354l-1.26 1.261-.673-.672c-.039-.234-.065-.469-.094-.704.026-.012.056-.011.078-.032l1.134-1.133c.009-.007.021-.004.03-.012.008-.008.005-.021.012-.029l.729-.728a.25.25 0 1 0-.354-.354l-.572.572L12.25 32.2c.005-.131.023-.261.032-.392.031-.012.066-.013.092-.038l1.679-1.679.003.003a.25.25 0 1 0 .353-.354l-.003-.003.491-.491a.25.25 0 1 0-.354-.354l-.491.491-1.101-1.101c-.021-.021-.051-.02-.076-.032.102-.378.211-.754.337-1.128.011.039.015.08.046.111a.25.25 0 0 0 .354 0l.895-.895.75.75a.25.25 0 1 0 .354-.354l-.75-.75 1.926-1.926a.25.25 0 1 0-.353-.354l-1.927 1.926-.483-.483c-.003-.003-.009-.002-.012-.005.433-.929.942-1.837 1.53-2.719l.184.184a.247.247 0 0 0 .007.337.238.238 0 0 0 .337.007l.772.772a.25.25 0 1 0 .354-.354l-.767-.767 2.08-2.08.653.653a.25.25 0 1 0 .354-.354l-.653-.653.249-.25a.25.25 0 1 0-.354-.354l-.249.249-.475-.475c.445-.462.914-.912 1.408-1.349l1.25 1.249a.25.25 0 0 0 .354 0c.079-.079.077-.191.028-.285.045-.01.093-.018.128-.053l1.418-1.418c.033-.012.069-.013.095-.039s.027-.062.039-.095l.221-.221a.25.25 0 1 0-.354-.354l-.112.112-.734-.733.034-.025a37.309 37.309 0 0 1 2.264-1.341l.992.992a.249.249 0 0 0 .353 0c.038-.038.049-.089.057-.138.091.035.158.065.261-.039l1.367-1.367a.242.242 0 0 0 .062-.15l.473.473a.25.25 0 1 0 .354-.354l-.777-.777c.087-.03.172-.07.26-.099a20.646 20.646 0 0 1 1.743-.469c.012.036.014.075.043.103l.359.359-.607.607a.25.25 0 1 0 .354.354l.607-.607.325.325a.25.25 0 1 0 .354-.354l-.325-.325.545-.545c.064-.064.07-.15.05-.232 1.2-.178.917-.138 1.918-.196.011.042.017.086.049.119l.359.359-.524.524a.25.25 0 1 0 .354.354l.524-.524.527.527a.25.25 0 1 0 .354-.353l-.527-.527.384-.384c.037-.037.047-.087.056-.135.758.01 1.189.029 1.835.092h.002L35.2 13.433a.249.249 0 0 0 0 .353.249.249 0 0 0 .353 0l.896-.896.855.855a.25.25 0 1 0 .353-.354l-.883-.883c.004-.011.011-.021.014-.033 1.433.179 1.398.187 2.591.488l-.715.715a.25.25 0 1 0 .354.353l.648-.648 1.007 1.008-.194.194a.25.25 0 1 0 .354.354l.956-.956c.067-.068.071-.159.045-.244 1 .389 1.697.716 2.353 1.075-11.043 10.974-20.602 20.483-28.649 28.484zm37.237-21.092a.5.5 0 0 0-.809-.101 43827.057 43827.057 0 0 1-26.878 29.204.5.5 0 0 0 .177.801c10.205 4.209 20.573 2.084 26.474-8.646v-.001c3.724-6.788 4.719-14.409 1.036-21.257zM50.863 42.98c-5.455 9.918-14.776 12.152-24.546 8.47 8.687-9.432 17.221-18.701 25.9-28.141 3.147 6.403 2.064 13.441-1.354 19.671zm12.429-10.307a.25.25 0 0 0-.354 0l-1.415 1.415-.316-.316a.249.249 0 0 0-.353 0 .249.249 0 0 0 0 .353l.316.316-.207.207a.25.25 0 1 0 .354.354l.207-.207 1.364 1.364a.25.25 0 1 0 .354-.354l-1.364-1.364 1.415-1.415a.25.25 0 0 0-.001-.353zM22.568 44.949l2.472-2.472.662.662a.25.25 0 1 0 .354-.354l-.662-.662 2.964-2.963.82.82a.25.25 0 1 0 .354-.354l-.82-.82 2.534-2.534.694.694a.25.25 0 1 0 .354-.354l-.694-.694 1.92-1.92.773.773a.25.25 0 1 0 .354-.354l-.773-.773 2.111-2.111a.25.25 0 1 0-.354-.354L33.52 33.29l-.561-.561a.25.25 0 1 0-.354.354l.561.561-1.92 1.92-.499-.499a.25.25 0 1 0-.354.354l.499.499-2.534 2.534-1.052-1.052a.25.25 0 1 0-.354.354l1.052 1.052-2.964 2.963-1.298-1.298a.25.25 0 1 0-.354.354l1.298 1.298-2.472 2.472-1.666-1.667a.25.25 0 1 0-.353.354l1.666 1.667-2.035 2.035a.25.25 0 1 0 .354.354l2.035-2.035 1.236 1.237a.25.25 0 1 0 .354-.354z"/><path d="M10.06 19.948a22.568 22.568 0 0 1 2.104-3.316l.154.135a.251.251 0 0 0 .353-.024.249.249 0 0 0-.024-.352l-.17-.148a24.641 24.641 0 0 1 2.171-2.437c.136.171.286.331.459.465a.25.25 0 0 0 .307-.394 2.21 2.21 0 0 1-.392-.405 24.927 24.927 0 0 1 3.446-2.687l.318.667a.25.25 0 0 0 .451-.215l-.346-.724a24.883 24.883 0 0 1 3.173-1.665l.459.621a.25.25 0 0 0 .403-.297l-.39-.528c.8-.33 1.611-.633 2.444-.877a.25.25 0 0 0 .169-.311.25.25 0 0 0-.31-.17c-.89.261-1.756.588-2.609.945l-.25-.338a.25.25 0 0 0-.403.297l.18.244a25.533 25.533 0 0 0-3.085 1.623l-.014-.028a.25.25 0 0 0-.451.215l.041.085a25.507 25.507 0 0 0-3.495 2.709c-.13-.28-.147-.389-.191-.614a.246.246 0 0 0-.288-.2.248.248 0 0 0-.205.283c.011.073.062.378.104.438.05.152.117.298.192.439a25.1 25.1 0 0 0-2.269 2.529l-.822-.715a.252.252 0 0 0-.353.024.249.249 0 0 0 .024.352l.837.729a22.813 22.813 0 0 0-2.136 3.354l-.778-.55a.253.253 0 0 0-.349.059.25.25 0 0 0 .06.349l.824.582a25.453 25.453 0 0 0-1.439 3.477l-.869-.41a.251.251 0 0 0-.332.12.25.25 0 0 0 .12.333l.924.436a25.438 25.438 0 0 0-.95 4.48l-1.146-.283c-.136-.038-.27.048-.303.182s.048.269.182.303l1.215.302a25.169 25.169 0 0 0-.145 2.933.25.25 0 0 0 .25.246h.004a.25.25 0 0 0 .246-.254c-.015-.938.043-1.873.135-2.804l.426.106a.25.25 0 1 0 .121-.485l-.493-.123c.177-1.487.479-2.956.919-4.385l.586.276a.25.25 0 0 0 .212-.453l-.645-.304c.384-1.164.85-2.302 1.401-3.398l.367.259a.25.25 0 1 0 .288-.408z"/></svg>