<svg height="512pt" viewBox="0 -2 512 512" width="512pt" xmlns="http://www.w3.org/2000/svg"><path d="M448 354.16 330.207 256H160V32c0-17.672 14.328-32 32-32h288c17.672 0 32 14.328 32 32v192c0 17.672-14.328 32-32 32h-32zm0 0" fill="#e76e54"/><path d="M240 80h192c8.836 0 16 7.164 16 16s-7.164 16-16 16H240c-8.836 0-16-7.164-16-16s7.164-16 16-16zm0 0" fill="#fff"/><path d="M64 508.879V416H32c-17.672 0-32-14.328-32-32V192c0-17.672 14.328-32 32-32h288c17.672 0 32 14.328 32 32v192c0 17.672-14.328 32-32 32H212.594zm0 0" fill="#ffc32c"/><path d="M80 240h192c8.836 0 16 7.164 16 16s-7.164 16-16 16H80c-8.836 0-16-7.164-16-16s7.164-16 16-16zm176 96h-32v-32h32zm-80 0H80c-8.836 0-16-7.164-16-16s7.164-16 16-16h96c8.836 0 16 7.164 16 16s-7.164 16-16 16zm0 0" fill="#fff"/></svg>