<svg height="512" viewBox="0 0 73 73" width="512" xmlns="http://www.w3.org/2000/svg"><path d="M37.178 27.217c1.058.043 2.15.714 3.321 1.1 1.515.5 3.382.348 4.25-1.007.083-.13.226-.391.232-.406.228-.093.822.56 1.385.828 2.137 1.018 3.888-1.513 7.674-.137a.75.75 0 1 0 .512-1.41c-1.903-.69-3.746-.627-5.644-.018-2.018.641-1.794.194-2.825-.442-.687-.42-1.447-.431-1.98-.033-.307.23-.467.545-.617.809-.445.692-1.616.69-2.517.393-1.166-.388-2.327-1.12-3.732-1.175-.377-.038-.763.304-.779.72a.748.748 0 0 0 .72.778zm15.757 16.289c-.857-.31-1.356-.225-1.991.45-.111.116-.223.296-.634.214-.166-.033-.25-.102-.26-.123a.762.762 0 0 0-1.012-.321c-.833.43-.322 1.629.934 1.906.612.136 1.298.018 1.76-.356.04-.032.466-.432.418-.443.35.014.904.697 3.573-.045a.75.75 0 1 0-.402-1.445c-2.002.558-2.233.17-2.386.163zm2.138 6.883c-.884.266-1.867.073-2.91-.133-3.852-.753-5.554.07-9.347.667-3.115.496-5.444.066-6.913-1.27a.75.75 0 0 0-1.01 1.11c1.36 1.236 3.234 1.857 5.59 1.857 3.585 0 6.915-1.526 10.214-1.098 1.502.196 3.137.804 4.807.304a.751.751 0 0 0-.431-1.437z"/><path d="M7.598 25.85c1.848 1.93 3.752 3.902 6.167 5.046 1.556.738 3.383 1.055 5.057.76a4.083 4.083 0 0 0-.582.67.74.74 0 0 0-.1.595c-.234 1.6 5.061 4.16 6.87 4.889.904 2.494 1.36 3.695 1.88 5.266 3.129 9.428 1.187 13.254 1.116 13.983-2.672.113-5.347.259-8.021.454a.75.75 0 0 0-.672.932c.576 2.27 1.565 4.02 2.892 5.201l.01.013-.008-.011a6.462 6.462 0 0 0 2.273 1.347c-1.085-.306-1.71-.746-2.264-1.336a10.6 10.6 0 0 0 2.287 1.945c2.31 1.432 4.685 1.424 7.401 1.518 3.794.132 7.998.099 11.793.035 5.952-.1 11.904.761 17.068-2.407.314-.132.62-.304.918-.512 1.553-.563 2.653-1.973 3.403-3.46 4.254-8.427-.872-18.501-3.13-25.745-1.252-4.015-2.065-8.296-1.333-12.42 2.626-.538 4.107-.932 6.657-1.453a.749.749 0 0 0 1.427.455c.562-1.72.324-3.725-.62-5.235-1.503-2.407-4.783-2.706-6.845-3.32-7.666-2.307-14.365 1.326-24.048-.354-3.696-.65-7.83.602-10.778 3.26-1.33 1.19-2.332 2.63-3.03 4.264a22.072 22.072 0 0 0-3.396-1.83.75.75 0 0 0-1.032.542l-.06.3a15.411 15.411 0 0 0-10.38-2.95c-4.274.353-5.469 3.25-3.802 5.69.622 1.498 1.686 2.62 2.882 3.869zM5.7 23.153c.455.455.416.396 4.022 3.705-.956-.778-3.194-2.778-4.022-3.705zm15.316 35.791a258.029 258.029 0 0 1 35.242-.047c-.943 1.69-.65 3.873.404 5.041-9.578 1.099-16 .817-24.716.566-2.443-.081-4.967-.165-7.12-.97-1.757-.659-3.037-2.2-3.81-4.59zm46.492-39.362c-2.256.445-3.735.829-6.52 1.424.353-1.181.888-2.31 1.76-3.17.872-.857 1.739-.926 2.81-1.29.212-.072.467-.02.674-.038.855.773 1.253 1.942 1.276 3.074zm-40.09-2.5c2.616-2.357 6.264-3.47 9.518-2.897 4.825.838 8.746.425 12.54.025 8.802-.924 8.765-.367 13.506.84-2.73 1.527-4.478 4.743-4.975 9.263-1 9.05 4.541 16.832 6.073 25.17.86 4.68.227 9.03-1.738 11.932-.711 1.05-1.478 1.725-2.281 2.016-.536.008-1.07-.157-1.452-.538-.675-.672-.889-1.923-.366-2.754.29-.46.48-1.29.382-1.886a.736.736 0 0 0-1.054-.775 256.83 256.83 0 0 0-28.003-.489c1.71-6.291-.621-12.792-2.764-18.63 2.45.598 4.221.497 6.013.578-.849.373-1.877.685-2.22.583a.75.75 0 1 0-.629 1.361h.001c5.508 2.541 11.665 2.089 12.985 1.192 2.545 2.356 2.52 2.653 3.053 2.653.673 0 1.003-.823.52-1.29-3.004-2.87-2.523-2.473-2.774-2.64.082-.57-.074-1.116-.164-1.426a24.542 24.542 0 0 0-4.684-8.755.75.75 0 0 0-1.295.272 20.184 20.184 0 0 0-8.105-7.49.75.75 0 0 0-.629-.023c-.466.197-.347.53-.723 1.083a22.167 22.167 0 0 0-3.514-3.332c.61-1.56 1.532-2.925 2.78-4.043zm-21.91 2.533c.093-.514.497-1.008 1.08-1.322 2.093-1.123 8.13-.79 12.313 2.875a.75.75 0 0 0 1.23-.419l.114-.583a20.686 20.686 0 0 1 2.98 1.774c.007.007.017.01.024.017a20.653 20.653 0 0 1 4.264 4.093.751.751 0 0 0 1.05.133c.382-.294.708-.665.956-1.081a18.677 18.677 0 0 1 7.879 8.59.75.75 0 0 0 .683.442h.001c.545 0 .723-.451.881-.973a23.056 23.056 0 0 1 3.187 6.632c.278.947.181 1.134-.85 1.285a19.299 19.299 0 0 1-8.235-.627c.999-.409 1.89-.959 2.174-1.356a.75.75 0 0 0-.01-.886c-.793-1.062-3.577-.698-4.511-.84-3.845-.588-7.633-2.182-10.785-4.705a2.8 2.8 0 0 1 1.747-.687c.709-.013 1-.914.444-1.343-1.238-.96-2.734-.948-4.175-.933-4.037.024-2.933-.332-10.712-7.152-.96-.878-1.914-1.913-1.729-2.934z"/><path d="m23.375 12.93-3.079-1.588a.75.75 0 1 0-.687 1.334c3.15 1.592 3.098 1.67 3.422 1.67.786 0 1.04-1.057.344-1.416zm2.422-.69a.75.75 0 0 0 .62-.861 16.41 16.41 0 0 0-1.41-4.496.747.747 0 0 0-1-.352.748.748 0 0 0-.352 1 14.982 14.982 0 0 1 1.282 4.088.75.75 0 0 0 .86.62zm2.863-5.772-.337 3.618a.75.75 0 0 0 1.494.139l.337-3.619a.75.75 0 0 0-1.495-.138z"/></svg>