<svg version="1.1" id="Слой_1" xmlns="http://www.w3.org/2000/svg" x="0" y="0" viewBox="0 0 1440 55" style="enable-background:new 0 0 1440 55" xml:space="preserve"><style>.st0{fill:#ffede2}</style><path class="st0" d="M1435.4 54.3h8.1v-8.1h-8.1v8.1zm-11.1 0h8.1v-8.1h-8.1v8.1zm-11.1 0h8.1v-8.1h-8.1v8.1zm-11.1 0h8.1v-8.1h-8.1v8.1zm-11.1 0h8.1v-8.1h-8.1v8.1zm-11.1 0h8.1v-8.1h-8.1v8.1zm-11.1 0h8.1v-8.1h-8.1v8.1zm-11.1 0h8.1v-8.1h-8.1v8.1zm-11.1 0h8.1v-8.1h-8.1v8.1zm-11.2 0h8.1v-8.1h-8.1v8.1zm-11.1 0h8.1v-8.1h-8.1v8.1zm-11.1 0h8.1v-8.1h-8.1v8.1z"/><path class="st0" d="M1430.3 48.3h7.2v-7.2h-7.2v7.2zm-11.1 0h7.2v-7.2h-7.2v7.2zm-11.1 0h7.2v-7.2h-7.2v7.2zm-11.1 0h7.2v-7.2h-7.2v7.2zm-11.1 0h7.2v-7.2h-7.2v7.2zm-11.1 0h7.2v-7.2h-7.2v7.2zm-11.2 0h7.2v-7.2h-7.2v7.2zm-11.1 0h7.2v-7.2h-7.2v7.2zm-11.1 0h7.2v-7.2h-7.2v7.2zm-11.1 0h7.2v-7.2h-7.2v7.2zm-11.1 0h7.2v-7.2h-7.2v7.2z"/><path class="st0" d="M1436.3 42.3h6.3V36h-6.3v6.3zm-11.1 0h6.3V36h-6.3v6.3zm-11.1 0h6.3V36h-6.3v6.3zm-11.1 0h6.3V36h-6.3v6.3zm-11.2 0h6.3V36h-6.3v6.3zm-11.1 0h6.3V36h-6.3v6.3zm-11.1 0h6.3V36h-6.3v6.3zm-11.1 0h6.3V36h-6.3v6.3zm-11.1 0h6.3V36h-6.3v6.3zm-11.1 0h6.3V36h-6.3v6.3zm-11.1 0h6.3V36h-6.3v6.3z"/><path class="st0" d="M1431.1 36.3h5.5v-5.5h-5.5v5.5zm-11.1 0h5.5v-5.5h-5.5v5.5zm-11.1 0h5.5v-5.5h-5.5v5.5zm-11.1 0h5.5v-5.5h-5.5v5.5zm-11.1 0h5.5v-5.5h-5.5v5.5zm-11.1 0h5.5v-5.5h-5.5v5.5zm-11.1 0h5.5v-5.5h-5.5v5.5zm-11.1 0h5.5v-5.5h-5.5v5.5zm-11.1 0h5.5v-5.5h-5.5v5.5zm-11.1 0h5.5v-5.5h-5.5v5.5zm-11.1 0h5.5v-5.5h-5.5v5.5zm117-6h4.6v-4.6h-4.6v4.6zm-11.1 0h4.6v-4.6h-4.6v4.6zm-11.1 0h4.6v-4.6h-4.6v4.6zm-11.1 0h4.6v-4.6h-4.6v4.6zm-11.1 0h4.6v-4.6h-4.6v4.6zm-11.1 0h4.6v-4.6h-4.6v4.6zm-11.1 0h4.6v-4.6h-4.6v4.6zm-11.1 0h4.6v-4.6h-4.6v4.6zm-11.1 0h4.6v-4.6h-4.6v4.6zm-11.1 0h4.6v-4.6h-4.6v4.6zm-11.2 0h4.6v-4.6h-4.6v4.6zm106-6h3.8v-3.8h-3.8v3.8zm-11.1 0h3.8v-3.8h-3.8v3.8zm-11.1 0h3.8v-3.8h-3.8v3.8zm-11.1 0h3.8v-3.8h-3.8v3.8zm-11.1 0h3.8v-3.8h-3.8v3.8zm-11.1 0h3.8v-3.8h-3.8v3.8zm-11.2 0h3.8v-3.8h-3.8v3.8zm-11.1 0h3.8v-3.8h-3.8v3.8zm-11.1 0h3.8v-3.8h-3.8v3.8zm-11.1 0h3.8v-3.8h-3.8v3.8zm-11.1 0h3.8v-3.8h-3.8v3.8zm117.1-6h2.9v-2.9h-2.9v2.9zm-11.1 0h2.9v-2.9h-2.9v2.9zm-11.1 0h2.9v-2.9h-2.9v2.9zm-11.1 0h2.9v-2.9h-2.9v2.9zm-11.1 0h2.9v-2.9h-2.9v2.9zm-11.1 0h2.9v-2.9h-2.9v2.9zm-11.2 0h2.9v-2.9h-2.9v2.9zm-11.1 0h2.9v-2.9h-2.9v2.9zm-11.1 0h2.9v-2.9h-2.9v2.9zm-11.1 0h2.9v-2.9h-2.9v2.9zm-11.1 0h2.9v-2.9h-2.9v2.9zm106-6h2.1v-2.1h-2.1v2.1zm-11.1 0h2.1v-2.1h-2.1v2.1zm-11.2 0h2.1v-2.1h-2.1v2.1zm-11.1 0h2.1v-2.1h-2.1v2.1zm-11.1 0h2.1v-2.1h-2.1v2.1zm-11.1 0h2.1v-2.1h-2.1v2.1zm-11.1 0h2.1v-2.1h-2.1v2.1zm-11.1 0h2.1v-2.1h-2.1v2.1zm-11.1 0h2.1v-2.1h-2.1v2.1zm-11.1 0h2.1v-2.1h-2.1v2.1zm-11.1 0h2.1v-2.1h-2.1v2.1zm105.9-6h1.2V5.1h-1.2v1.2zm-11.1 0h1.2V5.1h-1.2v1.2zm-11.1 0h1.2V5.1h-1.2v1.2zm-11.1 0h1.2V5.1h-1.2v1.2zm-11.1 0h1.2V5.1h-1.2v1.2zm-11.1 0h1.2V5.1h-1.2v1.2zm-11.1 0h1.2V5.1h-1.2v1.2zm-11.1 0h1.2V5.1h-1.2v1.2zm-11.1 0h1.2V5.1h-1.2v1.2zm-11.1 0h1.2V5.1h-1.2v1.2zm105.9-6h.3V0h-.3v.3zm-11.1 0h.3V0h-.3v.3zm-11.1 0h.3V0h-.3v.3zm-11.1 0h.3V0h-.3v.3zm-11.1 0h.3V0h-.3v.3zm-11.1 0h.3V0h-.3v.3zm-11.1 0h.3V0h-.3v.3zm-11.1 0h.3V0h-.3v.3zm-11.1 0h.3V0h-.3v.3zm-11.2 0h.3V0h-.3v.3zm-11.1 0h.3V0h-.3v.3zm-9.3 54h8.1v-8.1h-8.1v8.1zm-11.1 0h8.1v-8.1h-8.1v8.1zm-11.1 0h8.1v-8.1h-8.1v8.1zm-11.2 0h8.1v-8.1h-8.1v8.1zm-11.1 0h8.1v-8.1h-8.1v8.1zm-11.1 0h8.1v-8.1h-8.1v8.1zm-11.1 0h8.1v-8.1h-8.1v8.1zm-11.1 0h8.1v-8.1h-8.1v8.1zm-11.1 0h8.1v-8.1h-8.1v8.1zm-11.1 0h8.1v-8.1h-8.1v8.1zm-11.1 0h8.1v-8.1h-8.1v8.1zm-11.1 0h8.1v-8.1h-8.1v8.1z"/><path class="st0" d="M1319.3 48.3h7.2v-7.2h-7.2v7.2zm-11.2 0h7.2v-7.2h-7.2v7.2zm-11.1 0h7.2v-7.2h-7.2v7.2zm-11.1 0h7.2v-7.2h-7.2v7.2zm-11.1 0h7.2v-7.2h-7.2v7.2zm-11.1 0h7.2v-7.2h-7.2v7.2zm-11.1 0h7.2v-7.2h-7.2v7.2zm-11.1 0h7.2v-7.2h-7.2v7.2zm-11.1 0h7.2v-7.2h-7.2v7.2zm-11.1 0h7.2v-7.2h-7.2v7.2zm-11.1 0h7.2v-7.2h-7.2v7.2zm-11.1 0h7.2v-7.2h-7.2v7.2z"/><path class="st0" d="M1314.1 42.3h6.3V36h-6.3v6.3zm-11.1 0h6.3V36h-6.3v6.3zm-11.1 0h6.3V36h-6.3v6.3zm-11.1 0h6.3V36h-6.3v6.3zm-11.1 0h6.3V36h-6.3v6.3zm-11.1 0h6.3V36h-6.3v6.3zm-11.1 0h6.3V36h-6.3v6.3zm-11.1 0h6.3V36h-6.3v6.3zm-11.1 0h6.3V36h-6.3v6.3zm-11.1 0h6.3V36h-6.3v6.3zm-11.2 0h6.3V36h-6.3v6.3z"/><path class="st0" d="M1320.1 36.3h5.5v-5.5h-5.5v5.5zm-11.1 0h5.5v-5.5h-5.5v5.5zm-11.1 0h5.5v-5.5h-5.5v5.5zm-11.1 0h5.5v-5.5h-5.5v5.5zm-11.1 0h5.5v-5.5h-5.5v5.5zm-11.1 0h5.5v-5.5h-5.5v5.5zm-11.1 0h5.5v-5.5h-5.5v5.5zm-11.2 0h5.5v-5.5h-5.5v5.5zm-11.1 0h5.5v-5.5h-5.5v5.5zm-11.1 0h5.5v-5.5h-5.5v5.5zm-11.1 0h5.5v-5.5h-5.5v5.5zm-11.1 0h5.5v-5.5h-5.5v5.5zm117.1-6h4.6v-4.6h-4.6v4.6zm-11.1 0h4.6v-4.6h-4.6v4.6zm-11.1 0h4.6v-4.6h-4.6v4.6zm-11.1 0h4.6v-4.6h-4.6v4.6zm-11.1 0h4.6v-4.6h-4.6v4.6zm-11.2 0h4.6v-4.6h-4.6v4.6zm-11.1 0h4.6v-4.6h-4.6v4.6zm-11.1 0h4.6v-4.6h-4.6v4.6zm-11.1 0h4.6v-4.6h-4.6v4.6zm-11.1 0h4.6v-4.6h-4.6v4.6zm-11.1 0h4.6v-4.6h-4.6v4.6zm106-6h3.8v-3.8h-3.8v3.8zm-11.2 0h3.8v-3.8h-3.8v3.8zm-11.1 0h3.8v-3.8h-3.8v3.8zm-11.1 0h3.8v-3.8h-3.8v3.8zm-11.1 0h3.8v-3.8h-3.8v3.8zm-11.1 0h3.8v-3.8h-3.8v3.8zm-11.1 0h3.8v-3.8h-3.8v3.8zm-11.1 0h3.8v-3.8h-3.8v3.8zm-11.1 0h3.8v-3.8h-3.8v3.8zm-11.1 0h3.8v-3.8h-3.8v3.8zm-11.1 0h3.8v-3.8h-3.8v3.8zm117-6h2.9v-2.9h-2.9v2.9zm-11.1 0h2.9v-2.9h-2.9v2.9zm-11.1 0h2.9v-2.9h-2.9v2.9zm-11.1 0h2.9v-2.9h-2.9v2.9zm-11.1 0h2.9v-2.9h-2.9v2.9zm-11.1 0h2.9v-2.9h-2.9v2.9zm-11.1 0h2.9v-2.9h-2.9v2.9zm-11.1 0h2.9v-2.9h-2.9v2.9zm-11.1 0h2.9v-2.9h-2.9v2.9zm-11.1 0h2.9v-2.9h-2.9v2.9zm-11.1 0h2.9v-2.9h-2.9v2.9zm105.9-6h2.1v-2.1h-2.1v2.1zm-11.1 0h2.1v-2.1h-2.1v2.1zm-11.1 0h2.1v-2.1h-2.1v2.1zm-11.1 0h2.1v-2.1h-2.1v2.1zm-11.1 0h2.1v-2.1h-2.1v2.1zm-11.1 0h2.1v-2.1h-2.1v2.1zm-11.1 0h2.1v-2.1h-2.1v2.1zm-11.1 0h2.1v-2.1h-2.1v2.1zm-11.2 0h2.1v-2.1h-2.1v2.1zm-11.1 0h2.1v-2.1h-2.1v2.1zm-11.1 0h2.1v-2.1h-2.1v2.1zm117.1-6h1.2V5.1h-1.2v1.2zm-11.1 0h1.2V5.1h-1.2v1.2zm-11.1 0h1.2V5.1h-1.2v1.2zm-11.1 0h1.2V5.1h-1.2v1.2zm-11.1 0h1.2V5.1h-1.2v1.2zm-11.1 0h1.2V5.1h-1.2v1.2zm-11.2 0h1.2V5.1h-1.2v1.2zm-11.1 0h1.2V5.1h-1.2v1.2zm-11.1 0h1.2V5.1h-1.2v1.2zm-11.1 0h1.2V5.1h-1.2v1.2zm-11.1 0h1.2V5.1h-1.2v1.2zm106-6h.3V0h-.3v.3zm-11.1 0h.3V0h-.3v.3zm-11.1 0h.3V0h-.3v.3zm-11.1 0h.3V0h-.3v.3zm-11.2 0h.3V0h-.3v.3zm-11.1 0h.3V0h-.3v.3zm-11.1 0h.3V0h-.3v.3zm-11.1 0h.3V0h-.3v.3zm-11.1 0h.3V0h-.3v.3zm-11.1 0h.3V0h-.3v.3zm-11.1 0h.3V0h-.3v.3zm-9.4 54h8.1v-8.1h-8.1v8.1zm-11.1 0h8.1v-8.1h-8.1v8.1zm-11.1 0h8.1v-8.1h-8.1v8.1zm-11.1 0h8.1v-8.1h-8.1v8.1zm-11.1 0h8.1v-8.1h-8.1v8.1zm-11.1 0h8.1v-8.1h-8.1v8.1zm-11.1 0h8.1v-8.1h-8.1v8.1zm-11.1 0h8.1v-8.1h-8.1v8.1zm-11.1 0h8.1v-8.1h-8.1v8.1zm-11.2 0h8.1v-8.1h-8.1v8.1zm-11.1 0h8.1v-8.1h-8.1v8.1zm-11.1 0h8.1v-8.1h-8.1v8.1z"/><path class="st0" d="M1197.1 48.3h7.2v-7.2h-7.2v7.2zm-11.1 0h7.2v-7.2h-7.2v7.2zm-11.1 0h7.2v-7.2h-7.2v7.2zm-11.1 0h7.2v-7.2h-7.2v7.2zm-11.1 0h7.2v-7.2h-7.2v7.2zm-11.1 0h7.2v-7.2h-7.2v7.2zm-11.1 0h7.2v-7.2h-7.2v7.2zm-11.2 0h7.2v-7.2h-7.2v7.2zm-11.1 0h7.2v-7.2h-7.2v7.2zm-11.1 0h7.2v-7.2h-7.2v7.2zm-11.1 0h7.2v-7.2h-7.2v7.2zm-11.1 0h7.2v-7.2h-7.2v7.2z"/><path class="st0" d="M1192 42.3h6.3V36h-6.3v6.3zm-11.1 0h6.3V36h-6.3v6.3zm-11.1 0h6.3V36h-6.3v6.3zm-11.1 0h6.3V36h-6.3v6.3zm-11.2 0h6.3V36h-6.3v6.3zm-11.1 0h6.3V36h-6.3v6.3zm-11.1 0h6.3V36h-6.3v6.3zm-11.1 0h6.3V36h-6.3v6.3zm-11.1 0h6.3V36h-6.3v6.3zm-11.1 0h6.3V36h-6.3v6.3zm-11.1 0h6.3V36h-6.3v6.3z"/><path class="st0" d="M1198 36.3h5.5v-5.5h-5.5v5.5zm-11.2 0h5.5v-5.5h-5.5v5.5zm-11.1 0h5.5v-5.5h-5.5v5.5zm-11.1 0h5.5v-5.5h-5.5v5.5zm-11.1 0h5.5v-5.5h-5.5v5.5zm-11.1 0h5.5v-5.5h-5.5v5.5zm-11.1 0h5.5v-5.5h-5.5v5.5zm-11.1 0h5.5v-5.5h-5.5v5.5zm-11.1 0h5.5v-5.5h-5.5v5.5zm-11.1 0h5.5v-5.5h-5.5v5.5zm-11.1 0h5.5v-5.5h-5.5v5.5zm-11.1 0h5.5v-5.5h-5.5v5.5zm117-6h4.6v-4.6h-4.6v4.6zm-11.1 0h4.6v-4.6h-4.6v4.6zm-11.1 0h4.6v-4.6h-4.6v4.6zm-11.1 0h4.6v-4.6h-4.6v4.6zm-11.1 0h4.6v-4.6h-4.6v4.6zm-11.1 0h4.6v-4.6h-4.6v4.6zm-11.1 0h4.6v-4.6h-4.6v4.6zm-11.1 0h4.6v-4.6h-4.6v4.6zm-11.1 0h4.6v-4.6h-4.6v4.6zm-11.1 0h4.6v-4.6h-4.6v4.6zm-11.2 0h4.6v-4.6h-4.6v4.6zm106-6h3.8v-3.8h-3.8v3.8zm-11.1 0h3.8v-3.8h-3.8v3.8zm-11.1 0h3.8v-3.8h-3.8v3.8zm-11.1 0h3.8v-3.8h-3.8v3.8zm-11.1 0h3.8v-3.8h-3.8v3.8zm-11.1 0h3.8v-3.8h-3.8v3.8zm-11.2 0h3.8v-3.8h-3.8v3.8zm-11.1 0h3.8v-3.8h-3.8v3.8zm-11.1 0h3.8v-3.8h-3.8v3.8zm-11.1 0h3.8v-3.8h-3.8v3.8zm-11.1 0h3.8v-3.8h-3.8v3.8zm117.1-6h2.9v-2.9h-2.9v2.9zm-11.1 0h2.9v-2.9h-2.9v2.9zm-11.1 0h2.9v-2.9h-2.9v2.9zm-11.1 0h2.9v-2.9h-2.9v2.9zm-11.1 0h2.9v-2.9h-2.9v2.9zm-11.1 0h2.9v-2.9h-2.9v2.9zm-11.2 0h2.9v-2.9h-2.9v2.9zm-11.1 0h2.9v-2.9h-2.9v2.9zm-11.1 0h2.9v-2.9h-2.9v2.9zm-11.1 0h2.9v-2.9h-2.9v2.9zm-11.1 0h2.9v-2.9h-2.9v2.9zm106-6h2.1v-2.1h-2.1v2.1zm-11.1 0h2.1v-2.1h-2.1v2.1zm-11.2 0h2.1v-2.1h-2.1v2.1zm-11.1 0h2.1v-2.1h-2.1v2.1zm-11.1 0h2.1v-2.1h-2.1v2.1zm-11.1 0h2.1v-2.1h-2.1v2.1zm-11.1 0h2.1v-2.1h-2.1v2.1zm-11.1 0h2.1v-2.1h-2.1v2.1zm-11.1 0h2.1v-2.1h-2.1v2.1zm-11.1 0h2.1v-2.1h-2.1v2.1zm-11.1 0h2.1v-2.1h-2.1v2.1zm117.1-6h1.2V5.1h-1.2v1.2zm-11.2 0h1.2V5.1h-1.2v1.2zm-11.1 0h1.2V5.1h-1.2v1.2zm-11.1 0h1.2V5.1h-1.2v1.2zm-11.1 0h1.2V5.1h-1.2v1.2zm-11.1 0h1.2V5.1h-1.2v1.2zm-11.1 0h1.2V5.1h-1.2v1.2zm-11.1 0h1.2V5.1h-1.2v1.2zm-11.1 0h1.2V5.1h-1.2v1.2zm-11.1 0h1.2V5.1h-1.2v1.2zm-11.1 0h1.2V5.1h-1.2v1.2zm105.9-6h.3V0h-.3v.3zm-11.1 0h.3V0h-.3v.3zm-11.1 0h.3V0h-.3v.3zm-11.1 0h.3V0h-.3v.3zm-11.1 0h.3V0h-.3v.3zm-11.1 0h.3V0h-.3v.3zm-11.1 0h.3V0h-.3v.3zm-11.1 0h.3V0h-.3v.3zm-11.1 0h.3V0h-.3v.3zm-11.2 0h.3V0h-.3v.3zm-11.1 0h.3V0h-.3v.3zm-10.2 54h8.1v-8.1h-8.1v8.1zm-11.1 0h8.1v-8.1h-8.1v8.1zm-11.1 0h8.1v-8.1h-8.1v8.1zm-11.1 0h8.1v-8.1h-8.1v8.1zm-11.1 0h8.1v-8.1h-8.1v8.1zm-11.1 0h8.1v-8.1h-8.1v8.1zm-11.1 0h8.1v-8.1h-8.1v8.1zm-11.1 0h8.1v-8.1h-8.1v8.1zm-11.1 0h8.1v-8.1h-8.1v8.1zm-11.2 0h8.1v-8.1h-8.1v8.1zm-11.1 0h8.1v-8.1H957v8.1zm-11.1 0h8.1v-8.1h-8.1v8.1z"/><path class="st0" d="M1074.1 48.3h7.2v-7.2h-7.2v7.2zm-11.1 0h7.2v-7.2h-7.2v7.2zm-11.1 0h7.2v-7.2h-7.2v7.2zm-11.1 0h7.2v-7.2h-7.2v7.2zm-11.1 0h7.2v-7.2h-7.2v7.2zm-11.1 0h7.2v-7.2h-7.2v7.2zm-11.1 0h7.2v-7.2h-7.2v7.2zm-11.2 0h7.2v-7.2h-7.2v7.2zm-11.1 0h7.2v-7.2h-7.2v7.2zm-11.1 0h7.2v-7.2h-7.2v7.2zm-11.1 0h7.2v-7.2H963v7.2zm-11.1 0h7.2v-7.2h-7.2v7.2z"/><path class="st0" d="M1069 42.3h6.3V36h-6.3v6.3zm-11.1 0h6.3V36h-6.3v6.3zm-11.1 0h6.3V36h-6.3v6.3zm-11.1 0h6.3V36h-6.3v6.3zm-11.2 0h6.3V36h-6.3v6.3zm-11.1 0h6.3V36h-6.3v6.3zm-11.1 0h6.3V36h-6.3v6.3zm-11.1 0h6.3V36h-6.3v6.3zm-11.1 0h6.3V36h-6.3v6.3zm-11.1 0h6.3V36H969v6.3zm-11.1 0h6.3V36h-6.3v6.3z"/><path class="st0" d="M1075 36.3h5.5v-5.5h-5.5v5.5zm-11.1 0h5.5v-5.5h-5.5v5.5zm-11.2 0h5.5v-5.5h-5.5v5.5zm-11.1 0h5.5v-5.5h-5.5v5.5zm-11.1 0h5.5v-5.5h-5.5v5.5zm-11.1 0h5.5v-5.5h-5.5v5.5zm-11.1 0h5.5v-5.5h-5.5v5.5zm-11.1 0h5.5v-5.5h-5.5v5.5zm-11.1 0h5.5v-5.5h-5.5v5.5zm-11.1 0h5.5v-5.5H975v5.5zm-11.1 0h5.5v-5.5h-5.5v5.5zm-11.1 0h5.5v-5.5h-5.5v5.5zm117-6h4.6v-4.6h-4.6v4.6zm-11.1 0h4.6v-4.6h-4.6v4.6zm-11.1 0h4.6v-4.6h-4.6v4.6zm-11.1 0h4.6v-4.6h-4.6v4.6zm-11.1 0h4.6v-4.6h-4.6v4.6zm-11.1 0h4.6v-4.6h-4.6v4.6zm-11.1 0h4.6v-4.6h-4.6v4.6zm-11.1 0h4.6v-4.6h-4.6v4.6zm-11.1 0h4.6v-4.6H981v4.6zm-11.1 0h4.6v-4.6h-4.6v4.6zm-11.2 0h4.6v-4.6h-4.6v4.6zm106-6h3.8v-3.8h-3.8v3.8zm-11.1 0h3.8v-3.8h-3.8v3.8zm-11.1 0h3.8v-3.8h-3.8v3.8zm-11.1 0h3.8v-3.8h-3.8v3.8zm-11.1 0h3.8v-3.8h-3.8v3.8zm-11.1 0h3.8v-3.8h-3.8v3.8zm-11.1 0h3.8v-3.8h-3.8v3.8zm-11.2 0h3.8v-3.8h-3.8v3.8zm-11.1 0h3.8v-3.8h-3.8v3.8zm-11.1 0h3.8v-3.8h-3.8v3.8zm-11.1 0h3.8v-3.8h-3.8v3.8zm117.1-6h2.9v-2.9h-2.9v2.9zm-11.1 0h2.9v-2.9h-2.9v2.9zm-11.1 0h2.9v-2.9h-2.9v2.9zm-11.1 0h2.9v-2.9h-2.9v2.9zm-11.1 0h2.9v-2.9h-2.9v2.9zm-11.1 0h2.9v-2.9h-2.9v2.9zm-11.2 0h2.9v-2.9h-2.9v2.9zm-11.1 0h2.9v-2.9h-2.9v2.9zm-11.1 0h2.9v-2.9h-2.9v2.9zm-11.1 0h2.9v-2.9h-2.9v2.9zm-11.1 0h2.9v-2.9h-2.9v2.9zm106-6h2.1v-2.1h-2.1v2.1zm-11.1 0h2.1v-2.1h-2.1v2.1zm-11.1 0h2.1v-2.1h-2.1v2.1zm-11.2 0h2.1v-2.1h-2.1v2.1zm-11.1 0h2.1v-2.1h-2.1v2.1zm-11.1 0h2.1v-2.1h-2.1v2.1zm-11.1 0h2.1v-2.1h-2.1v2.1zm-11.1 0h2.1v-2.1h-2.1v2.1zm-11.1 0h2.1v-2.1h-2.1v2.1zm-11.1 0h2.1v-2.1h-2.1v2.1zm-11.1 0h2.1v-2.1h-2.1v2.1zm117.1-6h1.2V5.1h-1.2v1.2zm-11.2 0h1.2V5.1h-1.2v1.2zm-11.1 0h1.2V5.1h-1.2v1.2zm-11.1 0h1.2V5.1h-1.2v1.2zm-11.1 0h1.2V5.1h-1.2v1.2zm-11.1 0h1.2V5.1h-1.2v1.2zm-11.1 0h1.2V5.1h-1.2v1.2zm-11.1 0h1.2V5.1h-1.2v1.2zm-11.1 0h1.2V5.1h-1.2v1.2zm-11.1 0h1.2V5.1h-1.2v1.2zm-11.1 0h1.2V5.1h-1.2v1.2zm105.9-6h.3V0h-.3v.3zm-11.1 0h.3V0h-.3v.3zm-11.1 0h.3V0h-.3v.3zm-11.1 0h.3V0h-.3v.3zm-11.1 0h.3V0h-.3v.3zm-11.1 0h.3V0h-.3v.3zm-11.1 0h.3V0h-.3v.3zm-11.1 0h.3V0h-.3v.3zm-11.1 0h.3V0h-.3v.3zm-11.2 0h.3V0h-.3v.3zm-11.1 0h.3V0h-.3v.3zm-9.2 54h8.1v-8.1h-8.1v8.1zm-11.1 0h8.1v-8.1H935v8.1zm-11.1 0h8.1v-8.1h-8.1v8.1zm-11.1 0h8.1v-8.1h-8.1v8.1zm-11.1 0h8.1v-8.1h-8.1v8.1zm-11.1 0h8.1v-8.1h-8.1v8.1zm-11.2 0h8.1v-8.1h-8.1v8.1zm-11.1 0h8.1v-8.1h-8.1v8.1zm-11.1 0h8.1v-8.1h-8.1v8.1zm-11.1 0h8.1v-8.1h-8.1v8.1zm-11.1 0h8.1v-8.1H835v8.1zm-11.1 0h8.1v-8.1h-8.1v8.1z"/><path class="st0" d="M952.1 48.3h7.2v-7.2h-7.2v7.2zm-11.1 0h7.2v-7.2H941v7.2zm-11.1 0h7.2v-7.2h-7.2v7.2zm-11.1 0h7.2v-7.2h-7.2v7.2zm-11.2 0h7.2v-7.2h-7.2v7.2zm-11.1 0h7.2v-7.2h-7.2v7.2zm-11.1 0h7.2v-7.2h-7.2v7.2zm-11.1 0h7.2v-7.2h-7.2v7.2zm-11.1 0h7.2v-7.2h-7.2v7.2zm-11.1 0h7.2v-7.2h-7.2v7.2zm-11.1 0h7.2v-7.2H841v7.2zm-11.1 0h7.2v-7.2h-7.2v7.2z"/><path class="st0" d="M947 42.3h6.3V36H947v6.3zm-11.2 0h6.3V36h-6.3v6.3zm-11.1 0h6.3V36h-6.3v6.3zm-11.1 0h6.3V36h-6.3v6.3zm-11.1 0h6.3V36h-6.3v6.3zm-11.1 0h6.3V36h-6.3v6.3zm-11.1 0h6.3V36h-6.3v6.3zm-11.1 0h6.3V36h-6.3v6.3zm-11.1 0h6.3V36h-6.3v6.3zm-11.1 0h6.3V36H847v6.3zm-11.1 0h6.3V36h-6.3v6.3z"/><path class="st0" d="M952.9 36.3h5.5v-5.5h-5.5v5.5zm-11.1 0h5.5v-5.5h-5.5v5.5zm-11.1 0h5.5v-5.5h-5.5v5.5zm-11.1 0h5.5v-5.5h-5.5v5.5zm-11.1 0h5.5v-5.5h-5.5v5.5zm-11.1 0h5.5v-5.5h-5.5v5.5zm-11.1 0h5.5v-5.5h-5.5v5.5zm-11.1 0h5.5v-5.5h-5.5v5.5zm-11.1 0h5.5v-5.5h-5.5v5.5zm-11.2 0h5.5v-5.5h-5.5v5.5zm-11.1 0h5.5v-5.5h-5.5v5.5zm-11.1 0h5.5v-5.5h-5.5v5.5zm117.1-6h4.6v-4.6h-4.6v4.6zm-11.1 0h4.6v-4.6h-4.6v4.6zm-11.1 0h4.6v-4.6h-4.6v4.6zm-11.1 0h4.6v-4.6h-4.6v4.6zm-11.1 0h4.6v-4.6h-4.6v4.6zm-11.1 0h4.6v-4.6h-4.6v4.6zm-11.2 0h4.6v-4.6h-4.6v4.6zm-11.1 0h4.6v-4.6H870v4.6zm-11.1 0h4.6v-4.6h-4.6v4.6zm-11.1 0h4.6v-4.6h-4.6v4.6zm-11.1 0h4.6v-4.6h-4.6v4.6zm106-6h3.8v-3.8h-3.8v3.8zm-11.1 0h3.8v-3.8h-3.8v3.8zm-11.1 0h3.8v-3.8h-3.8v3.8zm-11.1 0h3.8v-3.8h-3.8v3.8zm-11.2 0h3.8v-3.8h-3.8v3.8zm-11.1 0h3.8v-3.8h-3.8v3.8zm-11.1 0h3.8v-3.8H876v3.8zm-11.1 0h3.8v-3.8h-3.8v3.8zm-11.1 0h3.8v-3.8h-3.8v3.8zm-11.1 0h3.8v-3.8h-3.8v3.8zm-11.1 0h3.8v-3.8h-3.8v3.8zm117.1-6h2.9v-2.9h-2.9v2.9zm-11.1 0h2.9v-2.9h-2.9v2.9zm-11.2 0h2.9v-2.9h-2.9v2.9zm-11.1 0h2.9v-2.9h-2.9v2.9zm-11.1 0h2.9v-2.9h-2.9v2.9zm-11.1 0h2.9v-2.9h-2.9v2.9zm-11.1 0h2.9v-2.9H882v2.9zm-11.1 0h2.9v-2.9h-2.9v2.9zm-11.1 0h2.9v-2.9h-2.9v2.9zm-11.1 0h2.9v-2.9h-2.9v2.9zm-11.1 0h2.9v-2.9h-2.9v2.9zm105.9-6h2.1v-2.1h-2.1v2.1zm-11.1 0h2.1v-2.1h-2.1v2.1zm-11.1 0h2.1v-2.1h-2.1v2.1zm-11.1 0h2.1v-2.1h-2.1v2.1zm-11.1 0h2.1v-2.1h-2.1v2.1zm-11.1 0h2.1v-2.1H888v2.1zm-11.1 0h2.1v-2.1h-2.1v2.1zm-11.1 0h2.1v-2.1h-2.1v2.1zm-11.1 0h2.1v-2.1h-2.1v2.1zm-11.1 0h2.1v-2.1h-2.1v2.1zm-11.2 0h2.1v-2.1h-2.1v2.1zm117.1-6h1.2V5.1h-1.2v1.2zm-11.1 0h1.2V5.1h-1.2v1.2zm-11.1 0h1.2V5.1h-1.2v1.2zm-11.1 0h1.2V5.1h-1.2v1.2zm-11.1 0h1.2V5.1h-1.2v1.2zm-11.1 0h1.2V5.1H894v1.2zm-11.1 0h1.2V5.1h-1.2v1.2zm-11.1 0h1.2V5.1h-1.2v1.2zm-11.2 0h1.2V5.1h-1.2v1.2zm-11.1 0h1.2V5.1h-1.2v1.2zm-11.1 0h1.2V5.1h-1.2v1.2zm106-6h.3V0h-.3v.3zm-11.1 0h.3V0h-.3v.3zm-11.1 0h.3V0h-.3v.3zm-11.1 0h.3V0h-.3v.3zM900 .3h.3V0h-.3v.3zm-11.1 0h.3V0h-.3v.3zm-11.2 0h.3V0h-.3v.3zm-11.1 0h.3V0h-.3v.3zm-11.1 0h.3V0h-.3v.3zm-11.1 0h.3V0h-.3v.3zm-11.1 0h.3V0h-.3v.3zm-9.3 54h8.1v-8.1H824v8.1zm-11.2 0h8.1v-8.1h-8.1v8.1zm-11.1 0h8.1v-8.1h-8.1v8.1zm-11.1 0h8.1v-8.1h-8.1v8.1zm-11.1 0h8.1v-8.1h-8.1v8.1zm-11.1 0h8.1v-8.1h-8.1v8.1zm-11.1 0h8.1v-8.1h-8.1v8.1zm-11.1 0h8.1v-8.1h-8.1v8.1zm-11.1 0h8.1v-8.1h-8.1v8.1zm-11.1 0h8.1v-8.1H724v8.1zm-11.1 0h8.1v-8.1h-8.1v8.1zm-11.1 0h8.1v-8.1h-8.1v8.1z"/><path class="st0" d="M829.9 48.3h7.2v-7.2h-7.2v7.2zm-11.1 0h7.2v-7.2h-7.2v7.2zm-11.1 0h7.2v-7.2h-7.2v7.2zm-11.1 0h7.2v-7.2h-7.2v7.2zm-11.1 0h7.2v-7.2h-7.2v7.2zm-11.1 0h7.2v-7.2h-7.2v7.2zm-11.1 0h7.2v-7.2h-7.2v7.2zm-11.1 0h7.2v-7.2h-7.2v7.2zm-11.1 0h7.2v-7.2h-7.2v7.2zm-11.2 0h7.2v-7.2h-7.2v7.2zm-11.1 0h7.2v-7.2h-7.2v7.2zm-11.1 0h7.2v-7.2h-7.2v7.2z"/><path class="st0" d="M824.8 42.3h6.3V36h-6.3v6.3zm-11.1 0h6.3V36h-6.3v6.3zm-11.1 0h6.3V36h-6.3v6.3zm-11.1 0h6.3V36h-6.3v6.3zm-11.1 0h6.3V36h-6.3v6.3zm-11.1 0h6.3V36h-6.3v6.3zm-11.2 0h6.3V36h-6.3v6.3zm-11.1 0h6.3V36H747v6.3zm-11.1 0h6.3V36h-6.3v6.3zm-11.1 0h6.3V36h-6.3v6.3zm-11.1 0h6.3V36h-6.3v6.3z"/><path class="st0" d="M830.8 36.3h5.5v-5.5h-5.5v5.5zm-11.1 0h5.5v-5.5h-5.5v5.5zm-11.1 0h5.5v-5.5h-5.5v5.5zm-11.1 0h5.5v-5.5h-5.5v5.5zm-11.2 0h5.5v-5.5h-5.5v5.5zm-11.1 0h5.5v-5.5h-5.5v5.5zm-11.1 0h5.5v-5.5h-5.5v5.5zm-11.1 0h5.5v-5.5H753v5.5zm-11.1 0h5.5v-5.5h-5.5v5.5zm-11.1 0h5.5v-5.5h-5.5v5.5zm-11.1 0h5.5v-5.5h-5.5v5.5zm-11.1 0h5.5v-5.5h-5.5v5.5zm117.1-6h4.6v-4.6h-4.6v4.6zm-11.2 0h4.6v-4.6h-4.6v4.6zm-11.1 0h4.6v-4.6h-4.6v4.6zm-11.1 0h4.6v-4.6h-4.6v4.6zm-11.1 0h4.6v-4.6h-4.6v4.6zm-11.1 0h4.6v-4.6h-4.6v4.6zm-11.1 0h4.6v-4.6H759v4.6zm-11.1 0h4.6v-4.6h-4.6v4.6zm-11.1 0h4.6v-4.6h-4.6v4.6zm-11.1 0h4.6v-4.6h-4.6v4.6zm-11.1 0h4.6v-4.6h-4.6v4.6zm105.9-6h3.8v-3.8h-3.8v3.8zm-11.1 0h3.8v-3.8h-3.8v3.8zm-11.1 0h3.8v-3.8h-3.8v3.8zm-11.1 0h3.8v-3.8h-3.8v3.8zm-11.1 0h3.8v-3.8h-3.8v3.8zm-11.1 0h3.8v-3.8H765v3.8zm-11.1 0h3.8v-3.8h-3.8v3.8zm-11.1 0h3.8v-3.8h-3.8v3.8zm-11.1 0h3.8v-3.8h-3.8v3.8zm-11.1 0h3.8v-3.8h-3.8v3.8zm-11.2 0h3.8v-3.8h-3.8v3.8zm117.1-6h2.9v-2.9h-2.9v2.9zm-11.1 0h2.9v-2.9h-2.9v2.9zm-11.1 0h2.9v-2.9h-2.9v2.9zm-11.1 0h2.9v-2.9h-2.9v2.9zm-11.1 0h2.9v-2.9h-2.9v2.9zm-11.1 0h2.9v-2.9H771v2.9zm-11.1 0h2.9v-2.9h-2.9v2.9zm-11.1 0h2.9v-2.9h-2.9v2.9zm-11.2 0h2.9v-2.9h-2.9v2.9zm-11.1 0h2.9v-2.9h-2.9v2.9zm-11.1 0h2.9v-2.9h-2.9v2.9zm106-6h2.1v-2.1h-2.1v2.1zm-11.1 0h2.1v-2.1h-2.1v2.1zm-11.1 0h2.1v-2.1h-2.1v2.1zm-11.1 0h2.1v-2.1h-2.1v2.1zm-11.1 0h2.1v-2.1H777v2.1zm-11.2 0h2.1v-2.1h-2.1v2.1zm-11.1 0h2.1v-2.1h-2.1v2.1zm-11.1 0h2.1v-2.1h-2.1v2.1zm-11.1 0h2.1v-2.1h-2.1v2.1zm-11.1 0h2.1v-2.1h-2.1v2.1zm-11.1 0h2.1v-2.1h-2.1v2.1zm117.1-6h1.2V5.1h-1.2v1.2zm-11.1 0h1.2V5.1h-1.2v1.2zm-11.1 0h1.2V5.1h-1.2v1.2zm-11.2 0h1.2V5.1H794v1.2zm-11.1 0h1.2V5.1h-1.2v1.2zm-11.1 0h1.2V5.1h-1.2v1.2zm-11.1 0h1.2V5.1h-1.2v1.2zm-11.1 0h1.2V5.1h-1.2v1.2zm-11.1 0h1.2V5.1h-1.2v1.2zm-11.1 0h1.2V5.1h-1.2v1.2zm-11.1 0h1.2V5.1h-1.2v1.2zm105.9-6h.3V0h-.3v.3zm-11.1 0h.3V0h-.3v.3zM800 .3h.3V0h-.3v.3zm-11.1 0h.3V0h-.3v.3zm-11.1 0h.3V0h-.3v.3zm-11.1 0h.3V0h-.3v.3zm-11.1 0h.3V0h-.3v.3zm-11.1 0h.3V0h-.3v.3zm-11.1 0h.3V0h-.3v.3zm-11.1 0h.3V0h-.3v.3zm-11.1 0h.3V0h-.3v.3zm-9.4 54h8.1v-8.1h-8.1v8.1zm-11.1 0h8.1v-8.1h-8.1v8.1zm-11.1 0h8.1v-8.1h-8.1v8.1zm-11.1 0h8.1v-8.1h-8.1v8.1zm-11.1 0h8.1v-8.1h-8.1v8.1zm-11.1 0h8.1v-8.1h-8.1v8.1zm-11.2 0h8.1v-8.1h-8.1v8.1zm-11.1 0h8.1v-8.1H624v8.1zm-11.1 0h8.1v-8.1h-8.1v8.1zm-11.1 0h8.1v-8.1h-8.1v8.1zm-11.1 0h8.1v-8.1h-8.1v8.1zm-11.1 0h8.1v-8.1h-8.1v8.1z"/><path class="st0" d="M707.8 48.3h7.2v-7.2h-7.2v7.2zm-11.1 0h7.2v-7.2h-7.2v7.2zm-11.1 0h7.2v-7.2h-7.2v7.2zm-11.2 0h7.2v-7.2h-7.2v7.2zm-11.1 0h7.2v-7.2h-7.2v7.2zm-11.1 0h7.2v-7.2h-7.2v7.2zm-11.1 0h7.2v-7.2h-7.2v7.2zm-11.1 0h7.2v-7.2H630v7.2zm-11.1 0h7.2v-7.2h-7.2v7.2zm-11.1 0h7.2v-7.2h-7.2v7.2zm-11.1 0h7.2v-7.2h-7.2v7.2zm-11.1 0h7.2v-7.2h-7.2v7.2z"/><path class="st0" d="M702.7 42.3h6.3V36h-6.3v6.3zm-11.2 0h6.3V36h-6.3v6.3zm-11.1 0h6.3V36h-6.3v6.3zm-11.1 0h6.3V36h-6.3v6.3zm-11.1 0h6.3V36h-6.3v6.3zm-11.1 0h6.3V36h-6.3v6.3zm-11.1 0h6.3V36H636v6.3zm-11.1 0h6.3V36h-6.3v6.3zm-11.1 0h6.3V36h-6.3v6.3zm-11.1 0h6.3V36h-6.3v6.3zm-11.1 0h6.3V36h-6.3v6.3z"/><path class="st0" d="M708.6 36.3h5.5v-5.5h-5.5v5.5zm-11.1 0h5.5v-5.5h-5.5v5.5zm-11.1 0h5.5v-5.5h-5.5v5.5zm-11.1 0h5.5v-5.5h-5.5v5.5zm-11.1 0h5.5v-5.5h-5.5v5.5zm-11.1 0h5.5v-5.5h-5.5v5.5zm-11.1 0h5.5v-5.5H642v5.5zm-11.1 0h5.5v-5.5h-5.5v5.5zm-11.1 0h5.5v-5.5h-5.5v5.5zm-11.2 0h5.5v-5.5h-5.5v5.5zm-11.1 0h5.5v-5.5h-5.5v5.5zm-11.1 0h5.5v-5.5h-5.5v5.5zm117.1-6h4.6v-4.6h-4.6v4.6zm-11.1 0h4.6v-4.6h-4.6v4.6zm-11.1 0h4.6v-4.6h-4.6v4.6zm-11.1 0h4.6v-4.6h-4.6v4.6zm-11.1 0h4.6v-4.6h-4.6v4.6zm-11.1 0h4.6v-4.6H648v4.6zm-11.2 0h4.6v-4.6h-4.6v4.6zm-11.1 0h4.6v-4.6h-4.6v4.6zm-11.1 0h4.6v-4.6h-4.6v4.6zm-11.1 0h4.6v-4.6h-4.6v4.6zm-11.1 0h4.6v-4.6h-4.6v4.6zm106-6h3.8v-3.8h-3.8v3.8zm-11.1 0h3.8v-3.8h-3.8v3.8zm-11.1 0h3.8v-3.8h-3.8v3.8zm-11.1 0h3.8v-3.8h-3.8v3.8zm-11.2 0h3.8v-3.8h-3.8v3.8zm-11.1 0h3.8v-3.8h-3.8v3.8zm-11.1 0h3.8v-3.8h-3.8v3.8zm-11.1 0h3.8v-3.8h-3.8v3.8zm-11.1 0h3.8v-3.8h-3.8v3.8zm-11.1 0h3.8v-3.8h-3.8v3.8zm-11.1 0h3.8v-3.8h-3.8v3.8zm117.1-6h2.9v-2.9h-2.9v2.9zm-11.1 0h2.9v-2.9h-2.9v2.9zm-11.2 0h2.9v-2.9h-2.9v2.9zm-11.1 0h2.9v-2.9H671v2.9zm-11.1 0h2.9v-2.9h-2.9v2.9zm-11.1 0h2.9v-2.9h-2.9v2.9zm-11.1 0h2.9v-2.9h-2.9v2.9zm-11.1 0h2.9v-2.9h-2.9v2.9zm-11.1 0h2.9v-2.9h-2.9v2.9zm-11.1 0h2.9v-2.9h-2.9v2.9zm-11.1 0h2.9v-2.9h-2.9v2.9zm105.9-6h2.1v-2.1h-2.1v2.1zm-11.1 0h2.1v-2.1h-2.1v2.1zm-11.1 0h2.1v-2.1H677v2.1zm-11.1 0h2.1v-2.1h-2.1v2.1zm-11.1 0h2.1v-2.1h-2.1v2.1zm-11.1 0h2.1v-2.1h-2.1v2.1zm-11.1 0h2.1v-2.1h-2.1v2.1zm-11.1 0h2.1v-2.1h-2.1v2.1zm-11.1 0h2.1v-2.1h-2.1v2.1zm-11.1 0h2.1v-2.1h-2.1v2.1zm-11.2 0h2.1v-2.1h-2.1v2.1zm117.1-6h1.2V5.1h-1.2v1.2zm-11.1 0h1.2V5.1h-1.2v1.2zm-11.1 0h1.2V5.1H683v1.2zm-11.1 0h1.2V5.1h-1.2v1.2zm-11.1 0h1.2V5.1h-1.2v1.2zm-11.1 0h1.2V5.1h-1.2v1.2zm-11.1 0h1.2V5.1h-1.2v1.2zm-11.1 0h1.2V5.1h-1.2v1.2zm-11.2 0h1.2V5.1h-1.2v1.2zm-11.1 0h1.2V5.1h-1.2v1.2zm-11.1 0h1.2V5.1h-1.2v1.2zm106-6h.3V0h-.3v.3zM689 .3h.3V0h-.3v.3zm-11.1 0h.3V0h-.3v.3zm-11.1 0h.3V0h-.3v.3zm-11.1 0h.3V0h-.3v.3zm-11.1 0h.3V0h-.3v.3zm-11.2 0h.3V0h-.3v.3zm-11.1 0h.3V0h-.3v.3zm-11.1 0h.3V0h-.3v.3zm-11.1 0h.3V0h-.3v.3zM589 .3h.3V0h-.3v.3zm-10.2 54h8.1v-8.1h-8.1v8.1zm-11.1 0h8.1v-8.1h-8.1v8.1zm-11.1 0h8.1v-8.1h-8.1v8.1zm-11.1 0h8.1v-8.1h-8.1v8.1zm-11.1 0h8.1v-8.1h-8.1v8.1zm-11.1 0h8.1v-8.1h-8.1v8.1zm-11.2 0h8.1v-8.1h-8.1v8.1zm-11.1 0h8.1v-8.1H501v8.1zm-11.1 0h8.1v-8.1h-8.1v8.1zm-11.1 0h8.1v-8.1h-8.1v8.1zm-11.1 0h8.1v-8.1h-8.1v8.1zm-11.1 0h8.1v-8.1h-8.1v8.1z"/><path class="st0" d="M584.8 48.3h7.2v-7.2h-7.2v7.2zm-11.1 0h7.2v-7.2h-7.2v7.2zm-11.1 0h7.2v-7.2h-7.2v7.2zm-11.1 0h7.2v-7.2h-7.2v7.2zm-11.2 0h7.2v-7.2h-7.2v7.2zm-11.1 0h7.2v-7.2h-7.2v7.2zm-11.1 0h7.2v-7.2h-7.2v7.2zm-11.1 0h7.2v-7.2H507v7.2zm-11.1 0h7.2v-7.2h-7.2v7.2zm-11.1 0h7.2v-7.2h-7.2v7.2zm-11.1 0h7.2v-7.2h-7.2v7.2zm-11.1 0h7.2v-7.2h-7.2v7.2z"/><path class="st0" d="M579.7 42.3h6.3V36h-6.3v6.3zm-11.2 0h6.3V36h-6.3v6.3zm-11.1 0h6.3V36h-6.3v6.3zm-11.1 0h6.3V36h-6.3v6.3zm-11.1 0h6.3V36h-6.3v6.3zm-11.1 0h6.3V36h-6.3v6.3zm-11.1 0h6.3V36H513v6.3zm-11.1 0h6.3V36h-6.3v6.3zm-11.1 0h6.3V36h-6.3v6.3zm-11.1 0h6.3V36h-6.3v6.3zm-11.1 0h6.3V36h-6.3v6.3z"/><path class="st0" d="M585.6 36.3h5.5v-5.5h-5.5v5.5zm-11.1 0h5.5v-5.5h-5.5v5.5zm-11.1 0h5.5v-5.5h-5.5v5.5zm-11.1 0h5.5v-5.5h-5.5v5.5zm-11.1 0h5.5v-5.5h-5.5v5.5zm-11.1 0h5.5v-5.5h-5.5v5.5zm-11.1 0h5.5v-5.5H519v5.5zm-11.1 0h5.5v-5.5h-5.5v5.5zm-11.1 0h5.5v-5.5h-5.5v5.5zm-11.1 0h5.5v-5.5h-5.5v5.5zm-11.1 0h5.5v-5.5h-5.5v5.5zm-11.2 0h5.5v-5.5h-5.5v5.5zm117.1-6h4.6v-4.6h-4.6v4.6zm-11.1 0h4.6v-4.6h-4.6v4.6zm-11.1 0h4.6v-4.6h-4.6v4.6zm-11.1 0h4.6v-4.6h-4.6v4.6zm-11.1 0h4.6v-4.6h-4.6v4.6zm-11.1 0h4.6v-4.6H525v4.6zm-11.1 0h4.6v-4.6h-4.6v4.6zm-11.2 0h4.6v-4.6h-4.6v4.6zm-11.1 0h4.6v-4.6h-4.6v4.6zm-11.1 0h4.6v-4.6h-4.6v4.6zm-11.1 0h4.6v-4.6h-4.6v4.6zm106-6h3.8v-3.8h-3.8v3.8zm-11.1 0h3.8v-3.8h-3.8v3.8zm-11.1 0h3.8v-3.8h-3.8v3.8zm-11.1 0h3.8v-3.8h-3.8v3.8zm-11.2 0h3.8v-3.8h-3.8v3.8zm-11.1 0h3.8v-3.8h-3.8v3.8zm-11.1 0h3.8v-3.8h-3.8v3.8zm-11.1 0h3.8v-3.8h-3.8v3.8zm-11.1 0h3.8v-3.8h-3.8v3.8zm-11.1 0h3.8v-3.8h-3.8v3.8zm-11.1 0h3.8v-3.8h-3.8v3.8zm117.1-6h2.9v-2.9h-2.9v2.9zm-11.1 0h2.9v-2.9h-2.9v2.9zm-11.1 0h2.9v-2.9h-2.9v2.9zm-11.2 0h2.9v-2.9H548v2.9zm-11.1 0h2.9v-2.9h-2.9v2.9zm-11.1 0h2.9v-2.9h-2.9v2.9zm-11.1 0h2.9v-2.9h-2.9v2.9zm-11.1 0h2.9v-2.9h-2.9v2.9zm-11.1 0h2.9v-2.9h-2.9v2.9zm-11.1 0h2.9v-2.9h-2.9v2.9zm-11.1 0h2.9v-2.9h-2.9v2.9zm105.9-6h2.1v-2.1h-2.1v2.1zm-11.1 0h2.1v-2.1h-2.1v2.1zm-11.1 0h2.1v-2.1H554v2.1zm-11.1 0h2.1v-2.1h-2.1v2.1zm-11.1 0h2.1v-2.1h-2.1v2.1zm-11.1 0h2.1v-2.1h-2.1v2.1zm-11.1 0h2.1v-2.1h-2.1v2.1zm-11.1 0h2.1v-2.1h-2.1v2.1zm-11.1 0h2.1v-2.1h-2.1v2.1zm-11.1 0h2.1v-2.1h-2.1v2.1zm-11.1 0h2.1v-2.1h-2.1v2.1zm117-6h1.2V5.1h-1.2v1.2zm-11.1 0h1.2V5.1h-1.2v1.2zm-11.1 0h1.2V5.1H560v1.2zm-11.1 0h1.2V5.1h-1.2v1.2zm-11.1 0h1.2V5.1h-1.2v1.2zm-11.1 0h1.2V5.1h-1.2v1.2zm-11.1 0h1.2V5.1h-1.2v1.2zm-11.1 0h1.2V5.1h-1.2v1.2zm-11.1 0h1.2V5.1h-1.2v1.2zm-11.1 0h1.2V5.1h-1.2v1.2zm-11.2 0h1.2V5.1h-1.2v1.2zm106-6h.3V0h-.3v.3zM566 .3h.3V0h-.3v.3zm-11.1 0h.3V0h-.3v.3zm-11.1 0h.3V0h-.3v.3zm-11.1 0h.3V0h-.3v.3zm-11.1 0h.3V0h-.3v.3zm-11.2 0h.3V0h-.3v.3zm-11.1 0h.3V0h-.3v.3zm-11.1 0h.3V0h-.3v.3zm-11.1 0h.3V0h-.3v.3zM466 .3h.3V0h-.3v.3zm-9.6 54h8.1v-8.1h-8.1v8.1zm-11.1 0h8.1v-8.1h-8.1v8.1zm-11.1 0h8.1v-8.1h-8.1v8.1zm-11.1 0h8v-8.1h-8v8.1zm-11.1 0h8.1v-8.1H412v8.1zm-11.1 0h8v-8.1h-8v8.1zm-11.1 0h8v-8.1h-8v8.1zm-11.1 0h8.1v-8.1h-8.1v8.1zm-11.1 0h8.1v-8.1h-8.1v8.1zm-11.2 0h8.1v-8.1h-8.1v8.1zm-11.1 0h8.1v-8.1h-8.1v8.1zm-11.1 0h8.1v-8.1h-8.1v8.1z"/><path class="st0" d="M462.4 48.3h7.2v-7.2h-7.2v7.2zm-11.1 0h7.2v-7.2h-7.2v7.2zm-11.1 0h7.2v-7.2h-7.2v7.2zm-11.1 0h7.2v-7.2h-7.2v7.2zm-11.1 0h7.2v-7.2H418v7.2zm-11.1 0h7.2v-7.2h-7.2v7.2zm-11.1 0h7.2v-7.2h-7.2v7.2zm-11.2 0h7.2v-7.2h-7.2v7.2zm-11.1 0h7.2v-7.2h-7.2v7.2zm-11.1 0h7.2v-7.2h-7.2v7.2zm-11.1 0h7.2v-7.2h-7.2v7.2zm-11.1 0h7.2v-7.2h-7.2v7.2z"/><path class="st0" d="M457.3 42.3h6.3V36h-6.3v6.3zm-11.1 0h6.3V36h-6.3v6.3zm-11.1 0h6.3V36h-6.3v6.3zm-11.1 0h6.3V36H424v6.3zm-11.2 0h6.3V36h-6.3v6.3zm-11.1 0h6.3V36h-6.3v6.3zm-11.1 0h6.3V36h-6.3v6.3zm-11.1 0h6.3V36h-6.3v6.3zm-11.1 0h6.3V36h-6.3v6.3zm-11.1 0h6.4V36h-6.4v6.3zm-11.1 0h6.4V36h-6.4v6.3z"/><path class="st0" d="M463.3 36.3h5.5v-5.5h-5.5v5.5zm-11.2 0h5.5v-5.5h-5.5v5.5zm-11.1 0h5.5v-5.5H441v5.5zm-11.1 0h5.5v-5.5h-5.5v5.5zm-11.1 0h5.5v-5.5h-5.5v5.5zm-11.1 0h5.5v-5.5h-5.5v5.5zm-11.1 0h5.5v-5.5h-5.5v5.5zm-11.1 0h5.5v-5.5h-5.5v5.5zm-11.1 0h5.5v-5.5h-5.5v5.5zm-11.1 0h5.5v-5.5h-5.5v5.5zm-11.1 0h5.5v-5.5h-5.5v5.5zm-11.1 0h5.5v-5.5h-5.5v5.5zm117-6h4.6v-4.6h-4.6v4.6zm-11.1 0h4.6v-4.6H447v4.6zm-11.1 0h4.6v-4.6h-4.6v4.6zm-11.1 0h4.6v-4.6h-4.6v4.6zm-11.1 0h4.6v-4.6h-4.6v4.6zm-11.1 0h4.6v-4.6h-4.6v4.6zm-11.1 0h4.6v-4.6h-4.6v4.6zm-11.1 0h4.6v-4.6h-4.6v4.6zm-11.1 0h4.6v-4.6h-4.6v4.6zm-11.1 0h4.6v-4.6h-4.6v4.6zm-11.2 0h4.6v-4.6H347v4.6zm106-6h3.8v-3.8H453v3.8zm-11.1 0h3.8v-3.8h-3.8v3.8zm-11.1 0h3.8v-3.8h-3.8v3.8zm-11.1 0h3.8v-3.8h-3.8v3.8zm-11.1 0h3.8v-3.8h-3.8v3.8zm-11.1 0h3.8v-3.8h-3.8v3.8zm-11.2 0h3.8v-3.8h-3.8v3.8zm-11.1 0h3.8v-3.8h-3.8v3.8zm-11.1 0h3.8v-3.8h-3.8v3.8zm-11.1 0h3.8v-3.8H353v3.8zm-11.1 0h3.8v-3.8h-3.8v3.8zm117.1-6h2.9v-2.9H459v2.9zm-11.1 0h2.9v-2.9h-2.9v2.9zm-11.1 0h2.9v-2.9h-2.9v2.9zm-11.1 0h2.9v-2.9h-2.9v2.9zm-11.1 0h2.9v-2.9h-2.9v2.9zm-11.1 0h2.9v-2.9h-2.9v2.9zm-11.2 0h2.9v-2.9h-2.9v2.9zm-11.1 0h2.9v-2.9h-2.9v2.9zm-11.1 0h2.9v-2.9h-2.9v2.9zm-11.1 0h2.9v-2.9H359v2.9zm-11.1 0h2.9v-2.9h-2.9v2.9zm106-6h2.1v-2.1h-2.1v2.1zm-11.1 0h2.1v-2.1h-2.1v2.1zm-11.2 0h2.1v-2.1h-2.1v2.1zm-11.1 0h2v-2.1h-2v2.1zm-11.1 0h2.1v-2.1h-2.1v2.1zm-11.1 0h2.1v-2.1h-2.1v2.1zm-11.1 0h2.1v-2.1h-2.1v2.1zm-11.1 0h2.1v-2.1h-2.1v2.1zm-11.1 0h2.1v-2.1H365v2.1zm-11.1 0h2.1v-2.1h-2.1v2.1zm-11.1 0h2.1v-2.1h-2.1v2.1zm117.1-6h1.2V5.1h-1.2v1.2zm-11.2 0h1.2V5.1h-1.2v1.2zm-11.1 0h1.2V5.1h-1.2v1.2zm-11.1 0h1.2V5.1h-1.2v1.2zm-11.1 0h1.2V5.1h-1.2v1.2zm-11.1 0h1.2V5.1h-1.2v1.2zm-11.1 0h1.2V5.1h-1.2v1.2zm-11.1 0h1.2V5.1h-1.2v1.2zm-11.1 0h1.2V5.1H371v1.2zm-11.1 0h1.2V5.1h-1.2v1.2zm-11.1 0h1.2V5.1h-1.2v1.2zm105.9-6h.3V0h-.3v.3zm-11.1 0h.3V0h-.3v.3zm-11.1 0h.3V0h-.3v.3zm-11.1 0h.4V0h-.4v.3zm-11.1 0h.3V0h-.3v.3zm-11.1 0h.3V0h-.3v.3zm-11.1 0h.3V0h-.3v.3zM377 .3h.3V0h-.3v.3zm-11.1 0h.3V0h-.3v.3zm-11.2 0h.3V0h-.3v.3zm-11.1 0h.3V0h-.3v.3zm-9.3 54h8.1v-8.1h-8.1v8.1zm-11.1 0h8v-8.1h-8v8.1zm-11.1 0h8.1v-8.1h-8.1v8.1zm-11.2 0h8.1v-8.1h-8.1v8.1zm-11.1 0h8.1v-8.1h-8.1v8.1zm-11.1 0h8.1v-8.1h-8.1v8.1zm-11.1 0h8.1v-8.1h-8.1v8.1zm-11.1 0h8.1v-8.1h-8.1v8.1zm-11.1 0h8v-8.1h-8v8.1zm-11.1 0h8.1v-8.1h-8.1v8.1zm-11.1 0h8.1v-8.1h-8.1v8.1zm-11.1 0h8.1v-8.1h-8.1v8.1z"/><path class="st0" d="M340.3 48.3h7.2v-7.2h-7.2v7.2zm-11.2 0h7.2v-7.2h-7.2v7.2zm-11.1 0h7.2v-7.2H318v7.2zm-11.1 0h7.2v-7.2h-7.2v7.2zm-11.1 0h7.2v-7.2h-7.2v7.2zm-11.1 0h7.2v-7.2h-7.2v7.2zm-11.1 0h7.2v-7.2h-7.2v7.2zm-11.1 0h7.2v-7.2h-7.2v7.2zm-11.1 0h7.2v-7.2h-7.2v7.2zm-11.1 0h7.2v-7.2h-7.2v7.2zm-11.1 0h7.2v-7.2h-7.2v7.2zm-11.1 0h7.2v-7.2h-7.2v7.2z"/><path class="st0" d="M335.1 42.3h6.3V36h-6.3v6.3zm-11.1 0h6.3V36H324v6.3zm-11.1 0h6.3V36h-6.3v6.3zm-11.1 0h6.3V36h-6.3v6.3zm-11.1 0h6.3V36h-6.3v6.3zm-11.1 0h6.3V36h-6.3v6.3zm-11.1 0h6.3V36h-6.3v6.3zm-11.1 0h6.3V36h-6.3v6.3zm-11.1 0h6.3V36h-6.3v6.3zm-11.2 0h6.3V36h-6.3v6.3zm-11.1 0h6.3V36H224v6.3z"/><path class="st0" d="M341.1 36.3h5.5v-5.5h-5.5v5.5zm-11.1 0h5.5v-5.5H330v5.5zm-11.1 0h5.5v-5.5h-5.5v5.5zm-11.1 0h5.5v-5.5h-5.5v5.5zm-11.1 0h5.5v-5.5h-5.5v5.5zm-11.1 0h5.5v-5.5h-5.5v5.5zm-11.1 0h5.5v-5.5h-5.5v5.5zm-11.2 0h5.5v-5.5h-5.5v5.5zm-11.1 0h5.5v-5.5h-5.5v5.5zm-11.1 0h5.5v-5.5h-5.5v5.5zm-11.1 0h5.5v-5.5H230v5.5zm-11.1 0h5.5v-5.5h-5.5v5.5zm117.1-6h4.6v-4.6H336v4.6zm-11.1 0h4.6v-4.6h-4.6v4.6zm-11.1 0h4.6v-4.6h-4.6v4.6zm-11.1 0h4.6v-4.6h-4.6v4.6zm-11.1 0h4.6v-4.6h-4.6v4.6zm-11.2 0h4.6v-4.6h-4.6v4.6zm-11.1 0h4.6v-4.6h-4.6v4.6zm-11.1 0h4.6v-4.6h-4.6v4.6zm-11.1 0h4.6v-4.6h-4.6v4.6zm-11.1 0h4.6v-4.6H236v4.6zm-11.1 0h4.6v-4.6h-4.6v4.6zm106-6h3.8v-3.8h-3.8v3.8zm-11.2 0h3.8v-3.8h-3.8v3.8zm-11.1 0h3.8v-3.8h-3.8v3.8zm-11.1 0h3.8v-3.8h-3.8v3.8zm-11.1 0h3.8v-3.8h-3.8v3.8zm-11.1 0h3.8v-3.8h-3.8v3.8zm-11.1 0h3.8v-3.8h-3.8v3.8zm-11.1 0h3.8v-3.8h-3.8v3.8zm-11.1 0h3.8v-3.8H242v3.8zm-11.1 0h3.8v-3.8h-3.8v3.8zm-11.1 0h3.8v-3.8h-3.8v3.8zm117-6h2.9v-2.9h-2.9v2.9zm-11.1 0h2.9v-2.9h-2.9v2.9zm-11.1 0h2.9v-2.9h-2.9v2.9zm-11.1 0h2.9v-2.9h-2.9v2.9zm-11.1 0h2.9v-2.9h-2.9v2.9zm-11.1 0h2.9v-2.9h-2.9v2.9zm-11.1 0h2.9v-2.9h-2.9v2.9zm-11.1 0h2.9v-2.9h-2.9v2.9zm-11.1 0h2.9v-2.9H248v2.9zm-11.1 0h2.9v-2.9h-2.9v2.9zm-11.1 0h2.9v-2.9h-2.9v2.9zm105.9-6h2.1v-2.1h-2.1v2.1zm-11.1 0h2.1v-2.1h-2.1v2.1zm-11.1 0h2v-2.1h-2v2.1zm-11.1 0h2v-2.1h-2v2.1zm-11.1 0h2v-2.1h-2v2.1zm-11.1 0h2.1v-2.1h-2.1v2.1zm-11.1 0h2.1v-2.1h-2.1v2.1zm-11.1 0h2.1v-2.1H254v2.1zm-11.2 0h2.1v-2.1h-2.1v2.1zm-11.1 0h2.1v-2.1h-2.1v2.1zm-11.1 0h2v-2.1h-2v2.1zm117.1-6h1.2V5.1h-1.2v1.2zm-11.1 0h1.2V5.1h-1.2v1.2zm-11.1 0h1.2V5.1h-1.2v1.2zm-11.1 0h1.2V5.1h-1.2v1.2zm-11.1 0h1.2V5.1h-1.2v1.2zm-11.1 0h1.2V5.1h-1.2v1.2zm-11.2 0h1.2V5.1H271v1.2zm-11.1 0h1.2V5.1h-1.2v1.2zm-11.1 0h1.2V5.1h-1.2v1.2zm-11.1 0h1.2V5.1h-1.2v1.2zm-11.1 0h1.2V5.1h-1.2v1.2zm106-6h.3V0h-.3v.3zm-11.1 0h.3V0h-.3v.3zm-11.1 0h.3V0h-.3v.3zm-11.1 0h.3V0h-.3v.3zm-11.2 0h.3V0h-.3v.3zM277 .3h.3V0h-.3v.3zm-11.1 0h.3V0h-.3v.3zm-11.1 0h.4V0h-.4v.3zm-11.1 0h.3V0h-.3v.3zm-11.1 0h.3V0h-.3v.3zm-11.1 0h.3V0h-.3v.3zm-9.4 54h8v-8.1h-8v8.1zm-11.1 0h8v-8.1h-8v8.1zm-11.1 0h8v-8.1h-8v8.1zm-11.1 0h8.1v-8.1h-8.1v8.1zm-11.1 0h8.1v-8.1h-8.1v8.1zm-11.1 0h8.1v-8.1h-8.1v8.1zm-11.1 0h8.1v-8.1h-8.1v8.1zm-11.1 0h8.1v-8.1h-8.1v8.1zm-11.1 0h8v-8.1h-8v8.1zm-11.2 0h8v-8.1h-8v8.1zm-11.1 0h8v-8.1h-8v8.1zm-11.1 0H98v-8.1h-8.1v8.1z"/><path class="st0" d="M218.1 48.3h7.2v-7.2h-7.2v7.2zm-11.1 0h7.2v-7.2H207v7.2zm-11.1 0h7.2v-7.2h-7.2v7.2zm-11.1 0h7.2v-7.2h-7.2v7.2zm-11.1 0h7.2v-7.2h-7.2v7.2zm-11.1 0h7.2v-7.2h-7.2v7.2zm-11.1 0h7.2v-7.2h-7.2v7.2zm-11.2 0h7.2v-7.2h-7.2v7.2zm-11.1 0h7.2v-7.2h-7.2v7.2zm-11.1 0h7.2v-7.2h-7.2v7.2zm-11.1 0h7.2v-7.2H107v7.2zm-11.1 0h7.2v-7.2h-7.2v7.2z"/><path class="st0" d="M213 42.3h6.3V36H213v6.3zm-11.1 0h6.3V36h-6.3v6.3zm-11.1 0h6.3V36h-6.3v6.3zm-11.2 0h6.3V36h-6.3v6.3zm-11.1 0h6.3V36h-6.3v6.3zm-11.1 0h6.3V36h-6.3v6.3zm-11.1 0h6.3V36h-6.3v6.3zm-11.1 0h6.3V36h-6.3v6.3zm-11.1 0h6.3V36h-6.3v6.3zm-11.1 0h6.3V36H113v6.3zm-11.1 0h6.3V36h-6.3v6.3z"/><path class="st0" d="M219 36.3h5.5v-5.5H219v5.5zm-11.2 0h5.5v-5.5h-5.5v5.5zm-11.1 0h5.5v-5.5h-5.5v5.5zm-11.1 0h5.5v-5.5h-5.5v5.5zm-11.1 0h5.5v-5.5h-5.5v5.5zm-11.1 0h5.5v-5.5h-5.5v5.5zm-11.1 0h5.5v-5.5h-5.5v5.5zm-11.1 0h5.5v-5.5h-5.5v5.5zm-11.1 0h5.5v-5.5h-5.5v5.5zm-11.1 0h5.5v-5.5H119v5.5zm-11.1 0h5.5v-5.5h-5.5v5.5zm-11.1 0h5.5v-5.5h-5.5v5.5zm117-6h4.6v-4.6h-4.6v4.6zm-11.1 0h4.6v-4.6h-4.6v4.6zm-11.1 0h4.6v-4.6h-4.6v4.6zm-11.1 0h4.6v-4.6h-4.6v4.6zm-11.1 0h4.6v-4.6h-4.6v4.6zm-11.1 0h4.6v-4.6h-4.6v4.6zm-11.1 0h4.6v-4.6h-4.6v4.6zm-11.1 0h4.6v-4.6h-4.6v4.6zm-11.1 0h4.6v-4.6H125v4.6zm-11.1 0h4.6v-4.6h-4.6v4.6zm-11.2 0h4.6v-4.6h-4.6v4.6zm106-6h3.8v-3.8h-3.8v3.8zm-11.1 0h3.8v-3.8h-3.8v3.8zm-11.1 0h3.8v-3.8h-3.8v3.8zm-11.1 0h3.8v-3.8h-3.8v3.8zm-11.1 0h3.8v-3.8h-3.8v3.8zm-11.1 0h3.8v-3.8h-3.8v3.8zm-11.2 0h3.8v-3.8H142v3.8zm-11.1 0h3.8v-3.8h-3.8v3.8zm-11.1 0h3.8v-3.8h-3.8v3.8zm-11.1 0h3.8v-3.8h-3.8v3.8zm-11.1 0h3.8v-3.8h-3.8v3.8zm117.1-6h2.9v-2.9h-2.9v2.9zm-11.1 0h2.9v-2.9h-2.9v2.9zm-11.1 0h2.9v-2.9h-2.9v2.9zm-11.1 0h2.9v-2.9h-2.9v2.9zm-11.1 0h2.9v-2.9h-2.9v2.9zm-11.2 0h2.9v-2.9h-2.9v2.9zm-11.1 0h2.9v-2.9H148v2.9zm-11.1 0h2.9v-2.9h-2.9v2.9zm-11.1 0h2.9v-2.9h-2.9v2.9zm-11.1 0h2.9v-2.9h-2.9v2.9zm-11.1 0h2.9v-2.9h-2.9v2.9zm106-6h2.1v-2.1h-2.1v2.1zm-11.1 0h2.1v-2.1h-2.1v2.1zm-11.2 0h2.1v-2.1h-2.1v2.1zm-11.1 0h2.1v-2.1h-2.1v2.1zm-11.1 0h2v-2.1h-2v2.1zm-11.1 0h2v-2.1h-2v2.1zm-11.1 0h2v-2.1h-2v2.1zm-11.1 0h2.1v-2.1h-2.1v2.1zm-11.1 0h2.1v-2.1h-2.1v2.1zm-11.1 0h2.1v-2.1h-2.1v2.1zm-11.1 0h2.1v-2.1h-2.1v2.1zm117.1-6h1.2V5.1h-1.2v1.2zm-11.2 0h1.2V5.1h-1.2v1.2zm-11.1 0h1.2V5.1h-1.2v1.2zm-11.1 0h1.2V5.1h-1.2v1.2zm-11.1 0h1.2V5.1h-1.2v1.2zm-11.1 0h1.2V5.1H160v1.2zm-11.1 0h1.2V5.1h-1.2v1.2zm-11.1 0h1.2V5.1h-1.2v1.2zm-11.1 0h1.2V5.1h-1.2v1.2zm-11.1 0h1.2V5.1h-1.2v1.2zm-11.1 0h1.2V5.1h-1.2v1.2zm105.9-6h.3V0h-.3v.3zm-11.1 0h.3V0h-.3v.3zm-11.1 0h.3V0h-.3v.3zm-11.1 0h.3V0h-.3v.3zM166 .3h.3V0h-.3v.3zm-11.1 0h.3V0h-.3v.3zm-11.1 0h.3V0h-.3v.3zm-11.1 0h.3V0h-.3v.3zm-11.1 0h.3V0h-.3v.3zm-11.2 0h.3V0h-.3v.3zM99.3.3h.3V0h-.3v.3zm-10.2 54h8v-8.1h-8v8.1zm-11.1 0h8v-8.1h-8v8.1zm-11.1 0H75v-8.1h-8.1v8.1zm-11.1 0h8.1v-8.1h-8.1v8.1zm-11.1 0h8.1v-8.1h-8.1v8.1zm-11.1 0h8.1v-8.1h-8.1v8.1zm-11.1 0h8.1v-8.1h-8.1v8.1zm-11.1 0h8.1v-8.1h-8.1v8.1zm-11.1 0h8v-8.1h-8v8.1z"/><path class="st0" d="M95.1 48.3h7.2v-7.2h-7.2v7.2zm-11.1 0h7.2v-7.2H84v7.2zm-11.1 0h7.2v-7.2h-7.2v7.2zm-11.1 0H69v-7.2h-7.2v7.2zm-11.1 0h7.2v-7.2h-7.2v7.2zm-11.1 0h7.2v-7.2h-7.2v7.2zm-11.1 0h7.2v-7.2h-7.2v7.2zm-11.2 0h7.2v-7.2h-7.2v7.2zm-11.1 0h7.2v-7.2H6.2v7.2zm-11.1 0h7.2v-7.2h-7.2v7.2z"/><path class="st0" d="M90 42.3h6.3V36H90v6.3zm-11.1 0h6.3V36h-6.3v6.3zm-11.1 0h6.3V36h-6.3v6.3zm-11.1 0H63V36h-6.3v6.3zm-11.2 0h6.4V36h-6.4v6.3zm-11.1 0h6.4V36h-6.4v6.3zm-11.1 0h6.3V36h-6.3v6.3zm-11.1 0h6.3V36h-6.3v6.3zm-11.1 0h6.3V36H1.1v6.3z"/><path class="st0" d="M96 36.3h5.5v-5.5H96v5.5zm-11.1 0h5.5v-5.5h-5.5v5.5zm-11.2 0h5.5v-5.5h-5.5v5.5zm-11.1 0h5.5v-5.5h-5.5v5.5zm-11.1 0H57v-5.5h-5.5v5.5zm-11.1 0h5.5v-5.5h-5.5v5.5zm-11.1 0h5.5v-5.5h-5.5v5.5zm-11.1 0h5.5v-5.5h-5.5v5.5zm-11.1 0h5.5v-5.5H7.1v5.5zm-11.1 0h5.5v-5.5H-4v5.5zm94.8-6h4.6v-4.6h-4.6v4.6zm-11.1 0h4.6v-4.6h-4.6v4.6zm-11.1 0h4.6v-4.6h-4.6v4.6zm-11.1 0h4.6v-4.6h-4.6v4.6zm-11.1 0H51v-4.6h-4.6v4.6zm-11.1 0h4.6v-4.6h-4.6v4.6zm-11.1 0h4.6v-4.6h-4.6v4.6zm-11.1 0h4.6v-4.6h-4.6v4.6zM2 30.3h4.6v-4.6H2v4.6zm83.7-6h3.8v-3.8h-3.8v3.8zm-11.1 0h3.8v-3.8h-3.8v3.8zm-11.1 0h3.8v-3.8h-3.8v3.8zm-11.1 0h3.8v-3.8h-3.8v3.8zm-11.1 0h3.8v-3.8h-3.8v3.8zm-11.1 0H34v-3.8h-3.8v3.8zm-11.1 0h3.8v-3.8h-3.8v3.8zm-11.2 0h3.8v-3.8H7.9v3.8zm-11.1 0H.6v-3.8h-3.8v3.8zm94.9-6h2.9v-2.9h-2.9v2.9zm-11.1 0h2.9v-2.9h-2.9v2.9zm-11.1 0h2.9v-2.9h-2.9v2.9zm-11.1 0h2.9v-2.9h-2.9v2.9zm-11.1 0h2.9v-2.9h-2.9v2.9zm-11.1 0h2.9v-2.9h-2.9v2.9zm-11.2 0h2.9v-2.9H25v2.9zm-11.1 0h2.9v-2.9h-2.9v2.9zm-11.1 0h2.9v-2.9H2.8v2.9zm83.8-6h2.1v-2.1h-2.1v2.1zm-11.1 0h2.1v-2.1h-2.1v2.1zm-11.1 0h2.1v-2.1h-2.1v2.1zm-11.2 0h2v-2.1h-2v2.1zm-11.1 0h2.1v-2.1h-2.1v2.1zm-11.1 0h2.1v-2.1H31v2.1zm-11.1 0h2v-2.1h-2v2.1zm-11.1 0h2.1v-2.1H8.8v2.1zm-11.1 0h2.1v-2.1h-2.1v2.1zm94.9-6h1.2V5.1h-1.2v1.2zm-11.2 0h1.2V5.1h-1.2v1.2zm-11.1 0h1.2V5.1h-1.2v1.2zm-11.1 0h1.2V5.1h-1.2v1.2zm-11.1 0h1.2V5.1h-1.2v1.2zM37 6.3h1.2V5.1H37v1.2zm-11.1 0h1.2V5.1h-1.2v1.2zm-11.1 0H16V5.1h-1.2v1.2zm-11.1 0h1.2V5.1H3.7v1.2zm83.7-6h.3V0h-.3v.3zM76.3.3h.3V0h-.3v.3zM65.2.3h.3V0h-.3v.3zM54.1.3h.3V0h-.3v.3zM43 .3h.3V0H43v.3zM31.9.3h.3V0h-.3v.3zM20.8.3h.3V0h-.3v.3zM9.7.3h.3V0h-.3v.3zM-1.4.3h.3V0h-.3v.3z"/></svg>