<svg width="32" height="32" fill="none" xmlns="http://www.w3.org/2000/svg"><rect width="32" height="32" rx="8" fill="#85CA15"/><path d="M23.842 14.072c.314-2.11-1.25-3.229-3.617-3.974l.86-2.856-1.846-.373-.857 2.733c-.527-.125-1.054-.249-1.449-.373l.86-2.856L15.949 6l-.86 2.856c-.395-.124-3.69-.869-3.69-.869l-.44 1.863 1.319.248c.789.249.913.621.772.994l-2.167 7.824c-.139.248-.277.497-.804.372L8.76 19.04l-1.102 1.863s3.294.745 3.689.87l-.86 2.856 1.842.496.86-2.856c.528.124 1.055.248 1.45.373l-.861 2.856 1.843.497.86-2.857c3.168.497 5.555.373 6.545-2.36.844-2.11.078-3.352-1.624-4.222 1.195-.124 2.139-.87 2.441-2.484Zm-4.367 5.589c-.579 2.111-4.395.993-5.714.745l1.149-3.85c1.319.249 5.278.87 4.565 3.105Zm.79-5.589c-.575 1.987-3.731.994-4.785.746l1.007-3.478c.922.249 4.357.621 3.779 2.732Z" fill="#fff"/></svg>