<svg width="32" height="32" fill="none" xmlns="http://www.w3.org/2000/svg"><rect width="32" height="32" rx="8" fill="#F7931A"/><path d="M19.868 15.528a3.96 3.96 0 0 0 1.733-1.485 3.93 3.93 0 0 0 .638-2.176 3.82 3.82 0 0 0-.518-1.974 4.333 4.333 0 0 0-1.295-1.41 4.39 4.39 0 0 0-1.761-.697 7.865 7.865 0 0 0-.352-.05V6.695A.694.694 0 0 0 17.62 6h-1.388a.694.694 0 0 0-.694.694v.926H14.09v-.926A.694.694 0 0 0 13.395 6h-1.388a.694.694 0 0 0-.694.694v.926H8.932v16.876h2.381v.81c0 .383.31.694.694.694h1.389c.383 0 .694-.31.694-.694v-.81h.586l.861-.008v.818c0 .383.311.694.694.694h1.389c.383 0 .694-.31.694-.694v-.89c.193-.01.352-.022.472-.035.906-.1 1.667-.366 2.285-.8a4.512 4.512 0 0 0 1.462-1.738 5.017 5.017 0 0 0 .535-2.24c0-.974-.276-1.822-.829-2.544-.552-.721-1.343-1.231-2.371-1.53Zm-5.572-5.1c1.604 0 2.575.02 2.913.058.568.07.996.267 1.284.593.287.326.431.75.431 1.272 0 .545-.167.984-.5 1.318-.334.334-.793.535-1.376.604-.323.039-1.148.058-2.475.058h-2.234V10.43h1.957Zm4.772 10.448a2.111 2.111 0 0 1-1.238.673c-.33.07-1.109.104-2.337.104H12.34V17.14h2.751c1.55 0 2.558.08 3.022.242.465.161.82.418 1.065.771.245.353.368.783.368 1.29 0 .598-.158 1.076-.477 1.433Z" fill="#fff"/></svg>