<svg xmlns="http://www.w3.org/2000/svg" viewBox="0 0 1084.02 1202.54"><defs><radialGradient id="b" cx="476.99" cy="691.73" fx="476.99" fy="691.73" r="326.4" gradientUnits="userSpaceOnUse"><stop offset="0" stop-color="#f8ff2e"/><stop offset=".09" stop-color="#f7f72d"/><stop offset=".23" stop-color="#f6e32c"/><stop offset=".4" stop-color="#f5c22b"/><stop offset=".59" stop-color="#f29429"/><stop offset=".79" stop-color="#ef5926"/><stop offset=".98" stop-color="#ed1c24"/></radialGradient><style>.f{mix-blend-mode:multiply}.g{fill:#fff}.m{fill:#680000}.p{fill:#ff5b00}.f,.q{fill:#a00}.s{fill:red}</style></defs><g style="isolation:isolate"><g id="a"><path d="M195.02 418.87c-42 87.01-63.01 117.01-120.01 141.01-57.01 24-36 63.01-33 117.01 3 54.01-42 57.01-42 126.01 0 37.16 3.03 75.91 18 110.38 15.85 36.51 49.15 67.54 75.19 97.17 38.6 43.93 90.97 26.69 131.99 66.96 24.97 24.52 49.96 13.18 77.55 26.73 27.25 13.38 48.35 47 69.01 68.2 34.18 35.07 77.32 32.64 123.31 26.58 114.01-15 186.02-39 183.02-105.01s-36-54.01-3-66.01 42 27 102.01-24c60.01-51 30-69.01 18-114.01l-12-45s21-15 45-27-21-27 30-27 96.01-27 99.01-51.01c3-24 9 21-63.01 12-72.01-9-78.01-36-36-57.01 42-21 144-24 162.01-80.99 8.45-26.74 16.11-53.61 9.2-81.59-9.05-36.63-35.21-48.95-55.68-75.36-43.91-56.65.18-143.98-12.85-208.18-8.7 54.52-20.37 104.1-54.67 149.1-21.77 28.55-64.21 49.89-92.26 14.25-33.59-42.69 9.59-117.5 26.18-160.53 10.9-28.26 41.4-135.7 9.74-159.51-27.45 48.73-7 109.38-44.63 154.71-28.97 34.9-78.13 45.84-109.99 7.58C652.9 203.62 733 106.6 791.85 116.5c-49.36-8.31-99.65 8.93-139.96 36.97-19.79 13.77-38.58 30.02-51 50.62-8.67 14.38-8.37 33.26-26.65 41.69-41.24 19.03-85.84-35.21-66.68-73.93 13.93-28.15 69.59-95.09 106.43-83.86-138.43-43.21-260.95 91.55-263.02 222.17-.95 60.22-46.98 25.96-57.36-11.89-7.85-28.65-10.81-90.01 29.51-95.07-49.13 6.16-56.18 92.24-56.09 129.3.1 42.93.14 87.29-11.21 129.03-11.6 42.63-24.42 52.28-62.69 67.43-1.49-22.11 21.54-105.23-7.11-116.12l9 6z" style="fill:#ffe50c"/><path d="M219.07 515.51c-32.97 68.29-49.45 91.84-94.19 110.68-44.74 18.84-28.26 49.45-25.9 91.84 1.55 27.88-42.8 47.93-51.88 77.96-16.83 55.68 14.16 102.43 51.43 140.96 50.6 52.31 120.66 78.23 171.92 127.68 51.5 49.69 124.71 84 190.74 111.78 56.64 23.83 117.47 14.11 159.25-34.72 14.12-16.5 22.44-40.87 26.64-61.85 5.27-26.3-17.66-67.05 2.14-88.05 12.54-13.3 32.2-18.17 44.05-34.31 19.49-26.53 4.16-44.56-3.23-72.27l-9.42-35.32s16.48-11.77 35.32-21.19c18.84-9.42-16.48-21.19 23.55-21.19s75.35-21.19 77.71-40.03c2.36-18.84 7.07 16.48-49.45 9.42-56.52-7.06-61.23-28.26-28.26-44.74 32.96-16.48 113.02-18.84 127.16-63.57 6.63-20.99 12.64-42.07 7.22-64.04-7.1-28.75-27.64-38.42-43.7-59.15-34.46-44.46.14-113-10.09-163.39-6.83 42.79-15.99 81.7-42.91 117.02-17.08 22.41-50.39 39.16-72.41 11.18-26.36-33.5 7.53-92.22 20.55-125.99 8.55-22.18 32.49-106.5 7.64-125.19-21.55 38.24-5.5 85.84-35.03 121.43-22.73 27.39-61.32 35.98-86.33 5.95-33.15-39.81 29.72-115.96 75.9-108.19-38.74-6.52-78.21 7.01-109.85 29.02-15.53 10.81-30.28 23.56-40.03 39.73-6.8 11.29-6.57 26.1-20.92 32.72-32.37 14.93-67.37-27.64-52.34-58.02 10.93-22.09 54.62-74.64 83.54-65.82-67.72-21.14-134.96 14.22-172.84 70.66-16.04 23.9-19.21 73.09-38.43 90.64-31.46 28.71-39.07-14.7-42.94-37.77-33 50.38-11.86 114.35-26.9 169.65-9.1 33.46-19.17 41.03-49.2 52.93-1.17-17.35 16.91-82.59-5.58-91.14l7.06 4.71z" style="fill:#f47307"/><path class="g" d="M895 523.15c-.6-24.02-19.57-50.12-62.38-86.22-40.21-33.91-97.08-72.08-160.14-107.48-104.31-58.56-202.32-96.4-249.69-96.4-8.7 0-16.54 1.21-23.33 3.59-17.47 4.62-41.17 18.15-57.81 55.84-8.79 19.9-7.32 49.4-3.56 63.08 2.57 9.34 6.96 19.11 13.11 29.19-52.94 94.71-162.26 290.29-203.8 364.59-34.38 1.23-63.61 20.17-76.81 50.07-9.19 20.82-7.13 47.97-3.51 61.15 7.66 27.86 31.47 59.19 70.77 93.13 36.85 31.82 85.92 65.01 145.85 98.66 98.38 55.23 198.88 92.34 250.08 92.34 7.81 0 14.57-.82 20.64-2.51 27.31-6.03 49.11-23.45 59.91-47.91 12.28-27.81 8.1-59.85-10.68-85.33 27.56-50.62 95.03-174.56 200.98-369.25 7.87.02 14.72-.81 20.84-2.52 28.78-6.46 54.93-28.86 63.79-54.76 7.41-21.67 9.33-41.58 5.72-59.25z"/><path class="s" d="M574.09 1028.56c-21.26-41.17-95.37-103.44-192.33-157.87-82.66-46.4-161.52-75.65-211.62-81.24-29.13-8.81-59.73 2.9-71.01 28.45-5.12 11.59-4.47 30.93-1.95 40.08 11 40 75.31 101.73 201.67 172.67 112.72 63.28 217.48 96.09 247.59 86.74 17.1-3.51 31.74-14.08 38.8-30.07 8.68-19.67 3.58-42.27-11.15-58.75z"/><path class="q" d="M211.45 958.24c123.82 75.27 209.17 101.01 249.42 90.96 9.2-2.3 26.37-11.22 33.96-21.37 16.72-22.37 11.9-54.78-10.07-75.83-8.39-11.65-19.6-24.39-33.21-37.79 51.86 37.13 92.13 74.34 113.73 104.33 21.97 21.05 26.79 53.46 10.07 75.83-7.59 10.15-24.75 19.08-33.96 21.38-40.25 10.05-125.6-15.69-249.42-90.96-64.13-38.99-117.99-80.67-153.2-114.82 22.14 16.08 46.55 32.4 72.67 48.28z"/><path class="f" d="M426.18 984.97c95 116-3 98-9 99s103.85 43.44 121 32c33-22 19-78-32-105-7.12-3.77-80-26-80-26z"/><path class="m" d="M527.51 1122.45c-46.7 0-144.71-36.71-238.33-89.27C171.57 967.15 96.77 902.56 83.95 855.96c-2.72-9.9-3.86-31.07 2.33-45.09 9.76-22.1 32.14-35.83 58.42-35.83 7.04 0 14.08 1.02 20.95 3.03 53.23 6.12 133.08 36.76 213.79 82.08 95.37 53.54 171.67 116.26 194.88 160.13 16.78 19.27 21.3 44.49 11.78 66.06-7.77 17.59-23.72 30.08-43.8 34.31-4.07 1.21-8.91 1.8-14.79 1.8zM144.69 790.04c-20.25 0-37.37 10.3-44.7 26.88-4.22 9.56-3.76 27.15-1.59 35.06 11.59 42.13 85.65 104.98 198.11 168.12 102.15 57.35 193.52 87.35 230.99 87.35 4.47 0 8.07-.42 10.71-1.24l.72-.18c15.43-3.17 27.62-12.56 33.45-25.75 7.23-16.38 3.45-35.81-9.88-50.72l-.63-.71-.44-.85c-21.09-40.84-97.18-103.04-189.33-154.77-79.4-44.57-157.45-74.6-208.79-80.33l-.68-.08-.66-.2c-5.67-1.71-11.48-2.59-17.28-2.59z"/><path class="p" d="M124.32 821.67c-1.52.28-2.93 1.07-4.2 2.47-6.19 6.79-8.67 20.1-8.23 28.93 1.22 24.22 21.81 43.5 39.6 57.42 41.13 32.19 152.91 80.48 162.75 80.48S181.9 894.39 162.22 861.31c-4.65-7.82-25-42.03-37.9-39.64z"/><path d="M794.92 571.71 404.74 357.06S162.4 792.57 161.04 795c-15.34 27.32 60.26 98.89 168.85 159.85 108.59 60.97 209.06 88.24 224.4 60.92 1.67-2.98 240.63-444.07 240.63-444.07z" style="fill:url(#b)"/><path class="g" d="M472.14 685.98c-2-6-98-35-101-26s-18 75-20 78-49-45-56-40-11 33-22 38-109 50-109 50 26 1 30-1 91-23 91-27 12-41 15-40 37 38 49 43 42-35 42-48 43-28 52-26 29-1 29-1z"/><path class="g" d="M195.14 719.98c25-14 51-17 51-17l14 55s16-6 16-9-11-71-11-71l-70 42zm193-34c-1-11-28-87-29-90s-33 34-37 33-28-37-23-49 19-80 19-80l1 60-12 25s12 24 14 18 29-29 34-32 76 106 76 106l-43 9z"/><path class="g" d="M385.14 384.98c7 44 20 101 13 106s-86 53-86 53v15s54-31 60-32 56-23 54-31-23-48-24-56-17-55-17-55z"/><path class="g" d="M436.14 354.98c2 23-17 111-17 111l-11 20 18 10s25-56 25-66-15-75-15-75zm142 87c-6 54 7 124 0 121s-89-21-89-17 16 45 26 48 54 42 60 40 99 4 106-5 35-79 45-91 8-35 0-29-53 110-53 110-83-2-93-3-31-12-35-21 10-10 28-15 22-29 21-34 5-44 5-56-21-48-21-48z"/><path class="g" d="M482.14 403.98c-5 75 18 115 39 115s67 16 67 16 7-32 2-31-62-4-74-3-22-36-22-56-12-41-12-41zm18 159c-13 4 23 20 43 59s20 89 15 109-136 112-143 117 1-54-11-47-55 77-63 92 10 78 10 78-12-6-14-9-10-66-13-74 32-59 37-67 23-43 34-49 41-14 40-11-5 61-5 61 71-69 92-88 13-91 9-96-48-33-56-42 25-33 25-33z"/><path class="g" d="M462.14 806.98c0 50-11 83-19 101s-27 19-31 36-12 44-12 44 36 14 34 11-19-45-16-51 9-14 17-11 26 15 28 3 2-32 18-26 57 18 53 36 7 51 12 59 22-5 16-15-49-107-53-115-15 2-26 4-7 12-11-3-10-74-10-73zm77-58c-2 96 2 160 10 176s39 10 43 6 27-8 27-8l2-25s-43 32-52 31-14-9-16-29 17-83 20-84 61 51 67 34 25-26 25-26 19-44 13-39-54 52-54 52-45-32-50-39-25.55-6.42-26-10c-1-8 4-67 2-70s-11 31-11 31zm88-119c-2 48 8 92 8 97l15 13s40-10 39-24-2-41 10-40 16 20 16 20-5 45-4 42 35-60 35-63-23 28-24 25 2-31-1-37-36-13-42-6-8 26-10 32 12 29-5 32-23 4-24 1-1-90-1-90l-12-2z"/><path class="s" d="M495.32 536.41c-81.03 71.86-181.93 149.83-178.88 162.06 3.06 12.23 114.67 77.97 114.67 77.97l-126.9 100.9s-3.06 15.29 9.17 15.29 281.31-107.02 281.31-107.02 19.87-10.7 10.7-19.88c-9.17-9.17-103.74-61.79-111.61-64.21-19.87-6.11-1.53-13.76 10.7-18.35 12.23-4.59 151.36-64.21 151.36-64.21L495.31 536.4z"/><path class="g" d="M313.38 896.64c-5.44 0-8.55-2.41-10.21-4.42-4.71-5.75-3.1-14.66-2.9-15.66.19-.93.69-1.76 1.44-2.35l122.34-97.29c-9.33-5.56-30.3-18.17-51.29-31.5-57.92-36.79-59.47-43-60.22-45.99-1.25-4.97 3.06-12.45 28.74-35.92 17.88-16.34 43.22-37.72 70.05-60.36 25.74-21.72 54.91-46.33 81.32-69.75a4.009 4.009 0 0 1 4.5-.57l160.53 82.56a4.01 4.01 0 0 1-.26 7.25c-5.68 2.44-139.35 59.71-151.53 64.28-12.05 4.52-15.59 7.07-16.61 8.26.64.5 2.19 1.43 5.68 2.5 7.75 2.38 103.03 54.98 113.26 65.21 3.53 3.53 3.84 7.2 3.48 9.65-1.31 8.92-13.7 15.83-15.11 16.59-.14.07-.28.14-.42.2-45.05 17.92-270.42 107.3-282.79 107.3zm-5.42-17.16c-.2 2.18-.14 5.76 1.42 7.66.52.63 1.49 1.47 3.94 1.48 10.84-.95 173.03-64.24 279.66-106.65 4.24-2.34 10.28-7.09 10.79-10.59.09-.65.04-1.56-1.21-2.81-8.83-8.84-103.15-61.12-109.95-63.21-4.91-1.51-11.45-4.17-11.62-9.8-.2-6.49 7.95-10.83 22.09-16.13 10.33-3.87 113.8-48.13 143.35-60.79l-150.51-77.41c-25.93 22.94-54.3 46.88-79.41 68.06-25.81 21.78-50.19 42.35-67.8 58.32-23.79 21.57-27.78 28.16-28.29 30.1 3.99 7.88 60.14 44.31 112.71 75.28 1.14.67 1.87 1.86 1.97 3.18a4.02 4.02 0 0 1-1.5 3.42L307.96 879.5z"/><path d="M390.18 386.97c-27 54-226.42 402.31-228.21 405.65-1.79 3.35 15.21 42.35 25.21 51.35s235-438 235-438l-32-19zm352 182c-27 54-239.9 456.65-241.69 460-1.79 3.35 28.69-12 38.69-3s235-438 235-438l-32-19z" style="fill:#ffe400"/><path d="M640.18 518.97c-27 54-267.21 449.65-269 453-1.79 3.35 81 44 138 48 13.42.94 255-451 255-451l-124-50z" style="fill:#88388c;opacity:.41;mix-blend-mode:multiply"/><path d="M411.18 391.97c-51 91-236 439-236 439s48.69 63.99 110 97c13 7 258-452 258-452l-132-84z" style="mix-blend-mode:lighten;opacity:.55;fill:#fff"/><path class="m" d="M526.29 1039.89c-43.92 0-124.25-29.04-204.66-73.98-54.38-30.39-102.59-64.33-135.73-95.57-36.53-34.43-50.1-60.68-40.33-78.01 1.45-2.57 247.36-442.52 249.84-446.96l3.72-6.66 413.43 226.42-3.64 6.69c-10 18.38-245.04 450.28-246.76 453.34-5.51 9.78-17.58 14.74-35.87 14.74zM407.66 367.24c-31.37 56.38-238.8 429.16-240.09 431.45-3.99 7.1 3.2 26.6 36.57 58.19 31.46 29.78 77.42 62.26 129.42 91.45 76.35 42.87 151.82 70.56 192.27 70.56 11.67 0 19.46-2.41 21.91-6.78 2.23-4.02 207.34-382.62 237.02-437.41L407.65 367.24z"/><path d="M767.68 609.12c-23.56 35.99-114.82 9.37-225.36-63.01-110.54-72.38-181.05-160.23-157.48-196.21 23.56-35.99 132.28-6.48 242.81 65.9 110.54 72.38 163.59 157.34 140.03 193.32z" style="opacity:.41;fill:#022544;mix-blend-mode:multiply"/><path class="s" d="M826.18 500.97c-26.18-11.56-52.98-50.6-69-32-34.95-26.4-92.46-2.75-142.96-31.1-50.43-28.31-61.34-69.82-102.04-85.9 1.03-1.72-8.39-46-26-22-18.04 24.6-24.68-38.17-56-52-31.32-13.83-53.68 7.09-66 35-5.12 11.59-4.52 32.85-2 42 11 40 75.31 101.73 201.67 172.67 112.72 63.28 217.48 96.09 247.59 86.74 17.1-3.51 36.08-17.86 41.74-34.4 13-38 4.32-65.17-27-79z"/><path class="q" d="M472.97 444.93c124.48 74.16 223.33 114.19 263.49 103.78 9.18-2.38 66.61-15.24 24.33-55.32-5.8-5.5 8.69-13.26 11.48-20.16 2.13 2.53 2.43 6.7-.47 13.24-12.33 27.91 45.39 2.36 73 22.62s20.62 50.07 2.57 74.66c-7.5 10.22-26.23 20.29-35.41 22.67-40.16 10.41-125.74-14.57-250.22-88.73-104.89-62.49-182.66-132.36-196.79-165.86 30.89 24.49 66.21 68.17 108.03 93.09z"/><path class="f" d="M716.18 486.97c95 116-85 71-91 72s135.52 50.32 156 48c53-6 89-57-3-104-7.18-3.67-62-16-62-16z"/><path class="m" d="M798.51 617.45c-46.7 0-144.71-36.71-238.33-89.27-117.61-66.03-192.41-130.62-205.23-177.22-2.95-10.72-3.47-33.79 2.37-47.02 12.48-28.28 31.54-43.85 53.67-43.85 7.21 0 14.68 1.69 22.22 5.02 16.94 7.48 26.9 25.9 34.91 40.7 3.01 5.57 7.44 13.74 10.05 15.98.43-.38 1.09-1.07 1.96-2.25 4.95-6.75 10.38-10.18 16.13-10.18 4.32 0 10.6 1.99 15.98 11.46 3.15 5.55 5.07 11.99 5.94 15.34.46 1.8.81 3.34 1.05 4.67 19.77 9.02 32.72 23.64 46.38 39.05 13.98 15.77 28.43 32.07 52.27 45.46 24 13.47 49.88 14.43 74.91 15.36 23.4.87 45.61 1.69 63.87 12.87 3.18-2 6.75-3.04 10.56-3.04 11.64 0 23.48 9.56 36.01 19.69 8.63 6.97 17.56 14.19 25.96 17.89 17.51 7.73 29.02 19.47 34.2 34.91 4.97 14.8 3.92 32.76-3.13 53.38-6.17 18.04-26.32 34.86-46.97 39.25-4.07 1.21-8.91 1.8-14.8 1.8zM410.99 275.09c-21.35 0-34.19 21.87-39.95 34.91-4.15 9.4-3.85 28.91-1.63 36.98C381 389.11 455.06 451.96 567.52 515.1c102.15 57.35 193.52 87.35 230.99 87.35 4.47 0 8.07-.42 10.71-1.24l.72-.18c15.46-3.18 31.68-16.4 36.15-29.48 11.92-34.83 4.42-57.64-22.93-69.71-10.22-4.51-19.93-12.36-29.33-19.95-9.49-7.67-20.25-16.36-26.59-16.36-1.23 0-2.6.28-4.37 2.34l-4.59 5.33-5.62-4.24c-15.36-11.6-36.23-12.38-60.41-13.27-25.56-.95-54.53-2.02-81.7-17.27-26.04-14.62-42.04-32.67-56.15-48.59-13.99-15.78-26.07-29.41-44.97-36.88l-8.2-3.24 3.38-5.68c-.87-5.8-5.15-17.92-8.38-19.61-.46.22-1.86 1.07-4 3.99-1.58 2.16-6.39 8.72-14.02 8.72-10.18 0-15.96-10.67-23.27-24.18-6.92-12.79-15.54-28.71-27.78-34.11-5.62-2.48-11.06-3.74-16.16-3.74z"/><path class="s" d="M855.87 531.64c-13.63 24.27-127.55-13.8-254.46-85.04-126.9-71.24-218.73-148.68-205.11-172.95 13.63-24.28 127.55 13.8 254.46 85.04 126.91 71.24 218.73 148.68 205.11 172.95z"/><path class="m" d="M835.68 546.46c-42.89 0-138.51-37.5-237.94-93.32-61.78-34.68-117.33-71.93-156.42-104.9-43.61-36.78-60.48-62.38-51.56-78.27 4.15-7.4 13.15-11.15 26.73-11.15 42.89 0 138.51 37.5 237.94 93.32 61.78 34.68 117.33 71.93 156.42 104.9 43.61 36.78 60.48 62.38 51.56 78.27-4.15 7.4-13.15 11.15-26.73 11.15zM416.5 273.82c-8.62 0-12.7 1.8-13.65 3.49-2 3.56 2.75 21.18 48.15 59.46 38.39 32.37 93.11 69.05 154.09 103.28 97.38 54.67 190.05 91.4 230.6 91.4 8.62 0 12.7-1.8 13.65-3.49 2-3.56-2.76-21.18-48.15-59.46-38.39-32.37-93.11-69.05-154.09-103.28-97.38-54.67-190.05-91.4-230.6-91.4z"/><path d="M835.18 524.97c-9.15 16.3-112.26-15.9-227.76-80.74-115.5-64.84-201.39-134.95-192.24-151.26 9.15-16.3 110.49 20.16 226 85 115.5 64.84 203.15 130.7 194 147z" style="mix-blend-mode:multiply;fill:#edb883"/><path class="p" d="M802.88 517.72c-6.89 12.28-95.91-24.6-198.83-82.38-102.92-57.78-180.76-114.57-173.87-126.85 6.89-12.28 95.91 24.61 198.83 82.38 102.92 57.78 180.76 114.57 173.87 126.85z"/><path class="m" d="M792.2 532.58c-25.42 0-105.94-35.24-195.82-85.7-50.03-28.08-95.79-56.84-128.86-80.96-16.28-11.88-28.68-22.06-36.86-30.25-8.08-8.09-15.7-17.5-11.02-25.84 2.3-4.1 6.75-6.19 13.22-6.19 25.41 0 105.94 35.24 195.82 85.7 50.03 28.08 95.79 56.84 128.86 80.97 16.28 11.88 28.68 22.06 36.86 30.25 8.08 8.1 15.7 17.5 11.02 25.84-2.3 4.11-6.75 6.19-13.22 6.19zM435.63 318.8c4.23 5.47 15.78 17.29 47.2 39.66 31.99 22.78 74.92 49.53 120.89 75.33 92.73 52.06 163.12 81.19 185.71 83.62-4.23-5.47-15.78-17.29-47.2-39.66-31.99-22.78-74.92-49.53-120.88-75.34-92.73-52.06-163.12-81.19-185.71-83.62z"/><path d="M744.93 489.55c-4.05 7.2-34.39-2.15-67.77-20.89-33.38-18.74-57.17-39.78-53.12-46.98 4.04-7.21 34.39 2.15 67.77 20.89 33.39 18.74 57.17 39.78 53.12 46.98z" style="fill:#7c1a00"/><path class="m" d="M738.29 499.48c-13.3 0-38.13-9.3-64.81-24.28-16.6-9.32-31.48-19.52-41.9-28.74-8.62-7.63-19.47-18.88-14.1-28.46 1.6-2.86 5.19-6.26 13.17-6.26 13.3 0 38.13 9.3 64.81 24.28 16.6 9.32 31.48 19.52 41.9 28.74 8.63 7.63 19.47 18.88 14.1 28.45-1.6 2.86-5.19 6.26-13.17 6.26zm-104.96-72.56c5.55 6.91 21.12 20.39 47.49 35.2 24.85 13.95 44.95 21 54.8 22.18-5.55-6.91-21.12-20.39-47.49-35.2-24.85-13.95-44.95-21-54.8-22.18z"/><path class="p" d="M389.46 308.76c-2.13-1.38-4.37-2.02-6.63-1.33-7.7 2.31-7.25 20.71-6.93 27.08.96 19.45 15.83 35.38 30.65 46.18 51.85 37.79 106.96 71.71 165.82 98.74 15.09 6.93 30.59 13.12 46.58 17.66 9.06 2.57 26.52 10.64 34.69 3.84-10.79-12.31-36.34-19.79-50.73-28.56-19.88-12.12-39.12-25.24-58.61-37.97-24.56-16.04-49.32-31.79-73.11-48.96-22.69-16.36-41.43-35.56-62.01-54.35-7.12-6.5-11.58-17.05-19.71-22.33z"/><path class="g" d="M395.18 318.97c-13 9-16 39 8 47s31 3 25-9-33-38-33-38zm72.71 70.52c-5.91-7.2-21.72-10.64-27.75-2.01-6.35 9.1 6.89 21.65 16.04 20.46h.05c.5.17 1 .32 1.49.46 4.44 1.18 9.51-.25 12.01-4.28 3.13-5.05 1.7-10.3-1.84-14.61zm-70.81 84.08c-9.05 11.64-12.39 29.3-15.55 42.28-1.52 6.24-4.91 19.47-.49 25.13 6.54 8.38 19.85-2.12 27.7-5.5 17.85-7.68 38.43-27.2 35.25-48.75-2.37-16.07-15.65-29.02-32.06-23.84-6.24 1.97-11.05 5.8-14.86 10.69z"/><path class="s" d="M676.68 460.74c17.2-25.69 159.46-226.4 159.79-240.62.33-14.23-73.33-212.83-84.25-212.62-5.19.1-37.14-1.11-55.8 12.46-20.62 15-27.74 45.14-25.36 50.18 12.42 26.34 73 145.45 73 145.45L636.43 416.62s1.93 12.57 13.95 26.14 26.3 17.97 26.3 17.97z"/><path class="q" d="M749.27 5.83c-4.08 1.59-7.96 3.59-11.38 6.08-20.62 15-41.3 36.75-38.93 41.79 12.42 26.34 81.16 161.78 81.16 161.78L665.76 420.15s7.72 35.29 26.08 14.57c1.4-1.58 2.83 3.04 4.27 4.38-6.5 9.36-11.31 16.31-13.7 19.88 0 0-14.28-4.41-26.3-17.97-12.02-13.56-13.95-26.14-13.95-26.14l107.63-201.03s-60.58-119.11-73-145.46c-2.37-5.04 4.75-35.18 25.36-50.18 13.85-10.07 35-12 47.12-12.37z"/><path class="m" d="M629.01 417.77c-.25-1.6.03-3.25.8-4.68l105.78-197.58c-10.26-20.2-60.05-118.24-71.33-142.17-.21-.44-.42-.9-.54-1.4-2-6.5 1.31-18.48 4.76-26.76 3.85-9.27 11.06-22.22 23.52-31.28C711.12 0 740.72 0 750.45 0h1.62c6.02-.12 10.12 4.02 21.13 27.52 6.31 13.47 14.44 32.66 23.51 55.5 16.58 41.74 34.51 91.21 42.63 117.63 4.15 13.49 4.67 17.41 4.62 19.64-.09 3.78-.22 9.5-51.57 85.77-27.96 41.53-62 90.44-84.53 122.8-11.94 17.15-21.37 30.7-24.95 36.06-1.84 2.75-12.21 14.62-15.37 13.64-.67-.21-9.51-15.85-22.77-30.81-9.1-10.26-13.04-20.2-14.58-25.2-.84-2.72-1.12-4.45-1.17-4.77zm66.54 2.52c21.92-31.49 55.04-79.08 82.57-119.89 41.88-62.11 49.58-77.13 50.79-80.75-.18-1.17-.91-4.82-3.91-14.58-7.62-24.75-24.02-70.22-39.9-110.58-23.56-59.89-32.72-75.55-35.52-79.47-22.42.08-38.82 3.79-48.76 11.02-17.03 12.38-23.08 36.37-22.72 41.49 12.82 27.06 72.03 143.5 72.63 144.68a7.528 7.528 0 0 1-.07 6.94L644.37 417.67c1.09 3.71 1.42 14.49 8.95 22.98 6.29 7.09 13 13.4 17.6 15.68 4.64-6.76 15.13-22.39 24.62-36.03z"/><path class="p" d="M763.36 58.99c30.55 73.78 65.06 180.85 46.98 162.88-18.09-17.97-93.6-170.73-88.77-181.41 14.01-30.99 41.8 18.53 41.8 18.53z"/><path d="M755.29 38.51c10.12 11.66 15.22 40.08 16.48 51.79 1.27 11.78-.48 30.84-12.13 14.94-9.51-12.98-40.98-62.32-17.67-71.1 5.16-1.94 9.58.07 13.31 4.37z" style="fill:#fcffff"/><path class="s" d="M671.13 453.44c51.01-45 336.03-258.03 336.03-258.03s39 21 54 42 12 48 12 48L716.12 486.43l-45-33z"/><path class="q" d="M1067.17 235.42c-3-4.2-6.96-8.4-11.38-12.43 2.48 12.5-.65 47-.65 47L700.13 446.45l-9.14-6.7c-5.64 4.63-10.32 8.57-13.86 11.7l45 33 357.04-201.02s3-27-12-48z"/><path class="m" d="M716.13 493.94c-1.56 0-3.12-.49-4.44-1.45l-45-33a7.521 7.521 0 0 1-3.06-5.71c-.1-2.27.83-4.46 2.53-5.96 50.65-44.69 324.86-249.7 336.51-258.41a7.51 7.51 0 0 1 8.05-.6c1.66.89 40.72 22.08 56.55 44.25 16.48 23.07 13.49 51.97 13.35 53.19a7.525 7.525 0 0 1-3.77 5.71L719.81 492.98c-1.15.65-2.42.96-3.68.96zm-32.95-40.96 33.48 24.55 349.22-196.62c.13-7.51-.79-25.08-10.83-39.13-11.06-15.48-37.18-31.54-47.33-37.43-33.01 24.7-263.72 197.57-324.55 248.63z"/><path class="p" d="M1005.14 228.98c-50 29-242 158-212 155s252-122 248-137-36-18-36-18z"/><path class="g" d="M996.14 220.98c-26 19-58 71-30 52s63-33 65-43-35-9-35-9z"/><path class="m" d="M717.43 477.95c-11.96-4.5-23.48-10.25-34.61-16.5-17.78-9.98-30.64-19.36-38.84-26.53-12.91-8.56-15.38-14.01-18.77-22.53-3.02 1.25-4.74 3.2-5.72 4.95-5.38 9.58 5.47 20.83 14.1 28.46 10.42 9.22 25.3 19.42 41.9 28.74 26.68 14.98 51.51 24.28 64.81 24.28 5.85 0 23.24-10.49 12.09-16.67-3.55-1.97-12.07 1.87-16.6 1.39-5.46-.58-10.73-2.82-15.85-4.66-.84-.3-1.67-.61-2.51-.92zm361.51-189.63c-11.52 9.4-38.91-5.08-61.18-32.36-22.26-27.27-30.98-57.01-19.46-66.41 11.52-9.4 38.91 5.09 61.17 32.36 22.27 27.28 30.98 57.01 19.46 66.41z"/><path class="q" d="M1066.48 270.83c-6.21 5.07-24.03-6.47-39.79-25.78-15.76-19.31-23.5-39.07-17.29-44.15 6.21-5.07 24.03 6.47 39.79 25.78 15.76 19.31 23.51 39.07 17.29 44.15z"/><path class="g" d="M137.03 817.36c-4.6-2.91-8.92-3-12.54-1.3-8.28-4.9-12.24 6.21-12.73 13.49-.31 4.59.87 9.45 2.99 13.96 1.26 5.75 4.18 11.09 8.83 14.83 3 2.41 6.13 3.14 9.2 2.23 6.99 1.47 13.64-2.46 16.2-10.06 3.54-10.49-2.71-27.3-11.96-33.15zm28.3 61.36c-.61-2.3-2.06-4.55-3.8-6.15-2.22-2.04-4.79-3.05-7.78-3.26-3.19-.22-5.6 1.65-7.42 4.01-1.4 1.81-1.3 4.72-.78 6.8.53 2.11 1.77 3.68 3.07 5.35 2.69 3.46 7.42 5.62 11.75 4.7 2.37-.5 4.32-2.67 4.94-4.94.18-.66.25-1.38.22-2.11.24-1.41.2-2.86-.2-4.39z"/></g></g></svg>