<svg height="512" viewBox="0 0 60 60" width="512" xmlns="http://www.w3.org/2000/svg"><path d="M38.732 56.5a.5.5 0 0 1-.288-.908l5.146-3.632-5.31 3.065a.5.5 0 0 1-.535-.843l2.4-1.663-1.865 1.075a.5.5 0 0 1-.549-.834l2.718-2.026-2.169 1.252a.5.5 0 0 1-.573-.814l2.272-1.924-1.7.981a.5.5 0 0 1-.581-.807l.549-.486a.5.5 0 0 1-.708-.55l.325-1.6a.5.5 0 0 1-.085-.905l.5-.288a.5.5 0 0 1 .741.533l-.278 1.374 3.291-1.9a.5.5 0 0 1 .581.806l-.542.481L44.3 45.6a.5.5 0 0 1 .573.814L42.6 48.335l4.747-2.735a.5.5 0 0 1 .549.834l-2.718 2.025 4.953-2.859a.5.5 0 0 1 .535.843l-2.4 1.664 4.343-2.507a.5.5 0 0 1 .538.84L48 50.068l7.485-4.321a.5.5 0 0 1 .538.842l-4.816 3.388 5.378-3.1a.5.5 0 0 1 .535.843l-2.757 1.919 2.356-1.36a.5.5 0 0 1 .57.817l-4.266 3.56 3.7-2.137a.5.5 0 0 1 .557.827l-.736.573.184-.106a.5.5 0 0 1 .615.774l-1.191 1.27.582-.336a.5.5 0 0 1 .736.55l-.27 1.151a.494.494 0 0 1 .236.21.5.5 0 0 1-.183.682l-.5.289a.5.5 0 0 1-.735-.55l.215-.887-2.5 1.442a.5.5 0 0 1-.614-.774l1.191-1.27-3.549 2.049a.5.5 0 0 1-.557-.827l.737-.574-2.432 1.4a.5.5 0 0 1-.57-.816l4.261-3.555-7.591 4.382a.5.5 0 0 1-.535-.843l2.761-1.922-4.8 2.769a.5.5 0 0 1-.538-.842l4.816-3.385-7.331 4.233a.491.491 0 0 1-.25.067z" fill="#f25151"/><path d="M3.886 56.5a.5.5 0 0 1-.277-.917l4.451-2.946L3.28 55.4a.5.5 0 0 1-.52-.854l1.14-.733-.62.357a.5.5 0 0 1-.538-.842l6.1-4.291-5.562 3.208a.5.5 0 0 1-.549-.834l4.943-3.681-4.394 2.537a.5.5 0 0 1-.571-.816L6.464 46.3 3.28 48.132a.5.5 0 0 1-.563-.822l.766-.618-.2.118a.5.5 0 0 1-.682-.684l1-1.724-.034.019a.5.5 0 0 1-.5-.865l1.655-.956a.494.494 0 0 1 .6.079.5.5 0 0 1 .079.6l-1 1.724 4.189-2.412a.5.5 0 0 1 .563.822l-.763.614 2.5-1.44a.5.5 0 0 1 .571.815L7.7 46.558l6.89-3.978a.5.5 0 0 1 .549.834L10.2 47.1l7.835-4.524a.5.5 0 0 1 .538.842l-6.1 4.292 8.9-5.14a.5.5 0 0 1 .521.854l-1.147.737.979-.564a.5.5 0 0 1 .526.849L17.82 47.38l3.909-2.257a.5.5 0 0 1 .54.84L16.2 50.272l5.529-3.191a.5.5 0 0 1 .552.832L17.532 51.5l4.2-2.426a.5.5 0 0 1 .556.828l-2.473 1.908 1.924-1.11a.5.5 0 0 1 .571.817l-1.35 1.126.782-.452a.5.5 0 0 1 .587.8l-.4.364a.5.5 0 0 1 .536.665l-.365 1.024a.5.5 0 0 1 .147.922l-.76.438a.5.5 0 0 1-.72-.6l.3-.838-2.5 1.442a.5.5 0 0 1-.587-.8l.269-.246-1.821 1.052a.5.5 0 0 1-.571-.816l1.35-1.126-3.372 1.946a.5.5 0 0 1-.556-.828l2.473-1.907-4.747 2.74a.5.5 0 0 1-.552-.832L15.2 52l-7.656 4.426a.5.5 0 0 1-.54-.84l6.06-4.31-8.928 5.156a.494.494 0 0 1-.25.068z" fill="#f4a314"/><path d="M24.738 56.494a.5.5 0 0 1-.295-.9l6.792-4.972-9.955 5.744a.5.5 0 0 1-.522-.851l2.365-1.541-1.843 1.063a.5.5 0 0 1-.52-.853l.463-.3a.5.5 0 0 1-.475-.874l7.028-4.81-6.5 3.75a.5.5 0 0 1-.522-.851l1.191-.775-.669.386a.5.5 0 0 1-.541-.839l5.984-4.281-5.439 3.142a.5.5 0 0 1-.531-.845l1.07-.73-.539.311a.5.5 0 0 1-.537-.842l.686-.48-.149.084a.5.5 0 0 1-.548-.834l.759-.563-.211.122a.5.5 0 0 1-.6-.787l1.8-1.789-1.2.689a.5.5 0 0 1-.65-.731l.634-.852a.5.5 0 0 1-.2-.929l1.657-.956a.5.5 0 0 1 .65.731l-.491.659 2.414-1.39a.5.5 0 0 1 .6.787l-1.8 1.788 4.46-2.575a.5.5 0 0 1 .547.834l-.754.566 2.424-1.4a.5.5 0 0 1 .537.841l-.683.479 2.288-1.32a.5.5 0 0 1 .531.845l-1.07.73L35.1 39.6a.494.494 0 0 1 .669.162.5.5 0 0 1-.128.677l-5.982 4.28 8.231-4.752a.5.5 0 0 1 .522.851l-1.2.782 1.351-.781a.5.5 0 0 1 .533.846l-7.031 4.812 6.655-3.841a.5.5 0 0 1 .52.853l-.458.294a.5.5 0 0 1 .462.882L36.885 46.2l1.843-1.063a.5.5 0 0 1 .544.836l-6.79 4.97 6.25-3.608a.5.5 0 0 1 .533.846l-1.044.712.514-.3a.5.5 0 0 1 .554.829L36.3 51.72l2.441-1.409a.5.5 0 0 1 .561.824L38 52.17l.745-.43a.5.5 0 0 1 .61.78l-1.2 1.247.6-.344a.5.5 0 0 1 .7.645l-.389.83a.5.5 0 0 1 .191.93l-1 .576a.5.5 0 0 1-.7-.645l.316-.673-2.293 1.323a.5.5 0 0 1-.609-.779l1.2-1.248-3.52 2.032a.5.5 0 0 1-.561-.824l1.3-1.036-3.23 1.864a.5.5 0 0 1-.554-.829L32.6 53.3l-5.415 3.126a.5.5 0 0 1-.533-.846l1.04-.709-2.7 1.559a.491.491 0 0 1-.254.064z" fill="#f7c012"/><g fill="#543cbc"><path d="M31.014 11.36a.5.5 0 0 1-.335-.871l.222-.2-1.724.995a.5.5 0 0 1-.576-.811l1.985-1.709-3.1 1.792a.5.5 0 0 1-.564-.822l2.425-1.962-3 1.731a.5.5 0 0 1-.563-.823l2.59-2.07-2.765 1.59a.5.5 0 0 1-.548-.833l.816-.609-.552.318a.5.5 0 0 1-.552-.831l.5-.379a.5.5 0 0 1-.577-.792l1.752-1.911a.5.5 0 0 1-.393-.911L28.736.707a.5.5 0 0 1 .618.771l-1.721 1.877L31.7 1a.5.5 0 0 1 .552.831l-.482.365 1-.575a.5.5 0 0 1 .548.833l-.825.615 1.111-.64a.5.5 0 0 1 .563.823l-2.585 2.071 2.776-1.6a.5.5 0 0 1 .565.821L32.5 6.5l2.2-1.272a.5.5 0 0 1 .576.812l-1.984 1.713 1.191-.688a.5.5 0 0 1 .585.8l-1.12 1.013a.474.474 0 0 1 .18.181.5.5 0 0 1-.183.682l-2.681 1.548a.489.489 0 0 1-.25.071zm2.415 29.101a.5.5 0 0 1-.391-.812l.184-.231-.79.456a.5.5 0 0 1-.642-.743l1.421-1.792-1.348.777a.5.5 0 0 1-.595-.794l.6-.571-.094.054a.5.5 0 0 1-.584-.8l.3-.275a.493.493 0 0 1-.453-.2.5.5 0 0 1 .066-.665l.376-.34a.506.506 0 0 1-.515-.178.5.5 0 0 1 .036-.661l1.343-1.392-.851.49a.5.5 0 0 1-.592-.8l.748-.7-.25.144a.5.5 0 0 1-.607-.783l1.444-1.479-.957.552a.5.5 0 0 1-.613-.777l1.714-1.811-1.231.711a.5.5 0 0 1-.605-.785l1.522-1.529-1.6.923a.5.5 0 1 1-.5-.865l4.862-2.807a.5.5 0 0 1 .6.785l-1.517 1.529.939-.542a.5.5 0 0 1 .613.776l-1.716 1.813 1.127-.65a.5.5 0 0 1 .607.782l-1.441 1.477.857-.494a.5.5 0 0 1 .591.8l-.753.707.179-.1a.5.5 0 0 1 .609.78l-1.339 1.389.752-.433a.5.5 0 0 1 .586.8l-.411.373a.508.508 0 0 1 .494.2.5.5 0 0 1-.069.665l-.344.31a.469.469 0 0 1 .424.2.5.5 0 0 1-.054.662l-.6.574.022-.013a.5.5 0 0 1 .642.743L34.2 37.7l.8-.464a.5.5 0 0 1 .64.745l-.493.62a.5.5 0 0 1 .076.9l-1.552.9a.508.508 0 0 1-.242.06zM35.6 15.217a.5.5 0 0 1-.25-.933l6.064-3.5a.5.5 0 1 1 .5.865l-6.064 3.5a.5.5 0 0 1-.25.068zm2.685-4.7a.5.5 0 0 1-.319-.885l1.472-1.221a.506.506 0 0 1-.248-.17.5.5 0 0 1 .033-.654l1.265-1.32a.509.509 0 0 1-.079-.1.5.5 0 0 1 .183-.683l1.517-.884a.5.5 0 0 1 .612.779l-.347.361.96-.554a.5.5 0 0 1 .569.818l-.746.618.56-.322a.5.5 0 0 1 .5.865l-5.682 3.28a.493.493 0 0 1-.25.072z"/><path d="M26.545 40.469a.5.5 0 0 1-.428-.759l.906-1.5-1.877 1.083a.5.5 0 0 1-.591-.8l.5-.472-.055.036a.5.5 0 0 1-.595-.8l.852-.81-.24.139a.5.5 0 0 1-.609-.781l1.516-1.562-.888.513a.5.5 0 0 1-.619-.771l1.966-2.147-1.323.763a.5.5 0 0 1-.609-.78l1.8-1.864-1.17.675a.5.5 0 0 1-.541-.839l2-1.434-1.44.841a.5.5 0 0 1-.54-.84l1.676-1.2-1.121.648a.5.5 0 0 1-.543-.838l2.335-1.692-1.776 1.026a.5.5 0 0 1-.553-.831l3.815-2.9-3.242 1.871a.5.5 0 0 1-.548-.834l3.228-2.405-2.661 1.54a.5.5 0 0 1-.532-.846l6.3-4.31-5.748 3.317a.5.5 0 0 1-.522-.852L26.6 18.8l-1.393.8a.5.5 0 0 1-.548-.834l4.006-2.966-3.44 1.985a.5.5 0 0 1-.554-.829l2.15-1.647-1.579.911a.5.5 0 0 1-.589-.8l1.847-1.7-2.364 1.364a.5.5 0 0 1-.605-.785l.949-.957-2.4 1.388a.5.5 0 0 1-.65-.733l.979-1.306-2.009 1.151a.494.494 0 0 1-.594-.071.5.5 0 0 1-.1-.59l.892-1.734-1.591.919a.5.5 0 0 1-.622-.766l.362-.4-.31.179a.5.5 0 0 1-.682-.686l1.035-1.766-1.311.757a.5.5 0 0 1-.654-.728l.764-1.046-.839.485a.5.5 0 0 1-.71-.629l.66-1.549-.212.122a.5.5 0 0 1-.5-.865L17.5 4.6a.5.5 0 0 1 .71.628l-.659 1.543 1.593-.919a.5.5 0 0 1 .653.728l-.764 1.046.895-.517a.5.5 0 0 1 .6.08.5.5 0 0 1 .077.606L19.57 9.564l1.385-.8a.5.5 0 0 1 .622.766l-.358.4.35-.2a.5.5 0 0 1 .7.662l-.893 1.734 2.65-1.528a.5.5 0 0 1 .65.732l-.98 1.307 3.528-2.037a.5.5 0 0 1 .6.785l-.95.957L29.9 10.6a.5.5 0 0 1 .589.8l-1.845 1.7 4.334-2.5a.5.5 0 0 1 .553.829l-2.151 1.648 4.289-2.477a.5.5 0 0 1 .548.834l-4 2.975 10.608-6.13a.5.5 0 0 1 .523.853l-1.93 1.251.325-.188a.5.5 0 0 1 .532.846L35.031 16a.5.5 0 0 1 .259.9l-3.231 2.409 2.7-1.562a.5.5 0 0 1 .552.831l-3.814 2.9 3.285-1.9a.5.5 0 0 1 .543.838l-2.336 1.692 1.812-1.045a.5.5 0 0 1 .54.839l-1.671 1.191 1.147-.662a.5.5 0 0 1 .541.839l-5.86 4.2a.5.5 0 0 1-.057.625l-1.8 1.864 1.049-.606a.5.5 0 0 1 .619.771l-1.965 2.146 1.191-.687a.5.5 0 0 1 .608.781l-1.516 1.562.777-.449a.5.5 0 0 1 .595.8l-.854.811L28.3 35a.5.5 0 0 1 .592.8l-.561.527a.5.5 0 0 1 .551.743l-.919 1.521a.5.5 0 0 1 .4.908L26.8 40.4a.49.49 0 0 1-.255.069z"/></g><path d="M35.128 59.47a.5.5 0 0 1-.324-.88l.475-.407-2.113 1.217a.5.5 0 0 1-.6-.786l1.255-1.256L30.28 59.4a.5.5 0 0 1-.605-.784l1.281-1.3-3.6 2.079a.5.5 0 0 1-.605-.785l1.266-1.27-3.565 2.06a.5.5 0 0 1-.632-.755l1.48-1.752-4.348 2.507a.5.5 0 0 1-.6-.789l1.21-1.19-3.43 1.979a.5.5 0 0 1-.627-.761l1.463-1.677-4.226 2.438a.5.5 0 0 1-.619-.769l1.418-1.552L11.52 59.4a.5.5 0 0 1-.592-.8l1.041-.977L8.9 59.4a.5.5 0 0 1-.574-.813l.427-.363L6.709 59.4a.5.5 0 0 1-.623-.765l1.441-1.612L3.41 59.4a.5.5 0 0 1-.612-.777l1.362-1.432-2.8 1.617A.5.5 0 0 1 .777 58l.3-.268a.511.511 0 0 1-.4-.14A.5.5 0 0 1 .592 57l.439-.8a.493.493 0 0 1-.381-.25.5.5 0 0 1 .183-.682l1.161-.67a.5.5 0 0 1 .689.673l-.351.636L4.6 54.6a.5.5 0 0 1 .583.8l-.133.118 1.6-.923a.5.5 0 0 1 .613.777L5.9 56.809 9.734 54.6a.5.5 0 0 1 .623.765l-1.442 1.61 4.119-2.375a.5.5 0 0 1 .573.813l-.425.362 2.037-1.175a.5.5 0 0 1 .592.8l-1.041.977 3.074-1.777a.5.5 0 0 1 .619.769l-1.419 1.551 4.023-2.32a.5.5 0 0 1 .627.761l-1.463 1.677 4.225-2.438a.5.5 0 0 1 .6.789l-1.21 1.19 3.43-1.979a.5.5 0 0 1 .632.755l-1.48 1.754 4.348-2.509a.5.5 0 0 1 .605.785l-1.266 1.271 3.564-2.056a.5.5 0 0 1 .6.784L33 56.676l3.6-2.076a.5.5 0 0 1 .6.786l-1.248 1.254 3.539-2.04a.5.5 0 0 1 .574.812l-.475.407L41.7 54.6a.5.5 0 0 1 .593.8l-1.064 1 3.119-1.8a.5.5 0 0 1 .642.742l-1.494 1.9 4.575-2.642a.5.5 0 0 1 .619.769l-1.422 1.562 4.04-2.331a.5.5 0 0 1 .579.808l-.662.58 2.406-1.388a.5.5 0 0 1 .581.807l-.732.647L56 54.6a.5.5 0 0 1 .636.751l-1.489 1.8 3.475-2.005a.5.5 0 0 1 .643.742L58.2 57.239l.52-.3a.5.5 0 0 1 .5.866l-2.768 1.6a.5.5 0 0 1-.642-.742l1.064-1.353-3.631 2.09a.5.5 0 0 1-.636-.751l1.49-1.8-4.422 2.551a.5.5 0 0 1-.581-.807l.731-.647-2.519 1.454a.5.5 0 0 1-.579-.808l.662-.58-2.407 1.388a.5.5 0 0 1-.619-.769l1.422-1.562-4.038 2.331a.5.5 0 0 1-.643-.742l1.495-1.9-4.573 2.642a.5.5 0 0 1-.592-.8l1.064-1-3.12 1.8a.493.493 0 0 1-.25.07z" fill="#524e6d"/><path d="M2.73 59.356h50.685c1.6 0 6.182.727 6.309-1.7.239-1.565-.112-3.3-2-3.014-.111-2.491.223-5.067-.116-7.513-3.258-3.52-12.983-.662-17.876-1.517.371-3.621.033-6.827-4.476-6.122 1.983-7.586-.066-16.529.473-24.552 4.765.042 8.088-4.569 8.959-8.794-1.642-3.489-5.33.065-6.156 2.412-.867 2.89-3.269 2.117-5.644 2.17 4.02-2.11 3.6-8.529-.8-9.94-6.053-2.394-11.021 6.549-5.167 9.94-2.727.4-4.787-.454-5.827-3.128-1-1.606-1.7-3.348-3.961-2.709-1.1.311-2.14 1.22-1.779 2.473 1.674 3.756 4.237 8.158 8.925 7.634.339 8.04-.974 16.568.123 24.488-1.98-.284-4.3.711-4.144 3C5.435 43.859.972 36.721 2.267 54.66c-3.049-.094-2.792 5.64.463 4.696zm46.108-12.969c8.663-.591 7.518.458 7.438 8.257H39.732v-8.257zm-19.019-19.97c1.247 4.049.034 9.063 1.525 13.075h-3.083c2.073-3.692 1.1-8.932 1.558-13.075zM26.334 3.641c2.1-3.88 8.065-1.785 7.931 2.411-.365 7.616-11.298 4.033-7.931-2.411zm-7 7.925c-3.18-3.63-3.578-10.466.822-2.746 1.932 3.965 7.744 2.331 11.385 2.466 11.171 1.228 6.855-5.656 11.2-5.627 1.528 2.183-1.965 5.778-3.242 7.628-1.432 1.5-3.776.645-5.228 1.7-.745 3.645 2.142 25.132-1.132 24.509-1.986-3.728-.824-8.723-1.6-12.9-5.363-4.549-2.437 10.79-4.317 12.9-3.912.536-.672-20.989-1.506-24.9-2.472-.418-4.916-.569-6.379-3.03zm2.395 30.486c.487-3.3 10.183-.817 13.109-1.545 1.136 0 2.8-.342 3.318 1.013.4 4.309-.049 8.769.109 13.124H21.732c.019-4.197-.032-8.396 0-12.592zm-17.689 1.9c5.047-1.182 10.909-.063 16.217-.436.021 3.709 0 7.417.008 11.126-5.512-.009-11.023.019-16.535-.013.248-3.504-.5-7.302.313-10.675zm-2.13 11.4c.118-.046 36.841.011 54.545.006 2.34-.512 1.825 1.819 1.825 3.282H4.81c-1.708.194-3.593.3-3.088-2.086.002-.486-.205-1.045.191-1.198z" fill="#262626"/></svg>