<svg height="512" viewBox="0 0 60 60" width="512" xmlns="http://www.w3.org/2000/svg"><path d="M50.1 43.508a.5.5 0 0 1-.25-.933L56 39.026a.5.5 0 0 1 .682.685l-.574.981.429-.247a.5.5 0 0 1 .5.866L54.973 42.5a.5.5 0 0 1-.682-.685l.573-.98-4.514 2.6a.5.5 0 0 1-.25.073z" fill="#dda345"/><path d="M40.66 57.223a.5.5 0 0 1-.421-.77l.427-.666-1.29.744a.5.5 0 0 1-.588-.8l.09-.083-.577.333a.5.5 0 0 1-.569-.818l.17-.141-.612.354a.5.5 0 0 1-.572-.815l1.645-1.386-2.3 1.329a.5.5 0 0 1-.55-.833l3.987-2.987-4.827 2.787a.5.5 0 0 1-.526-.85l7.76-5.131-10.359 5.982a.5.5 0 0 1-.528-.848l11.2-7.5-14.461 8.35a.5.5 0 0 1-.527-.849l13.12-8.725-21.671 12.516a.5.5 0 0 1-.519-.854L33.7 45.651 18.03 54.7a.5.5 0 0 1-.516-.855l12.829-8.068-12.736 7.35a.5.5 0 0 1-.518-.855l15.928-10.126L17.3 51.219a.5.5 0 0 1-.52-.854l17.364-11.1-17.525 10.118a.5.5 0 0 1-.514-.858l9.806-6.083-10.291 5.942a.5.5 0 0 1-.511-.86l3.209-1.958-3.5 2.02a.5.5 0 0 1-.514-.857l17.181-10.741-17.918 10.345a.5.5 0 0 1-.512-.858L28.23 36.1l-15.788 9.109a.5.5 0 0 1-.509-.859l6.755-4.114-7.113 4.107a.5.5 0 0 1-.51-.861l4.692-2.849-5 2.888a.5.5 0 0 1-.511-.859l7.407-4.522-8.912 5.142a.5.5 0 0 1-.514-.857l15.985-9.951-17.83 10.294a.5.5 0 0 1-.512-.859l10.546-6.469L4.72 42.193a.5.5 0 0 1-.512-.858l11.14-6.835-11.891 6.868a.5.5 0 0 1-.511-.859l9.538-5.83L4.2 39.464a.5.5 0 0 1-.512-.859l12.9-7.961-10.934 6.309a.5.5 0 0 1-.517-.855l18.1-11.452L7.212 33.9a.5.5 0 0 1-.519-.854l16.634-10.59-16.116 9.305A.5.5 0 0 1 6.7 30.9l11.4-7.115-10.89 6.286a.5.5 0 0 1-.513-.858l5.861-3.613-5.348 3.09a.5.5 0 0 1-.513-.858l5.951-3.668L7.209 27.3a.5.5 0 0 1-.515-.857l10.933-6.833L7.1 25.69a.5.5 0 0 1-.514-.857l8.587-5.339-8.952 5.166a.5.5 0 0 1-.521-.853l9.169-5.891-9.534 5.5a.5.5 0 0 1-.519-.855l5.769-3.673-5.917 3.42a.5.5 0 0 1-.595-.794l2.065-1.97-2.2 1.272a.5.5 0 0 1-.669-.7l.457-.7-.255.147a.5.5 0 0 1-.5-.866L5.027 17.5a.5.5 0 0 1 .669.7l-.457.7 4.017-2.318a.5.5 0 0 1 .6.794l-2.065 1.97L30 6.527a.5.5 0 0 1 .519.855l-5.773 3.676L32.6 6.526a.5.5 0 0 1 .52.854l-9.169 5.891L41.2 3.313a.5.5 0 0 1 .514.858l-8.586 5.335 8.585-4.956a.5.5 0 0 1 .515.856l-10.941 6.842 10.88-6.281a.5.5 0 0 1 .513.858l-5.946 3.665 5.721-3.3a.5.5 0 0 1 .513.858L37.1 11.661l5.563-3.212a.5.5 0 0 1 .515.857l-11.388 7.11 11.025-6.365a.5.5 0 0 1 .519.854L26.7 21.494l17.472-10.087a.5.5 0 0 1 .517.856l-18.11 11.455 18.959-10.946a.5.5 0 0 1 .513.859l-12.887 7.954L46.6 13.83a.5.5 0 0 1 .51.859l-9.545 5.835 9.972-5.757a.5.5 0 0 1 .512.858l-11.12 6.819 11.594-6.693a.5.5 0 0 1 .511.858L38.458 23.1l11.311-6.531a.5.5 0 0 1 .514.858L34.3 27.372l18.1-10.449a.5.5 0 0 1 .511.859L45.5 22.306l8.556-4.94a.5.5 0 0 1 .509.861l-4.68 2.842 5.544-3.2a.5.5 0 0 1 .509.86l-6.79 4.133 7.393-4.262a.5.5 0 0 1 .513.858l-15.161 9.367L55.628 20.9a.5.5 0 0 1 .515.856L38.969 32.489l14.611-8.435a.5.5 0 0 1 .511.859l-3.235 1.974 1.932-1.116a.5.5 0 0 1 .514.858L43.514 32.7l9.275-5.355a.5.5 0 0 1 .52.853L35.937 39.306l16.853-9.73a.5.5 0 0 1 .519.855L37.388 40.553l15.4-8.893a.5.5 0 0 1 .517.856L40.482 40.58l12.309-7.106a.5.5 0 0 1 .519.854L37.771 44.24l15.82-9.134a.5.5 0 0 1 .526.849L41 44.674l13.763-7.945a.5.5 0 0 1 .528.847l-11.206 7.5 11.608-6.7a.5.5 0 0 1 .526.85l-9.572 6.328a.489.489 0 0 1 .309.213.5.5 0 0 1-.117.675l-4.02 3.007a.5.5 0 0 1 .512.846l-1.645 1.386.9-.52a.5.5 0 0 1 .568.818l-.548.453a.5.5 0 0 1 .311.867l-.593.544a.5.5 0 0 1 .232.136.5.5 0 0 1 .059.616l-.841 1.312a.476.476 0 0 1 .092.116.5.5 0 0 1-.182.683l-.774.447a.49.49 0 0 1-.25.07z" fill="#dda345"/><path d="M11.146 16.772a.5.5 0 0 1-.288-.908l4.793-3.382-.082.047a.5.5 0 0 1-.569-.815l3.675-3.082-1.339.768a.5.5 0 0 1-.566-.819l.637-.522a.506.506 0 0 1-.483-.176.5.5 0 0 1 .013-.648l1.3-1.458-.089.052a.5.5 0 0 1-.664-.715l.716-1.048a.484.484 0 0 1-.065-.089.5.5 0 0 1 .182-.683l.777-.448a.5.5 0 0 1 .663.715l-.211.308.867-.5a.5.5 0 0 1 .624.765l-1.3 1.458 2.345-1.354a.5.5 0 0 1 .566.82l-.508.417.987-.57a.5.5 0 0 1 .571.816L20.027 8.8l4.658-2.689a.5.5 0 0 1 .538.841l-4.8 3.384 6.6-3.809a.5.5 0 1 1 .5.866L11.4 16.7a.491.491 0 0 1-.254.072z" fill="#dda345"/><path d="M40.838 26.3a.5.5 0 0 1-.306-.9l.792-.611-1.065.614a.5.5 0 0 1-.55-.833l2.167-1.62-2.584 1.491a.5.5 0 0 1-.541-.838l2.386-1.709-2.788 1.606a.5.5 0 0 1-.534-.845l1.519-1.042-1.823 1.052a.5.5 0 0 1-.53-.848l1.079-.717-1.348.778a.5.5 0 0 1-.545-.837l6.633-4.847-7.464 4.306a.5.5 0 0 1-.535-.844l5.438-3.775-5.854 3.38a.5.5 0 0 1-.545-.836l5.238-3.825-2.938 1.7a.5.5 0 0 1-.547-.835l2.55-1.886a.5.5 0 0 1 .064-.821l4.8-2.771a.5.5 0 0 1 .547.835l-.259.192 3.313-1.913a.5.5 0 0 1 .545.836l-5.243 3.828 8.226-4.749a.5.5 0 0 1 .535.843l-5.44 3.777 5.151-2.974a.5.5 0 0 1 .545.837l-6.636 4.845 5.9-3.406a.5.5 0 0 1 .53.847l-1.069.719.271-.156a.5.5 0 0 1 .533.844l-1.513 1.038.535-.307a.5.5 0 0 1 .541.839l-2.393 1.714 1.048-.605a.5.5 0 0 1 .55.833l-2.17 1.622.224-.129a.5.5 0 0 1 .556.828L45.279 23a.487.487 0 0 1 .138.154.5.5 0 0 1-.183.683l-4.146 2.394a.5.5 0 0 1-.25.069zm-22.07.028a.5.5 0 0 1-.334-.872l.09-.082-.51.3a.5.5 0 0 1-.549-.834l.725-.539-1.267.731a.5.5 0 0 1-.541-.839l.475-.339-.936.54a.5.5 0 0 1-.57-.817l4.423-3.7L14.367 23a.5.5 0 0 1-.555-.829l3.495-2.687-4.021 2.316a.5.5 0 0 1-.541-.839l1.527-1.1-1.7.984a.5.5 0 0 1-.547-.834l2.487-1.846-2.669 1.54a.5.5 0 0 1-.56-.825l3.418-2.7-3.6 2.077a.5.5 0 0 1-.574-.815l3.542-3-3.624 2.092a.5.5 0 0 1-.579-.809l2.656-2.316L10 14.866a.5.5 0 0 1-.564-.821l.584-.473-.22.128a.5.5 0 0 1-.594-.8l.815-.768-.364.209a.5.5 0 0 1-.724-.589l.459-1.4a.5.5 0 0 1-.241-.933l.84-.485a.507.507 0 0 1 .566.046.5.5 0 0 1 .159.544l-.425 1.293 2.925-1.687a.5.5 0 0 1 .594.8l-.813.767 2.043-1.18a.5.5 0 0 1 .565.822l-.589.476 1.466-.845a.5.5 0 0 1 .579.809L14.4 13.1l3.979-2.3a.5.5 0 0 1 .573.814l-3.541 3 4.745-2.739a.5.5 0 0 1 .56.825l-3.423 2.705 4.246-2.451a.5.5 0 0 1 .548.834L19.6 15.635l2.949-1.7a.5.5 0 0 1 .541.838l-1.524 1.093 1.8-1.038a.5.5 0 0 1 .555.829l-3.494 2.687 3.849-2.223a.5.5 0 0 1 .571.817l-4.425 3.7 4.878-2.816a.5.5 0 0 1 .541.84l-.575.41a.5.5 0 0 1 .447.879l-2.961 2.2a.519.519 0 0 1 .091.1.5.5 0 0 1-.071.665l-2.581 2.314a.5.5 0 0 1-.246.5l-.923.533a.491.491 0 0 1-.254.065zM13.019 50.99a.5.5 0 0 1-.3-.9l6.34-4.79-9.391 5.421a.5.5 0 0 1-.543-.838l7.182-5.206-6.655 3.842a.5.5 0 0 1-.529-.848l2.106-1.418-1.422.821a.5.5 0 0 1-.542-.839l4.668-3.353-3.693 2.132a.5.5 0 0 1-.544-.837l3.616-2.628-2.336 1.351a.5.5 0 0 1-.549-.833l2.755-2.055-.987.568a.5.5 0 0 1-.566-.819l3.177-2.6a.492.492 0 0 1-.307-.233.5.5 0 0 1 .183-.683l4.247-2.451a.5.5 0 0 1 .566.819l-2.486 2.038L20.04 34.9a.5.5 0 0 1 .549.833l-2.752 2.053 3.23-1.864a.5.5 0 0 1 .544.837L18 39.381l4.146-2.394a.5.5 0 0 1 .542.839l-4.672 3.354 5.278-3.047a.5.5 0 0 1 .529.847l-2.116 1.42 2.449-1.413a.5.5 0 0 1 .543.838l-7.18 5.2 8.043-4.642a.5.5 0 0 1 .551.831l-6.343 4.802 4.146-2.394a.5.5 0 0 1 .549.834l-2.627 1.957a.5.5 0 0 1-.046.836l-4.8 2.771a.5.5 0 0 1-.549-.834l.576-.429-3.752 2.166a.494.494 0 0 1-.248.067zm35.1.11a.5.5 0 0 1-.368-.838l.263-.287-1.467.846a.5.5 0 0 1-.616-.773l1.777-1.911-3.608 2.086a.5.5 0 0 1-.587-.8L46.162 47l-4.141 2.392a.5.5 0 0 1-.57-.818l3.049-2.533-4.169 2.407a.5.5 0 0 1-.57-.816l3.982-3.319-5.057 2.919a.5.5 0 0 1-.544-.836l2.018-1.476-2.453 1.416a.5.5 0 0 1-.547-.835l2.411-1.775-2.794 1.612a.5.5 0 0 1-.545-.836l2.268-1.661-2.527 1.459a.5.5 0 0 1-.551-.832l2.929-2.208-3.12 1.8a.5.5 0 0 1-.553-.831l2.83-2.164-3.024 1.746a.5.5 0 0 1-.554-.83l2.77-2.133a.5.5 0 0 1-.337-.869l3.471-3.172a.5.5 0 0 1 .243-.519l.93-.537a.5.5 0 0 1 .587.8l-1.165 1.064 1.892-1.092a.5.5 0 0 1 .555.829l-2.379 1.834 3.2-1.85a.5.5 0 0 1 .554.83l-2.833 2.166 3.491-2.015a.5.5 0 0 1 .551.832l-2.925 2.206 3.445-1.989a.5.5 0 0 1 .545.836l-2.272 1.664 2.6-1.5a.5.5 0 0 1 .546.835l-2.412 1.776 2.652-1.53a.5.5 0 0 1 .545.836l-2.01 1.472 2.126-1.223a.5.5 0 0 1 .57.817l-3.982 3.318 4.224-2.438a.5.5 0 0 1 .57.817l-3.058 2.534 3.044-1.757a.5.5 0 0 1 .587.8L47.6 47.046l2.494-1.44a.5.5 0 0 1 .616.774l-1.777 1.91 1.4-.81a.5.5 0 0 1 .618.771l-.365.4a.521.521 0 0 1 .479.248.5.5 0 0 1-.182.683l-2.516 1.452a.49.49 0 0 1-.248.066z" fill="#ffe266"/><path d="M13 36.455a.5.5 0 0 1-.318-.886l.517-.426-1.86 1.074a.5.5 0 0 1-.575-.813l2.971-2.545-4.835 2.79a.5.5 0 0 1-.669-.159.5.5 0 0 1 .123-.677l2.134-1.564-3.14 1.813a.5.5 0 0 1-.556-.829l5.182-4-6.6 3.807a.5.5 0 0 1-.536-.843l3.326-2.318L4.133 33.2a.5.5 0 0 1-.559-.826l5.5-4.3-6.564 3.789a.5.5 0 0 1-.538-.842l1.4-.984-1.7.983a.5.5 0 0 1-.572-.82l2.325-1.958-.149.086a.5.5 0 0 1-.5-.865l5.048-2.913a.5.5 0 0 1 .572.815l-2.327 1.959 6.422-3.707a.5.5 0 0 1 .538.842l-1.395.982 3.089-1.783a.5.5 0 0 1 .558.826l-5.5 4.3 8.058-4.651a.5.5 0 0 1 .536.843l-3.322 2.315 2.847-1.642a.5.5 0 0 1 .556.829l-5.183 4.006 4.632-2.673a.5.5 0 0 1 .546.835l-2.129 1.564 1.59-.917a.5.5 0 0 1 .575.812l-2.97 2.544 2.4-1.384a.5.5 0 0 1 .568.818l-.526.434a.5.5 0 0 1 .641.708l-.665 1.124a.5.5 0 0 1 .489.871l-1.643.948a.5.5 0 0 1-.679-.688l.665-1.123-3.517 2.031a.491.491 0 0 1-.25.067zm16.293 22.516a.5.5 0 0 1-.354-.854l2.466-2.47-3.191 1.842a.5.5 0 0 1-.565-.821l2.4-1.945-2.743 1.583a.5.5 0 0 1-.544-.837l.993-.724-1.073.619a.5.5 0 0 1-.548-.834l2.533-1.883-2.647 1.528a.5.5 0 0 1-.553-.83L29.5 50.26l-4.158 2.4a.5.5 0 0 1-.555-.829l4.7-3.617-4.71 2.719a.5.5 0 0 1-.534-.844l.857-.589-.556.32a.5.5 0 0 1-.544-.834l2.518-1.817-2.167 1.251a.5.5 0 0 1-.547-.835l1.151-.849-.671.387a.5.5 0 0 1-.585-.8l1.856-1.671-1.2.7a.5.5 0 0 1-.6-.792l.478-.463a.5.5 0 0 1-.433-.722l.4-.806a.512.512 0 0 1-.1-.127.5.5 0 0 1 .182-.683l.582-.336a.5.5 0 0 1 .7.654l-.129.261 1.594-.92a.5.5 0 0 1 .6.792l-.259.251 1.814-1.047a.5.5 0 0 1 .585.8L27.9 43.88l4.3-2.48a.5.5 0 0 1 .547.835l-1.148.847 2.922-1.682a.5.5 0 0 1 .542.837l-2.52 1.821 2.83-1.634a.5.5 0 0 1 .534.844l-.838.578.487-.28a.5.5 0 0 1 .554.829l-4.71 3.614 4.3-2.484a.5.5 0 0 1 .554.83l-4.031 3.085 3.432-1.981a.5.5 0 0 1 .548.834l-2.536 1.885 1.752-1.011a.5.5 0 0 1 .544.837l-.992.723.065-.038a.5.5 0 0 1 .565.822l-2.4 1.944.983-.566a.5.5 0 0 1 .6.786l-2.56 2.565a.509.509 0 0 1 .5.245.5.5 0 0 1-.182.683l-3 1.735a.49.49 0 0 1-.249.068zm15.785-22.558a.5.5 0 0 1-.3-.9l5.011-3.823-7.332 4.233a.5.5 0 0 1-.539-.841l4.054-2.878-3.872 2.237a.5.5 0 0 1-.538-.84l2.808-1.984-2.27 1.311a.5.5 0 0 1-.534-.845l.367-.251a.5.5 0 0 1-.405-.876l3.85-3.231-3.278 1.892a.5.5 0 0 1-.552-.831l.416-.316a.5.5 0 0 1-.436-.869l.434-.365a.5.5 0 0 1-.583-.656l.429-1.189a.5.5 0 0 1-.208-.931l.843-.487a.5.5 0 0 1 .721.6l-.381 1.059 3.524-2.032a.5.5 0 0 1 .571.815l-.337.283 1.7-.978a.5.5 0 0 1 .552.831l-.282.214L49.823 24a.5.5 0 0 1 .572.815l-3.85 3.231 5.688-3.283a.5.5 0 0 1 .534.844l-.031.021.627-.361a.5.5 0 0 1 .538.84l-2.81 1.993 3.609-2.087a.5.5 0 0 1 .539.841l-4.054 2.877 4.857-2.8a.5.5 0 0 1 .553.83l-5.01 3.821 5.928-3.422a.5.5 0 0 1 .571.817l-4.128 3.457 4.744-2.74a.5.5 0 0 1 .5.866l-9.716 5.609a.5.5 0 0 1-.571-.816l4.123-3.453-7.708 4.45a.491.491 0 0 1-.25.063zM25.817 18.672a.5.5 0 0 1-.3-.9l3.283-2.464-4.151 2.392a.5.5 0 0 1-.537-.842l1.648-1.153-1.313.758a.5.5 0 0 1-.556-.827l4.916-3.818-4.513 2.606a.5.5 0 0 1-.565-.822l5.031-4.061-4.369 2.522a.5.5 0 0 1-.551-.833l2.629-1.978-1.763 1.018a.5.5 0 0 1-.55-.833l1.471-1.1-.419.241a.5.5 0 0 1-.559-.826L25.986 6.7a.5.5 0 0 1-.527-.841l1.28-1.039a.5.5 0 0 1-.186-.833l1.952-1.886a.5.5 0 0 1 .19-.668L30 .686a.5.5 0 0 1 .6.792l-.421.406.684-.395a.5.5 0 0 1 .566.821l-.442.359.629-.363a.5.5 0 0 1 .559.826l-1.331 1.037 1.547-.893a.5.5 0 0 1 .549.833l-1.472 1.1 1.619-.935a.5.5 0 0 1 .551.832l-2.63 1.979L33.8 5.479a.5.5 0 0 1 .564.821l-5.027 4.062L34.639 7.3a.5.5 0 0 1 .556.827l-4.915 3.816 4.94-2.851a.5.5 0 0 1 .537.842L34.1 11.089l1.374-.792a.5.5 0 0 1 .549.832l-3.28 2.464 2.927-1.69a.5.5 0 0 1 .55.833l-1.055.789.545-.314a.5.5 0 0 1 .572.815l-1.042.878.4-.233a.5.5 0 0 1 .662.717l-.853 1.232a.5.5 0 0 1 .426.9l-1.847 1.066a.5.5 0 0 1-.661-.717l.845-1.22-3.367 1.944a.5.5 0 0 1-.573-.816l1.041-.877-2.941 1.7a.5.5 0 0 1-.55-.833l1.056-.79-2.811 1.623a.493.493 0 0 1-.25.072z" fill="#f2cb51"/><path d="M29.225 43.444a.5.5 0 0 1-.283-.913l2.206-1.507-3.618 2.089a.5.5 0 0 1-.523-.851l.051-.033-.89.513a.5.5 0 0 1-.539-.84l8.357-5.934-10.039 5.8a.5.5 0 0 1-.529-.847L30.71 36l-8.278 4.779a.5.5 0 0 1-.532-.845l9.287-6.334-10.211 5.9a.5.5 0 0 1-.532-.846l9.91-6.741-10.609 6.117a.5.5 0 0 1-.525-.85l7.435-4.9-7.73 4.463a.5.5 0 0 1-.518-.855l.728-.459-.678.39a.5.5 0 0 1-.517-.855l.28-.177-.153.088a.5.5 0 0 1-.532-.846l9.927-6.788-9.931 5.733a.5.5 0 0 1-.525-.85l6.127-4.046-5.812 3.356a.5.5 0 0 1-.525-.85l5.191-3.434-4.687 2.709a.5.5 0 0 1-.533-.844l6.608-4.545-5.835 3.368a.5.5 0 0 1-.535-.844l4.866-3.379-3.717 2.146a.5.5 0 0 1-.539-.841l2.957-2.1-1.336.772a.5.5 0 0 1-.561-.824l2.594-2.063a.489.489 0 0 1-.246-.213.5.5 0 0 1 .183-.682l4.373-2.526a.5.5 0 0 1 .562.824l-1.573 1.25 4.76-2.748a.5.5 0 0 1 .539.841l-2.964 2.1 4.848-2.8a.5.5 0 0 1 .672.165.5.5 0 0 1-.137.679l-4.865 3.378 6.433-3.714a.5.5 0 0 1 .534.844l-6.611 4.546 7.956-4.592a.5.5 0 0 1 .526.849l-5.189 3.439 6.015-3.473a.5.5 0 0 1 .525.85l-6.131 4.049 6.833-3.946a.5.5 0 0 1 .533.846l-9.918 6.783 10.76-6.213a.5.5 0 0 1 .516.856l-.292.184.4-.231a.5.5 0 0 1 .518.855l-.728.46.78-.45a.5.5 0 0 1 .525.851l-7.441 4.9 7.619-4.4a.5.5 0 0 1 .531.845l-9.905 6.74 10.028-5.79a.5.5 0 0 1 .532.845l-9.289 6.334 9.136-5.273a.5.5 0 0 1 .529.846l-7.292 4.919 6.858-3.959a.5.5 0 0 1 .539.84l-8.357 5.937 7.562-4.365a.5.5 0 0 1 .523.851l-.7.453a.5.5 0 0 1 .337.91l-2.2 1.5.93-.537a.5.5 0 0 1 .545.836l-2.094 1.531.031-.017a.5.5 0 1 1 .5.865l-8.08 4.665a.5.5 0 0 1-.545-.836l2.09-1.527-4.327 2.5a.494.494 0 0 1-.241.065z" fill="#cc8240"/><path d="M29.2 39.432a.5.5 0 0 1-.306-.9l3.946-3.072-5.789 3.342a.5.5 0 0 1-.536-.843l2.677-1.871-3.534 2.04a.5.5 0 0 1-.547-.835l6.189-4.569-7.25 4.183a.5.5 0 0 1-.546-.836L30.414 31l-7.626 4.4a.5.5 0 0 1-.53-.846l3.39-2.3-3.5 2.023a.5.5 0 0 1-.531-.846l3.106-2.1-3.033 1.751a.5.5 0 0 1-.527-.849l1.056-.7-.8.459a.5.5 0 0 1-.53-.846l2.116-1.446-1.713.989a.5.5 0 0 1-.555-.829l5.492-4.217-4.706 2.716a.5.5 0 0 1-.551-.831l2.7-2.044-1.37.791a.5.5 0 0 1-.568-.818l1.873-1.543a.5.5 0 0 1 0-.869l3.591-2.074a.5.5 0 0 1 .568.818l-.731.6 3.087-1.783a.5.5 0 0 1 .552.831l-2.7 2.042 4.345-2.508a.5.5 0 0 1 .555.829l-5.49 4.216 7.081-4.088a.5.5 0 0 1 .53.846l-2.133 1.448 2.65-1.522a.5.5 0 0 1 .526.849l-1.049.7 1.332-.768a.5.5 0 0 1 .531.846l-3.107 2.1 3.383-1.952a.5.5 0 0 1 .53.846l-3.386 2.3 3.512-2.027a.5.5 0 0 1 .546.836l-6.912 5.07 7.039-4.063a.5.5 0 0 1 .547.835l-6.188 4.573 5.9-3.405a.5.5 0 0 1 .536.843l-2.68 1.873 2.038-1.176a.5.5 0 0 1 .558.827l-3.949 3.073 2.666-1.538a.5.5 0 0 1 .577.81l-2.18 1.886a.492.492 0 0 1 .3.233.5.5 0 0 1-.183.682l-3.59 2.074a.5.5 0 0 1-.578-.81l1.594-1.379-4.378 2.527a.493.493 0 0 1-.247.067z" fill="#774a3f"/><path d="M31.746 39.3c9.34-1.417 10.809-15.283 1.683-18.245-15.516-4.708-18.038 20.562-1.683 18.245zm-8.909-13.65c3.972-7.5 15.662-3.793 15.432 4.415-.697 14.379-21.769 8.005-15.432-4.412z" fill="#262626"/><path d="M1.3 31.506a18.1 18.1 0 0 0 4.749 3.332C.8 41.125 1.617 42.647 9.648 43.43c-2.465 7.741-1.221 9.014 6.6 6.773.706 8.02 2.55 8.5 8.8 3.747 3.542 6.918 6 6.979 9.741.132 5.766 4.842 8.39 3.583 8.934-3.832 7.5 2.219 9.129.423 6.694-6.963 7.988-1.007 8.733-2.538 3.493-8.755 7.235-3.792 7.2-5.613-.068-9.329 5.311-6.373 4.708-7.736-3.514-8.525 2.462-7.662 1.377-9.309-6.586-6.983C43.086 1.843 41 1.056 34.9 5.932c-3.611-6.945-6-6.879-9.717-.039-5.735-4.8-8.342-3.577-8.9 3.8-7.6-2.3-9.1-.372-6.693 7.033-7.643.913-8.831 2.515-3.619 8.595-1.782 1.199-7.655 3.753-4.671 6.185zm5.058 10.409A9.438 9.438 0 0 1 3.932 40.9a14.235 14.235 0 0 1 3.075-5.616 17.048 17.048 0 0 0 7.366 1.221A17.542 17.542 0 0 0 10 42.6a17.015 17.015 0 0 1-3.642-.685zm3.749 8.2a16.25 16.25 0 0 1 5.909-13.756q.837-.112 1.661-.3a13.09 13.09 0 0 0 6.141 5.982 17.867 17.867 0 0 0-.4 2.127c-3.153 3.925-8.267 6.586-13.311 5.942zm8.67-25.315a12.336 12.336 0 0 1 6.446-6.428 11.9 11.9 0 0 1 9.462.081c9.686 3.925 10.051 19.222.126 23.2-10.017 4.482-20.642-7.167-16.034-16.853zm2.4 30.782a14.291 14.291 0 0 1-1.765.79 16.864 16.864 0 0 1-1.732-6.689 17.347 17.347 0 0 0 5.617-3.8 17.271 17.271 0 0 0 1.372 7.238 17.109 17.109 0 0 1-3.492 2.465zm9.966 1.7a7.24 7.24 0 0 1-1.053 1.031 16.432 16.432 0 0 1-4.965-15.732 14.018 14.018 0 0 0 9.677-.1 16.564 16.564 0 0 1-3.659 14.803zm10.439-3.093a15.1 15.1 0 0 1-.788 2.074 16.843 16.843 0 0 1-5.427-3.38 16.532 16.532 0 0 0 1.354-6.783 17.221 17.221 0 0 0 5.613 3.66 17.462 17.462 0 0 1-.752 4.431zm7.723-3.907a16.277 16.277 0 0 1-12.733-6.363 18.4 18.4 0 0 0-.378-2.067 13.916 13.916 0 0 0 5.985-5.9q.672.138 1.348.227a16.961 16.961 0 0 1 6.415 14.1c-.212.001-.425.007-.637.005zm.863-.016a1.234 1.234 0 0 1 .248-.013c-.081-.001-.166.01-.248.015zm4.867-11.689c.222.784 1.459 2.133.826 2.763a15.2 15.2 0 0 1-5.652 1.383 16.866 16.866 0 0 0-4.5-6.389A18.441 18.441 0 0 0 52.6 35.1a17.475 17.475 0 0 1 2.435 3.479zm3.007-8.794c-2.067 5.058-10.3 6.758-15.471 5.353a12.946 12.946 0 0 0 .074-10.427c.328-.068.658-.126.987-.174a.937.937 0 0 0 1.041-.117 16.365 16.365 0 0 1 13.369 5.367zm-2.855-11.192c2.342.911-1.376 4.857-2.224 6.216A17.076 17.076 0 0 0 45.5 23.69a17.828 17.828 0 0 0 4.569-6.385 16.825 16.825 0 0 1 5.118 1.286zm-5.315-8.71a16.211 16.211 0 0 1-6.279 14.024q-.614.1-1.218.236a13.343 13.343 0 0 0-6.176-6.2 17.682 17.682 0 0 0 .381-2.02 15.877 15.877 0 0 1 13.292-6.04zM38.807 4.61a15.78 15.78 0 0 1 1.863-.829 16.924 16.924 0 0 1 1.643 6.437 17.5 17.5 0 0 0-5.6 3.8 17.365 17.365 0 0 0-1.331-7.028 16.526 16.526 0 0 1 3.425-2.38zM28.779 2.9a8.151 8.151 0 0 1 1.17-1.155 16.329 16.329 0 0 1 4.92 15.644 14.016 14.016 0 0 0-9.668.144A16.464 16.464 0 0 1 28.779 2.9zM18.384 5.922a11.672 11.672 0 0 1 .847-2.174 16.823 16.823 0 0 1 5.375 3.344 16.592 16.592 0 0 0-1.334 6.779 17.449 17.449 0 0 0-5.6-3.68 17.771 17.771 0 0 1 .712-4.269zm-7.556 3.87a16.138 16.138 0 0 1 12.6 6.3 18.637 18.637 0 0 0 .376 2.046 13.527 13.527 0 0 0-5.966 5.778 18.878 18.878 0 0 0-1.552-.272A16.793 16.793 0 0 1 10.067 9.8c.253-.013.507-.012.761-.008zm-.785.011c-.019.057-.074.124-.255.012a.767.767 0 0 0 .255-.015zM4.965 21.421c-.225-.789-1.459-2.137-.83-2.777a15.12 15.12 0 0 1 5.652-1.384 16.859 16.859 0 0 0 4.313 6.233 18.046 18.046 0 0 0-6.834 1.255 17.393 17.393 0 0 1-2.301-3.327zm-2.992 8.218a15.762 15.762 0 0 1 15.365-4.662 13.429 13.429 0 0 0-.089 10.123c-5.218 1.111-12.903-.715-15.276-5.461z" fill="#262626"/></svg>