<svg xmlns="http://www.w3.org/2000/svg" viewBox="0 0 60 60" width="512" height="512"><path d="M10.511 51.47a.5.5 0 0 1-.263-.926l19.46-12.01L7.419 51.4a.5.5 0 0 1-.511-.858l21.106-12.979L4.265 51.275a.5.5 0 0 1-.508-.861l6.743-4.055-7.507 4.334a.5.5 0 0 1-.508-.861l7.928-4.767-8.3 4.8A.5.5 0 0 1 1.6 49l11.541-6.955-11.626 6.711A.5.5 0 0 1 1 47.9l28.489-17.582L1.28 46.6a.5.5 0 0 1-.51-.859l18.7-11.37L1.279 44.874a.5.5 0 0 1-.508-.861l7.917-4.77-7.409 4.278a.5.5 0 0 1-.508-.862l5.656-3.408-5.148 2.973a.5.5 0 0 1-.508-.862l1.541-.925-1.034.595a.5.5 0 0 1-.512-.858l17.519-10.818-17.007 9.819a.5.5 0 0 1-.509-.861l2.5-1.513-1.994 1.15a.5.5 0 0 1-.513-.857L13.853 29 1.277 36.26a.5.5 0 0 1-.518-.855L18.74 23.954 1.276 34.036a.5.5 0 0 1-.514-.856l10.071-6.29-9.557 5.517a.5.5 0 0 1-.519-.854L12.5 24.085 1.276 30.563a.5.5 0 0 1-.513-.863l.457-.281a.5.5 0 0 1-.467-.881l9.767-6.326-9.245 5.341a.5.5 0 0 1-.517-.853l2.229-1.4-1.713.988a.5.5 0 0 1-.534-.843l9.845-6.8-9.311 5.366a.5.5 0 0 1-.524-.852l2.36-1.54-1.837 1.061a.5.5 0 0 1-.531-.846l3.95-2.693-3.419 1.973a.5.5 0 0 1-.545-.836l4.4-3.22-3.855 2.222a.5.5 0 0 1-.573-.812l3.846-3.284-3.274 1.888a.5.5 0 0 1-.572-.815l1.141-.96-.569.328a.5.5 0 0 1-.7-.646l.835-1.772a.5.5 0 0 1-.325-.927l1.181-.68a.5.5 0 0 1 .7.645l-.81 1.718L6.25 11.6a.5.5 0 0 1 .572.815l-1.144.963L8.759 11.6a.5.5 0 0 1 .574.812l-3.844 3.279 7.1-4.1a.5.5 0 0 1 .546.836l-4.4 3.22 7.03-4.057a.5.5 0 0 1 .531.845l-3.948 2.693 6.126-3.528a.5.5 0 0 1 .524.851l-2.362 1.541L20.78 11.6a.5.5 0 0 1 .534.843l-9.845 6.8 13.244-7.646a.5.5 0 0 1 .517.855l-2.239 1.412 3.928-2.267a.5.5 0 0 1 .522.852l-9.757 6.321 12.425-7.174a.5.5 0 0 1 .513.858l-.36.222 1.872-1.08a.5.5 0 0 1 .518.854l-11.741 7.47 14.42-8.325a.5.5 0 0 1 .515.856L25.771 18.74l12.382-7.148a.5.5 0 0 1 .519.854L20.7 23.893l21.308-12.3a.5.5 0 0 1 .513.857l-13.1 8.1 15.517-8.958a.5.5 0 0 1 .508.86l-2.492 1.508 4.1-2.369a.5.5 0 0 1 .512.858L30.05 23.267 50.275 11.59a.5.5 0 0 1 .508.861l-1.527.918 3.083-1.779a.5.5 0 0 1 .508.861l-5.659 3.409 7.4-4.271a.5.5 0 0 1 .508.861l-7.952 4.791 9.791-5.652a.5.5 0 0 1 .509.859L38.77 23.806l19.771-11.415a.5.5 0 0 1 .513.858l-28.5 17.586 28.166-16.26a.5.5 0 0 1 .508.862l-11.519 6.941 11.011-6.357a.5.5 0 0 1 .508.862l-7.915 4.758 7.407-4.276a.5.5 0 0 1 .508.862l-6.754 4.061 6.246-3.606a.5.5 0 0 1 .511.858l-21.1 12.979L58.72 20.63a.5.5 0 0 1 .512.858L39.765 33.5 58.72 22.56a.5.5 0 0 1 .509.86l-5.467 3.311 4.958-2.862a.5.5 0 0 1 .509.86l-.58.35.071-.04a.5.5 0 0 1 .517.856L39.626 38.313 58.72 27.289a.5.5 0 0 1 .509.859l-.967.59.458-.264a.5.5 0 0 1 .52.853L42.7 39.944 58.72 30.7a.5.5 0 0 1 .519.854l-12.766 8.18 12.247-7.07a.5.5 0 0 1 .52.854l-10.318 6.636 9.8-5.656a.5.5 0 0 1 .515.856l-2.721 1.709 2.204-1.273a.5.5 0 0 1 .526.849L50.281 42.6l8.439-4.871a.5.5 0 0 1 .527.848l-6.466 4.32 5.939-3.428a.5.5 0 0 1 .538.841l-6.73 4.752 6.192-3.575a.5.5 0 0 1 .538.842l-3.742 2.633 3.2-1.85a.5.5 0 0 1 .564.822l-4.215 3.406 3.655-2.11a.5.5 0 0 1 .6.79l-2.6 2.555 1.891-1.092a.5.5 0 1 1 .5.866L53.823 51.4a.5.5 0 0 1-.6-.789l2.6-2.554-5.796 3.343a.5.5 0 0 1-.564-.821l4.218-3.408-7.327 4.229a.5.5 0 0 1-.538-.841l3.745-2.635-6.022 3.476a.5.5 0 0 1-.538-.84l6.728-4.751-9.686 5.591a.5.5 0 0 1-.527-.848l6.463-4.319-8.95 5.167a.5.5 0 0 1-.526-.848l8.962-5.952-11.787 6.8a.5.5 0 0 1-.516-.856l2.738-1.716-4.462 2.572a.5.5 0 0 1-.52-.853l10.316-6.638L28.259 51.4a.5.5 0 0 1-.52-.853l12.768-8.182-15.65 9.035a.5.5 0 0 1-.52-.853l16.531-10.612L21.005 51.4a.5.5 0 0 1-.51-.859l.986-.6-2.529 1.459a.5.5 0 0 1-.517-.855l19.612-12.416L15.055 51.4a.5.5 0 0 1-.509-.86l.568-.343-2.085 1.2a.5.5 0 0 1-.509-.86l5.463-3.309-7.222 4.172a.5.5 0 0 1-.25.07Z" fill="#e1efff"/><path d="M2.8 13.5a.5.5 0 0 1-.293-.906l2.95-2.12-4.177 2.409a.5.5 0 0 1-.564-.821l4.195-3.385-3.631 2.1a.5.5 0 0 1-.574-.813l2.05-1.743-1.456.834a.5.5 0 0 1-.617-.773l1.224-1.318a.5.5 0 0 1-.21-.931l2.376-1.372a.5.5 0 0 1 .617.773l-1.019 1.1L7.023 4.6a.5.5 0 0 1 .659.144.5.5 0 0 1-.085.669L5.546 7.155 9.977 4.6a.5.5 0 0 1 .564.821L6.347 8.8l7.285-4.2a.5.5 0 0 1 .542.839l-2.949 2.12L16.35 4.6a.5.5 0 0 1 .555.829L12.522 8.8l7.284-4.2a.5.5 0 0 1 .538.841l-2.235 1.572L22.293 4.6a.5.5 0 0 1 .535.843l-1.453 1.004 3.2-1.849a.5.5 0 0 1 .557.827l-4.509 3.512L28.139 4.6a.5.5 0 0 1 .536.842l-1.791 1.247L30.507 4.6a.5.5 0 0 1 .555.829l-4.344 3.336L33.937 4.6a.5.5 0 0 1 .561.823l-4.751 3.782L37.729 4.6a.5.5 0 0 1 .559.825l-4.645 3.659L41.414 4.6a.5.5 0 0 1 .565.82l-4.911 3.99L45.4 4.6a.5.5 0 0 1 .556.828l-4.39 3.387L48.872 4.6a.5.5 0 0 1 .562.824L44.7 9.185 52.648 4.6a.5.5 0 0 1 .534.844l-1.139.784L54.854 4.6a.5.5 0 0 1 .532.845l-.671.458 1.659-.958a.5.5 0 0 1 .555.829l-3.882 2.991 4.745-2.74a.5.5 0 0 1 .538.842l-.13.093.14-.08a.5.5 0 0 1 .556.828l-1.467 1.133 1.26-.728a.5.5 0 0 1 .592.8l-1.556 1.457 1-.58a.5.5 0 0 1 .6.077.5.5 0 0 1 .084.6l-.653 1.154a.5.5 0 0 1 .481.876l-1.567.9a.5.5 0 0 1-.686-.678l.653-1.153-3.177 1.833a.5.5 0 0 1-.592-.8l1.557-1.459-3.905 2.266a.5.5 0 0 1-.556-.828l1.459-1.129-3.394 1.959a.5.5 0 0 1-.538-.842l.137-.1-1.628.943a.5.5 0 0 1-.555-.829l3.882-2.986-6.612 3.817a.5.5 0 0 1-.532-.846l.671-.458-2.254 1.305a.5.5 0 0 1-.534-.845l1.143-.786-2.827 1.632a.5.5 0 0 1-.562-.824l4.73-3.762-7.95 4.588a.5.5 0 0 1-.556-.828L39.435 9.2l-7.31 4.22a.5.5 0 0 1-.565-.82l4.911-3.992-8.338 4.814a.5.5 0 0 1-.559-.825l4.645-3.66-7.774 4.487a.5.5 0 0 1-.562-.823l4.751-3.785-7.985 4.61a.5.5 0 0 1-.554-.829l4.343-3.338-7.221 4.169a.5.5 0 0 1-.536-.843l1.794-1.251-3.628 2.1a.5.5 0 0 1-.557-.827l4.51-3.52-7.518 4.341a.5.5 0 0 1-.535-.844l1.453-1.008-3.205 1.853a.5.5 0 0 1-.538-.842l2.235-1.573-4.186 2.416a.5.5 0 0 1-.555-.829l4.382-3.375-7.286 4.206a.488.488 0 0 1-.247.068Z" fill="#d14a7b"/><path d="M9.514 9.4a.493.493 0 0 1-.373-.168.5.5 0 0 1-.028-.632l1.011-1.358-1.677.968a.5.5 0 0 1-.6-.785l1.132-1.142-.7.4a.5.5 0 0 1-.592-.8l.71-.664-.118.068a.5.5 0 0 1-.588-.8l.329-.3a.5.5 0 0 1-.4-.794l.664-.909a.5.5 0 0 1-.224-.931L9.722.6a.5.5 0 0 1 .654.727l-.546.747 1.395-.8a.5.5 0 0 1 .587.8l-.092.085a.5.5 0 0 1 .549.821l-.708.662.159-.092a.5.5 0 0 1 .6.785l-1.134 1.144.534-.308a.5.5 0 0 1 .651.731L11.36 7.26l.283-.162a.5.5 0 1 1 .5.865L9.764 9.336a.489.489 0 0 1-.25.064Zm9.971 0a.5.5 0 0 1-.362-.845l.073-.076-.428.247a.5.5 0 0 1-.638-.748l1.734-2.128-1.584.91a.5.5 0 0 1-.586-.8l.493-.447a.5.5 0 0 1-.508-.831l.618-.608-.017.01a.5.5 0 0 1-.652-.73l.642-.865a.5.5 0 0 1-.2-.93L19.722.6a.5.5 0 0 1 .652.73l-.5.679 1.326-.768a.5.5 0 0 1 .6.789l-.618.608.519-.3a.5.5 0 0 1 .586.8l-.486.44a.5.5 0 0 1 .556.786L20.625 6.5l1.095-.632a.5.5 0 0 1 .612.779l-.352.367a.5.5 0 0 1 .169.926l-2.415 1.389a.488.488 0 0 1-.249.071Zm10.078.015a.5.5 0 0 1-.416-.777l1.219-1.827-2.007 1.158a.5.5 0 0 1-.588-.8l.488-.446A.5.5 0 0 1 27.7 5.9l.432-.387a.5.5 0 0 1-.442-.854l.458-.433a.5.5 0 0 1-.52-.778l.69-.964a.5.5 0 0 1-.248-.932L29.722.6a.5.5 0 0 1 .656.723l-.593.829 1.47-.848a.5.5 0 0 1 .594.8l-.393.372.244-.146a.5.5 0 0 1 .584.8l-.423.379a.5.5 0 0 1 .446.857l-.512.468a.5.5 0 0 1 .59.746l-1.218 1.832.464-.267a.5.5 0 0 1 .5.865l-2.318 1.338a.491.491 0 0 1-.25.067Zm10.465.053a.5.5 0 0 1-.422-.769l.847-1.331-1.881 1.086a.5.5 0 0 1-.586-.8l.213-.193a.5.5 0 0 1-.507-.839l.595-.546h-.007a.5.5 0 0 1-.607-.782l1.085-1.111-.478.275a.5.5 0 0 1-.612-.088.5.5 0 0 1-.058-.617l.831-1.28a.5.5 0 0 1-.376-.917L39.722.6a.5.5 0 0 1 .67.705l-.81 1.247L41.4 1.5a.5.5 0 0 1 .608.782L40.924 3.4l.8-.459a.5.5 0 0 1 .588.8l-.595.546h.007a.5.5 0 0 1 .586.8l-.368.333a.474.474 0 0 1 .393.153.5.5 0 0 1 .061.615l-.861 1.352a.5.5 0 0 1 .585.227.5.5 0 0 1-.182.682l-1.66.951a.49.49 0 0 1-.25.068Zm10 0a.506.506 0 0 1-.37-.163.5.5 0 0 1-.037-.627l.612-.862-1.5.866a.5.5 0 0 1-.606-.784l.915-.931-.762.439a.5.5 0 0 1-.6-.788l1.188-1.178-.588.339a.5.5 0 0 1-.633-.754l1.41-1.678-.777.447a.5.5 0 0 1-.634-.753l.489-.586a.492.492 0 0 1-.252-.217.5.5 0 0 1 .182-.682L49.722.6a.5.5 0 0 1 .633.753l-.142.171.8-.461a.5.5 0 0 1 .633.753L50.236 3.5l1.484-.86a.5.5 0 0 1 .6.788l-1.188 1.177.588-.338a.5.5 0 0 1 .606.783l-.915.931.309-.181a.5.5 0 0 1 .657.722l-.7.987a.47.47 0 0 1 .44.25.5.5 0 0 1-.182.682l-1.657.959a.49.49 0 0 1-.25.068Z" fill="#e1efff"/><path d="M20.974 59.445a.5.5 0 0 1-.328-.879l.531-.457-.923.533a.5.5 0 0 1-.556-.829l2.676-2.066-3.166 1.828a.5.5 0 0 1-.553-.831L21 54.965l-.84.484a.5.5 0 0 1-.593-.8l5.2-4.894a.5.5 0 0 1 .241-.525l.869-.5a.5.5 0 0 1 .592.8l-3.085 2.9 3.94-2.275a.5.5 0 0 1 .553.831l-2.339 1.779 2.8-1.615a.5.5 0 0 1 .555.828l-3.307 2.554a.5.5 0 0 1 .257.874l-2.916 2.514a.5.5 0 0 1-.221.6l-1.483.857a.488.488 0 0 1-.249.068Z" fill="#925c4c"/><path d="M13.974 55.021a.5.5 0 0 1-.25-.932l1.618-.935a.5.5 0 0 1 .5.866l-1.618.934a.494.494 0 0 1-.25.067Zm-2.724-7.846a.5.5 0 0 1-.25-.933l1-.576a.5.5 0 1 1 .5.865l-1 .576a.5.5 0 0 1-.25.068Z" fill="#e3c84c"/><path d="M11.752 56.4a.5.5 0 0 1-.339-.868l.462-.424-.61.352a.5.5 0 0 1-.6-.8l2.108-2.006-4 2.32a.5.5 0 0 1-.559-.826l1.515-1.192-1.017.586a.5.5 0 0 1-.654-.139.5.5 0 0 1 .069-.665l2.843-2.573-3.236 1.868a.5.5 0 0 1-.561-.824l.484-.385a.5.5 0 0 1-.528-.727l.971-1.821a.5.5 0 0 1-.006-.869l.8-.464a.5.5 0 0 1 .691.668l-.755 1.413 4.02-2.32a.5.5 0 0 1 .562.824l-.324.257 1.445-.834a.5.5 0 0 1 .586.8l-2.843 2.572 2.983-1.722a.5.5 0 0 1 .559.826l-1.514 1.192 1.6-.926a.5.5 0 0 1 .595.795L14.4 52.5l.906-.522a.5.5 0 0 1 .588.8l-2.657 2.442a.5.5 0 0 1-.238.542l-1 .575a.488.488 0 0 1-.247.063Z" fill="#e3c84c"/><path d="M29.909 55.411a.5.5 0 0 1-.314-.89l2.276-1.832-2.995 1.729a.5.5 0 0 1-.545-.836l6.063-4.435-6.84 3.953a.5.5 0 0 1-.533-.845l9.61-6.606-10.478 6.044a.5.5 0 0 1-.522-.851l9.276-6.029L25 50.535a.5.5 0 0 1-.52-.853l7.214-4.614-7.714 4.452a.5.5 0 0 1-.517-.856l5.059-3.2-5.451 3.146a.5.5 0 0 1-.516-.855l3.545-2.228-3.872 2.236a.5.5 0 0 1-.522-.853l9.414-6.1-10.047 5.8a.5.5 0 0 1-.523-.851l9.612-6.241-10.262 5.92a.5.5 0 0 1-.527-.849l12.6-8.415-13.529 7.81a.5.5 0 0 1-.522-.852l9.213-5.965-9.7 5.6a.5.5 0 0 1-.526-.849l12.021-7.981-10.417 6.013a.5.5 0 0 1-.513-.856l3-1.883a.5.5 0 0 1-.21-.91l7.134-4.784-2.313 1.333a.5.5 0 0 1-.53-.847l3.654-2.476a.5.5 0 0 1-.293-.895L33.133 25a.5.5 0 0 1-.209-.859l2.785-2.467a.5.5 0 0 1 .239-.536l1.1-.634a.5.5 0 0 1 .581.806l-.333.3.924-.533a.5.5 0 0 1 .555.828l-3.859 2.986 4.514-2.606a.5.5 0 0 1 .53.847l-2.8 1.894 3.175-1.833a.5.5 0 0 1 .528.848l-7.137 4.786 7.762-4.481a.5.5 0 0 1 .516.856l-.618.388.853-.492a.5.5 0 0 1 .527.848l-12.01 7.978 12.878-7.435a.5.5 0 0 1 .521.853l-9.217 5.967 9.837-5.679a.5.5 0 0 1 .528.849L32.7 36.9l13.531-7.812a.5.5 0 0 1 .522.852l-9.611 6.24L47.4 30.252a.5.5 0 0 1 .523.852l-9.417 6.105 10.05-5.8a.5.5 0 0 1 .516.856l-3.536 2.223 3.864-2.234a.5.5 0 0 1 .518.855l-5.067 3.2 5.459-3.151a.5.5 0 0 1 .52.854l-7.217 4.614 7.226-4.171a.5.5 0 0 1 .522.852l-9.274 6.033 5.047-2.913a.5.5 0 0 1 .533.844l-9.607 6.6 3.85-2.223a.5.5 0 0 1 .545.836l-6.063 4.436.587-.339a.5.5 0 0 1 .564.822l-3.929 3.167a.517.517 0 0 1 .114.135.5.5 0 0 1-.183.683l-3.387 1.956a.488.488 0 0 1-.249.067Z" fill="#d14a7b"/><path d="M37.616 47.346a.5.5 0 0 1-.324-.881l1.415-1.2-2.607 1.503a.5.5 0 0 1-.6-.79l2.2-2.147-3.928 2.269a.5.5 0 0 1-.584-.8l1.857-1.679-3.29 1.9a.5.5 0 0 1-.608-.783l2.33-2.384-4.23 2.442a.5.5 0 0 1-.557-.827l.281-.219-1.116.644a.5.5 0 0 1-.589-.8l1.981-1.829-3.5 2.019a.5.5 0 0 1-.606-.783l2.32-2.36-4.2 2.425a.5.5 0 0 1-.59-.8l2-1.848-3.525 2.035a.5.5 0 0 1-.575-.813l1.439-1.226-2.642 1.526a.5.5 0 0 1-.605-.786l2.3-2.317-3.322 1.917a.5.5 0 0 1-.588-.8l3.567-3.257a.5.5 0 0 1 .238-.542l1.016-.587a.5.5 0 0 1 .587.8l-1.338 1.223 2.585-1.492a.5.5 0 0 1 .605.785l-2.3 2.317 4.14-2.401a.5.5 0 0 1 .575.813l-1.441 1.228 2.642-1.526a.5.5 0 0 1 .59.8l-2 1.847 3.522-2.033a.5.5 0 0 1 .606.783l-2.32 2.36 4.2-2.423a.5.5 0 0 1 .589.8l-1.981 1.829 3.5-2.017a.5.5 0 0 1 .558.827l-.276.215 1.108-.64a.5.5 0 0 1 .607.782L34.4 42.83l4.227-2.44a.5.5 0 0 1 .585.8l-1.858 1.679 3.288-1.9a.5.5 0 0 1 .6.79l-2.2 2.146 3.92-2.263a.5.5 0 0 1 .574.814l-1.683 1.432h.007a.5.5 0 0 1 .25.932l-4.247 2.452a.49.49 0 0 1-.247.074Zm11.06-9.692a.5.5 0 0 1-.43-.756l.688-1.151-2.125 1.226a.5.5 0 0 1-.661-.719l1.164-1.665-2.912 1.683a.5.5 0 0 1-.6-.785l1.182-1.19-2.482 1.426a.5.5 0 0 1-.586-.8l1.271-1.154L40.7 35.2a.5.5 0 0 1-.608-.781l2.334-2.4-4.251 2.454a.5.5 0 0 1-.563-.822l.735-.589-1.685.971a.5.5 0 0 1-.6-.789l2.22-2.187-3.972 2.294a.5.5 0 0 1-.565-.822l.857-.693-1.843 1.064a.5.5 0 0 1-.557-.829l.173-.133-.975.562a.5.5 0 0 1-.557-.828l.2-.155-1.015.586a.5.5 0 0 1-.612-.777l2.38-2.512-4.382 2.53a.5.5 0 0 1-.6-.791l3.916-3.814a.5.5 0 0 1 .222-.595l1.013-.585a.5.5 0 0 1 .6.791l-2.185 2.127 3.895-2.248a.5.5 0 0 1 .613.776L32.5 29.516l4.381-2.53a.5.5 0 0 1 .556.828l-.205.159 1.02-.588a.5.5 0 0 1 .556.828l-.168.13.975-.563a.5.5 0 0 1 .565.822l-.857.693 1.844-1.065a.5.5 0 0 1 .6.79l-2.219 2.187 3.972-2.294a.5.5 0 0 1 .563.822l-.734.589 1.684-.971a.5.5 0 0 1 .609.781l-2.331 2.406 3.41-1.969a.5.5 0 0 1 .586.8l-1.272 1.155 1.681-.969a.5.5 0 0 1 .6.785l-1.18 1.189 1.623-.936a.5.5 0 0 1 .66.718l-1.164 1.665 1.838-1.06a.5.5 0 0 1 .679.688l-.9 1.51a.489.489 0 0 1 .231.208.5.5 0 0 1-.182.683l-1 .577a.489.489 0 0 1-.245.07Z" fill="#fde05e"/><path d="M52.432 36.484a.5.5 0 0 1-.406-.792l.11-.152-.465.268a.5.5 0 0 1-.649-.735l1.124-1.482-1.707.985a.5.5 0 0 1-.624-.764l1.956-2.206-2.726 1.575a.5.5 0 0 1-.587-.8l2.133-1.949L47.867 32a.5.5 0 0 1-.575-.813l2.736-2.342-3.371 1.945a.5.5 0 0 1-.553-.829l2.058-1.578-2.479 1.431a.5.5 0 0 1-.564-.822l4.244-3.418-5.021 2.9a.5.5 0 0 1-.558-.828l5.116-3.988-5.941 3.43a.5.5 0 0 1-.542-.838l4.22-3.042-4.791 2.766a.5.5 0 0 1-.55-.833l4.579-3.434-5.26 3.036a.5.5 0 0 1-.577-.81l4.011-3.48-4.9 2.826a.5.5 0 0 1-.606-.783l2.479-2.517-3.28 1.893a.5.5 0 0 1-.635-.752l1.122-1.351-1.635.943a.5.5 0 0 1-.693-.666l.342-.647a.5.5 0 0 1-.542-.238.5.5 0 0 1 .183-.682l1.343-.776a.5.5 0 0 1 .692.666l-.322.61 2.549-1.471a.5.5 0 0 1 .634.752l-1.121 1.351 4.058-2.342a.5.5 0 0 1 .606.783l-2.479 2.517 6.222-3.591a.5.5 0 0 1 .578.81l-4.011 3.479 7.955-4.592a.5.5 0 0 1 .55.833l-4.577 3.432 6.146-3.548a.5.5 0 0 1 .542.837l-4.221 3.043 3.583-2.072a.5.5 0 0 1 .558.827l-5.112 3.99 4.4-2.542a.5.5 0 0 1 .563.823l-4.244 3.419 3.534-2.04a.5.5 0 0 1 .553.829l-2.058 1.577 1.4-.807a.5.5 0 0 1 .575.813l-2.736 2.344 2.028-1.171a.5.5 0 0 1 .587.8l-2.133 1.95 1.416-.818a.5.5 0 0 1 .624.765l-1.956 2.2 1.18-.681a.5.5 0 0 1 .648.735L53.314 33.7l.34-.2a.5.5 0 0 1 .656.724l-.383.532a.5.5 0 0 1 .063.9l-1.308.756a.489.489 0 0 1-.25.072Z" fill="#af3e6c"/><path d="M.333 47.876a4.5 4.5 0 0 0 3.084 3.45 9.5 9.5 0 0 0 3.016.233 1.329 1.329 0 0 0 .309.36c.256.21.522.407.782.611a.38.38 0 0 1 .2.44c-.037.6-.349 1.372.083 1.888.494.592 1.412.33 2.065.25.069-.008.153-.026.232-.033a.056.056 0 0 1 .015.026c.014.094.207.264.266.338l.334.426a1.492 1.492 0 0 0 .921.665 1.549 1.549 0 0 0 1.435-.562c.212-.25.406-.518.607-.778a.568.568 0 0 1-.176-.126c.034.034.163.034.251.036a.409.409 0 0 0 .07-.1c.049-.118.085.005.054.107.851.108 2 .346 2.45-.631a4.023 4.023 0 0 0-.085-1.92c.011-.008.035-.022.1-.07.133-.1.263-.205.394-.308a5.994 5.994 0 0 0 .66-.537 1.227 1.227 0 0 0 .134-.187h5.11l-1.3 1.3c-.968.969-1.993 1.9-2.917 2.916a1.393 1.393 0 0 0-.227 1.71 5.249 5.249 0 0 0 .753.8c.27.27.535.547.811.811a1.843 1.843 0 0 0 1.91.388 3.748 3.748 0 0 0 1.4-1.083l1.777-1.78 2.636-2.64c.222.216.437.439.66.653a2.963 2.963 0 0 0 3.745.53 7.585 7.585 0 0 0 1.319-1.189l2.4-2.4h14.376a38.371 38.371 0 0 0 5.613-.061 4.849 4.849 0 0 0 4.129-5.082v-32.89c0-1.491.029-2.985 0-4.476a4.4 4.4 0 0 0-2.971-4.175 12.871 12.871 0 0 0-4.245-.257c.014-1.769-.008-4.077-2.378-4.078-2.409 0-2.625 2.277-2.643 4.106h-4.9c0-1.871-.294-4.088-2.756-4.02C37.47.6 37.383 2.752 37.4 4.568h-4.947c0-1.763-.126-4.222-2.546-4.161-2.271.057-2.39 2.237-2.372 4.027h-5.041C22.5 2.666 22.441.4 20.073.439c-2.341.035-2.545 2.233-2.562 4.028H12.57c0-1.793-.082-3.973-2.481-3.951-2.374.021-2.627 2.109-2.654 3.926C5.452 4.407 3.382 4.291 1.8 5.71A5 5 0 0 0 .265 9.652v35.481a16 16 0 0 0 .068 2.743Zm15.829 3.31c-.527.381-1.377.886-1.381 1.607a.362.362 0 0 0 .02.077.373.373 0 0 0-.009.067l.073.582c.013.106.007.381.037.575l-.056-.007c-.274-.033-.55-.077-.825-.1a1.862 1.862 0 0 0-1.707.94c-.064.083-.17.19-.266.3l-.008-.009c-.377-.479-.74-1.148-1.4-1.234a2.959 2.959 0 0 0-.728.043 2.957 2.957 0 0 1-.872.107s0 0-.008 0a.074.074 0 0 0 .023-.052c.007-.06.01-.125.015-.186.025-.294.072-.588.107-.881a1.633 1.633 0 0 0-.008-.736 1.521 1.521 0 0 0-.589-.648c-.223-.174-.462-.338-.674-.526-.025-.023-.128-.1-.124-.1a.725.725 0 0 1-.036-.115.508.508 0 0 1 .041-.042A7.59 7.59 0 0 0 9.025 49.8c.341-.478.118-1.226.052-1.765v-.1c.183.017.378.018.526.037a1.815 1.815 0 0 0 1.8-.54c.176-.208.337-.431.5-.645l.008-.009c.094.109.206.217.261.288.138.177.268.369.417.538.521.588 1.263.4 1.944.316a1.945 1.945 0 0 1 .4-.05.227.227 0 0 0 .056 0h.008a.121.121 0 0 0-.051.083 6.1 6.1 0 0 0-.1.765 3.453 3.453 0 0 0-.067.791 1.208 1.208 0 0 0 .569.8 9.869 9.869 0 0 1 .782.61c.085.081.083.051.113.175v.008a.913.913 0 0 1-.081.084Zm-5.947-4.236c-.1.144-.077.07 0 0Zm.061-.042a.166.166 0 0 1 .212.035.429.429 0 0 0-.212-.035Zm1.488-.372a.4.4 0 0 0 .076.15c-.032-.019-.06-.057-.076-.15Zm6.349 4.006h-.48a.826.826 0 0 0-.094-.2 3.449 3.449 0 0 0-.658-.552c-.145-.114-.511-.3-.6-.47s.022-.523.044-.7a3.129 3.129 0 0 0 .012-1.164l2.325-2.325c1.14 1.136 2.334 2.232 3.456 3.355.582.581 1.159 1.169 1.737 1.754l-.3.3ZM24.5 55.3c-1.033 1.035-2.123 2.035-3.11 3.114-.022.025-.047.048-.071.071a.485.485 0 0 1-.144-.057 4.44 4.44 0 0 1-.647-.632c-.41-.41-1.444-1.125-.9-1.769.274-.322.608-.608.907-.906l1.792-1.792 2.3-2.3c.686.7 1.382 1.377 2.075 2.064Zm9.265-3.561-1.987 1.988c-.639.64-1.225 1.046-2.134.337a12.134 12.134 0 0 1-1.362-1.342c-.011-.014-.009-.03-.024-.044l-.642-.642-3.116-3.113c-1.971-1.972-3.966-3.923-5.915-5.917a2.674 2.674 0 0 1-.769-1.307l17.99 5.229 2.147.624Zm3.012-30 7.133 7.141-9.661-2.806-1.4-.407Zm.383-3.146a2.133 2.133 0 0 1 .542-.036l2.478-.166 8.746-.585 3.574-.24c.728-.048 1.67-.382 1.765.615q-.408 6.116-.818 12.23c-.1 1.457-.054 3.008-.3 4.45-.173 1.025-.76.55-1.207.1l-.13-.13-14.275-14.28c-.03-.03-.071-.036-.1-.059-.13-.142-.264-.282-.385-.429-.35-.418-.54-1.222.108-1.463Zm6.418 11.138 1.672.485 2.912 2.914c.679.693 1.347 1.457 2.061 2.145L48.8 36.7l-18.672-5.427-2.228-.648 4.214-4.225Zm2.175 7.134 2.233.648-4.246 4.248-18.451-5.356-2.458-.714 2.722-2.723 1.525-1.525ZM40.6 41.732l2.458.713-2.594 2.6-1.611 1.612-18.526-5.388-2.307-.669a2.192 2.192 0 0 1 .24-.334c.406-.466.884-.885 1.32-1.321l2.57-2.571Zm7.592-38.5a1.676 1.676 0 1 1 3.352 0v3.615a1.676 1.676 0 0 1-3.352 0Zm-10.013 0a1.676 1.676 0 1 1 3.351 0v3.615a1.676 1.676 0 0 1-3.351 0Zm-9.8 0a1.676 1.676 0 1 1 3.351 0v3.615a1.676 1.676 0 0 1-3.351 0Zm-10.044 0a1.676 1.676 0 1 1 3.351 0v3.615a1.676 1.676 0 0 1-3.351 0Zm-10.013 0a1.676 1.676 0 1 1 3.351 0v3.615a1.676 1.676 0 0 1-3.351 0Zm-6.587 5.72a3.334 3.334 0 0 1 3.309-3.4c.793-.029 1.591-.012 2.386 0 0 1.8.084 3.938 2.481 3.938 2.387-.24 2.63-2.054 2.654-3.951h4.941c-.01 1.784.036 4.028 2.421 4.028 2.332-.235 2.543-2.15 2.562-3.995h5.06c.009 1.781.182 4.027 2.544 4.027 2.335-.236 2.394-2.314 2.37-4.161h4.95c0 1.846.288 3.855 2.511 4a.647.647 0 0 0 .245.028c2.363-.239 2.447-2.173 2.427-4.02h4.891c-.015 1.772-.006 4.106 2.378 4.106 2.408-.242 2.625-2.172 2.643-4.095a20.959 20.959 0 0 1 2.57.027 3.688 3.688 0 0 1 3.193 3.67c.042 1.122.01 2.251 0 3.375H1.735v-1.6c0-.659-.022-1.321 0-1.977Zm0 36.14V13.474h56.536v31.683c0 1.51.194 3.184-.923 4.39-1.349 1.456-4 .986-5.788.986H36.544l2.433-2.433 12.08-12.086c.027.021.052.047.079.068a2.22 2.22 0 0 0 3.471-1.357c.07-.488.067-1 .1-1.49l1.02-15.262c0-.03-.013-.048-.016-.074s.012-.032.011-.05c-.116-2-3.619-1.19-4.876-1.106l-8.6.576c-1.645.11-3.316.144-4.955.331-1.479.17-2.727 1.7-1.578 3.025.084.1.18.189.272.283L25.4 31.552l-6.71 6.714a9.708 9.708 0 0 0-2.224 2.64.332.332 0 0 0-.074.2 2.141 2.141 0 0 0 .535 2.19c.3.353.628.694.952 1.034l-2.464 2.464a3.585 3.585 0 0 0-.752.04 4.7 4.7 0 0 1-.774.1.062.062 0 0 1-.009-.029c-.015-.1-.2-.262-.263-.338-.173-.224-.338-.463-.525-.677a1.466 1.466 0 0 0-2.272.288c-.188.24-.405.474-.571.73a.609.609 0 0 1-.069 0c-.778-.1-1.719-.346-2.319.338-.461.526-.21 1.336-.134 1.964a1.239 1.239 0 0 1 .023.212.652.652 0 0 1-.1.091c-.266.2-.53.407-.789.616a1.853 1.853 0 0 0-.323.337 6.857 6.857 0 0 1-2.452-.191 3.617 3.617 0 0 1-2.352-3.34c-.023-.615.001-1.235.001-1.843Z" fill="#262626"/><path d="M13.754 55.1c-.015.016-.03.032-.04.045l-.035.045a.129.129 0 0 0 .2-.079l-.06-.008a.536.536 0 0 0-.065-.003Z" fill="#262626"/></svg>