<svg xmlns="http://www.w3.org/2000/svg" id="Icons" viewBox="0 0 60 60" width="512" height="512"><defs><style>.cls-1{fill:#32b9b0}.cls-2{fill:#fff}.cls-3{fill:#262626}</style></defs><path class="cls-1" d="M26.481 49.476a.5.5 0 0 1-.25-.933L58.72 29.786a.5.5 0 0 1 .522.852L46.436 38.95l12.284-7.092a.5.5 0 0 1 .526.849L47.38 40.593l11.34-6.547a.5.5 0 0 1 .526.85l-8.429 5.59 7.9-4.562a.5.5 0 0 1 .533.845l-7.92 5.452 7.39-4.267a.5.5 0 0 1 .531.847l-4.234 2.874 3.7-2.138a.5.5 0 0 1 .533.845l-2.58 1.772 2.047-1.181a.5.5 0 0 1 .541.84l-2.167 1.546 1.626-.938a.5.5 0 0 1 .586.8L56.026 46.2l2.558-1.476a.5.5 0 0 1 .6.792l-1.357 1.315a.5.5 0 0 1 .12.916l-2.683 1.549a.5.5 0 0 1-.6-.792l.925-.9-3.115 1.8a.5.5 0 0 1-.586-.8l3.278-2.973-6.541 3.769a.5.5 0 0 1-.541-.84l2.167-1.546-4.136 2.386a.5.5 0 0 1-.533-.844l2.587-1.778-4.542 2.622a.5.5 0 0 1-.531-.846l4.228-2.87-6.439 3.717a.5.5 0 0 1-.533-.844l7.921-5.452-10.906 6.3a.5.5 0 0 1-.526-.849l8.428-5.59-11.156 6.44a.5.5 0 0 1-.526-.848l11.871-7.89-15.137 8.74a.5.5 0 0 1-.522-.851l12.809-8.315-15.877 9.166a.5.5 0 0 1-.25.068Z"/><path class="cls-1" d="M12.981 59.458a.5.5 0 0 1-.3-.9l.619-.458-1.635.943a.5.5 0 0 1-.525-.85l.463-.306-.766.442a.5.5 0 0 1-.512-.858l16.616-10.2L10.3 56.886a.5.5 0 0 1-.508-.862l.409-.245a.5.5 0 0 1-.43-.9l14.317-8.743-13.818 7.977a.5.5 0 0 1-.508-.861l.8-.479-.294.169a.5.5 0 0 1-.513-.858L29.5 39.9 10.257 51.012a.5.5 0 0 1-.51-.86l11.714-7.126L10.25 49.5a.5.5 0 0 1-.508-.861l1.572-.946L8.35 49.4a.5.5 0 0 1-.509-.86l8.09-4.889L6 49.388a.5.5 0 0 1-.509-.861l12.027-7.28L4.18 48.945a.5.5 0 0 1-.508-.861l8.48-5.106-9.1 5.252a.5.5 0 0 1-.509-.86l15.108-9.148-15.53 8.967a.5.5 0 0 1-.509-.86l13.645-8.24L1.54 46.008a.5.5 0 0 1-.51-.86l21.147-12.877L1.28 44.335a.5.5 0 0 1-.507-.861l1.09-.652-.583.336a.5.5 0 0 1-.508-.858l9.009-5.414-8.5 4.908a.5.5 0 0 1-.509-.86l13.944-8.416L1.28 40.271a.5.5 0 0 1-.509-.861l19.614-11.917L1.28 38.522a.5.5 0 0 1-.509-.859l19.678-11.969L1.28 36.762a.5.5 0 0 1-.509-.862l15.768-9.553-15.259 8.81a.5.5 0 0 1-.511-.857l23.966-14.748L1.28 33.094a.5.5 0 0 1-.508-.862l5.447-3.277-4.939 2.851a.5.5 0 0 1-.509-.86L13 23.511 1.28 30.276a.5.5 0 0 1-.513-.857l18.907-11.706L1.28 28.332a.5.5 0 0 1-.515-.856L20.489 15.1 1.28 26.192a.5.5 0 0 1-.509-.859l3.25-1.978-2.741 1.583a.5.5 0 0 1-.515-.857l14.045-8.8-13.53 7.81a.5.5 0 0 1-.515-.857l11.487-7.209L1.28 21.359a.5.5 0 0 1-.511-.859l.469-.289a.5.5 0 0 1-.476-.876L11.154 12.7 1.28 18.4a.5.5 0 0 1-.513-.857l.585-.363-.072.041a.5.5 0 0 1-.525-.85l9.921-6.548L1.28 15.25a.5.5 0 0 1-.516-.85l.507-.322a.5.5 0 0 1-.51-.858l1.539-.991-1.018.587a.5.5 0 0 1-.54-.839L8.125 6.72 1.28 10.671a.5.5 0 0 1-.527-.849l.864-.576-.337.194a.5.5 0 0 1-.544-.84l3.309-2.4L1.28 7.791A.5.5 0 0 1 .7 6.98l3.345-2.892-2.694 1.555a.5.5 0 0 1-.612-.779l1.6-1.676a.522.522 0 0 1-.469-.25.5.5 0 0 1 .183-.682L4.738.706a.5.5 0 0 1 .612.778l-1.48 1.55L8.091.6a.5.5 0 0 1 .577.81L5.328 4.3 11.74.6a.5.5 0 0 1 .544.837L8.975 3.844 14.6.6a.5.5 0 0 1 .527.848l-.862.575L16.729.6a.5.5 0 0 1 .671.16.5.5 0 0 1-.13.678L9.885 6.694 20.444.6a.5.5 0 0 1 .52.853l-1.549.993L22.614.6a.5.5 0 0 1 .517.855l-.5.315L24.66.6a.5.5 0 0 1 .526.849L15.263 8 28.079.6a.5.5 0 0 1 .514.857l-.581.36L30.122.6a.5.5 0 0 1 .519.854L20.252 8.082 33.217.6a.5.5 0 0 1 .512.858l-.413.253L35.242.6a.5.5 0 0 1 .516.856L24.271 8.663 38.241.6a.5.5 0 0 1 .516.856l-14.05 8.8L41.44.6a.5.5 0 0 1 .51.859l-3.239 1.969L43.613.6a.5.5 0 0 1 .516.856l-19.72 12.37L47.318.6a.5.5 0 0 1 .514.857L28.921 13.164 50.687.6a.5.5 0 0 1 .509.859L38.959 8.9 53.336.6a.5.5 0 0 1 .508.861L48.41 4.729 55.188.816a.5.5 0 0 1 .511.859L31.726 16.426l25.286-14.6a.5.5 0 0 1 .509.861l-15.77 9.554L57.94 2.9a.5.5 0 0 1 .51.859L38.783 15.716 58.552 4.3a.5.5 0 0 1 .51.86l-19.6 11.908L58.72 5.953a.5.5 0 0 1 .509.86l-13.972 8.434L58.72 7.475a.5.5 0 0 1 .508.861l-9.009 5.414 8.5-4.908a.5.5 0 0 1 .507.861l-1.09.651.583-.335a.5.5 0 0 1 .509.859L38.1 23.748l20.62-11.907a.5.5 0 0 1 .509.86l-13.658 8.248 13.149-7.591a.5.5 0 0 1 .509.861L44.1 23.377l14.62-8.439a.5.5 0 0 1 .508.862l-8.458 5.093 7.95-4.59a.5.5 0 0 1 .509.86l-12.015 7.274 11.506-6.643a.5.5 0 0 1 .509.86l-8.094 4.892 7.585-4.379a.5.5 0 0 1 .508.861l-1.591.957 1.083-.625a.5.5 0 0 1 .509.86l-11.712 7.126 11.2-6.468a.5.5 0 0 1 .512.858L39.491 34.914l19.229-11.1a.5.5 0 0 1 .508.861l-.842.506.334-.193a.5.5 0 0 1 .51.86l-14.294 8.728 13.784-7.958a.5.5 0 0 1 .508.861l-.426.256a.5.5 0 0 1 .429.9L26.274 48.858a.5.5 0 0 1-.165.655l-5.005 3.3a.49.49 0 0 1 .1.113.5.5 0 0 1-.121.675l-5.106 3.766a.5.5 0 0 1-.232.569l-2.513 1.451a.494.494 0 0 1-.251.071Z"/><path class="cls-2" d="M18.6 41.5a.5.5 0 0 1-.286-.91l8.155-5.682L16.3 40.773a.5.5 0 0 1-.535-.843l8.245-5.712-7.418 4.282a.5.5 0 0 1-.543-.838l7.305-5.294-5.866 3.386a.5.5 0 0 1-.539-.841l2.882-2.044-1.067.616a.5.5 0 0 1-.553-.83l2.4-1.824a.512.512 0 0 1-.154-.166.5.5 0 0 1 .183-.683l4.537-2.62a.5.5 0 0 1 .553.83l-.644.491 3.527-2.037a.5.5 0 0 1 .539.841l-2.883 2.045 4.943-2.853a.5.5 0 0 1 .543.838l-7.3 5.293 9.59-5.537a.5.5 0 0 1 .535.844l-8.252 5.713 9.83-5.675a.5.5 0 0 1 .536.843l-8.157 5.683 9.4-5.426a.5.5 0 0 1 .528.848l-4.55 3.053 5.165-2.981a.5.5 0 0 1 .541.839L33.372 35.5l6.975-4.026a.5.5 0 0 1 .532.845l-2.507 1.716 2.74-1.582a.5.5 0 0 1 .542.839L38.568 35.5l3.292-1.9a.5.5 0 0 1 .549.834l-2.42 1.8 2.483-1.434a.5.5 0 0 1 .592.8l-2.972 2.8 3.061-1.766a.5.5 0 0 1 .638.748l-1.465 1.8 1.233-.711a.5.5 0 0 1 .73.57l-.289.994a.5.5 0 0 1 .217.932l-.756.436a.5.5 0 0 1-.731-.57l.252-.879-2.512 1.453a.5.5 0 0 1-.638-.748l1.465-1.8-4.418 2.551a.5.5 0 0 1-.593-.8l2.973-2.8-6.24 3.6a.5.5 0 0 1-.549-.834l2.42-1.8-4.567 2.636a.5.5 0 0 1-.542-.839l3.087-2.215-5.3 3.057a.5.5 0 0 1-.532-.846l2.505-1.714-4.44 2.563a.5.5 0 0 1-.541-.839l6.251-4.479-9.222 5.324a.5.5 0 0 1-.528-.848l4.554-3.058-6.769 3.909a.494.494 0 0 1-.246.073Z"/><path class="cls-2" d="M31.172 27.394a.5.5 0 0 1-.321-.883l3.964-3.322-6.839 3.949a.5.5 0 0 1-.53-.848l.214-.144-1.006.581a.5.5 0 0 1-.539-.841l4.675-3.306-5.778 3.336a.5.5 0 0 1-.529-.848l2.64-1.769-3.188 1.841a.5.5 0 0 1-.53-.848l3.929-2.648-4.407 2.544a.5.5 0 0 1-.525-.851l1.891-1.237-2.1 1.211a.5.5 0 0 1-.537-.842l6.92-4.843-7.274 4.2a.5.5 0 0 1-.528-.848l3.377-2.247-3.339 1.926a.5.5 0 0 1-.542-.839l7.3-5.24-7.2 4.157a.5.5 0 0 1-.524-.85l.659-.434-.221.127a.5.5 0 0 1-.551-.832l6.311-4.754-5.5 3.176a.5.5 0 0 1-.544-.844l2.349-1.68-1.182.681a.5.5 0 0 1-.581-.807l2.644-2.332a.5.5 0 0 1-.248-.933l3.827-2.209a.5.5 0 0 1 .581.808l-2.387 2.1 5.728-3.302a.5.5 0 0 1 .541.839l-2.351 1.683 3.714-2.144a.5.5 0 0 1 .551.832l-6.312 4.755 7.98-4.607a.5.5 0 0 1 .525.85l-.667.44 1.1-.637a.5.5 0 0 1 .542.839l-7.3 5.237 8.193-4.73a.5.5 0 0 1 .527.848L34.4 13.107l3.625-2.092a.5.5 0 0 1 .538.841l-6.92 4.844 7.219-4.168a.5.5 0 0 1 .525.851l-1.907 1.249 1.786-1.03a.5.5 0 0 1 .529.847l-3.923 2.645 3.717-2.146a.5.5 0 0 1 .528.848l-2.637 1.767 2.228-1.286a.5.5 0 0 1 .539.841l-4.674 3.305L39.6 18.1a.5.5 0 0 1 .529.847l-.657.444a.483.483 0 0 1 .477.209.5.5 0 0 1-.089.669L35.9 23.59l1.846-1.067a.5.5 0 0 1 .5.866l-6.82 3.937a.493.493 0 0 1-.254.068Z"/><path class="cls-3" d="M54.056.444h-40.5C8.375.326-.264-.639.264 6.956v36.009c-.618 5.517 4.455 7.1 9 6.591-1.488 19.424 9.374 5.444 16.982.009 7.606.057 15.3-.057 22.941-.009 6.921.706 11.417-1.087 10.548-8.849-.03-11.437.075-22.876 0-34.313a5.641 5.641 0 0 0-5.679-5.95Zm4.208 43.466c.038 3.6-3.26 4.992-6.422 4.533-8.589.018-17.209-.026-25.782 0-4.532 2.754-8.268 7.108-12.773 9.948-4.348.14-2.008-6.734-2.552-9.439 0-.381-.347-.509-.678-.509-1.875 0-4.33.4-6.025-.558-4.11-2.928-1.667-9.042-2.3-13.344V8.767c-.3-3.115.31-7.132 4.214-7.21 14.493-.019 28.991.012 43.486 0 3.527-.406 8.767-.226 8.828 4.492-.06 12.619.14 25.244.004 37.861Z"/><path class="cls-3" d="M50.468 40.7h-5.752a14.431 14.431 0 0 0-11.5-13.828c9.554-2.777 10-16.825.308-19.787-13.339-4.1-20.472 15.571-6.741 19.9A14.669 14.669 0 0 0 15.3 40.7h-4.832c-.318 0-1.643.606-.936.606h5.833a1 1 0 0 0 1.027 0h26.977a1 1 0 0 0 1.029 0h5.134c.318-.006 1.643-.606.936-.606ZM22.822 22.909C13.405 8.543 37.662-.14 39.272 17.122c.142 8.789-11.092 12.861-16.45 5.787Zm7.254 4.534A13.773 13.773 0 0 1 43.25 40.7H16.74c.203-7.185 5.928-13.435 13.336-13.257Z"/></svg>