<svg xmlns="http://www.w3.org/2000/svg" viewBox="0 0 60 60" width="512" height="512"><path d="M2.233 18.472a.5.5 0 0 1-.283-.912l5.064-3.471-5.827 3.363a.5.5 0 0 1-.534-.845L7.077 12.2l-4.3 2.486a.5.5 0 0 1-.526-.85l2.021-1.34-.075.042a.5.5 0 0 1-.537-.842l4.653-3.267-4.956 2.861a.5.5 0 0 1-.525-.85l.476-.314-.611.353a.5.5 0 0 1-.628-.761l1.537-1.769-2.02 1.166a.5.5 0 0 1-.7-.649l.253-.527a.5.5 0 0 1-.462-.885l1.362-.786a.5.5 0 0 1 .7.649l-.251.523 3.2-1.848a.5.5 0 0 1 .628.761L4.782 8.121 17.421.824a.5.5 0 0 1 .525.85l-.468.309.2-.114a.5.5 0 0 1 .537.842l-4.66 3.266 4.129-2.384a.5.5 0 0 1 .526.849l-2.025 1.344 1.505-.869a.5.5 0 0 1 .534.845L11.8 10.17l5.9-3.4a.5.5 0 0 1 .533.844l-5.069 3.476 4.544-2.623a.5.5 0 0 1 .538.842L14.418 12l3.3-1.9a.5.5 0 0 1 .536.842l-1 .7.473-.273a.5.5 0 0 1 .57.818l-2.92 2.429 2.358-1.361a.5.5 0 0 1 .631.757l-1.772 2.084 1.152-.665a.5.5 0 0 1 .7.657l-.388.77a.5.5 0 0 1 .2.93l-1.07.618a.5.5 0 0 1-.7-.657l.31-.615-2.215 1.266a.5.5 0 0 1-.631-.757l1.773-2.083-4.92 2.84a.5.5 0 0 1-.571-.817l2.921-2.431L7.527 18.4a.5.5 0 0 1-.536-.842l1-.7L5.324 18.4a.5.5 0 0 1-.538-.841l3.831-2.7L2.483 18.4a.5.5 0 0 1-.25.072Z" fill="#e69b45"/><path d="M6.236 5.744a.5.5 0 0 1-.384-.819L7.13 3.382l-.025.018a.5.5 0 0 1-.655-.73l.527-.729a.49.49 0 0 1-.141-.155.5.5 0 0 1 .184-.686L8.078.492a.5.5 0 0 1 .655.727l-.1.141.41-.236a.5.5 0 0 1 .635.752L8.4 3.419 10.339 2.3a.5.5 0 0 1 .5.865L6.486 5.677a.489.489 0 0 1-.25.067Zm44.083-3.328a.5.5 0 0 1-.25-.933l1.692-.976a.5.5 0 0 1 .5.865l-1.692.977a.494.494 0 0 1-.25.067Z" fill="#e69b45"/><path d="M43.07 18.5a.5.5 0 0 1-.275-.918l1.78-1.172-2.293 1.323a.5.5 0 0 1-.524-.85l1.62-1.065-1.093.63a.5.5 0 0 1-.541-.839l5.283-3.789-4.736 2.735a.5.5 0 0 1-.546-.836l4.428-3.248-3.873 2.236a.5.5 0 0 1-.554-.83l5.1-3.89-4.546 2.62a.5.5 0 0 1-.538-.841L43.6 8.478l-1.289.744a.5.5 0 0 1-.588-.8l2.154-1.973-1.561.9a.5.5 0 0 1-.614-.777l1.63-1.725-1.012.584a.5.5 0 0 1-.663-.715l1.078-1.586-.414.238a.5.5 0 0 1-.678-.689l.367-.616a.5.5 0 0 1-.075-.9l1.05-.606a.5.5 0 0 1 .679.689l-.176.295.647-.373a.5.5 0 0 1 .663.715l-1.083 1.586 2.075-1.2a.5.5 0 0 1 .613.776l-1.631 1.728L47.331 3.3a.5.5 0 0 1 .588.8l-2.153 1.97 7-4.039a.5.5 0 0 1 .538.842L51.47 4.16l1.621-.935a.5.5 0 0 1 .554.83l-5.1 3.887 5.04-2.91a.5.5 0 0 1 .546.836l-4.424 3.248 5.6-3.236a.5.5 0 0 1 .542.839l-5.291 3.794 7.245-4.182a.5.5 0 0 1 .524.851l-1.612 1.063 2.065-1.192a.5.5 0 0 1 .526.85L57.519 9.08l.424-.245a.5.5 0 0 1 .536.843l-2.811 1.956.065-.037a.5.5 0 0 1 .542.839l-.111.08.132-.077a.5.5 0 0 1 .612.778l-2.473 2.6L57.4 14.1a.5.5 0 0 1 .59.8l-.463.431.5-.289a.5.5 0 0 1 .723.6l-.426 1.233.517-.3a.5.5 0 0 1 .5.866l-1.676.967a.5.5 0 0 1-.723-.595l.426-1.234-3.18 1.835a.5.5 0 0 1-.589-.8l.462-.429-2.137 1.233a.5.5 0 0 1-.613-.777l2.474-2.6-5.855 3.38a.5.5 0 0 1-.542-.839l.109-.078-1.6.921a.5.5 0 0 1-.535-.843l2.818-1.962-4.867 2.81a.494.494 0 0 1-.243.07Z" fill="#e69b45"/><path d="M49.029 52.889a.5.5 0 0 1-.369-.837l1.065-1.167-1.667.962a.5.5 0 0 1-.628-.761l1.431-1.649-2.217 1.28a.5.5 0 0 1-.634-.753l1.774-2.13-2.753 1.589a.5.5 0 0 1-.6-.791l1.388-1.353-2.01 1.161a.5.5 0 0 1-.609-.781l1.878-1.93-2.7 1.561a.5.5 0 0 1-.612-.777L44 44.171l-3.213 1.854a.5.5 0 0 1-.589-.8l1.917-1.764-2.644 1.526a.5.5 0 0 1-.587-.8L41 42.254l-2.888 1.667a.5.5 0 0 1-.6-.793l2.754-2.653-.025.013a.5.5 0 1 1-.5-.865l3.566-2.058a.5.5 0 0 1 .6.793l-2.751 2.651 3.358-1.939a.5.5 0 0 1 .587.8l-2.125 1.934 2.549-1.471a.5.5 0 0 1 .589.8L44.2 42.9l2.308-1.332a.5.5 0 0 1 .612.778l-2.233 2.342 2.813-1.627a.5.5 0 0 1 .608.781l-1.876 1.929 2.355-1.36a.5.5 0 0 1 .6.791L48 46.555l1.715-.991a.5.5 0 0 1 .634.753l-1.775 2.13 2.367-1.366a.5.5 0 0 1 .628.761l-1.43 1.648 1.879-1.084a.5.5 0 0 1 .619.77l-2.279 2.5a.5.5 0 0 1-.2.642l-.875.5a.49.49 0 0 1-.254.071Z" fill="#c7af3e"/><path d="M34.774 42.327a.5.5 0 0 1-.337-.869l.536-.488-.786.453a.5.5 0 0 1-.575-.814l3.416-2.9L32.87 40.1a.5.5 0 0 1-.577-.81l3.562-3.078-4.355 2.52a.5.5 0 0 1-.548-.834l1.109-.823-1.407.812a.5.5 0 0 1-.555-.828l2.034-1.571-2.458 1.419a.5.5 0 0 1-.562-.823l2.607-2.078-3.137 1.81a.5.5 0 0 1-.551-.832l1.508-1.136-1.854 1.07a.5.5 0 0 1-.561-.824l2.524-2-3.037 1.753a.5.5 0 0 1-.558-.826l2.332-1.829-2.808 1.621a.5.5 0 0 1-.549-.834l1.2-.889-1.5.866a.5.5 0 0 1-.561-.824l2.532-2.017-3.053 1.763a.5.5 0 0 1-.571-.817l3.182-2.648-3.858 2.224a.5.5 0 0 1-.553-.829l1.876-1.439-2.276 1.314a.5.5 0 0 1-.55-.833l1.367-1.025-1.7.979a.5.5 0 0 1-.549-.833l1.354-1.015-1.683.971a.5.5 0 0 1-.556-.828l2.123-1.647-2.553 1.479a.5.5 0 0 1-.563-.823l2.73-2.2-3.288 1.9a.5.5 0 0 1-.57-.818l3.172-2.639-3.841 2.217a.5.5 0 0 1-.576-.811l3.494-3-4.268 2.464a.5.5 0 0 1-.552-.831l1.675-1.273-2.051 1.183a.5.5 0 0 1-.542-.838l.328-.237-.484.278a.5.5 0 0 1-.546-.836l.73-.536-.67.387a.5.5 0 0 1-.562-.824l2.207-1.759-1.875 1.082a.5.5 0 0 1-.6-.787l2.462-2.455-2.046 1.181a.5.5 0 0 1-.628-.76l.928-1.072-.444.256a.5.5 0 0 1-.671-.7l.3-.478a.5.5 0 0 1-.1-.908l1.179-.681a.5.5 0 0 1 .671.7l-.112.175 1.238-.715a.5.5 0 0 1 .628.76l-.928 1.072L17.314 12a.5.5 0 0 1 .6.787l-2.463 2.455 4.354-2.512a.5.5 0 0 1 .561.823l-2.205 1.759 2.739-1.583a.5.5 0 0 1 .546.836l-.733.539.991-.572a.5.5 0 0 1 .543.838l-.325.235.544-.313a.5.5 0 0 1 .552.831l-1.67 1.277 2.045-1.181a.5.5 0 0 1 .576.811l-3.493 3 4.267-2.463a.5.5 0 0 1 .57.817l-3.172 2.64 3.843-2.224a.5.5 0 0 1 .564.822l-2.732 2.2 3.29-1.9a.5.5 0 0 1 .557.828l-2.118 1.643 2.555-1.478a.5.5 0 0 1 .549.833L27.3 22.765l1.685-.973a.5.5 0 0 1 .55.833l-1.369 1.026 1.7-.98a.5.5 0 0 1 .554.829l-1.877 1.438 2.278-1.314a.5.5 0 0 1 .571.817l-3.182 2.648 3.855-2.225a.5.5 0 0 1 .56.824L30.081 27.7l3.057-1.764a.5.5 0 0 1 .549.834l-1.193.888 1.5-.866a.5.5 0 0 1 .559.826l-2.33 1.827 2.806-1.62a.5.5 0 0 1 .561.824l-2.523 2L36.1 28.9a.5.5 0 0 1 .551.832l-1.509 1.138L37 29.8a.5.5 0 0 1 .561.823l-2.6 2.076 3.139-1.81a.5.5 0 0 1 .555.828l-2.042 1.573 2.464-1.422a.5.5 0 0 1 .548.834l-1.111.825 1.41-.813a.5.5 0 0 1 .577.81L36.94 36.6l4.36-2.515a.5.5 0 0 1 .574.813l-3.418 2.907.009-.005a.5.5 0 0 1 .587.8l-2.925 2.67a.5.5 0 0 1-.246.5l-.857.494a.491.491 0 0 1-.25.063Z" fill="#bfdbf0"/><path d="M54.149 59.412a.5.5 0 0 1-.352-.854l2.043-2.033-3.927 2.267a.5.5 0 0 1-.575-.813L54.2 55.53l-3.671 2.119a.5.5 0 0 1-.557-.826l2.1-1.64-2.3 1.329a.5.5 0 0 1-.58-.81l3.262-2.849-3.1 1.79a.5.5 0 0 1-.563-.824l1.01-.806-.288.166a.5.5 0 0 1-.6-.791l1.284-1.247a.494.494 0 0 1-.259-.219.5.5 0 0 1 .182-.683l2.536-1.465a.5.5 0 0 1 .6.791l-.757.735 2.544-1.468a.5.5 0 0 1 .563.823l-1.01.807 1.8-1.036a.5.5 0 0 1 .579.809l-3.26 2.849 4.054-2.341a.5.5 0 0 1 .557.826l-2.1 1.643 2.174-1.255a.5.5 0 0 1 .575.813L56.1 55.219l2.559-1.478a.5.5 0 0 1 .6.787l-2.036 2.032.721-.416a.5.5 0 1 1 .5.865L54.4 59.345a.489.489 0 0 1-.251.067Zm-22.824-9.743a.5.5 0 0 1-.325-.878l.712-.616-.349.2a.5.5 0 0 1-.557-.826l3.842-3-3.593 2.071a.5.5 0 0 1-.539-.841l5.521-3.917-3.926 2.266a.5.5 0 0 1-.524-.851l3.25-2.134a.5.5 0 0 1-.205-.914l2.925-1.916a.49.49 0 0 1-.268-.206.5.5 0 0 1 .133-.677l4.209-2.97a.5.5 0 0 1-.463-.212.5.5 0 0 1 .093-.671l3.686-3.045a.51.51 0 0 1-.469-.147.5.5 0 0 1-.051-.62l1.253-1.871-.1.056a.5.5 0 1 1-.5-.865l1.959-1.131a.5.5 0 0 1 .666.711l-1.253 1.871 3.059-1.765a.5.5 0 0 1 .568.819l-3.571 2.95 3.765-2.174a.5.5 0 0 1 .539.841L46.993 31.9l3.033-1.751a.5.5 0 0 1 .524.851l-2.35 1.542a.5.5 0 0 1 .173.907l-3.262 2.141a.5.5 0 0 1 .22.9l-5.52 3.917.528-.3a.5.5 0 0 1 .557.827l-4.736 3.7a.5.5 0 0 1 .183.856l-3.052 2.64a.5.5 0 0 1-.218.608l-1.5.865a.5.5 0 0 1-.248.066Zm-20.817 3.1a.5.5 0 0 1-.3-.9l2.324-1.735-2.761 1.593a.5.5 0 0 1-.534-.844l2.268-1.57-2.636 1.521A.5.5 0 0 1 8.322 50l5.04-3.714-5.5 3.176a.5.5 0 0 1-.548-.835l5.206-3.853-1.688.974a.5.5 0 0 1-.581-.807l3.837-3.4a.51.51 0 0 1-.477-.179.5.5 0 0 1 .021-.651l2.054-2.245a.5.5 0 0 1 .233-.564l.662-.381a.5.5 0 0 1 .619.771l-.644.7 1.21-.7a.5.5 0 0 1 .581.806l-3.728 3.3 5.006-2.889a.5.5 0 0 1 .548.835l-5.2 3.85 5.657-3.265a.5.5 0 0 1 .547.834l-5.037 3.711 5.43-3.134a.5.5 0 0 1 .535.843l-2.559 1.772a.515.515 0 0 1 .507.217.5.5 0 0 1-.119.675l-6.675 4.985a.5.5 0 0 1-.235.554L10.758 52.7a.493.493 0 0 1-.25.069Z" fill="#e3c84c"/><path d="M24.43 41.861a.5.5 0 0 1-.317-.886l2.315-1.894-2.828 1.635a.5.5 0 0 1-.544-.837l4.916-3.573-5.572 3.216a.5.5 0 0 1-.524-.851L23.51 37.6l-1.929 1.113a.5.5 0 0 1-.524-.851l7.437-4.892-8.028 4.63a.5.5 0 0 1-.526-.849l13.052-8.608L19.05 36.2a.5.5 0 0 1-.523-.851l13.166-8.571L20.4 33.3a.5.5 0 0 1-.525-.85l13.815-9.122-7.852 4.533a.5.5 0 0 1-.531-.845L36.16 19.63l-4.96 2.861a.5.5 0 0 1-.542-.838l5.592-4.029-.433.249a.5.5 0 0 1-.571-.815l3.535-2.97a.191.191 0 0 1-.016-.027.5.5 0 0 1 .182-.683l2.217-1.278a.5.5 0 0 1 .571.815l-1.476 1.24 4.084-2.355a.5.5 0 0 1 .542.838l-5.594 4.031 8.133-4.695a.5.5 0 0 1 .531.845L37.1 20.2l10.53-6.079a.5.5 0 0 1 .525.85l-13.816 9.123 13.067-7.544a.5.5 0 0 1 .523.851l-13.168 8.572 12.3-7.1a.5.5 0 0 1 .526.85L34.54 28.325l8.314-4.8a.5.5 0 0 1 .525.851l-7.442 4.895 2.787-1.608a.5.5 0 0 1 .523.852l-3.221 2.1a.5.5 0 0 1 .228.9l-4.939 3.589a.5.5 0 0 1 .513.847l-4 3.269a.5.5 0 0 1-.089.8l-3.064 1.77a.491.491 0 0 1-.245.071Z" fill="#e1efff"/><path d="M6.457 59.412a.5.5 0 0 1-.355-.851l1.829-1.851-3.812 2.2a.5.5 0 0 1-.563-.822L5.414 56.6l-2.532 1.457a.5.5 0 0 1-.557-.828l1.912-1.483-2.184 1.261a.5.5 0 0 1-.566-.82l2.72-2.212-2.753 1.588a.5.5 0 0 1-.587-.8L3.792 52.1 1.4 53.475a.5.5 0 0 1-.6-.782l1.488-1.526a.5.5 0 0 1-.178-.928l2.537-1.465a.5.5 0 0 1 .608.782L4.038 50.8 7.3 48.918a.5.5 0 0 1 .587.8l-2.929 2.668 4.178-2.411a.5.5 0 0 1 .565.82l-2.72 2.212 3.107-1.793a.5.5 0 0 1 .557.828l-1.913 1.482 1.813-1.045a.5.5 0 0 1 .563.822l-1.856 1.492 1.4-.808a.5.5 0 0 1 .606.785l-1.829 1.848.278-.16a.5.5 0 1 1 .5.865l-3.5 2.022a.489.489 0 0 1-.25.067Zm24.625-8.365a.5.5 0 0 1-.369-.837l.409-.449-1.542.89a.5.5 0 0 1-.632-.11.5.5 0 0 1 0-.642l1.874-2.254-2.843 1.641a.5.5 0 0 1-.617-.772l1.486-1.6-2.06 1.186a.5.5 0 0 1-.668-.707l1.06-1.618-1.722.995a.5.5 0 0 1-.655-.725l.978-1.359-1.526.88a.5.5 0 0 1-.666-.71l1.046-1.563-1.683.971a.5.5 0 0 1-.645-.739l.882-1.142-1.343.775a.5.5 0 0 1-.67-.7l1.067-1.658-1.749 1.01a.5.5 0 0 1-.655-.726l.97-1.338-1.508.87a.5.5 0 0 1-.633-.754l.721-.862-1.078.622a.5.5 0 0 1-.665-.712l1.036-1.539-1.662.96a.5.5 0 0 1-.624-.766l.561-.628-.845.487a.5.5 0 0 1-.669-.706L16.5 35.1l-1.721.993a.5.5 0 0 1-.679-.693l1.089-1.79-1.836 1.06a.5.5 0 0 1-.672-.7l1.075-1.71-1.782 1.029a.5.5 0 0 1-.639-.747l1.765-2.179-2.567 1.482a.5.5 0 0 1-.608-.782l1.613-1.654-1.767 1.02a.5.5 0 0 1-.662-.715l1.229-1.794-.063.035a.5.5 0 0 1-.5-.865l1.968-1.136a.5.5 0 0 1 .662.715l-1.227 1.794 3-1.731a.5.5 0 0 1 .608.782l-1.613 1.654 1.764-1.018a.5.5 0 0 1 .638.747l-1.761 2.177 1.2-.69a.5.5 0 0 1 .673.7l-1.077 1.71 1.785-1.029a.5.5 0 0 1 .676.692l-1.09 1.79 1.838-1.06a.5.5 0 0 1 .669.706l-1.062 1.617 1.721-.993a.5.5 0 0 1 .624.765l-.56.628.844-.487a.5.5 0 0 1 .665.712l-1.037 1.54 1.665-.961a.5.5 0 0 1 .632.754l-.719.857 1.078-.622a.5.5 0 0 1 .655.726l-.97 1.338 1.509-.871a.5.5 0 0 1 .67.7l-1.067 1.657 1.75-1.01a.5.5 0 0 1 .645.738l-.883 1.144 1.345-.776a.5.5 0 0 1 .615.09.5.5 0 0 1 .051.62l-1.046 1.563 1.684-.972a.5.5 0 0 1 .655.725l-.977 1.358 1.526-.881a.5.5 0 0 1 .668.707l-1.061 1.618 3.106-1.792a.5.5 0 0 1 .616.772l-1.485 1.6 2.4-1.384a.5.5 0 0 1 .635.752l-1.88 2.262 1.916-1.107a.5.5 0 0 1 .619.77l-.825.9a.494.494 0 0 1 .252.216.5.5 0 0 1-.183.683l-1.95 1.126a.49.49 0 0 1-.247.072Z" fill="#fde05e"/><path d="M55.663 48.8a6.151 6.151 0 0 0-2.557-.04l-2.8-3.5-5.069-6.334-1.057-1.317 5.559-5.56c1.162-1.162 2.17-2.553 1.326-4.279-1.366-2.8-6.12-2.133-6.995.739a3.316 3.316 0 0 0-.137 1.038 1.979 1.979 0 0 0 .1.689c-.006-.015.172.388.237.4-.037.06-.149.129-.178.176a7.968 7.968 0 0 1-1.207 1.208l-1.409 1.41-3.5-3.5 7.395-7.395c1.186-1.186 2.612-2.259 2.876-4.016l.429-4.721c.158-1.732-.8-2.455-2.47-2.3-1.571.143-3.155.237-4.72.43a4.933 4.933 0 0 0-2.964 1.637l-8.473 8.473-5.725-5.725c-1.012-1.011-2.016-2.03-3.034-3.034A5.287 5.287 0 0 0 17.639 12l-2.877-.263a6.412 6.412 0 0 0-1.844-.051 1.8 1.8 0 0 0-1.634 1.828c.034.74.136 1.483.2 2.221.151 1.646 0 3.666 1.2 4.954.717.772 1.495 1.495 2.24 2.24l7.115 7.115-3.266 3.267-2.034-2.034c-.2-.2-.939-.714-1-1 .043.207.182-.171.219-.243a2.425 2.425 0 0 0 .1-1.27 3.392 3.392 0 0 0-1.526-2.411c-3.024-1.94-7.539 1.539-5.374 4.849a17.921 17.921 0 0 0 2.461 2.558l4.146 4.147-2.654 3.316a.984.984 0 0 0-.155.088.568.568 0 0 0-.234.4l-3 3.755a.62.62 0 0 0-.119.147l-1.71 2.137-.815 1.018a6.237 6.237 0 0 0-1.678.022 5.842 5.842 0 0 0-4.991 4.233 5.137 5.137 0 0 0 2.422 5.567 6.394 6.394 0 0 0 7.352-1.105 5.233 5.233 0 0 0 1.358-4.905l3.259-2.611a1.138 1.138 0 0 0 .2-.158l3.392-2.711a1.077 1.077 0 0 0 .418-.181.59.59 0 0 0 .213-.324L21.39 44.7l.646-.517.511.511 4.708 4.706a12.765 12.765 0 0 0 .974.944 4.01 4.01 0 0 0 5.206-.385.544.544 0 0 0 .155-.2 3.716 3.716 0 0 0 .825-2.382l3.239-3.24 3.384 2.707a.3.3 0 0 0 .063.051l3.856 3.085a.341.341 0 0 0 .128.1l2.015 1.614 1.385 1.106a5.232 5.232 0 0 0 1.312 5 5.915 5.915 0 0 0 6.473 1.025 5.5 5.5 0 0 0 3.443-5.359 5.244 5.244 0 0 0-4.05-4.666Zm-13.137-2.383 3.845-3.846 2.489 3.111-3.224 3.224Zm-11.808-2.224a4.684 4.684 0 0 0-.929.137l-3.1-3.1 3.251-3.25q1.749 1.751 3.5 3.5Zm2.758-9.758 3.085 3.084.316.317-2.362 2.364-.2.2-3.4-3.4Zm6.921-.119-2.561 2.561-3.107-3.106-.294-.3L37 30.915l3.4 3.401ZM38.2 15.585c.6-.6 1.177-1.234 1.8-1.8a4.553 4.553 0 0 1 2.974-.877l2.946-.268a2.562 2.562 0 0 1 .775-.07c.767.254.532.715.52 1.179-.043 1.62-.3 3.259-.444 4.874-.206 1.378-1.534 2.358-2.471 3.3l-4.915 4.915-11.536 11.53-2.006 2-2.812-2.812 17.177-17.177 2.464-2.464c.283-.282-1.062-.122-1.308.123L24.051 35.357l-1.612 1.612-2.812-2.812L30.985 22.8Zm-20.384 8.344-3.258-3.258c-.173-.173-.354-.342-.522-.521a3.619 3.619 0 0 1-.872-2.33c-.142-1.544-.427-3.14-.431-4.691a1.062 1.062 0 0 1 .015-.27c.021-.132.257-.578.06-.5a2.288 2.288 0 0 1 .707.065l2.722.25c1.348.124 2.61.079 3.644 1.092.88.862 1.743 1.742 2.614 2.614l6.605 6.608-2.569 2.569-6.831-6.828-1.058-1.058a.878.878 0 0 0-.977-.082c-.205.1-.611.444-.355.7l7.432 7.432.811.811-2.179 2.179-.39.39Zm-3.224 24.994-3.1-3.1-.359-.359 2.27-2.837 3.761 3.761.269.269ZM8.87 57.589a3.581 3.581 0 0 1-2.078 1.091 4.372 4.372 0 0 1-2.6-.587 4.96 4.96 0 0 1-2.443-4.815 4.486 4.486 0 0 1 3.19-3.909 3.84 3.84 0 0 1 1.8.108.685.685 0 0 0 .405.174h.081a5 5 0 0 1 2.379 2.071 4.935 4.935 0 0 1-.734 5.867Zm2.33-5.953c-.028-.058-.044-.118-.075-.175a5.065 5.065 0 0 0-2.873-2.408l2.017-2.52 2.944 2.944.3.3-1.879 1.513Zm7.328-5.864-3.923-3.923-.327-.326q.92-1.149 1.838-2.3l.428-.535 4.815 4.815Zm8.986 1.938-5.38-5.38-10.622-10.624a4.8 4.8 0 0 1-1.243-1.563c-.533-1.372.218-3.289 1.857-3.354 1.935-.077 2.9 2.132 2.241 3.716a.348.348 0 0 0 .022.376l3.641 3.64c.007.01.009.025.018.034l7.063 7.063c.013.013.029.015.042.027l1.8 1.8 1.814 1.814a.885.885 0 0 0 .977.084c2.6-1.087 4.076 2.468 2.495 4.242-1.819 1.625-3.532-.685-4.723-1.875Zm6.694-1.369a3.176 3.176 0 0 0-.491-.882 3.34 3.34 0 0 0-1.865-1.159l2.548-2.558a1.1 1.1 0 0 0 .429-.249l6.172-6.172.888-.888a.483.483 0 0 0 .128-.313l1.8-1.8 1.787-1.789a.169.169 0 0 0 .065-.153 2.936 2.936 0 0 1 .308-3.035c.925-1.161 2.474-.734 3.3.287a2.932 2.932 0 0 1-.233 3.873c-.906.98-1.9 1.895-2.838 2.838l-3.339 3.339a.8.8 0 0 0-.129.1l-5.651 5.65c-.014.014-.016.037-.026.055l-1.3 1.3Zm4.357-3.092 4.635-4.636 2.537 3.171-4 4-1.863-1.484Zm7.907 6.327 3.057-3.056 1.22 1.525.936 1.169a5.858 5.858 0 0 0-2.353 1.818 5.047 5.047 0 0 0-.343.559Zm9.947 8.354a4.088 4.088 0 0 1-5.271-.662 4.892 4.892 0 0 1-1.062-5.225 3.99 3.99 0 0 1 4-2.65 4.793 4.793 0 0 1 2.337 8.537Z" fill="#262626"/><path d="M17.276 8.194c0 .277 1.448.059 1.448-.388V2.949c0-.6.147-1.438-.34-1.9-.709-.667-1.883-.28-2.591.167-.757.479-1.494 1-2.24 1.494a8.612 8.612 0 0 1-1.025.683c-.34.159-.219.1-.615-.181-.735-.523-1.42-1.136-2.124-1.7A2.343 2.343 0 0 0 7.658.743a1.835 1.835 0 0 0-1.625 1.641c-.153.919-.285 1.845-.46 2.76a2.141 2.141 0 0 1-.309.831 3.606 3.606 0 0 1-1.076.18c-.8.134-1.633.223-2.427.414C.764 6.81-.166 7.648.544 8.681c.466.678 1.042 1.3 1.556 1.945.581.726 1.318 1.386.756 2.38-.4.708-.915 1.372-1.366 2.049-.373.56-1.221 1.433-1.19 2.165.042 1.073 1.15 1.1 1.949 1.1h5.444c.425 0 1.573-.632.614-.632H3.874c-.5 0-1.3.164-1.743-.113-.868-.543-.049-1.494.318-2.044l1.565-2.348a1.7 1.7 0 0 0 .186-2.142c-.412-.59-.908-1.135-1.357-1.7-.478-.6-1.215-1.2-1.056-2.017.057-.295-.154-.107.068-.235a1.342 1.342 0 0 1 .4-.067L3.7 6.785a8.372 8.372 0 0 0 2.212-.5c1.5-.71 1.328-2.981 1.6-4.387.012-.063.015-.131.033-.193a1.555 1.555 0 0 1 .126-.276l.073.039a4.5 4.5 0 0 0 .58.464c.707.566 1.405 1.146 2.122 1.7 1.5 1.152 3.015-.026 4.3-.883l1.346-.9a4.57 4.57 0 0 1 .8-.553c.03.187.361.62.31.511a1.247 1.247 0 0 1 .081.45c.021.27 0 .55 0 .82Zm40.602-1.952a22.694 22.694 0 0 1-2.706-.451c-.8-.239-.783-1.239-.9-1.925a13.692 13.692 0 0 0-.423-2.424C53.431.307 51.946.336 51.1.932c-.674.477-1.3 1.041-1.946 1.557-.591.473-.925.962-1.682.553-.821-.442-1.591-1.063-2.372-1.583-.76-.508-1.446-1.106-2.434-.866a1.815 1.815 0 0 0-1.4 2.029v5.445c0 .708 1.462.457 1.462-.134V3.574a7.7 7.7 0 0 1 0-1.62c.1-.417.169-.351.441-.238a6.614 6.614 0 0 1 .992.662c1.321.88 2.945 2.507 4.643 1.662a10.623 10.623 0 0 0 1.739-1.325l.98-.784c.107-.086.386-.411.526-.421.658-.045.826 3.4.985 3.962a2 2 0 0 0 1.856 1.335q1.291.217 2.585.43c.758.127.956.691.475 1.292l-1.65 2.062c-.528.661-1.082 1.341-.731 2.248a9.031 9.031 0 0 0 1.011 1.582c.493.739 1.056 1.465 1.493 2.24.133.236.3.742.08.851a2.8 2.8 0 0 1-.905 0h-4.987c-.308 0-.821.086-.948.428a.4.4 0 0 0 .426.548H56.6a5.252 5.252 0 0 0 2.1-.185 1.5 1.5 0 0 0 .715-2.257c-.474-.76-1-1.494-1.494-2.24-.424-.636-1.3-1.528-.831-2.333a17.617 17.617 0 0 1 1.557-1.945c.45-.562 1.187-1.225 1.082-2.013-.138-.966-1.057-1.141-1.851-1.273Z" fill="#262626"/></svg>