<svg height="512" viewBox="0 0 60 60" width="512" xmlns="http://www.w3.org/2000/svg"><path d="M11.359 59.47a.5.5 0 0 1-.257-.929l.96-.578L9.568 59.4a.5.5 0 0 1-.514-.857l24.332-15.154L5.647 59.4a.5.5 0 0 1-.506-.861l2.783-1.669-4 2.307a.5.5 0 0 1-.511-.86l22.519-13.791L2.354 58.139a.5.5 0 0 1-.508-.862l8.146-4.9-8.3 4.793a.5.5 0 0 1-.51-.86l23.339-14.259L1.282 55.467a.5.5 0 0 1-.511-.86l22.388-13.652-21.88 12.632a.5.5 0 0 1-.51-.859L25.016 37.9 1.279 51.6a.5.5 0 0 1-.508-.861L18.86 39.772 1.279 49.923a.5.5 0 0 1-.508-.861l10.454-6.29-9.947 5.743a.5.5 0 0 1-.512-.859l28.34-17.468L1.278 46.255a.5.5 0 0 1-.507-.861l12.392-7.469-11.885 6.861a.5.5 0 0 1-.509-.86l18.966-11.512L1.277 43.07a.5.5 0 0 1-.511-.858l25.02-15.367L1.277 40.994a.5.5 0 0 1-.511-.858l22.271-13.7L1.276 39a.5.5 0 0 1-.508-.86l7.493-4.528-6.985 4.034a.5.5 0 0 1-.509-.86l11.988-7.307L1.276 36.1a.5.5 0 0 1-.511-.858l13.07-8.018-12.559 7.255a.5.5 0 0 1-.51-.859l9.478-5.8-8.969 5.174a.5.5 0 0 1-.514-.856l14.6-9.11-14.086 8.13a.5.5 0 0 1-.511-.858L6.9 26.524l-5.625 3.249a.5.5 0 0 1-.512-.858l5.264-3.247-4.753 2.744a.5.5 0 0 1-.519-.853L13.6 19.337 1.274 26.449a.5.5 0 0 1-.515-.856L6 22.309l-4.726 2.728a.5.5 0 0 1-.525-.85l10.969-7.223-10.445 6.029a.5.5 0 0 1-.533-.845l10.553-7.235L1.273 20.7a.5.5 0 0 1-.529-.846l6.308-4.258-5.779 3.333a.5.5 0 0 1-.531-.846l4.145-2.817-3.615 2.086a.5.5 0 0 1-.534-.845l2.6-1.789-2.063 1.19a.5.5 0 0 1-.567-.818l4.374-3.6-3.807 2.2a.5.5 0 0 1-.553-.83l.672-.512-.12.068a.5.5 0 0 1-.578-.81l.633-.55-.055.031a.5.5 0 0 1-.684-.68l.681-1.2a.5.5 0 0 1-.189-.93L2.263 7.6a.5.5 0 0 1 .684.68L2.366 9.3l2.95-1.7a.5.5 0 0 1 .579.809l-.635.553L7.62 7.6a.5.5 0 0 1 .554.83l-.666.509L9.828 7.6a.5.5 0 0 1 .568.818l-4.375 3.6L13.672 7.6a.5.5 0 0 1 .534.844l-2.594 1.788L16.173 7.6a.5.5 0 0 1 .531.845l-4.146 2.82L18.906 7.6a.5.5 0 0 1 .53.846L13.13 12.7l8.841-5.1a.5.5 0 0 1 .533.844l-10.555 7.232 14-8.082a.5.5 0 0 1 .526.85l-10.966 7.221L29.49 7.593a.5.5 0 0 1 .516.856l-5.237 3.281 7.167-4.137a.5.5 0 0 1 .519.853l-12.844 8.225 15.727-9.079a.5.5 0 0 1 .513.858l-5.259 3.243 7.1-4.1a.5.5 0 0 1 .512.858l-6.151 3.782L40.1 7.592a.5.5 0 0 1 .514.856l-14.593 9.106 17.255-9.963a.5.5 0 0 1 .511.859l-9.473 5.8L45.85 7.591a.5.5 0 0 1 .511.858l-13.085 8.028L48.669 7.59a.5.5 0 0 1 .51.859l-12 7.312L51.337 7.59a.5.5 0 0 1 .509.86l-7.479 4.519 9.319-5.38a.5.5 0 0 1 .511.858l-22.27 13.7L57.139 7.589a.5.5 0 0 1 .511.858L32.634 23.813 58.72 8.752a.5.5 0 0 1 .509.86l-18.953 11.5L58.72 10.468a.5.5 0 0 1 .508.861L46.835 18.8l11.885-6.863a.5.5 0 0 1 .512.858L30.879 30.271 58.72 14.2a.5.5 0 0 1 .508.862l-10.435 6.274 9.927-5.731a.5.5 0 0 1 .509.861l-18.09 10.969L58.72 17.284a.5.5 0 0 1 .51.86L34.967 32.983 58.72 19.271a.5.5 0 0 1 .51.859L36.856 33.773 58.72 21.151a.5.5 0 0 1 .51.86L35.9 36.271l22.82-13.177a.5.5 0 0 1 .508.861l-8.147 4.9 7.639-4.41a.5.5 0 0 1 .51.86L36.7 39.1l22.02-12.71a.5.5 0 0 1 .507.861l-2.779 1.667 2.272-1.311a.5.5 0 0 1 .514.858L34.9 43.621l23.82-13.75a.5.5 0 0 1 .508.861l-.974.586.466-.268a.5.5 0 0 1 .511.858l-14.57 8.972 14.059-8.116a.5.5 0 0 1 .514.856l-17 10.624 16.486-9.516a.5.5 0 0 1 .512.858L49.049 41.88l9.671-5.58a.5.5 0 0 1 .514.856l-11.151 6.962 10.637-6.14a.5.5 0 0 1 .51.859l-.931.571.421-.243a.5.5 0 0 1 .517.856l-9.954 6.3 9.437-5.447a.5.5 0 0 1 .513.857l-1.109.688.6-.344a.5.5 0 0 1 .525.85l-11.053 7.3L58.72 44.15a.5.5 0 0 1 .517.855l-2.449 1.554 1.932-1.115a.5.5 0 0 1 .53.847l-7.622 5.147 7.092-4.093a.5.5 0 0 1 .539.84l-7.074 5.022 6.535-3.772a.5.5 0 0 1 .551.831l-5.636 4.271L58.72 51.6a.5.5 0 0 1 .543.837l-1.708 1.236L58.72 53a.5.5 0 0 1 .574.813l-2.312 1.965 1.725-.995a.5.5 0 0 1 .623.765l-1.32 1.485a.516.516 0 0 1 .475.248.5.5 0 0 1-.182.683l-2.376 1.371a.5.5 0 0 1-.623-.765l1.22-1.373L52.71 59.4a.5.5 0 0 1-.574-.813l2.311-1.965-4.812 2.778a.5.5 0 0 1-.543-.838l1.708-1.235-3.593 2.073a.5.5 0 0 1-.552-.831l5.637-4.269-8.839 5.1a.5.5 0 0 1-.539-.839l7.074-5.023L39.833 59.4a.5.5 0 0 1-.53-.846l7.617-5.145L36.543 59.4a.5.5 0 0 1-.518-.854l2.458-1.56L34.3 59.4a.5.5 0 0 1-.526-.849l11.049-7.3L30.711 59.4a.5.5 0 0 1-.514-.857l1.13-.7-2.7 1.557a.5.5 0 0 1-.678-.173.5.5 0 0 1 .16-.682l9.951-6.3L25.666 59.4a.5.5 0 0 1-.512-.859l.93-.569-2.475 1.428a.5.5 0 0 1-.514-.856l11.152-6.964L20.7 59.4a.5.5 0 0 1-.512-.858l10.179-6.292L17.98 59.4a.5.5 0 0 1-.514-.856l17-10.628L14.578 59.4a.5.5 0 0 1-.512-.858l14.573-8.973-17.03 9.831a.5.5 0 0 1-.25.07z" fill="#e1e9ef"/><path d="M3.113 9.5a.5.5 0 0 1-.313-.89l4.846-3.9L1.28 8.388a.5.5 0 0 1-.565-.821l3.671-2.992L1.28 6.367a.5.5 0 0 1-.562-.823l.965-.771-.377.217a.5.5 0 0 1-.614-.775l1.183-1.254a.5.5 0 0 1-.175-.928L4.073.661a.5.5 0 0 1 .614.776l-.925.981L6.915.6a.5.5 0 0 1 .563.823l-.966.772L9.275.6a.5.5 0 0 1 .566.82l-3.67 2.99L12.774.6a.5.5 0 0 1 .564.822L8.49 5.317 16.666.6a.5.5 0 0 1 .565.82L12.3 5.424 20.663.6a.5.5 0 0 1 .545.837l-3.336 2.429L23.534.6a.5.5 0 0 1 .552.831l-4.133 3.13L26.817.6a.5.5 0 0 1 .54.84l-2.686 1.914L29.445.6a.5.5 0 0 1 .533.844l-.887.608L31.607.6a.5.5 0 0 1 .562.823L27.4 5.229 35.42.6a.5.5 0 0 1 .537.841l-2.125 1.492L37.877.6a.5.5 0 0 1 .556.828l-4.4 3.4L41.353.6a.5.5 0 0 1 .537.841l-1.971 1.38L43.768.6a.5.5 0 0 1 .54.84l-2.6 1.852L46.369.6a.5.5 0 0 1 .557.827l-4.488 3.49L49.917.6a.5.5 0 0 1 .539.84l-2.494 1.77L52.484.6a.5.5 0 0 1 .539.84l-2.4 1.7L55 .611a.5.5 0 0 1 .556.828l-4.4 3.405L57.13 1.4a.5.5 0 0 1 .564.821L53.8 5.375l4.491-2.593a.5.5 0 0 1 .569.818l-2.4 1.992L58.7 4.3a.5.5 0 0 1 .608.782l-1.6 1.636 1.023-.591a.5.5 0 0 1 .739.538l-.328 1.52a.5.5 0 0 1 .106.911l-.539.311a.5.5 0 0 1-.738-.538l.283-1.312L55.046 9.4a.5.5 0 0 1-.608-.782l1.6-1.635-4.188 2.423a.5.5 0 0 1-.57-.817l2.4-1.991-4.867 2.81a.5.5 0 0 1-.565-.821l3.9-3.159-6.9 3.982a.5.5 0 0 1-.556-.828l4.4-3.4-7.336 4.23a.5.5 0 0 1-.539-.841l2.407-1.7-4.41 2.546a.5.5 0 0 1-.539-.841l2.5-1.772-4.531 2.61a.5.5 0 0 1-.557-.827L40.574 5.1l-7.481 4.316a.5.5 0 0 1-.54-.84l2.6-1.849-4.664 2.691a.5.5 0 0 1-.537-.842l1.976-1.383-3.857 2.226a.5.5 0 0 1-.555-.828l4.4-3.4-7.322 4.23a.5.5 0 0 1-.537-.842l2.129-1.5-4.052 2.343a.5.5 0 0 1-.562-.823l4.771-3.808-8.026 4.633a.5.5 0 0 1-.532-.845l.884-.605-2.515 1.451a.5.5 0 0 1-.54-.84L18.3 6.67l-4.777 2.757a.5.5 0 0 1-.551-.831l4.134-3.133-6.869 3.965a.5.5 0 0 1-.545-.837l3.335-2.431-5.664 3.27a.5.5 0 0 1-.563-.821l4.928-4-8.365 4.823a.491.491 0 0 1-.25.068z" fill="#243f60"/><path d="M10.314 34.065a.5.5 0 0 1-.266-.922l6.14-3.867-5.914 3.414a.5.5 0 0 1-.519-.853l8.8-5.641-8.3 4.789a.5.5 0 0 1-.519-.854L14.662 27l-5.82 3.359a.5.5 0 0 1-.525-.85L16.4 24.2l-8.9 5.138a.5.5 0 0 1-.519-.855l2.163-1.375-1.864 1.076a.5.5 0 0 1-.52-.853l2.624-1.692-2.1 1.214a.5.5 0 0 1-.537-.842l6.868-4.811-6.335 3.657a.5.5 0 0 1-.532-.845l2.958-2.025-2.426 1.4a.5.5 0 0 1-.551-.832l4.017-3.033-3.466 2a.5.5 0 0 1-.552-.83l1.725-1.315-1.173.677a.5.5 0 0 1-.593-.8l1.76-1.654-1.167.673a.5.5 0 0 1-.661-.717l.738-1.068a.519.519 0 0 1-.474-.248.5.5 0 0 1 .182-.682l1.657-.958a.5.5 0 0 1 .661.716l-.675.976 2.936-1.692a.5.5 0 0 1 .593.8l-1.759 1.661 4.256-2.461a.5.5 0 0 1 .553.83l-1.728 1.317 3.72-2.147a.5.5 0 0 1 .551.832l-4.016 3.031 6.692-3.863a.5.5 0 0 1 .532.845l-2.959 2.025 4.973-2.87a.5.5 0 0 1 .537.841l-6.873 4.812 9.792-5.653a.5.5 0 0 1 .52.852L24.4 17.144l4.41-2.546a.5.5 0 0 1 .519.854l-2.16 1.374 3.86-2.228a.5.5 0 0 1 .525.85l-8.085 5.307L34.137 14.6a.5.5 0 0 1 .518.854L29.718 18.6l6.926-4a.5.5 0 0 1 .519.853l-8.788 5.635 9.925-5.73a.5.5 0 0 1 .516.856l-6.123 3.854 6.027-3.478a.5.5 0 0 1 .525.85l-5.722 3.779 5.2-3a.5.5 0 0 1 .522.851l-1.589 1.03 1.064-.614a.5.5 0 0 1 .539.841l-5.322 3.761 4.783-2.761a.5.5 0 0 1 .561.824l-5.067 4.034 4.506-2.6a.5.5 0 0 1 .553.829L37.591 25.7l1.129-.651a.5.5 0 0 1 .581.807l-1.328 1.174.747-.431a.5.5 0 0 1 .661.717l-.781 1.132a.5.5 0 0 1 .573.231.5.5 0 0 1-.183.682l-1.8 1.041a.5.5 0 0 1-.661-.717l.766-1.105-3.166 1.82a.5.5 0 0 1-.581-.807l1.328-1.17-3.428 1.977a.5.5 0 0 1-.553-.829l1.686-1.293L28.9 30.4a.5.5 0 0 1-.561-.824l5.065-4.031L25 30.405a.5.5 0 0 1-.539-.841l5.317-3.764-7.973 4.6a.5.5 0 0 1-.523-.851l1.577-1.027-3.254 1.879a.5.5 0 0 1-.525-.849l5.726-3.782L10.564 34a.494.494 0 0 1-.25.065z" fill="#e83a47"/><path d="M50.5 51.484a.5.5 0 0 1-.25-.932l2.376-1.371a.5.5 0 1 1 .5.865l-2.376 1.371a.494.494 0 0 1-.25.067z" fill="#f2ba1d"/><path d="M48.641 55.456a.5.5 0 0 1-.428-.759l.319-.528-.934.54a.5.5 0 0 1-.6-.793l2.675-2.577-3.894 2.248a.5.5 0 0 1-.565-.82l2.6-2.122-3.515 2.029a.5.5 0 0 1-.549-.833l2.082-1.554L43.05 51.9a.5.5 0 0 1-.536-.842l.647-.452-1.386.8a.5.5 0 0 1-.554-.829l5.43-4.174-8.666 5a.5.5 0 0 1-.543-.838l7.329-5.3L34.142 51.4a.5.5 0 0 1-.53-.847l6.936-4.662L31 51.4a.5.5 0 0 1-.528-.847l9.31-6.254-12.3 7.1a.5.5 0 0 1-.53-.846l10.576-7.17L23.642 51.4a.5.5 0 0 1-.517-.855l1.649-1.038-2.657 1.533a.5.5 0 0 1-.523-.852l7.2-4.707-7.477 4.319a.5.5 0 0 1-.521-.853l4.075-2.637-3.591 2.073a.5.5 0 0 1-.537-.842l7.641-5.35-7.1 4.1a.5.5 0 0 1-.528-.848l2.258-1.513-1.73 1a.5.5 0 0 1-.552-.831l4.822-3.66L21.28 42.9a.5.5 0 0 1-.562-.823l2.887-2.308-2.325 1.343a.5.5 0 0 1-.6-.785l1.97-1.976-1.366.788a.5.5 0 0 1-.654-.727l.671-.924a.5.5 0 0 1-.232-.932l1.657-.956a.5.5 0 0 1 .621.1.5.5 0 0 1 .033.629l-.56.772 2.6-1.5a.5.5 0 0 1 .6.785l-1.971 1.976 4.784-2.762a.5.5 0 0 1 .563.823l-2.887 2.308 5.424-3.131a.5.5 0 0 1 .552.831l-4.826 3.663 7.785-4.494a.5.5 0 0 1 .529.847l-2.253 1.51 4.085-2.357a.5.5 0 0 1 .537.841l-7.64 5.35L41.426 35.6a.5.5 0 0 1 .521.852L37.861 39.1l6.058-3.5a.5.5 0 0 1 .523.851l-7.194 4.7 9.621-5.551a.5.5 0 0 1 .517.855L45.729 37.5l3.29-1.9a.5.5 0 0 1 .53.846l-10.577 7.169 13.057-7.538a.5.5 0 0 1 .529.848l-9.31 6.254 9.472-5.468a.5.5 0 0 1 .529.848l-6.932 4.66 6.4-3.7a.5.5 0 0 1 .543.838l-7.33 5.3 6.787-3.918a.5.5 0 0 1 .554.829l-5.429 4.173 4.878-2.811a.5.5 0 0 1 .536.842l-.644.45.108-.062a.5.5 0 0 1 .549.833l-2.084 1.555 1.535-.886a.5.5 0 0 1 .565.82l-2.6 2.12 2.036-1.175a.5.5 0 0 1 .6.793l-3.184 3.068a.5.5 0 0 1 .265.733l-.436.721a.5.5 0 0 1 .175.927l-1.245.72a.491.491 0 0 1-.255.067z" fill="#f2ba1d"/><g fill="#262626"><path d="M59.724 12.247C59.729 7.591 61.052-.312 53.932.71 37.9.731 21.867.67 5.834.71-1.97.468.7 9.729.276 14.759c.432 14.064-.861 28.448.491 42.36 4.32 4.767 19.946 1.091 26.763 2.173 44.886.073 29.564 5.818 32.194-47.045zM4.94 1.29h42.692c6.171-.268 11.956-.855 10.644 7.4H1.634c.066-2.715-.5-7.246 3.306-7.4zm53.336 53.328c.54 7.546-15.933 2.878-21.007 4.093H9.9c-6.3.842-9.043-1.176-8.172-7.748q.037-20.835-.106-41.654h56.654z"/><path d="M31.989 30.321c4.282.4 8.889.344 7.735-5.367-.364-6.342 2.336-11.682-6.793-10.275H9.9c-3.423-.424-4.107 2.909-3.62 5.592.636 3.157-2.074 10.25 3 10.052-1.231 7.805 5.8 1.768 8.852 0zm-20.182 3.12c-1.939 1.371-.373-3.917-1.5-3.762-4.365.142-2.028-5.882-2.582-8.613.215-1.837-1.059-6.025 1.865-5.745h25.79c5.283-.256 2.067 7.906 2.9 11.247.5 3.32-1.319 3.413-4.034 3.11-7.771.374-16.122-1.895-22.439 3.763zm29.621 18.083c.006.108.133.11.258.079a2.832 2.832 0 0 1-.112-.078c-.05-.001-.096.002-.146-.001z"/><path d="M53.733 37.941c-.094-2.842-3.245-2.484-5.249-2.456-8.635.13-17.326-.224-25.937.06-3.473.851-1.966 5.168-2.28 7.764.422 2.586-1.253 6.68 1.679 8.066 6.432.407 13-.009 19.482.149a.221.221 0 0 1 .021-.108c0 .011.044.052.125.109.2 0 .523-.061.112.078 3.4 2.052 9.839 7.412 9.063-.132 5.634-.917 2.025-9.471 2.984-13.53zm-1.466 11.118c-.024 2.118-2.338.732-3 2 0 .668.392 3.428-.68 3.262-2.116-1.042-4.05-2.884-6.249-3.816-6.2-.079-12.461.014-18.682-.02-3.753-.082-1.316-10-1.9-12.869.369-1.7 3.571-1.1 4.823-1.1h23.359c4.497-.301 1.521 9.497 2.329 12.543zM4.722 5.427c.589-.034 2.116.206 1.95-.715-.523-.503-3.437.105-1.95.715zm4.857.051a3.269 3.269 0 0 0 1.9-.16c1.334-1.389-3.435-.999-1.9.16zm4.833-.171c.636.007 2.206.271 2.267-.568-.526-.152-2.647-.239-2.267.568zm31.322.163c2.881-.317 6.346.656 8.95-.42.791-.988-11.984-.867-8.95.42zM30.237 20.4c11.956-1.03-14.635-.839-16.952-.8-4.277 1.657 15.353.458 16.952.8zm-6.53 4.969c4.608-1.095-10.919-1.06-11.375-.361 2.998 1.03 7.797.017 11.375.361z"/><path d="M47.066 40.476c-2.05.5-23.309-1.208-20.133 1.048 2.051-.498 23.31 1.208 20.133-1.048zm-8.788 5.1c-3.891.327-8.311-.663-11.955.4-.706.845 15.115.837 11.955-.4z"/></g></svg>