<svg height="512" viewBox="0 0 60 60" width="512" xmlns="http://www.w3.org/2000/svg"><path d="M37.477 19.5a.5.5 0 0 1-.25-.932l5.216-3.012a.5.5 0 0 1 .6.076.5.5 0 0 1 .087.6l-.779 1.405.07-.04a.5.5 0 0 1 .5.865l-1.631.938a.5.5 0 0 1-.687-.674l.779-1.407-3.655 2.111a.5.5 0 0 1-.25.07z" fill="#30a858"/><path d="M23.8 40.5a.5.5 0 0 1-.288-.909l4.119-2.9-4.353 2.509a.5.5 0 0 1-.544-.837l6.174-4.478-5.633 3.252a.5.5 0 0 1-.544-.837l6.185-4.487-5.644 3.257a.5.5 0 0 1-.546-.835l6.818-5.035-6.274 3.619a.5.5 0 0 1-.533-.845l3.178-2.174-2.648 1.528a.5.5 0 0 1-.53-.848L24.5 29.3l-1.23.71a.5.5 0 0 1-.546-.836l6.617-4.859-6.074 3.507a.5.5 0 0 1-.529-.847l6.342-4.25-5.82 3.357a.5.5 0 0 1-.527-.85l4.548-3.016-4.023 2.322a.5.5 0 0 1-.526-.85l3.368-2.227-2.845 1.639a.5.5 0 0 1-.534-.843l6.09-4.212-5.558 3.208a.5.5 0 0 1-.539-.841l6.377-4.523-6.079 3.511a.5.5 0 0 1-.547-.835l7.01-5.185-10.4 6.006a.5.5 0 0 1-.537-.842l7.607-5.334-8.686 5.014a.5.5 0 0 1-.53-.847l5.957-4.031-5.331 3.078a.5.5 0 0 1-.533-.845l6.035-4.149-2.936 1.694a.5.5 0 0 1-.547-.835l5.658-4.178L23.1 9.344a.5.5 0 0 1-.558-.827l3.172-2.471-.034.019a.5.5 0 0 1-.606-.784l2.866-2.9a.475.475 0 0 1-.094-.119.5.5 0 0 1 .182-.683L29.729.6a.5.5 0 0 1 .606.784L28.4 3.34l3.067-1.77a.5.5 0 0 1 .557.827l-3.168 2.466L32.433 2.8a.5.5 0 0 1 .546.835l-5.662 4.18 6.232-3.6a.5.5 0 0 1 .533.845l-6.034 4.15 6.484-3.743a.5.5 0 0 1 .53.846L29.1 10.351l6.382-3.684a.5.5 0 0 1 .537.842l-7.6 5.33 8.2-4.733a.5.5 0 0 1 .547.835l-7.012 5.187 7.7-4.447a.5.5 0 0 1 .539.84l-6.377 4.524 6.918-3.993a.5.5 0 0 1 .534.844l-6.09 4.211 6.556-3.784a.5.5 0 0 1 .525.85L37.088 15.4l3.62-2.089a.5.5 0 0 1 .526.849l-4.547 3.017 4.857-2.8a.5.5 0 0 1 .528.848l-6.336 4.245.985-.568a.5.5 0 0 1 .546.836l-6.618 4.859 6.075-3.507a.5.5 0 0 1 .529.848l-1.767 1.186 1.24-.715a.5.5 0 0 1 .532.846l-3.166 2.166 2.636-1.521a.5.5 0 0 1 .546.834l-6.818 5.037 6.274-3.622a.5.5 0 0 1 .544.836l-6.188 4.491 5.647-3.26a.5.5 0 0 1 .544.837L31.1 33.526l5.632-3.252a.5.5 0 0 1 .538.842l-4.119 2.9 3.584-2.069a.5.5 0 0 1 .54.84l-2.053 1.463 1.519-.877a.5.5 0 0 1 .562.824l-2.495 1.983 1.935-1.117a.5.5 0 0 1 .559.826l-.365.285a.508.508 0 0 1 .459.2.5.5 0 0 1-.059.662l-.445.418a.51.51 0 0 1 .406.09.5.5 0 0 1 .184.519l-.285 1.16a.511.511 0 0 1 .237.21.5.5 0 0 1-.184.683l-.5.289a.5.5 0 0 1-.551-.034.5.5 0 0 1-.184-.518l.218-.89-2.511 1.447a.5.5 0 0 1-.592-.8l.367-.345-1.987 1.15a.5.5 0 0 1-.559-.826l.138-.108-1.625.938a.5.5 0 0 1-.564-.819l2.5-1.987-4.872 2.813a.5.5 0 0 1-.54-.84l2.059-1.463-4 2.308a.491.491 0 0 1-.247.069z" fill="#30a858"/><g fill="#39c96c"><path d="M24.477 42.5a.5.5 0 0 1-.25-.933l5.215-3.01a.5.5 0 0 1 .639.747l-.727.9.3-.174a.5.5 0 0 1 .5.866l-2.627 1.516a.5.5 0 0 1-.638-.747l.726-.9-2.89 1.668a.5.5 0 0 1-.248.067z"/><path d="M13.415 59.47a.5.5 0 0 1-.3-.9l3.335-2.457-5.212 3.009a.5.5 0 0 1-.545-.836l5.538-4.054-5.931 3.423a.5.5 0 0 1-.532-.845l2.92-1.993-2.409 1.391a.5.5 0 0 1-.546-.836l6.557-4.808-6.015 3.473a.5.5 0 0 1-.537-.842l4.543-3.179-4.011 2.314a.5.5 0 0 1-.534-.845l8.781-6.022-8.251 4.763a.5.5 0 0 1-.526-.85l4.488-2.959-3.965 2.289a.5.5 0 0 1-.529-.849l5.089-3.4-4.563 2.632a.5.5 0 0 1-.539-.841l7.665-5.421-7.131 4.117a.5.5 0 0 1-.523-.851l.415-.271a.5.5 0 0 1-.433-.886l6.142-4.359L9.229 42.4a.5.5 0 0 1-.539-.84l6.062-4.3L5.9 42.373a.5.5 0 0 1-.521-.852l.434-.281-.973.56a.5.5 0 0 1-.532-.846l6.784-4.644-6.8 3.925a.5.5 0 0 1-.528-.847l4.94-3.317-2.829 1.638a.5.5 0 0 1-.543-.838l6.652-4.818-3.035 1.752a.5.5 0 0 1-.553-.83l4.227-3.233-.872.5a.5.5 0 0 1-.553-.83l1.922-1.464a.5.5 0 0 1-.138-.819l1.905-1.8a.33.33 0 0 1-.042-.061.5.5 0 0 1 .182-.683l1.706-.985a.5.5 0 0 1 .594.8l-.577.545 1.361-.785a.5.5 0 0 1 .553.83l-.619.472.767-.442a.5.5 0 0 1 .554.83l-4.225 3.231 4.722-2.726a.5.5 0 0 1 .543.838l-6.651 4.817 7.261-4.192a.5.5 0 0 1 .528.848L16.6 31.979l5.288-3.053a.5.5 0 0 1 .532.845l-6.784 4.643 7.269-4.2a.5.5 0 0 1 .522.852l-.427.285.554-.32a.5.5 0 0 1 .539.841l-6.065 4.3 6.581-3.8a.5.5 0 0 1 .54.841l-6.139 4.356 6.662-3.846a.5.5 0 0 1 .522.851l-.213.14.325-.188a.5.5 0 0 1 .539.841l-7.666 5.421L27.463 36a.5.5 0 0 1 .528.849l-5.083 3.4 5.431-3.135a.5.5 0 0 1 .525.85l-4.5 2.965 4.794-2.768a.5.5 0 0 1 .533.845l-8.774 6.018 2.8-1.615a.5.5 0 0 1 .537.842l-4.541 3.179 4-2.312a.5.5 0 0 1 .546.836L17.7 50.763l6.013-3.471a.5.5 0 0 1 .532.846l-2.927 2 2.395-1.382a.5.5 0 0 1 .545.836l-5.533 4.05 4.995-2.882a.5.5 0 0 1 .547.835l-3.338 2.46 2.791-1.612a.5.5 0 0 1 .574.814L21.3 55.81l2.418-1.4a.5.5 0 0 1 .64.745l-1.64 2.05 1-.574a.5.5 0 0 1 .5.865L20.92 59.4a.5.5 0 0 1-.641-.745l1.642-2.051-4.844 2.8a.5.5 0 0 1-.574-.813l2.99-2.551-5.828 3.36a.493.493 0 0 1-.25.07zM50.477 42.5a.5.5 0 0 1-.25-.933l5.215-3.01a.5.5 0 0 1 .628.76l-.642.74.255-.147a.5.5 0 0 1 .5.865l-2.837 1.638a.5.5 0 0 1-.628-.761l.642-.74-2.633 1.521a.5.5 0 0 1-.25.067z"/><path d="M40.087 59.47a.5.5 0 0 1-.315-.889l4.911-3.968-7.614 4.4a.5.5 0 0 1-.531-.846L38.4 56.9l-2.012 1.162a.5.5 0 0 1-.529-.848l1.4-.94-.977.564A.5.5 0 0 1 35.74 56l5.189-3.679-4.654 2.687a.5.5 0 0 1-.534-.844l3.82-2.64-3.289 1.9a.5.5 0 0 1-.54-.84l5.481-3.91-4.944 2.854a.5.5 0 0 1-.525-.85l4.7-3.087L36.266 50a.5.5 0 0 1-.53-.848l6.164-4.144-5.638 3.256a.5.5 0 0 1-.523-.852l1.666-1.082-1.146.661a.5.5 0 0 1-.527-.849l3.519-2.335-2.995 1.728a.5.5 0 0 1-.543-.838l7.78-5.634-7.241 4.18a.5.5 0 0 1-.537-.842l5.393-3.786-6.56 3.785a.5.5 0 0 1-.528-.848l3-2.009-4.92 2.847a.5.5 0 0 1-.535-.843l7.158-4.978-8.223 4.746a.5.5 0 0 1-.532-.844l6.845-4.693-6.22 3.591a.5.5 0 0 1-.538-.842l7.221-5.085-3.741 2.158a.5.5 0 0 1-.55-.833L38.54 30.6l-1.96 1.13a.5.5 0 0 1-.574-.813l3.78-3.218-.059.034a.5.5 0 0 1-.591-.8l1.739-1.624a.466.466 0 0 1-.03-.047.5.5 0 0 1 .182-.683l1.706-.985a.5.5 0 0 1 .591.8l-.3.282 1.019-.588a.5.5 0 0 1 .574.813l-3.78 3.218 4.415-2.549a.5.5 0 0 1 .55.833l-5.557 4.168 6.15-3.55a.5.5 0 0 1 .538.842l-7.219 5.083 7.8-4.5a.5.5 0 0 1 .532.845L41.2 33.98l7.334-4.234a.5.5 0 0 1 .535.843l-7.161 4.979 7.706-4.449a.5.5 0 0 1 .529.849l-3.007 2.011 3.256-1.879a.5.5 0 0 1 .537.841l-5.39 3.784 5.84-3.372a.5.5 0 0 1 .543.838l-7.784 5.638 8.483-4.9a.5.5 0 0 1 .526.849l-3.51 2.33 3.772-2.177a.5.5 0 0 1 .523.851l-1.664 1.081 1.832-1.051a.5.5 0 0 1 .529.847L48.466 41.8l6.573-3.8a.5.5 0 0 1 .524.85l-5.6 3.68a.517.517 0 0 1 .432.23.5.5 0 0 1-.131.677l-5.479 3.91L49.72 44.5a.5.5 0 0 1 .534.844l-3.815 2.636 3.281-1.893a.5.5 0 0 1 .539.841l-5.187 3.677 4.648-2.683a.5.5 0 0 1 .528.848l-1.408.944.88-.508a.5.5 0 0 1 .531.846l-1.866 1.268 1.335-.77a.5.5 0 0 1 .564.821l-4.909 3.967 4.345-2.508a.5.5 0 0 1 .581.808l-2.719 2.4L49.72 54.8a.5.5 0 0 1 .622.766l-1.254 1.4.629-.363a.5.5 0 0 1 .5.866L46.871 59.4a.5.5 0 0 1-.622-.766l1.253-1.4-3.748 2.166a.5.5 0 0 1-.581-.807l2.719-2.4-5.555 3.207a.493.493 0 0 1-.25.07z"/></g><path d="M21.036 26.76c-5.412-9.578-11.41 6.4-15.646 9.859-4.327 4.112-1.173 6.728 3.882 5.847 0 4.905-.006 9.837 0 14.728.223 2.771 3.439 2.26 5.386 2.26C30 61.09 23.381 53.964 24.728 42.49c1.781.076 3.871.344 5.164-.836 1.187 1.217 3.718.872 5.381.8 0 4.908-.005 9.844 0 14.738.223 2.765 3.442 2.25 5.384 2.25 15.343 1.64 8.724-5.488 10.07-16.962 13.657 1.047-1.017-11.157-3.69-15.717-3.318-6.047-6.567-2.146-9.313 1.82v-9.138c3.27.817 8.218-1.324 4.883-4.795C38.657 10.2 35.586 4.6 31.153.734c-5.048-.446-9.006 9.6-12.7 12.832-4.363 4.136-1.332 6.741 3.821 5.854v8.914zm7.216 14.786c-1.506.33-3.885-.68-4.98.531v11.548c.928 6.108-1.495 4.88-6.252 4.921-2.034-.367-5.8 1.161-6.292-1.72v-14.9c-1.252-1.215-4.171.52-5.564-.906-1.951-2.33 9.187-13.051 10.921-16.17 2.315-1.285 4.573 4.573 6.279 5.892 1.105 2.624 9.336 8.599 5.888 10.804zm13.832-16.7c2.5-1.4 8.289 9.515 10.635 11.428 1.524 1.392 4.5 5.645.372 5.287-1.164.217-3.055-.54-3.818.524-.448 5.265.885 11.18-.446 16.188-.525.489-1.573.288-2.212.288-14.937 1.075-8.625-2.287-9.889-16.637-1.267-1.188-4.172.53-5.562-.9-2.003-2.224 9.188-13.124 10.92-16.183zm-18.8-6.252c-3.444.336-7.925-.153-4.063-4.249 3.35-4.107 6.485-8.467 9.86-12.523 2.513-1.363 8.229 9.436 10.574 11.355.948 1.408 4.033 3.768 1.846 5.317-1.525.591-4.194-.72-5.224.7.819 7.638-.314 13.724-6.2 19.04-8.383-8.602-5.506-9.921-6.795-19.645z" fill="#262626"/></svg>