<svg height="512" viewBox="0 0 60 60" width="512" xmlns="http://www.w3.org/2000/svg"><path d="M30.685 12.69a.5.5 0 0 1-.3-.9l3.689-2.813a.5.5 0 0 1 .019-.856l4.568-2.637a.5.5 0 0 1 .553.83L37.2 7.853l5.575-3.218a.5.5 0 0 1 .5.866l-12.34 7.122a.5.5 0 0 1-.25.067z" fill="#d83563"/><path d="M29.419 55.336a.5.5 0 0 1-.311-.892l.6-.472-.908.528a.5.5 0 0 1-.554-.829l5.937-4.55-6.818 3.929a.5.5 0 0 1-.53-.847l5.743-3.884-6.3 3.635a.5.5 0 0 1-.52-.853l4.228-2.719-4.608 2.66a.5.5 0 0 1-.516-.856l2.2-1.376-2.475 1.428a.5.5 0 0 1-.514-.857l3.57-2.221-3.882 2.24a.5.5 0 0 1-.517-.855l11.583-7.309-12.183 7.035a.5.5 0 0 1-.52-.853L39.05 36.6 21.264 46.874a.5.5 0 0 1-.511-.859l3.9-2.384-4.2 2.423a.5.5 0 0 1-.517-.856l17.619-11.135L19.12 44.705a.5.5 0 0 1-.511-.859L26 39.316 18.229 43.8a.5.5 0 0 1-.516-.856l19.01-11.982L16.87 42.428a.5.5 0 0 1-.51-.861l3.357-2.038-3.637 2.1a.5.5 0 0 1-.514-.858l14.924-9.245-15.532 8.967a.5.5 0 0 1-.514-.857l16.82-10.458-17.5 10.1a.5.5 0 0 1-.51-.86l5.583-3.393-5.906 3.409a.5.5 0 0 1-.516-.856l20.322-12.753-21.178 12.228a.5.5 0 0 1-.51-.86l6.966-4.24-7.315 4.226a.5.5 0 0 1-.511-.859L23.7 27 9.644 35.114a.5.5 0 0 1-.517-.855l21-13.22L8.228 33.681a.5.5 0 0 1-.511-.86l8.3-5.068-8.689 5.018a.5.5 0 0 1-.515-.856L24.47 20.893 6.081 31.509a.5.5 0 0 1-.513-.859l11.752-7.237L5.1 30.471a.5.5 0 0 1-.511-.86l6.921-4.232-7.192 4.149a.5.5 0 0 1-.522-.852l9.673-6.287-10.042 5.8a.5.5 0 0 1-.52-.854l7.36-4.719-7.51 4.334a.5.5 0 0 1-.517-.856l3.629-2.289L2.3 25.867a.5.5 0 0 1-.526-.85l10.664-7.052-10.691 6.171a.5.5 0 0 1-.529-.848l11.334-7.625-11.17 6.449a.5.5 0 0 1-.529-.848l10-6.727-9.562 5.517a.5.5 0 0 1-.518-.854l.518-.328a.5.5 0 0 1-.446-.889L3.453 16.3l-1.871 1.08a.5.5 0 0 1-.532-.845l6.259-4.278-5.119 2.954a.5.5 0 0 1-.55-.833l6.319-4.751-4.19 2.42a.5.5 0 0 1-.559-.826l2.8-2.2a.5.5 0 0 1-.064-.9l4.564-2.633a.5.5 0 0 1 .558.826l-1.74 1.369L14.6 4.637a.5.5 0 0 1 .55.832L8.835 10.22l9.372-5.411a.5.5 0 0 1 .532.846l-6.257 4.276 7.953-4.591a.5.5 0 0 1 .521.853l-2.605 1.682 3.468-2a.5.5 0 0 1 .518.855l-.38.24.969-.559a.5.5 0 0 1 .529.848l-10 6.729 11.2-6.469a.5.5 0 0 1 .529.848l-11.327 7.622 12.351-7.13a.5.5 0 0 1 .525.85L16.07 16.761l11.435-6.6a.5.5 0 0 1 .516.856l-3.632 2.291 3.969-2.292a.5.5 0 0 1 .52.854l-7.358 4.716 7.867-4.542a.5.5 0 0 1 .522.853l-9.671 6.286L45.357 4.68a.5.5 0 0 1 .511.86l-6.914 4.227 8.287-4.785a.5.5 0 0 1 .513.859l-11.748 7.236L49.09 5.523a.5.5 0 0 1 .514.857L31.952 17.4 51.027 6.387a.5.5 0 0 1 .511.86l-8.321 5.079 9.022-5.21a.5.5 0 0 1 .517.857L31.761 21.19 53.885 8.417a.5.5 0 0 1 .511.859l-13.511 8.318 14.048-8.111a.5.5 0 0 1 .509.861l-6.972 4.243 7.23-4.173a.5.5 0 0 1 .516.857L35.891 24.027l20.841-12.033a.5.5 0 0 1 .51.86l-5.586 3.4 5.608-3.238a.5.5 0 0 1 .513.858L40.949 24.333l16.938-9.779a.5.5 0 0 1 .513.859l-14.926 9.246 14.849-8.573a.5.5 0 0 1 .51.86l-3.357 2.039 3.063-1.769a.5.5 0 0 1 .517.856l-19 11.976 18.656-10.772a.5.5 0 0 1 .511.86l-7.405 4.536 6.85-3.954a.5.5 0 0 1 .518.856L41.564 32.711l16.741-9.665a.5.5 0 0 1 .51.86l-3.879 2.373 2.915-1.679a.5.5 0 0 1 .519.854L41.438 36.267l14.949-8.631a.5.5 0 0 1 .516.856l-11.595 7.316 8.186-4.726a.5.5 0 0 1 .514.857l-3.534 2.2a.5.5 0 0 1 .514.857l-3.221 2.02a.5.5 0 0 1 .321.918l-4.226 2.716.412-.237a.5.5 0 0 1 .531.847l-5.741 3.882 1.252-.723a.5.5 0 0 1 .554.829L34.929 49.8l.16-.092a.5.5 0 0 1 .56.824L32.79 52.8a.55.55 0 0 1 .043.064.5.5 0 0 1-.183.683l-2.981 1.721a.5.5 0 0 1-.25.068z" fill="#d83563"/><path d="M27.841 45.242a.5.5 0 0 1-.28-.914l1.639-1.111-2.678 1.546a.5.5 0 0 1-.539-.842l5.441-3.829-6.184 3.57a.5.5 0 0 1-.539-.841l6.976-4.945-7.6 4.39a.5.5 0 0 1-.53-.847l4.42-3-4.82 2.782a.5.5 0 0 1-.541-.839l7.219-5.18-7.978 4.606a.5.5 0 0 1-.53-.847l4.093-2.768-4.523 2.611a.5.5 0 0 1-.524-.85l1.006-.66L20.11 38a.5.5 0 0 1-.542-.839l7.225-5.2-8.071 4.66a.5.5 0 0 1-.531-.847L22.294 33l-4.587 2.647a.5.5 0 0 1-.53-.846l4.043-2.731-4.537 2.619a.5.5 0 0 1-.525-.85l1.652-1.087-2 1.152a.5.5 0 0 1-.532-.845l4.822-3.288-4.307 2.486a.5.5 0 0 1-.526-.85l1.524-1.007-.951.549a.5.5 0 0 1-.533-.845l3.544-2.438-2.951 1.701a.5.5 0 0 1-.55-.833l5.922-4.452-5.29 3.053a.5.5 0 0 1-.543-.837l2.361-1.719-1.765 1.021a.5.5 0 0 1-.564-.822l2.489-2.013-1.86 1.072a.5.5 0 0 1-.631-.756l1.837-2.162-1.123.649a.5.5 0 0 1-.723-.6l.279-.811a.491.491 0 0 1-.187-.186.5.5 0 0 1 .182-.683l.542-.313a.5.5 0 0 1 .723.6l-.158.458 2.468-1.424a.5.5 0 0 1 .63.757l-1.839 2.16 4.889-2.826a.5.5 0 0 1 .565.821l-2.492 2.015 4.472-2.582a.5.5 0 0 1 .544.837l-2.361 1.717 4.192-2.42a.5.5 0 0 1 .551.832l-5.921 4.452 6.755-3.9a.5.5 0 0 1 .533.845l-3.545 2.44 3.992-2.3a.5.5 0 0 1 .527.849l-1.53 1.014 1.818-1.049a.5.5 0 0 1 .532.846L26.8 26.405l5.339-3.082a.5.5 0 0 1 .524.851l-1.645 1.082 1.937-1.118a.5.5 0 0 1 .53.847l-4.049 2.737 4.5-2.6a.5.5 0 0 1 .531.847l-4.1 2.773 4.558-2.631a.5.5 0 0 1 .542.839l-7.225 5.2 8.064-4.656a.5.5 0 0 1 .524.851l-1 .657 1.261-.728a.5.5 0 0 1 .53.847l-4.1 2.77 4.554-2.629a.5.5 0 0 1 .541.839l-7.217 5.178 8.048-4.647a.5.5 0 0 1 .53.848l-4.42 3 4.9-2.831a.5.5 0 0 1 .539.84l-6.963 4.941 6.54-3.776a.5.5 0 0 1 .538.842l-5.447 3.834 4.99-2.881a.5.5 0 0 1 .531.847L39.553 37.4l.155-.09a.5.5 0 0 1 .5.866l-12.117 7a.494.494 0 0 1-.25.066z" fill="#f6d0b3"/><path d="M40.553 33.953a.5.5 0 0 1-.322-.883l.324-.271-.409.235a.5.5 0 0 1-.565-.82l.544-.443-.75.432a.5.5 0 0 1-.563-.823l1.01-.807-1.277.737a.5.5 0 0 1-.557-.828l1.268-.986-1.56.9a.5.5 0 0 1-.548-.835l.8-.592-1.026.593a.5.5 0 0 1-.566-.821l3.828-3.117-4.5 2.6a.5.5 0 0 1-.563-.824l4.615-3.695-5.37 3.1a.5.5 0 0 1-.571-.817l3.369-2.823-4.025 2.325a.5.5 0 0 1-.55-.834l.5-.372-.7.4a.5.5 0 0 1-.594-.8l2.261-2.142-3.328 1.92a.5.5 0 0 1-.5-.866l7-4.04a.5.5 0 0 1 .593.8L35.562 21.7l4.276-2.469a.5.5 0 0 1 .55.834l-.495.37 1.733-1a.5.5 0 0 1 .571.816l-3.368 2.823 6.108-3.527a.5.5 0 0 1 .562.824l-4.616 3.7 4.207-2.428a.5.5 0 0 1 .565.82l-3.827 3.117 3.24-1.87a.5.5 0 0 1 .548.835l-.8.592.241-.139a.5.5 0 0 1 .556.828l-1.268.986.7-.4a.5.5 0 0 1 .563.824l-1.01.807.432-.25a.5.5 0 0 1 .566.821l-.549.447a.5.5 0 0 1 .541.833l-.436.364a.5.5 0 0 1 .352.923l-4.7 2.712a.491.491 0 0 1-.251.06z" fill="#e7bda0"/><path d="M24.263 28.108a.5.5 0 0 1-.283-.913l1.6-1.093-2.7 1.558a.5.5 0 0 1-.533-.845l2.059-1.415-2.389 1.38a.5.5 0 0 1-.546-.836l4.091-3.008-3.929 2.27a.5.5 0 0 1-.533-.846l.841-.578a.5.5 0 0 1-.291-.89L26.9 18.7a.5.5 0 0 1 .187-.677l2.413-1.396a.5.5 0 0 1 .563.824l-2.619 2.092 4.263-2.46a.5.5 0 0 1 .533.845l-.016.011.7-.4a.5.5 0 0 1 .546.836l-4.1 3.006 5.55-3.2a.5.5 0 0 1 .533.845l-2.059 1.416 3.169-1.83a.5.5 0 0 1 .533.846l-10.15 6.928a.5.5 0 0 1-.249.4l-2.184 1.262a.5.5 0 0 1-.25.06z" fill="#e7bda0"/><path d="M49.84 35.47a.5.5 0 0 1-.335-.871l.98-.884-2.9 1.672a.5.5 0 0 1-.563-.824l4.757-3.809-5.841 3.372a.5.5 0 0 1-.545-.836l5.066-3.7-4.8 2.768a.5.5 0 0 1-.55-.833l6.664-4.981-6.366 3.676a.5.5 0 0 1-.548-.834l6.858-5.1-6.563 3.789a.5.5 0 0 1-.526-.85l.753-.5-.361.208a.5.5 0 0 1-.555-.829l5.135-3.97-4.81 2.778a.5.5 0 0 1-.575-.812l3.448-2.957-3.1 1.793a.5.5 0 0 1-.594-.8l1.655-1.571-1.255.724a.5.5 0 0 1-.669-.706l.727-1.112a.5.5 0 0 1-.364-.92l1.654-.955a.5.5 0 0 1 .669.707l-.7 1.072 3.1-1.789a.5.5 0 0 1 .594.8l-1.656 1.572 4.112-2.374a.5.5 0 0 1 .575.812l-3.447 2.957 6.54-3.777a.5.5 0 0 1 .556.829l-5.129 3.971 7.7-4.447a.5.5 0 0 1 .526.849l-.754.5.297-.178a.5.5 0 0 1 .548.835l-6.855 5.1 6.2-3.58a.5.5 0 0 1 .55.834l-6.665 4.981 5.546-3.2a.5.5 0 0 1 .545.837l-5.069 3.7 3.481-2.007a.5.5 0 0 1 .563.823l-4.758 3.81 1.3-.752a.5.5 0 0 1 .585.8l-3.194 2.88a.5.5 0 0 1-.231.569l-1.16.67a.49.49 0 0 1-.246.07zm-37.569.003a.5.5 0 0 1-.361-.847l.919-.956L9.9 35.364a.5.5 0 0 1-.566-.82l1.323-1.077-1.676.968a.5.5 0 0 1-.576-.813l3.221-2.751-3.933 2.267a.5.5 0 0 1-.565-.822l4-3.249-4.747 2.743a.5.5 0 0 1-.555-.829l4.507-3.472-5.2 3a.5.5 0 0 1-.544-.838l4.323-3.15-4.77 2.755a.5.5 0 0 1-.551-.833l6.294-4.732-6.78 3.914a.5.5 0 0 1-.528-.848l.886-.594-.832.48a.5.5 0 0 1-.561-.825l5.016-3.977-5.143 2.97a.5.5 0 0 1-.563-.823l2.861-2.3-2.69 1.553A.5.5 0 0 1 1 22.433l.323-.249a.5.5 0 0 1-.551-.8l1.187-1.3-.669.387a.5.5 0 0 1-.727-.581L.9 18.782a.5.5 0 0 1-.022-.882l.529-.306a.5.5 0 0 1 .728.581l-.244.789L4.264 17.6a.5.5 0 0 1 .619.77L3.7 19.664 7.276 17.6a.5.5 0 0 1 .556.829l-.291.224L9.365 17.6a.5.5 0 0 1 .564.822l-2.86 2.3 5.408-3.122a.5.5 0 0 1 .56.824L8.021 22.4l7.779-4.494a.5.5 0 0 1 .528.848l-.88.591 1.077-.622a.5.5 0 0 1 .551.832l-6.294 4.732 5.788-3.342a.5.5 0 0 1 .544.838l-4.325 3.152 3.554-2.053a.5.5 0 0 1 .554.829l-4.5 3.472 3.7-2.135a.5.5 0 0 1 .565.822l-4.005 3.251 3.176-1.834a.5.5 0 0 1 .575.814l-3.219 2.75 2.387-1.379a.5.5 0 0 1 .566.821l-1.322 1.076.572-.33a.5.5 0 0 1 .61.779l-.92.956.113-.064a.5.5 0 1 1 .5.865l-3.169 1.83a.5.5 0 0 1-.255.068z" fill="#9b1f4c"/><path d="M3.93 30.068c7.546 7.88 15.373 15.515 23 23.332 1.181 1.748 3.329 2.639 4.957.876 6.261-6.269 12.439-12.626 18.686-18.911.248-.074.487-.223.473-.479 4.954-4.394 9.702-10.263 8.477-17.164C57.741 2.876 38.143.743 30.159 12.069 17.152-5.556-9.587 11.892 3.93 30.068zM1.728 20.1a14.45 14.45 0 0 1 .087-1.8c4.152-.01 8.307-.064 12.458.005 2.716.044 1.879 3.082 1.675 4.814-.439 3.518-.768 6.887-1.235 10.422-.407 2.114-2.951.867-4.427 1.152C6.124 30.667 1.71 26.328 1.728 20.1zm41.9 3.229.9 7.653a13.7 13.7 0 0 1-3.221 2.445c-2.452-3.379-5.718-6.186-8.45-9.358a2.8 2.8 0 0 0-4.325-.245c-1.344 1.03-2.311 2.618-3.882 3.283-1.519.458-2.755-1.175-2.566-2.629.613-2.235 3.2-3.338 4.684-4.992h-.01c1.314-.81 1.863-2.48 3.714-2.044A37.6 37.6 0 0 0 43.3 20.3c.028 1.012.228 2.022.328 3.032zm-18.759-3.3c-2.48 2.009-7.05 5.728-2.033 7.865 2.375.612 3.966-1.236 5.5-2.679.8-.748 1.542-2.028 2.663-1.152 2.811 3.118 5.847 6.094 8.573 9.284 3.324 5.217-7.066 7.9-10.083 10.668-2.333 1.319-3.809-1.04-5.127-2.564a95.623 95.623 0 0 0-8.216-8.3c.538-4.545 1.276-9.154 1.5-13.713a28.292 28.292 0 0 1 7.621.225l-.398.368zm7.663 32.4c-.856.745-2.032 3.163-3.2 1.539L10.947 35.364c1.655.056 3.577.01 4.583-1 2.3 2.111 4.519 4.31 6.6 6.629 1.819 2.7 4.784 5.585 8.133 3.39 3.308-2.714 12.156-5.19 11.315-10.227a19.271 19.271 0 0 0 3.079-2.041c-.139 2.858 2.047 3.739 4.632 3.353zm21.451-21.71-3.791 3.837c-2.1.095-4.106.3-4.037-2.454l-1.321-11.226c-.1-.871-.3-2.247.9-2.436 4.128-.038 8.289.026 12.43 0a15.189 15.189 0 0 1-4.181 12.281zM13.1 5.477c6.613-1.359 12.165 2.855 16.214 7.605 2.019.137 3.293-2.774 4.852-3.862 7.84-8.22 22.427-2.505 23.873 8.338-3.595.666-13.343-1.86-14.646 2.009A36.966 36.966 0 0 1 32.2 17.029c-2.62-1.022-4.426.426-6.253 2.051a27.026 27.026 0 0 0-8.392-.038c-.894-2.726-12.541-.807-15.674-1.348.844-5.879 5.16-11.179 11.219-12.217z" fill="#262626"/></svg>